<svg viewBox="0 0 23 19" fill="none" xmlns="http://www.w3.org/2000/svg">
    <path fill="currentColor" d="M4.73678 9.95638C10.9561 13.5636 11.7339 13.5637 17.9532 9.95638C24.1726 6.3491 24.1726 6.3491 17.9532 2.74183C11.7339 -0.865436 10.9561 -0.865446 4.73678 2.74183C1.62711 4.54547 0.0722656 5.44729 0.0722656 6.34911V14.4655C0.0722656 14.9635 0.476023 15.3673 0.974084 15.3673C1.47214 15.3673 1.8759 14.9635 1.8759 14.4655L1.8759 8.57971C1.8759 8.43679 2.03439 8.35027 2.15544 8.42626C2.84479 8.85901 3.70524 9.35808 4.73678 9.95638Z"></path>
    <path fill="currentColor" d="M4.73678 10.8583C10.9561 14.4655 11.7339 14.4655 17.9532 10.8583L18.308 10.6524C18.5895 10.489 18.9445 10.6682 18.9652 10.9931C18.9965 11.4841 19.0104 12.0377 19.0104 12.6618C19.0104 17.1709 17.2068 18.0728 11.314 18.0728C5.02702 18.0728 3.67954 17.1709 3.67954 12.6618C3.67954 12.038 3.69291 11.4846 3.72307 10.9938C3.74307 10.6682 4.09864 10.4879 4.38077 10.6517L4.73678 10.8583Z"></path>
</svg>