<svg viewBox="0 0 22 22" fill="none" xmlns="http://www.w3.org/2000/svg">
    <path class="fill-current text-biscay-700 dark:text-gray-900 dark:group-hover:text-dark-920 group-hover:text-biscay-300" fill-rule="evenodd" clip-rule="evenodd" d="M19.1705 14.9551L18.4657 9.27669C18.0363 7.25046 16.8211 6.41663 15.6626 6.41663H6.35407C5.17937 6.41663 3.92365 7.1921 3.55909 9.27669L2.84616 14.9551C2.26286 19.1243 4.40973 20.1666 7.21282 20.1666H14.8119C17.6069 20.1666 19.689 18.6574 19.1705 14.9551ZM8.33901 11.1362C7.89158 11.1362 7.52887 10.7629 7.52887 10.3024C7.52887 9.84187 7.89158 9.46855 8.33901 9.46855C8.78644 9.46855 9.14915 9.84187 9.14915 10.3024C9.14915 10.7629 8.78644 11.1362 8.33901 11.1362ZM12.8353 10.3024C12.8353 10.7629 13.198 11.1362 13.6454 11.1362C14.0928 11.1362 14.4555 10.7629 14.4555 10.3024C14.4555 9.84187 14.0928 9.46855 13.6454 9.46855C13.198 9.46855 12.8353 9.84187 12.8353 10.3024Z"></path>
    <path class="fill-current text-biscay-700 dark:text-gray-900 dark:group-hover:text-dark-920 group-hover:text-biscay-300" opacity="0.4" d="M15.5594 6.20972C15.5623 6.28082 15.5486 6.35162 15.5195 6.41658H14.2021C14.1766 6.35053 14.1631 6.28049 14.1622 6.20972C14.1622 4.45201 12.7324 3.0271 10.9686 3.0271C9.20486 3.0271 7.77504 4.45201 7.77504 6.20972C7.78713 6.27815 7.78713 6.34815 7.77504 6.41658H6.42575C6.41367 6.34815 6.41367 6.27815 6.42575 6.20972C6.52827 3.76367 8.54793 1.83325 11.0046 1.83325C13.4612 1.83325 15.4808 3.76367 15.5834 6.20972H15.5594Z"></path>
</svg>