<svg viewBox="0 0 18 18" fill="none" xmlns="http://www.w3.org/2000/svg">
    <path stroke="currentColor" d="M12.5332 8.22481L8.84688 11.9111M8.84688 11.9111L5.16055 8.22481M8.84688 11.9111L8.84688 1.58942" stroke-width="1.278" stroke-linecap="round" stroke-linejoin="round"></path>
    <path fill="currentColor" fill-rule="evenodd" clip-rule="evenodd" d="M3.68651 4.62351C3.68651 4.1992 3.28628 3.8838 2.88853 4.03158C0.617663 4.87528 0 6.67058 0 10.2195C0 15.8624 1.56153 17.0718 8.84718 17.0718C16.1328 17.0718 17.6944 15.8624 17.6944 10.2195C17.6944 6.6708 17.0768 4.8755 14.8062 4.03173C14.4085 3.88392 14.0082 4.19932 14.0082 4.62365C14.0082 4.91374 14.2015 5.16395 14.4707 5.27204C14.7817 5.39691 15.0255 5.53679 15.2203 5.68772C15.993 6.28618 16.4164 7.40014 16.4164 10.2195C16.4164 13.0389 15.993 14.1529 15.2203 14.7513C14.7991 15.0776 14.1493 15.3522 13.0864 15.5352C12.0239 15.7181 10.6465 15.7938 8.84718 15.7938C7.04784 15.7938 5.67049 15.7181 4.60797 15.5352C3.54511 15.3522 2.89526 15.0776 2.47403 14.7513C1.70134 14.1529 1.278 13.0389 1.278 10.2195C1.278 7.40014 1.70134 6.28618 2.47403 5.68772C2.66897 5.53674 2.91286 5.39681 3.224 5.27191C3.49322 5.16383 3.68651 4.91361 3.68651 4.62351Z"></path>
</svg>