<svg viewBox="0 0 21 22" fill="none" xmlns="http://www.w3.org/2000/svg">
    <path fill-rule="evenodd" clip-rule="evenodd" d="M15.2158 17.9869C16.8118 17.9869 18.1061 16.6935 18.1069 15.0975V15.0958V12.7952C17.0529 12.7952 16.1991 11.9414 16.1983 10.8874C16.1983 9.83418 17.0521 8.97954 18.1061 8.97954H18.1069V6.67892C18.1086 5.08211 16.816 3.78694 15.2201 3.78524H15.215H5.23537C3.63857 3.78524 2.34425 5.0787 2.3434 6.67551V6.67636V9.05367C3.36079 9.01788 4.21372 9.81373 4.24951 10.8311C4.25036 10.8499 4.25121 10.8686 4.25121 10.8874C4.25207 11.9397 3.40083 12.7935 2.34851 12.7952H2.3434V15.0958C2.34255 16.6917 3.63686 17.9869 5.23281 17.9869H5.23367H15.2158Z" stroke="currentColor" stroke-width="1.5" stroke-linecap="round" stroke-linejoin="round"></path>
    <path fill-rule="evenodd" clip-rule="evenodd" d="M10.5414 8.31236L11.0663 9.37491C11.1174 9.47886 11.2162 9.55129 11.3313 9.56833L12.5046 9.7396C12.7951 9.7822 12.9102 10.1384 12.7006 10.342L11.8519 11.1685C11.7684 11.2495 11.7309 11.3662 11.7496 11.4813L11.9499 12.6486C11.9993 12.9375 11.6968 13.1573 11.4378 13.021L10.3888 12.4697C10.2857 12.4151 10.163 12.4151 10.0599 12.4697L9.01188 13.021C8.752 13.1573 8.44951 12.9375 8.49893 12.6486L8.69917 11.4813C8.71876 11.3662 8.68042 11.2495 8.59692 11.1685L7.74909 10.342C7.53948 10.1384 7.65451 9.7822 7.94422 9.7396L9.11754 9.56833C9.23257 9.55129 9.33226 9.47886 9.38339 9.37491L9.90742 8.31236C10.0369 8.04992 10.4119 8.04992 10.5414 8.31236Z" stroke="currentColor" stroke-width="1.5" stroke-linecap="round" stroke-linejoin="round"></path>
</svg>