<svg viewBox="0 0 67 67" fill="none" xmlns="http://www.w3.org/2000/svg">
    <circle cx="2.39778" cy="2.39778" r="2.39778" fill="currentColor"></circle>
    <circle cx="2.39778" cy="17.9491" r="2.39778" fill="currentColor"></circle>
    <circle cx="2.39778" cy="33.4998" r="2.39778" fill="currentColor"></circle>
    <circle cx="2.39778" cy="49.0511" r="2.39778" fill="currentColor"></circle>
    <circle cx="2.39778" cy="64.6019" r="2.39778" fill="currentColor"></circle>
    <circle cx="17.9486" cy="2.39778" r="2.39778" fill="currentColor"></circle>
    <circle cx="17.9486" cy="17.9491" r="2.39778" fill="currentColor"></circle>
    <circle cx="17.9486" cy="33.4998" r="2.39778" fill="currentColor"></circle>
    <circle cx="17.9486" cy="49.0511" r="2.39778" fill="currentColor"></circle>
    <circle cx="17.9486" cy="64.6019" r="2.39778" fill="currentColor"></circle>
    <circle cx="33.4993" cy="2.39778" r="2.39778" fill="currentColor"></circle>
    <circle cx="33.4993" cy="17.9491" r="2.39778" fill="currentColor"></circle>
    <circle cx="33.4993" cy="33.4998" r="2.39778" fill="currentColor"></circle>
    <circle cx="33.4993" cy="49.0511" r="2.39778" fill="currentColor"></circle>
    <circle cx="33.4993" cy="64.6019" r="2.39778" fill="currentColor"></circle>
    <circle cx="49.0501" cy="2.39778" r="2.39778" fill="currentColor"></circle>
    <circle cx="49.0501" cy="17.9491" r="2.39778" fill="currentColor"></circle>
    <circle cx="49.0501" cy="33.4998" r="2.39778" fill="currentColor"></circle>
    <circle cx="49.0501" cy="49.0511" r="2.39778" fill="currentColor"></circle>
    <circle cx="49.0501" cy="64.6019" r="2.39778" fill="currentColor"></circle>
    <circle cx="64.6009" cy="2.39778" r="2.39778" fill="currentColor"></circle>
    <circle cx="64.6009" cy="17.9491" r="2.39778" fill="currentColor"></circle>
    <circle cx="64.6009" cy="33.4998" r="2.39778" fill="currentColor"></circle>
    <circle cx="64.6009" cy="49.0511" r="2.39778" fill="currentColor"></circle>
    <circle cx="64.6009" cy="64.6019" r="2.39778" fill="currentColor"></circle>
</svg>