<svg viewBox="0 0 19 19" fill="none" xmlns="http://www.w3.org/2000/svg">
    <rect x="0.75" y="0.75" width="17.5" height="17.5" rx="5.25" stroke="currentColor" stroke-width="1.5"></rect>
    <path d="M9.50018 4.74982C8.75758 4.74982 8.14246 5.03617 7.72098 5.51032C7.31246 5.96991 7.12518 6.5603 7.12518 7.12482C7.12518 8.11758 7.70632 8.80324 8.08418 9.24907L8.1044 9.27293C8.55085 9.80006 8.70852 10.0222 8.70852 10.2915C8.70852 10.7287 9.06296 11.0832 9.50018 11.0832C9.93741 11.0832 10.2918 10.7287 10.2918 10.2915C10.2918 9.39408 9.73447 8.7428 9.38037 8.32905C9.35682 8.30153 9.33416 8.27506 9.31263 8.24964C8.89792 7.75998 8.70852 7.48219 8.70852 7.12482C8.70852 6.89767 8.78513 6.6964 8.90438 6.56223C9.01069 6.44264 9.18723 6.33315 9.50018 6.33315C9.81314 6.33315 9.98968 6.44264 10.096 6.56223C10.2152 6.6964 10.2918 6.89767 10.2918 7.12482C10.2918 7.56204 10.6463 7.91649 11.0835 7.91649C11.5207 7.91649 11.8752 7.56204 11.8752 7.12482C11.8752 6.5603 11.6879 5.96991 11.2794 5.51032C10.8579 5.03617 10.2428 4.74982 9.50018 4.74982Z" fill="currentColor"></path>
    <path d="M9.50018 11.8748C9.06296 11.8748 8.70852 12.2293 8.70852 12.6665C8.70852 13.1037 9.06296 13.4582 9.50018 13.4582C9.93741 13.4582 10.2918 13.1037 10.2918 12.6665C10.2918 12.2293 9.93741 11.8748 9.50018 11.8748Z" fill="currentColor"></path>
</svg>