<svg viewBox="0 0 18 19" fill="currentColor" xmlns="http://www.w3.org/2000/svg">
    <path d="M17.1812 1.43782C17.7318 1.99732 17.8964 2.77587 17.9588 3.34141C18.0285 3.97263 18.0045 4.69678 17.9256 5.4424C17.7668 6.94177 17.3632 8.72911 16.8229 10.4495C16.2832 12.1676 15.5849 13.89 14.8061 15.2427C14.4181 15.9167 13.9837 16.5454 13.505 17.0413C13.0477 17.5152 12.4168 18.0068 11.6219 18.1408L11.6176 18.1415C11.468 18.1663 11.3222 18.1718 11.2707 18.1737L11.2609 18.1741C10.7419 18.1952 10.2937 18.0121 9.98772 17.8478C9.66058 17.6721 9.35359 17.4401 9.07985 17.1969C8.5311 16.7094 7.99629 16.0696 7.5611 15.4022C7.32265 15.0366 7.09674 14.6361 6.91208 14.2216C6.63817 13.6067 6.80539 12.908 7.21969 12.377L9.73332 9.41514C9.862 9.26352 9.85262 9.03887 9.71176 8.89843C9.5709 8.75799 9.34558 8.74865 9.19351 8.87694L6.22286 11.3831C5.65663 11.8222 4.90778 11.9923 4.26019 11.6847C3.84611 11.488 3.44689 11.2509 3.08219 11.0001C2.39352 10.5265 1.73368 9.93895 1.24978 9.32648C1.00835 9.0209 0.780261 8.67087 0.624908 8.2922C0.474791 7.92628 0.345162 7.41644 0.467579 6.85874L0.467781 6.85782C0.635068 6.09628 1.13641 5.49328 1.61157 5.05408C2.11193 4.59159 2.74107 4.167 3.41658 3.78435C4.77199 3.01656 6.48839 2.32034 8.19992 1.77943C9.91233 1.23824 11.6895 0.830547 13.18 0.669997C13.921 0.590182 14.6431 0.565528 15.2739 0.636933C15.8403 0.701053 16.6237 0.871296 17.1812 1.43782Z" fill="currentColor" fill-opacity="0.5"></path>
</svg>