<svg viewBox="0 0 21 21" fill="none" xmlns="http://www.w3.org/2000/svg">
    <path fill-rule="evenodd" clip-rule="evenodd" d="M13.8862 13.2399C13.9552 14.801 12.6953 16.1211 11.0724 16.1874C10.9529 16.1925 5.12549 16.1807 5.12549 16.1807C3.5105 16.3033 2.09705 15.1428 1.96966 13.5876C1.96007 13.4717 1.96268 7.21902 1.96268 7.21902C1.89114 5.65627 3.14928 4.33284 4.773 4.26398C4.89428 4.2581 10.7138 4.26902 10.7138 4.26902C12.3367 4.1481 13.7545 5.31701 13.8801 6.87976C13.8889 6.99229 13.8862 13.2399 13.8862 13.2399Z" stroke="currentColor" stroke-width="1.7" stroke-linecap="round" stroke-linejoin="round"></path>
    <path d="M13.8889 8.50365L16.6949 6.20729C17.3902 5.6381 18.4331 6.13401 18.4323 7.03125L18.422 13.2932C18.4212 14.1905 17.3774 14.6821 16.6838 14.1129L13.8889 11.8166" stroke="currentColor" stroke-width="1.7" stroke-linecap="round" stroke-linejoin="round"></path>
</svg>