<?xml version="1.0" standalone="no"?>
<!DOCTYPE svg PUBLIC "-//W3C//DTD SVG 1.1//EN" "http://www.w3.org/Graphics/SVG/1.1/DTD/svg11.dtd" >
<svg xmlns="http://www.w3.org/2000/svg" xmlns:xlink="http://www.w3.org/1999/xlink" version="1.1">
<metadata>
Created by FontForge 20201107 at Sat Mar 19 20:25:30 2016
 By 
Copyright (c) 2003 by Bitstream, Inc. All Rights Reserved.
DejaVu changes are in public domain
Copyright (c) 2015 by Saber Rastikerdar. All Rights Reserved.
</metadata>
<defs>
<font id="Shabnam" horiz-adv-x="0" >
  <font-face 
    font-family="Shabnam"
    font-weight="400"
    font-stretch="normal"
    units-per-em="2048"
    panose-1="2 11 6 3 3 8 4 2 2 4"
    ascent="1638"
    descent="-410"
    bbox="-116 -850 2657 2266"
    underline-thickness="100"
    underline-position="-200"
    unicode-range="U+0020-FEFC"
  />
<missing-glyph horiz-adv-x="748" 
d="M68 0v1365h544v-1365h-544zM136 68h408v1229h-408v-1229z" />
    <glyph glyph-name="uni0622" unicode="&#x627;&#x653;" horiz-adv-x="597" 
d="M211 1388h175v-1387h-175v1387zM194 1748h404l2 -151h-394q-89 0 -152 -83l-20 -26l-102 115l11 18q84 127 251 127z" />
    <glyph glyph-name="uni0623" unicode="&#x627;&#x654;" horiz-adv-x="491" 
d="M13 1541l109 25q-80 47 -99 117q-8 31 -8 69q0 106 111 169q84 48 201 23q38 -8 83 -32v-115l-20 9q-84 34 -137 29q-120 -12 -127 -87q-8 -94 121 -133q42 -9 190 23v-121l-424 -95v119zM157 1388h175v-1387h-175v1387z" />
    <glyph glyph-name="afii57412" unicode="&#x648;&#x654;" horiz-adv-x="857" 
d="M200 936l109 25q-80 47 -99 117q-8 31 -8 69q0 106 111 169q84 48 201 23q38 -8 83 -32v-115l-20 9q-84 34 -137 29q-120 -12 -127 -87q-8 -94 121 -133q42 -9 190 23v-121l-424 -95v119zM510 533q-36 19 -93 19q-135 -1 -158 -127.5t25 -193.5q37 -51 178 -50
q44 0 128 11q3 47 3 88q0 211 -83 253zM579 2q-35 -6 -93 -6h-61q-335 0 -334 354q0 148 60 242q87 138 274 138q231 0 316 -226q23 -61 25 -186q0 -2 -1 -322v-7q0 -502 -553 -501q-1 -1 -91 0h-3v188h100q361 -1 361 281v45z" />
    <glyph glyph-name="uni0625" unicode="&#x627;&#x655;" horiz-adv-x="491" 
d="M19 -499l109 25q-80 47 -99 117q-8 31 -8 69q0 106 111 169q84 48 201 23q38 -8 83 -32v-115l-20 9q-84 34 -137 29q-120 -12 -127 -87q-8 -94 121 -133q42 -9 190 23v-121l-424 -95v119zM157 1388h175v-1387h-175v1387z" />
    <glyph glyph-name="afii57414" unicode="&#x64a;&#x654;" horiz-adv-x="1476" 
d="M258 746l109 25q-80 47 -99 117q-8 31 -8 69q0 106 111 169q84 48 201 23q38 -8 83 -32v-115l-20 9q-84 34 -137 29q-120 -12 -127 -87q-8 -94 121 -133q42 -9 190 23v-121l-424 -95v119zM1161 263q224 0 224 -222v-29q-2 -515 -560 -521h-55h-79q-600 0 -601 565v443
h179v-442q0 -377 424 -377h77l64 1q375 3 375 313v12q0 78 -79 78l-191 1q-173 0 -173 167v65q0 473 423 473h196l1 -189h-239q-197 0 -202 -277l-2 -61h218z" />
    <glyph glyph-name="uniFE70" unicode="&#x20;&#x64b;" horiz-adv-x="642" arabic-form="isolated" 
d="M59 993v127l494 202v-127zM59 1252v127l494 202v-127z" />
    <glyph glyph-name="uniFE72" unicode="&#x20;&#x64c;" horiz-adv-x="642" arabic-form="isolated" 
d="M340 1299q41 40 65 87l7 15l-16 3q-33 7 -56 20q-109 58 -109 150q0 87 68 139q27 20 90 20q73 0 112 -38q55 -54 55 -133q0 -40 -13 -79l-5 -16l17 -1q20 -1 36 -1q13 -1 28 -1v-92q-40 1 -58 2l-65 7l-3 -9q-27 -63 -106 -145q-87 -88 -182 -88q-113 0 -170 156
q-14 40 -15 148h70q1 -96 14 -124q41 -88 101 -88q65 0 135 68zM442 1483l11 25q11 25 11 54q0 42 -23 61q-22 18 -48 18q-28 0 -44 -12q-24 -19 -24 -55q0 -48 56 -70q22 -9 50 -18z" />
    <glyph glyph-name="uniFE74" unicode="&#x20;&#x64d;" horiz-adv-x="642" arabic-form="isolated" 
d="M64 -497v127l494 202v-127zM64 -238v127l494 202v-127z" />
    <glyph glyph-name="uniFE76" unicode="&#x20;&#x64e;" horiz-adv-x="642" arabic-form="isolated" 
d="M30 1251v127l494 202v-127z" />
    <glyph glyph-name="uniFE78" unicode="&#x20;&#x64f;" horiz-adv-x="642" arabic-form="isolated" 
d="M368 1427q-8 2 -27 11q-109 57 -109 151q0 86 69 138q26 20 89 20q73 0 112 -38q55 -54 55 -133q0 -33 -14 -79l-5 -16l16 -1q19 -1 38 -1q13 -1 28 -1v-91q-30 0 -58 2q-31 2 -61 5l-8 1l-4 -7q-45 -63 -116 -106q-202 -124 -352 -130v92q161 5 307 119q25 20 46 42
l16 17zM444 1497l11 25q10 25 10 54q0 42 -22 61q-22 18 -48 18q-29 0 -45 -12q-24 -19 -24 -54q0 -49 56 -71q22 -9 51 -18z" />
    <glyph glyph-name="uniFE7A" unicode="&#x20;&#x650;" horiz-adv-x="642" arabic-form="isolated" 
d="M74 -343v127l494 202v-127z" />
    <glyph glyph-name="uniFE7C" unicode="&#x20;&#x651;" horiz-adv-x="642" arabic-form="isolated" 
d="M281 1339q-38 -45 -129 -45q-78 0 -118 62q-34 52 -34 130q0 41 15 141h79q-11 -124 -11 -167q0 -65 89 -67q98 -2 107 126q2 26 2 162h78q2 -35 2 -83q0 -146 113 -146q85 0 85 147q0 110 -11 171h83q11 -75 11 -189q0 -69 -28 -124q-45 -90 -118 -98q-65 -7 -107 20
q-59 40 -61 52q-9 -47 -47 -92z" />
    <glyph glyph-name="uniFE7E" unicode="&#x20;&#x652;" horiz-adv-x="642" arabic-form="isolated" 
d="M448 1384q0 44 -31.5 75t-76.5 31q-46 0 -76.5 -30.5t-30.5 -75.5q0 -46 30.5 -77t76.5 -31q45 0 76.5 31t31.5 77zM523 1384q0 -77 -53 -130.5t-129.5 -53.5t-130 53.5t-53.5 130.5t53.5 130t130 53t129.5 -53t53 -130z" />
    <glyph glyph-name="uniFEF5" unicode="&#xfedf;&#xfe82;" horiz-adv-x="1136" arabic-form="isolated" 
d="M152 1389h175v-1088h-175v1088zM1007 394q0 -394 -384 -394h-472v189h479q198 0 198 223v976h179v-994zM171 1674h404l2 -151h-394q-89 0 -152 -83l-20 -26l-102 115l11 18q84 127 251 127z" />
    <glyph glyph-name="uniFEF6" unicode="&#xfee0;&#xfe82;" horiz-adv-x="1273" arabic-form="final" 
d="M152 1389h175v-1088h-175v1088zM1203 0q-166 0 -288 130q-119 -130 -278 -130h-486v189h469q208 0 208 277v923h175v-924q0 -276 252 -276h32v-189h-84zM186 1701h404l2 -151h-394q-89 0 -152 -83l-20 -26l-102 115l11 18q84 127 251 127z" />
    <glyph glyph-name="uniFEF7" unicode="&#xfedf;&#xfe84;" horiz-adv-x="1136" arabic-form="isolated" 
d="M152 1389h175v-1088h-175v1088zM1007 394q0 -394 -384 -394h-472v189h479q198 0 198 223v976h179v-994zM29 1615l109 25q-80 47 -99 117q-8 31 -8 69q0 106 111 169q84 48 201 23q38 -8 83 -32v-115l-20 9q-84 34 -137 29q-120 -12 -127 -87q-8 -94 121 -133
q42 -9 190 23v-121l-424 -95v119z" />
    <glyph glyph-name="uniFEF8" unicode="&#xfee0;&#xfe84;" horiz-adv-x="1273" arabic-form="final" 
d="M152 1389h175v-1088h-175v1088zM1203 0q-166 0 -288 130q-119 -130 -278 -130h-486v189h469q208 0 208 277v923h175v-924q0 -276 252 -276h32v-189h-84zM15 1579l109 25q-80 47 -99 117q-8 31 -8 69q0 106 111 169q84 48 201 23q38 -8 83 -32v-115l-20 9q-84 34 -137 29
q-120 -12 -127 -87q-8 -94 121 -133q42 -9 190 23v-121l-424 -95v119z" />
    <glyph glyph-name="uniFEF9" unicode="&#xfedf;&#xfe88;" horiz-adv-x="1136" arabic-form="isolated" 
d="M152 1389h175v-1088h-175v1088zM1007 394q0 -394 -384 -394h-472v189h479q198 0 198 223v976h179v-994zM40 -475l109 25q-80 47 -99 117q-8 31 -8 69q0 106 111 169q84 48 201 23q38 -8 83 -32v-115l-20 9q-84 34 -137 29q-120 -12 -127 -87q-8 -94 121 -133
q42 -9 190 23v-121l-424 -95v119z" />
    <glyph glyph-name="uniFEFA" unicode="&#xfee0;&#xfe88;" horiz-adv-x="1273" arabic-form="final" 
d="M152 1389h175v-1088h-175v1088zM1203 0q-166 0 -288 130q-119 -130 -278 -130h-486v189h469q208 0 208 277v923h175v-924q0 -276 252 -276h32v-189h-84zM58 -465l109 25q-80 47 -99 117q-8 31 -8 69q0 106 111 169q84 48 201 23q38 -8 83 -32v-115l-20 9q-84 34 -137 29
q-120 -12 -127 -87q-8 -94 121 -133q42 -9 190 23v-121l-424 -95v119z" />
    <glyph glyph-name="uniFEFB" unicode="&#xfedf;&#xfe8e;" horiz-adv-x="1136" arabic-form="isolated" 
d="M152 1389h175v-1088h-175v1088zM1007 394q0 -394 -384 -394h-472v189h479q198 0 198 223v976h179v-994z" />
    <glyph glyph-name="uniFEFC" unicode="&#xfee0;&#xfe8e;" horiz-adv-x="1273" arabic-form="final" 
d="M152 1389h175v-1088h-175v1088zM1203 0q-166 0 -288 130q-119 -130 -278 -130h-486v189h469q208 0 208 277v923h175v-924q0 -276 252 -276h32v-189h-84z" />
    <glyph glyph-name="uni0651064B" unicode="&#x64b;&#x651;" 
d="M316 1138v127l494 202v-127zM316 1397v127l494 202v-127zM538 712q-38 -45 -129 -45q-78 0 -118 62q-34 52 -34 130q0 41 15 141h79q-11 -124 -11 -167q0 -65 89 -67q98 -2 107 126q2 26 2 162h78q2 -35 2 -83q0 -146 113 -146q85 0 85 147q0 110 -11 171h83
q11 -75 11 -189q0 -69 -28 -124q-45 -90 -118 -98q-65 -7 -107 20q-59 40 -61 52q-9 -47 -47 -92z" />
    <glyph glyph-name="uni0651064C" unicode="&#x64c;&#x651;" 
d="M586 1310q41 40 65 87l7 15l-16 3q-33 7 -56 20q-109 58 -109 150q0 87 68 139q27 20 90 20q73 0 112 -38q55 -54 55 -133q0 -40 -13 -79l-5 -16l17 -1q20 -1 36 -1q13 -1 28 -1v-92q-40 1 -58 2l-65 7l-3 -9q-27 -63 -106 -145q-87 -88 -182 -88q-113 0 -170 156
q-14 40 -15 148h70q1 -96 14 -124q41 -88 101 -88q65 0 135 68zM688 1494l11 25q11 25 11 54q0 42 -23 61q-22 18 -48 18q-28 0 -44 -12q-24 -19 -24 -55q0 -48 56 -70q22 -9 50 -18zM527 716q-38 -45 -129 -45q-78 0 -118 62q-34 52 -34 130q0 41 15 141h79
q-11 -124 -11 -167q0 -65 89 -67q98 -2 107 126q2 26 2 162h78q2 -35 2 -83q0 -146 113 -146q85 0 85 147q0 110 -11 171h83q11 -75 11 -189q0 -69 -28 -124q-45 -90 -118 -98q-65 -7 -107 20q-59 40 -61 52q-9 -47 -47 -92z" />
    <glyph glyph-name="uni064B0651" unicode="&#x64d;&#x651;" 
d="M493 1338q-38 -45 -129 -45q-78 0 -118 62q-34 52 -34 130q0 41 15 141h79q-11 -124 -11 -167q0 -65 89 -67q98 -2 107 126q2 26 2 162h78q2 -35 2 -83q0 -146 113 -146q85 0 85 147q0 110 -11 171h83q11 -75 11 -189q0 -69 -28 -124q-45 -90 -118 -98q-65 -7 -107 20
q-59 40 -61 52q-9 -47 -47 -92zM271 674v127l494 202v-127zM271 933v127l494 202v-127z" />
    <glyph glyph-name="uni0651064E" unicode="&#x64e;&#x651;" 
d="M292 1312v127l494 202v-127zM543 889q-38 -45 -129 -45q-78 0 -118 62q-34 52 -34 130q0 41 15 141h79q-11 -124 -11 -167q0 -65 89 -67q98 -2 107 126q2 26 2 162h78q2 -35 2 -83q0 -146 113 -146q85 0 85 147q0 110 -11 171h83q11 -75 11 -189q0 -69 -28 -124
q-45 -90 -118 -98q-65 -7 -107 20q-59 40 -61 52q-9 -47 -47 -92z" />
    <glyph glyph-name="uni0651064F" unicode="&#x64f;&#x651;" 
d="M615 1415q-8 2 -27 11q-109 57 -109 151q0 86 69 138q26 20 89 20q73 0 112 -38q55 -54 55 -133q0 -33 -14 -79l-5 -16l16 -1q19 -1 38 -1q13 -1 28 -1v-91q-30 0 -58 2q-31 2 -61 5l-8 1l-4 -7q-45 -63 -116 -106q-202 -124 -352 -130v92q161 5 307 119q25 20 46 42
l16 17zM691 1485l11 25q10 25 10 54q0 42 -22 61q-22 18 -48 18q-29 0 -45 -12q-24 -19 -24 -54q0 -49 56 -71q22 -9 51 -18zM528 746q-38 -45 -129 -45q-78 0 -118 62q-34 52 -34 130q0 41 15 141h79q-11 -124 -11 -167q0 -65 89 -67q98 -2 107 126q2 26 2 162h78
q2 -35 2 -83q0 -146 113 -146q85 0 85 147q0 110 -11 171h83q11 -75 11 -189q0 -69 -28 -124q-45 -90 -118 -98q-65 -7 -107 20q-59 40 -61 52q-9 -47 -47 -92z" />
    <glyph glyph-name="uni064E0651" unicode="&#x650;&#x651;" 
d="M529 1287q-38 -45 -129 -45q-78 0 -118 62q-34 52 -34 130q0 41 15 141h79q-11 -124 -11 -167q0 -65 89 -67q98 -2 107 126q2 26 2 162h78q2 -35 2 -83q0 -146 113 -146q85 0 85 147q0 110 -11 171h83q11 -75 11 -189q0 -69 -28 -124q-45 -90 -118 -98q-65 -7 -107 20
q-59 40 -61 52q-9 -47 -47 -92zM342 902v127l494 202v-127z" />
    <glyph glyph-name="uni0654064E" unicode="&#x64e;&#x654;" 
d="M236 1311v127l494 202v-127zM391 1228l109 25q-80 47 -99 117q-8 31 -8 69q0 106 111 169q84 48 201 23q38 -8 83 -32v-115l-20 9q-84 34 -137 29q-120 -12 -127 -87q-8 -94 121 -133q42 -9 190 23v-121l-424 -95v119z" />
    <glyph glyph-name="uni0654064F" unicode="&#x64f;&#x654;" 
d="M600 1410q-8 2 -27 11q-109 57 -109 151q0 86 69 138q26 20 89 20q73 0 112 -38q55 -54 55 -133q0 -33 -14 -79l-5 -16l16 -1q19 -1 38 -1q13 -1 28 -1v-91q-30 0 -58 2q-31 2 -61 5l-8 1l-4 -7q-45 -63 -116 -106q-202 -124 -352 -130v92q161 5 307 119q25 20 46 42
l16 17zM676 1480l11 25q10 25 10 54q0 42 -22 61q-22 18 -48 18q-29 0 -45 -12q-24 -19 -24 -54q0 -49 56 -71q22 -9 51 -18zM400 1072l109 25q-80 47 -99 117q-8 31 -8 69q0 106 111 169q84 48 201 23q38 -8 83 -32v-115l-20 9q-84 34 -137 29q-120 -12 -127 -87
q-8 -94 121 -133q42 -9 190 23v-121l-424 -95v119z" />
    <glyph glyph-name="uni066E.init" unicode="&#x66e;" horiz-adv-x="678" 
d="M586 410q0 -411 -343 -411h-256v189h241q180 0 180 217v286h178v-281z" />
    <glyph glyph-name="uni066E.medi" unicode="&#x66e;" horiz-adv-x="877" 
d="M597 397q0 -209 263 -209h26v-189h-95q-168 0 -268 110l-20 20l-18 -21q-98 -109 -269 -109h-225v189h170q252 0 252 209v254h184v-254z" />
    <glyph glyph-name="uni066E.fina" unicode="&#x66e;" horiz-adv-x="2070" 
d="M270 452q0 -264 197 -264h665l270 3q262 4 261 233v222h183v-224q0 -233 203 -233h32v-189h-34q-221 0 -288 163l-8 18q-120 -182 -392 -182h-897q-371 0 -371 455v202h179v-204z" />
    <glyph glyph-name="uni066F.init" unicode="&#x66f;" horiz-adv-x="753" 
d="M553 368q-47 -1 -99 -1t-89 1q-157 0 -230 80q-73 81 -73 260q0 326 334 326q317 0 339 -278q4 -58 4 -85v-181v-133q0 -360 -516 -358l-231 1v189h243q318 1 318 161v18zM565 628q0 152 -37 190q-43 41 -130 41q-175 0 -175 -160q0 -146 174 -146q81 0 166 9q2 45 2 66z
" />
    <glyph glyph-name="uni066F.medi" unicode="&#x66f;" horiz-adv-x="1020" 
d="M324 499q0 -74 53.5 -126.5t129.5 -52.5t130 53q54 52 54 126t-54 127q-54 52 -130 52t-129.5 -52.5t-53.5 -126.5zM360 188q-58 27 -100 68q-103 101 -103 243t103 243q103 100 249 100t249 -100q103 -101 103 -243q0 -144 -103 -243q-39 -37 -104 -68l376 1v-190h-169
q-205 -1 -356 108q-166 -108 -355 -108h-159v189h369z" />
    <glyph glyph-name="uni066F.fina" unicode="&#x66f;" horiz-adv-x="1586" 
d="M1238 3q-9 -3 -92 -3h-99q-154 0 -234 88q-80 89 -63 299q11 139 83 218q95 105 263 101q275 -5 320 -278q10 -63 8 -136l-2 -102h177v-190l-186 -1l1 -63q7 -537 -575 -532l-68 1h-70q-610 0 -610 529v402l179 1v-402q0 -341 433 -341h68l77 1q380 3 389 344zM1248 194
q8 214 -28 273.5t-109.5 63t-113.5 -14.5q-80 -35 -88 -150t47 -151q69 -46 292 -21z" />
    <glyph glyph-name="uni06A1.init" unicode="&#x6a1;" horiz-adv-x="831" 
d="M553 368q-47 -1 -99 -1t-89 1q-157 0 -230 80q-73 81 -73 260q0 326 334 326q317 0 339 -278q4 -58 4 -85v-181v-133q0 -360 -516 -358l-231 1v189h243q318 1 318 161v18zM565 628q0 152 -37 190q-43 41 -130 41q-175 0 -175 -160q0 -146 174 -146q81 0 166 9q2 45 2 66z
" />
    <glyph glyph-name="uni06A1.medi" unicode="&#x6a1;" horiz-adv-x="1022" 
d="M324 499q0 -74 53.5 -126.5t129.5 -52.5t130 53q54 52 54 126t-54 127q-54 52 -130 52t-129.5 -52.5t-53.5 -126.5zM360 188q-58 27 -100 68q-103 101 -103 243t103 243q103 100 249 100t249 -100q103 -101 103 -243q0 -144 -103 -243q-39 -37 -104 -68l376 1v-190h-169
q-205 -1 -356 108q-166 -108 -355 -108h-159v189h369z" />
    <glyph glyph-name="uni06A1.fina" unicode="&#x6a1;" horiz-adv-x="2054" 
d="M1365 498.5q0 -73.5 53 -125.5t128.5 -52t128.5 52t53 125.5t-53 125.5t-128.5 52t-128.5 -52t-53 -125.5zM1398 189q-57 25 -99 67q-103 100 -103 242t103 243q104 101 249 101q146 -1 249 -101q103 -101 103 -242q0 -145 -103 -243q-37 -36 -104 -67h372v-188l-162 -1
q-218 -1 -356 108q-168 -108 -356 -108h-728q-372 0 -372 442v275h179v-264q0 -264 198 -264h930z" />
    <glyph glyph-name="uni06CA.fina" unicode="&#x6ca;" horiz-adv-x="911" 
d="M428 1030q0 54 37.5 91.5t91.5 37.5q55 0 92 -37q19 -19 28.5 -42t9.5 -49q0 -55 -37.5 -92.5t-91.5 -37.5q-55 0 -92.5 37.5t-37.5 91.5zM104 1030q0 54 37.5 91.5t91.5 37.5q55 0 92.5 -37.5t37.5 -90.5q0 -55 -37.5 -92.5t-91.5 -37.5q-55 0 -92.5 37.5t-37.5 91.5z
M766 292l-3 -106l158 3v-189h-157q-8 -511 -541 -510h-106v188h100q348 -1 362 302l1 20h-11h-68h-116q-152 0 -232 90q-81 89 -62 324q12 149 79 223q92 100 268 97q276 -5 319 -279q10 -61 9 -163zM434 558q-174 8 -184 -168q-7 -139 47 -175q70 -46 293 -21
q8 241 -28 300.5t-128 63.5z" />
    <glyph glyph-name="uni06D5.fina" unicode="&#x6d5;" horiz-adv-x="1148" 
d="M706 370l-53 296q-404 -50 -402 -218q2 -123 455 -78zM764 187q-651 -68 -674 212q-27 342 523 430l-18 94l179 34l99 -577q33 -191 211 -191h29l1 -189h-51q-235 0 -299 187z" />
    <glyph glyph-name="uniFB56" unicode="&#x67e;" horiz-adv-x="1931" arabic-form="isolated" 
d="M868 -617q0 54 37 92q19 18 42 27.5t49 9.5q55 0 92.5 -37.5t37.5 -90.5q0 -55 -37.5 -92.5t-90.5 -37.5q-55 0 -92.5 37.5t-37.5 91.5zM1028 -307q0 54 37.5 91.5t91.5 37.5q55 0 92 -37q19 -19 28.5 -42t9.5 -49q0 -55 -37.5 -92.5t-91.5 -37.5q-55 0 -92.5 37.5
t-37.5 91.5zM704 -307q0 54 37.5 91.5t91.5 37.5q55 0 92.5 -37.5t37.5 -90.5q0 -55 -37.5 -92.5t-91.5 -37.5q-55 0 -92.5 37.5t-37.5 91.5zM1464 189q198 1 198 262v203h178v-206q0 -301 -165 -399q-83 -49 -208 -49h-1003q-372 0 -372 442v212h179v-201q0 -264 197 -264
h996z" />
    <glyph glyph-name="uniFB57" unicode="&#x67e;" horiz-adv-x="2070" arabic-form="final" 
d="M847 -617q0 54 37 92q19 18 42 27.5t49 9.5q55 0 92.5 -37.5t37.5 -90.5q0 -55 -37.5 -92.5t-90.5 -37.5q-55 0 -92.5 37.5t-37.5 91.5zM1007 -307q0 54 37.5 91.5t91.5 37.5q55 0 92 -37q19 -19 28.5 -42t9.5 -49q0 -55 -37.5 -92.5t-91.5 -37.5q-55 0 -92.5 37.5
t-37.5 91.5zM683 -307q0 54 37.5 91.5t91.5 37.5q55 0 92.5 -37.5t37.5 -90.5q0 -55 -37.5 -92.5t-91.5 -37.5q-55 0 -92.5 37.5t-37.5 91.5zM270 452q0 -264 197 -264h665l270 3q262 4 261 233v222h183v-224q0 -233 203 -233h32v-189h-34q-221 0 -288 163l-8 18
q-120 -182 -392 -182h-897q-371 0 -371 455v202h179v-204z" />
    <glyph glyph-name="uniFB58" unicode="&#x67e;" horiz-adv-x="709" arabic-form="initial" 
d="M199 -611q0 54 37 92q19 18 42 27.5t49 9.5q55 0 92.5 -37.5t37.5 -90.5q0 -55 -37.5 -92.5t-90.5 -37.5q-55 0 -92.5 37.5t-37.5 91.5zM359 -301q0 54 37.5 91.5t91.5 37.5q55 0 92 -37q19 -19 28.5 -42t9.5 -49q0 -55 -37.5 -92.5t-91.5 -37.5q-55 0 -92.5 37.5
t-37.5 91.5zM35 -301q0 54 37.5 91.5t91.5 37.5q55 0 92.5 -37.5t37.5 -90.5q0 -55 -37.5 -92.5t-91.5 -37.5q-55 0 -92.5 37.5t-37.5 91.5zM586 410q0 -411 -343 -411h-256v189h241q180 0 180 217v286h178v-281z" />
    <glyph glyph-name="uniFB59" unicode="&#x67e;" horiz-adv-x="878" arabic-form="medial" 
d="M226 -602q0 54 37 92q19 18 42 27.5t49 9.5q55 0 92.5 -37.5t37.5 -90.5q0 -55 -37.5 -92.5t-90.5 -37.5q-55 0 -92.5 37.5t-37.5 91.5zM386 -292q0 54 37.5 91.5t91.5 37.5q55 0 92 -37q19 -19 28.5 -42t9.5 -49q0 -55 -37.5 -92.5t-91.5 -37.5q-55 0 -92.5 37.5
t-37.5 91.5zM62 -292q0 54 37.5 91.5t91.5 37.5q55 0 92.5 -37.5t37.5 -90.5q0 -55 -37.5 -92.5t-91.5 -37.5q-55 0 -92.5 37.5t-37.5 91.5zM597 397q0 -209 263 -209h26v-189h-95q-168 0 -268 110l-20 20l-18 -21q-98 -109 -269 -109h-225v189h170q252 0 252 209v254h184
v-254z" />
    <glyph glyph-name="uniFB7A" unicode="&#x686;" horiz-adv-x="1369" arabic-form="isolated" 
d="M684 -367q0 54 37 92q19 18 42 27.5t49 9.5q55 0 92.5 -37.5t37.5 -90.5q0 -55 -37.5 -92.5t-90.5 -37.5q-55 0 -92.5 37.5t-37.5 91.5zM844 -57q0 54 37.5 91.5t91.5 37.5q55 0 92 -37q19 -19 28.5 -42t9.5 -49q0 -55 -37.5 -92.5t-91.5 -37.5q-55 0 -92.5 37.5
t-37.5 91.5zM520 -57q0 54 37.5 91.5t91.5 37.5q55 0 92.5 -37.5t37.5 -90.5q0 -55 -37.5 -92.5t-91.5 -37.5q-55 0 -92.5 37.5t-37.5 91.5zM1088 305q-821 -123 -822 -503q-2 -375 548 -374h414v-183h-426q-388 1 -550 156q-165 158 -162 383q6 558 897 671q0 20 -35 36
l-218 101q-83 39 -155 39q-78 0 -140 -47l-156 -118l-118 133l146 122q123 104 260 104q97 0 200 -52l321 -160q133 -66 133 -147v-142q-79 -7 -137 -19z" />
    <glyph glyph-name="uniFB7B" unicode="&#x686;" horiz-adv-x="1369" arabic-form="final" 
d="M600 -383q0 54 37 92q19 18 42 27.5t49 9.5q55 0 92.5 -37.5t37.5 -90.5q0 -55 -37.5 -92.5t-90.5 -37.5q-55 0 -92.5 37.5t-37.5 91.5zM760 -73q0 54 37.5 91.5t91.5 37.5q55 0 92 -37q19 -19 28.5 -42t9.5 -49q0 -55 -37.5 -92.5t-91.5 -37.5q-55 0 -92.5 37.5
t-37.5 91.5zM436 -73q0 54 37.5 91.5t91.5 37.5q55 0 92.5 -37.5t37.5 -90.5q0 -55 -37.5 -92.5t-91.5 -37.5q-55 0 -92.5 37.5t-37.5 91.5zM987 455q0 20 -35 36l-218 101q-83 39 -155 39q-78 0 -140 -47l-156 -118l-118 133l146 122q123 104 260 104q97 0 200 -52
l321 -160q133 -66 133 -147v-142q-79 -7 -137 -19q-19 -116 235 -116h58v-189h-19q-394 0 -428 265q-667 -103 -668 -463q-2 -375 548 -374h414v-183h-426q-388 1 -550 156q-165 158 -162 383q6 558 897 671z" />
    <glyph glyph-name="uniFB7C" unicode="&#x686;" horiz-adv-x="1293" arabic-form="initial" 
d="M416 -611q0 54 37 92q19 18 42 27.5t49 9.5q55 0 92.5 -37.5t37.5 -90.5q0 -55 -37.5 -92.5t-90.5 -37.5q-55 0 -92.5 37.5t-37.5 91.5zM576 -301q0 54 37.5 91.5t91.5 37.5q55 0 92 -37q19 -19 28.5 -42t9.5 -49q0 -55 -37.5 -92.5t-91.5 -37.5q-55 0 -92.5 37.5
t-37.5 91.5zM252 -301q0 54 37.5 91.5t91.5 37.5q55 0 92.5 -37.5t37.5 -90.5q0 -55 -37.5 -92.5t-91.5 -37.5q-55 0 -92.5 37.5t-37.5 91.5zM977 219l-162 -91q-228 -128 -493 -128h-331v189l329 1q215 0 385 86l170 86q106 54 108 59l-79 42l-241 125q-168 88 -295 -8
l-156 -118l-118 132l146 123q216 182 460 52l344 -184q299 -160 -67 -366z" />
    <glyph glyph-name="uniFB7D" unicode="&#x686;" horiz-adv-x="1319" arabic-form="medial" 
d="M456 -611q0 54 37 92q19 18 42 27.5t49 9.5q55 0 92.5 -37.5t37.5 -90.5q0 -55 -37.5 -92.5t-90.5 -37.5q-55 0 -92.5 37.5t-37.5 91.5zM616 -301q0 54 37.5 91.5t91.5 37.5q55 0 92 -37q19 -19 28.5 -42t9.5 -49q0 -55 -37.5 -92.5t-91.5 -37.5q-55 0 -92.5 37.5
t-37.5 91.5zM292 -301q0 54 37.5 91.5t91.5 37.5q55 0 92.5 -37.5t37.5 -90.5q0 -55 -37.5 -92.5t-91.5 -37.5q-55 0 -92.5 37.5t-37.5 91.5zM921 186l-107 -59q-231 -127 -492 -127h-331v189l329 1q218 0 384 85l170 87l111 58l-82 43l-240 126q-74 39 -155 39
q-78 0 -140 -47l-156 -118l-118 132l146 123q123 104 260 104q104 0 200 -52l343 -185q133 -72 133 -147q0 -81 -134 -176q72 -72 191 -73h96v-189h-93q-205 0 -315 186z" />
    <glyph glyph-name="uniFB8A" unicode="&#x698;" horiz-adv-x="824" arabic-form="isolated" 
d="M344 1275q0 54 37.5 91.5t90.5 37.5q55 0 92.5 -37.5t37.5 -90.5q0 -55 -37.5 -92.5t-90.5 -37.5q-55 0 -92.5 37.5t-37.5 91.5zM504 965q0 54 37.5 91.5t91.5 37.5q55 0 92 -37q19 -19 28.5 -42t9.5 -49q0 -55 -37.5 -92.5t-91.5 -37.5q-55 0 -92.5 37.5t-37.5 91.5z
M180 965q0 54 37.5 91.5t91.5 37.5q55 0 92.5 -37.5t37.5 -90.5q0 -55 -37.5 -92.5t-91.5 -37.5q-55 0 -92.5 37.5t-37.5 91.5zM124 -324q356 1 356 307v566l186 1v-565q0 -493 -540 -496l-104 -1v188h102z" />
    <glyph glyph-name="uniFB8B" unicode="&#x698;" horiz-adv-x="883" arabic-form="final" 
d="M376 1275q0 54 37.5 91.5t90.5 37.5q55 0 92.5 -37.5t37.5 -90.5q0 -55 -37.5 -92.5t-90.5 -37.5q-55 0 -92.5 37.5t-37.5 91.5zM536 965q0 54 37.5 91.5t91.5 37.5q55 0 92 -37q19 -19 28.5 -42t9.5 -49q0 -55 -37.5 -92.5t-91.5 -37.5q-55 0 -92.5 37.5t-37.5 91.5z
M212 965q0 54 37.5 91.5t91.5 37.5q55 0 92.5 -37.5t37.5 -90.5q0 -55 -37.5 -92.5t-91.5 -37.5q-55 0 -92.5 37.5t-37.5 91.5zM667 -17q0 -496 -542 -495h-103v188h99q361 -1 361 305v568l184 1v-205q6 -157 207 -157h22v-189h-23q-132 0 -205 79v-95z" />
    <glyph glyph-name="uniFB8E" unicode="&#x6a9;" horiz-adv-x="1835" arabic-form="isolated" 
d="M270 452q0 -263 197 -263h823q206 0 208 134q1 55 -107 178l-271 309q-55 63 -81 98q-24 33 -21 83q10 129 119 169l647 236v-184l-589 -212l333 -376q150 -169 131 -337q-17 -151 -140 -233q-81 -54 -180 -54h-864q-384 0 -384 442v214l179 -1v-203z" />
    <glyph glyph-name="uniFB8F" unicode="&#x6a9;" horiz-adv-x="2038" arabic-form="final" 
d="M269 453q0 -264 198 -264h847q207 0 207 134q1 56 -107 178l-270 309q-52 59 -80 96q-26 35 -22 85q10 131 118 170l647 235v-184l-587 -215l589 -667q124 -140 214 -140h28v-189h-21q-202 0 -360 220q-74 -221 -308 -221h-888q-384 0 -384 442v215h179v-204z" />
    <glyph glyph-name="uniFB90" unicode="&#x6a9;" horiz-adv-x="888" arabic-form="initial" 
d="M391 0h-404v189h356q207 0 208 134q0 56 -107 178l-271 309q-58 66 -80 96q-26 35 -21 94q10 121 117 160l647 236v-184l-589 -216l320 -364q163 -185 146 -347q-17 -152 -148 -238q-71 -47 -174 -47z" />
    <glyph glyph-name="uniFB91" unicode="&#x6a9;" horiz-adv-x="1066" arabic-form="medial" 
d="M697 220q-76 -221 -308 -221h-402v189h353q207 0 208 134q0 56 -107 178l-271 309q-52 59 -79 96q-27 35 -22 94q10 122 117 161l648 235v-184l-590 -213l576 -654q137 -155 227 -155h30v-189h-21q-202 0 -359 220z" />
    <glyph glyph-name="uniFB92" unicode="&#x6af;" horiz-adv-x="1835" arabic-form="isolated" 
d="M1749.86 1521.62l-654.808 -241.808v112.345l654.808 241.808v-112.345zM270 452q0 -263 197 -263h823q206 0 208 134q1 55 -107 178l-271 309q-55 63 -81 98q-24 33 -21 83q10 129 119 169l647 236v-184l-589 -212l333 -376q150 -169 131 -337q-17 -151 -140 -233
q-81 -54 -180 -54h-864q-384 0 -384 442v214l179 -1v-203z" />
    <glyph glyph-name="uniFB93" unicode="&#x6af;" horiz-adv-x="2038" arabic-form="final" 
d="M269 453q0 -264 198 -264h847q207 0 207 134q1 56 -107 178l-270 309q-52 59 -80 96q-26 35 -22 85q10 131 118 170l647 235v-184l-587 -215l589 -667q124 -140 214 -140h28v-189h-21q-202 0 -360 220q-74 -221 -308 -221h-888q-384 0 -384 442v215h179v-204z
M1797.86 1522.62l-654.808 -241.808v112.345l654.808 241.808v-112.345z" />
    <glyph glyph-name="uniFB94" unicode="&#x6af;" horiz-adv-x="888" arabic-form="initial" 
d="M391 0h-404v189h356q207 0 208 134q0 56 -107 178l-271 309q-58 66 -80 96q-26 35 -21 94q10 121 117 160l647 236v-184l-589 -216l320 -364q163 -185 146 -347q-17 -152 -148 -238q-71 -47 -174 -47zM804.856 1522.62l-654.808 -241.808v112.345l654.808 241.808
v-112.345z" />
    <glyph glyph-name="uniFB95" unicode="&#x6af;" horiz-adv-x="1066" arabic-form="medial" 
d="M697 220q-76 -221 -308 -221h-402v189h353q207 0 208 134q0 56 -107 178l-271 309q-52 59 -79 96q-27 35 -22 94q10 122 117 161l648 235v-184l-590 -213l576 -654q137 -155 227 -155h30v-189h-21q-202 0 -359 220zM802.856 1522.62l-654.808 -241.808v112.345
l654.808 241.808v-112.345z" />
    <glyph glyph-name="uniFB9E" unicode="&#x6ba;" horiz-adv-x="1462" arabic-form="isolated" 
d="M91 497h179v-341q0 -388 454 -388h42h41q382 6 382 392l-1 496h182v-506q0 -561 -571 -571h-34h-43q-631 0 -631 575v343z" />
    <glyph glyph-name="uniFB9F" unicode="&#x6ba;" horiz-adv-x="1610" arabic-form="final" 
d="M91 446h179v-402q0 -312 365 -312h49l73 1q389 3 389 316v556h181v-186q0 -230 229 -230h69v-189h-138q-78 0 -164 90v-46q0 -495 -574 -500l-65 -1h-51q-542 0 -542 500v403z" />
    <glyph glyph-name="uniFBAC" unicode="&#x6be;" horiz-adv-x="1253" arabic-form="initial" 
d="M461 240q75 17 135 138q24 50 33 93q20 107 -63 150q-63 34 -131 7q-97 -40 -124 -130q-31 -110 21 -183t129 -75zM630 183q112 -62 201 -73q72 -8 108 23q54 47 62 114q15 129 -255 385q76 -263 -116 -449zM616 756l104 151q445 -418 439 -683q-2 -140 -140 -241
q-78 -57 -227 -33q-170 28 -320 120q-234 -70 -422 -70h-63v189h267q-115 93 -115 253q1 107 60 200q74 115 199 142q112 24 218 -28z" />
    <glyph glyph-name="uniFBAD" unicode="&#x6be;" horiz-adv-x="961" arabic-form="medial" 
d="M177 2l-186 -3v189h191q-9 231 52 366q101 222 313 202q110 -10 176 -84q88 -100 78 -234q-10 -146 -109 -248l280 -1v-190l-286 1q100 -102 109 -248q10 -135 -78 -234q-65 -74 -176 -84q-212 -19 -312 202q-61 135 -52 366zM635 -250q-1 105 -66 181q-59 69 -157 70
l-78 1q-8 -65 4 -161q31 -250 156 -250q142 1 141 159zM640 440q1 159 -140 159q-125 0 -157 -250q-12 -96 -4 -161l79 1q97 1 156 70q65 76 66 181z" />
    <glyph glyph-name="uniFBE8" unicode="&#x649;" horiz-adv-x="678" arabic-form="initial" 
d="M586 410q0 -411 -343 -411h-256v189h241q180 0 180 217v286h178v-281z" />
    <glyph glyph-name="uniFBE9" unicode="&#x649;" horiz-adv-x="877" arabic-form="medial" 
d="M597 397q0 -209 263 -209h26v-189h-95q-168 0 -268 110l-20 20l-18 -21q-98 -109 -269 -109h-225v189h170q252 0 252 209v254h184v-254z" />
    <glyph glyph-name="uniFBFC" unicode="&#x6cc;" horiz-adv-x="1476" arabic-form="isolated" 
d="M1161 263q224 0 224 -222v-29q-2 -515 -560 -521h-55h-79q-600 0 -601 565v443h179v-442q0 -377 424 -377h77l64 1q375 3 375 313v12q0 78 -79 78l-191 1q-173 0 -173 167v65q0 473 423 473h196l1 -189h-239q-197 0 -202 -277l-2 -61h218z" />
    <glyph glyph-name="uniFBFD" unicode="&#x6cc;" horiz-adv-x="1466" arabic-form="final" 
d="M747 -511q-656 0 -657 472v403l179 -1v-401q0 -284 480 -284h42l34 1q374 6 374 231v90h-251q-53 0 -76 90t7 98l599 1v-189h-102v-87q0 -410 -560 -424h-25h-44z" />
    <glyph glyph-name="uniFBFE" unicode="&#x6cc;" horiz-adv-x="721" arabic-form="initial" 
d="M371 -335q0 54 37.5 91.5t91.5 37.5q55 0 92 -37q19 -19 28.5 -42t9.5 -49q0 -55 -37.5 -92.5t-91.5 -37.5q-55 0 -92.5 37.5t-37.5 91.5zM47 -335q0 54 37.5 91.5t91.5 37.5q55 0 92.5 -37.5t37.5 -90.5q0 -55 -37.5 -92.5t-91.5 -37.5q-55 0 -92.5 37.5t-37.5 91.5z
M586 410q0 -411 -343 -411h-256v189h241q180 0 180 217v286h178v-281z" />
    <glyph glyph-name="uniFBFF" unicode="&#x6cc;" horiz-adv-x="877" arabic-form="medial" 
d="M383 -335q0 54 37.5 91.5t91.5 37.5q55 0 92 -37q19 -19 28.5 -42t9.5 -49q0 -55 -37.5 -92.5t-91.5 -37.5q-55 0 -92.5 37.5t-37.5 91.5zM59 -335q0 54 37.5 91.5t91.5 37.5q55 0 92.5 -37.5t37.5 -90.5q0 -55 -37.5 -92.5t-91.5 -37.5q-55 0 -92.5 37.5t-37.5 91.5z
M597 397q0 -209 263 -209h26v-189h-95q-168 0 -268 110l-20 20l-18 -21q-98 -109 -269 -109h-225v189h170q252 0 252 209v254h184v-254z" />
    <glyph glyph-name="uniFE71" unicode="&#xfe71;" horiz-adv-x="642" arabic-form="medial" 
d="M-9 0v189h780v-189h-780zM59 993v127l494 202v-127zM59 1252v127l494 202v-127z" />
    <glyph glyph-name="uniFE77" unicode="&#xfe77;" horiz-adv-x="642" arabic-form="medial" 
d="M30 1251v127l494 202v-127zM-9 0v189h780v-189h-780z" />
    <glyph glyph-name="uniFE79" unicode="&#xfe79;" horiz-adv-x="642" arabic-form="medial" 
d="M368 1427q-8 2 -27 11q-109 57 -109 151q0 86 69 138q26 20 89 20q73 0 112 -38q55 -54 55 -133q0 -33 -14 -79l-5 -16l16 -1q19 -1 38 -1q13 -1 28 -1v-91q-30 0 -58 2q-31 2 -61 5l-8 1l-4 -7q-45 -63 -116 -106q-202 -124 -352 -130v92q161 5 307 119q25 20 46 42
l16 17zM444 1497l11 25q10 25 10 54q0 42 -22 61q-22 18 -48 18q-29 0 -45 -12q-24 -19 -24 -54q0 -49 56 -71q22 -9 51 -18zM-9 0v189h780v-189h-780z" />
    <glyph glyph-name="uniFE7B" unicode="&#xfe7b;" horiz-adv-x="642" arabic-form="medial" 
d="M74 -343v127l494 202v-127zM-9 0v189h780v-189h-780z" />
    <glyph glyph-name="uniFE7D" unicode="&#xfe7d;" horiz-adv-x="642" arabic-form="medial" 
d="M281 1339q-38 -45 -129 -45q-78 0 -118 62q-34 52 -34 130q0 41 15 141h79q-11 -124 -11 -167q0 -65 89 -67q98 -2 107 126q2 26 2 162h78q2 -35 2 -83q0 -146 113 -146q85 0 85 147q0 110 -11 171h83q11 -75 11 -189q0 -69 -28 -124q-45 -90 -118 -98q-65 -7 -107 20
q-59 40 -61 52q-9 -47 -47 -92zM-9 0v189h780v-189h-780z" />
    <glyph glyph-name="uniFE7F" unicode="&#xfe7f;" horiz-adv-x="642" arabic-form="medial" 
d="M-9 0v189h780v-189h-780zM448 1384q0 44 -31.5 75t-76.5 31q-46 0 -76.5 -30.5t-30.5 -75.5q0 -46 30.5 -77t76.5 -31q45 0 76.5 31t31.5 77zM523 1384q0 -77 -53 -130.5t-129.5 -53.5t-130 53.5t-53.5 130.5t53.5 130t130 53t129.5 -53t53 -130z" />
    <glyph glyph-name="uniFE80" unicode="&#x621;" horiz-adv-x="807" arabic-form="isolated" 
d="M445 670q-188 -14 -188 -164q0 -143 169 -175q38 -8 93 -8t149 49l47 -158l-548 -210l-61 144l213 75q-228 59 -227 293q0 174 139 260q96 60 216 54q79 -4 150 -34v-152q-110 30 -152 26z" />
    <glyph glyph-name="uniFE81" unicode="&#x622;" horiz-adv-x="491" arabic-form="isolated" 
d="M146 1754h404l2 -151h-394q-89 0 -152 -83l-20 -26l-102 115l11 18q84 127 251 127zM157 1388h175v-1387h-175v1387z" />
    <glyph glyph-name="uniFE82" unicode="&#x622;" horiz-adv-x="551" arabic-form="final" 
d="M336 426q0 -238 198 -238h26v-189h-19q-382 0 -383 418v970h178v-961zM195 1742h404l2 -151h-394q-89 0 -152 -83l-20 -26l-102 115l11 18q84 127 251 127z" />
    <glyph glyph-name="uniFE83" unicode="&#x623;" horiz-adv-x="491" arabic-form="isolated" 
d="M15 1548l109 25q-80 47 -99 117q-8 31 -8 69q0 106 111 169q84 48 201 23q38 -8 83 -32v-115l-20 9q-84 34 -137 29q-120 -12 -127 -87q-8 -94 121 -133q42 -9 190 23v-121l-424 -95v119zM157 1388h175v-1387h-175v1387z" />
    <glyph glyph-name="uniFE84" unicode="&#x623;" horiz-adv-x="551" arabic-form="final" 
d="M336 426q0 -238 198 -238h26v-189h-19q-382 0 -383 418v970h178v-961zM26 1544l109 25q-80 47 -99 117q-8 31 -8 69q0 106 111 169q84 48 201 23q38 -8 83 -32v-115l-20 9q-84 34 -137 29q-120 -12 -127 -87q-8 -94 121 -133q42 -9 190 23v-121l-424 -95v119z" />
    <glyph glyph-name="uniFE85" unicode="&#x624;" horiz-adv-x="857" arabic-form="isolated" 
d="M197 939l109 25q-80 47 -99 117q-8 31 -8 69q0 106 111 169q84 48 201 23q38 -8 83 -32v-115l-20 9q-84 34 -137 29q-120 -12 -127 -87q-8 -94 121 -133q42 -9 190 23v-121l-424 -95v119zM510 533q-36 19 -93 19q-135 -1 -158 -127.5t25 -193.5q37 -51 178 -50
q44 0 128 11q3 47 3 88q0 211 -83 253zM579 2q-35 -6 -93 -6h-61q-335 0 -334 354q0 148 60 242q87 138 274 138q231 0 316 -226q23 -61 25 -186q0 -2 -1 -322v-7q0 -502 -553 -501q-1 -1 -91 0h-3v188h100q361 -1 361 281v45z" />
    <glyph glyph-name="uniFE86" unicode="&#x624;" horiz-adv-x="911" arabic-form="final" 
d="M766 292l-3 -106l158 3v-189h-157q-8 -511 -541 -510h-106v188h100q348 -1 362 302l1 20h-11h-68h-116q-152 0 -232 90q-81 89 -62 324q12 149 79 223q92 100 268 97q276 -5 319 -279q10 -61 9 -163zM434 558q-174 8 -184 -168q-7 -139 47 -175q70 -46 293 -21
q8 241 -28 300.5t-128 63.5zM219 956l109 25q-80 47 -99 117q-8 31 -8 69q0 106 111 169q84 48 201 23q38 -8 83 -32v-115l-20 9q-84 34 -137 29q-120 -12 -127 -87q-8 -94 121 -133q42 -9 190 23v-121l-424 -95v119z" />
    <glyph glyph-name="uniFE87" unicode="&#x625;" horiz-adv-x="491" arabic-form="isolated" 
d="M23 -484l109 25q-80 47 -99 117q-8 31 -8 69q0 106 111 169q84 48 201 23q38 -8 83 -32v-115l-20 9q-84 34 -137 29q-120 -12 -127 -87q-8 -94 121 -133q42 -9 190 23v-121l-424 -95v119zM157 1388h175v-1387h-175v1387z" />
    <glyph glyph-name="uniFE88" unicode="&#x625;" horiz-adv-x="551" arabic-form="final" 
d="M336 426q0 -238 198 -238h26v-189h-19q-382 0 -383 418v970h178v-961zM74 -493l109 25q-80 47 -99 117q-8 31 -8 69q0 106 111 169q84 48 201 23q38 -8 83 -32v-115l-20 9q-84 34 -137 29q-120 -12 -127 -87q-8 -94 121 -133q42 -9 190 23v-121l-424 -95v119z" />
    <glyph glyph-name="uniFE89" unicode="&#x626;" horiz-adv-x="1476" arabic-form="isolated" 
d="M273 714l109 25q-80 47 -99 117q-8 31 -8 69q0 106 111 169q84 48 201 23q38 -8 83 -32v-115l-20 9q-84 34 -137 29q-120 -12 -127 -87q-8 -94 121 -133q42 -9 190 23v-121l-424 -95v119zM1161 263q224 0 224 -222v-29q-2 -515 -560 -521h-55h-79q-600 0 -601 565v443
h179v-442q0 -377 424 -377h77l64 1q375 3 375 313v12q0 78 -79 78l-191 1q-173 0 -173 167v65q0 473 423 473h196l1 -189h-239q-197 0 -202 -277l-2 -61h218z" />
    <glyph glyph-name="uniFE8A" unicode="&#x626;" horiz-adv-x="1466" arabic-form="final" 
d="M747 -511q-656 0 -657 472v403l179 -1v-401q0 -284 480 -284h42l34 1q374 6 374 231v90h-251q-53 0 -76 90t7 98l599 1v-189h-102v-87q0 -410 -560 -424h-25h-44zM364 480l109 25q-80 47 -99 117q-8 31 -8 69q0 106 111 169q84 48 201 23q38 -8 83 -32v-115l-20 9
q-84 34 -137 29q-120 -12 -127 -87q-8 -94 121 -133q42 -9 190 23v-121l-424 -95v119z" />
    <glyph glyph-name="uniFE8B" unicode="&#x626;" horiz-adv-x="678" arabic-form="initial" 
d="M586 410q0 -411 -343 -411h-256v189h241q180 0 180 217v286h178v-281zM180 901l109 25q-80 47 -99 117q-8 31 -8 69q0 106 111 169q84 48 201 23q38 -8 83 -32v-115l-20 9q-84 34 -137 29q-120 -12 -127 -87q-8 -94 121 -133q42 -9 190 23v-121l-424 -95v119z" />
    <glyph glyph-name="uniFE8C" unicode="&#x626;" horiz-adv-x="877" arabic-form="medial" 
d="M597 397q0 -209 263 -209h26v-189h-95q-168 0 -268 110l-20 20l-18 -21q-98 -109 -269 -109h-225v189h170q252 0 252 209v254h184v-254zM241 869l109 25q-80 47 -99 117q-8 31 -8 69q0 106 111 169q84 48 201 23q38 -8 83 -32v-115l-20 9q-84 34 -137 29
q-120 -12 -127 -87q-8 -94 121 -133q42 -9 190 23v-121l-424 -95v119z" />
    <glyph glyph-name="uniFE8D" unicode="&#x627;" horiz-adv-x="491" arabic-form="isolated" 
d="M157 1388h175v-1387h-175v1387z" />
    <glyph glyph-name="uniFE8E" unicode="&#x627;" horiz-adv-x="551" arabic-form="final" 
d="M336 426q0 -238 198 -238h26v-189h-19q-382 0 -383 418v970h178v-961z" />
    <glyph glyph-name="uniFE8F" unicode="&#x628;" horiz-adv-x="1931" arabic-form="isolated" 
d="M858 -335q0 54 37.5 91.5t91.5 37.5q55 0 92.5 -37.5t37.5 -90.5q0 -55 -37.5 -92.5t-91.5 -37.5q-55 0 -92.5 37.5t-37.5 91.5zM1463 189q198 1 198 262v203h178v-206q0 -301 -165 -399q-83 -49 -208 -49h-1003q-372 0 -372 442v212h179v-201q0 -264 197 -264h996z" />
    <glyph glyph-name="uniFE90" unicode="&#x628;" horiz-adv-x="2070" arabic-form="final" 
d="M868 -335q0 54 37.5 91.5t91.5 37.5q55 0 92.5 -37.5t37.5 -90.5q0 -55 -37.5 -92.5t-91.5 -37.5q-55 0 -92.5 37.5t-37.5 91.5zM270 452q0 -264 197 -264h665l270 3q262 4 261 233v222h183v-224q0 -233 203 -233h32v-189h-34q-221 0 -288 163l-8 18q-120 -182 -392 -182
h-897q-371 0 -371 455v202h179v-204z" />
    <glyph glyph-name="uniFE91" unicode="&#x628;" horiz-adv-x="678" arabic-form="initial" 
d="M110 -335q0 54 37.5 91.5t91.5 37.5q55 0 92.5 -37.5t37.5 -90.5q0 -55 -37.5 -92.5t-91.5 -37.5q-55 0 -92.5 37.5t-37.5 91.5zM586 410q0 -411 -343 -411h-256v189h241q180 0 180 217v286h178v-281z" />
    <glyph glyph-name="uniFE92" unicode="&#x628;" horiz-adv-x="887" arabic-form="medial" 
d="M150 -335q0 54 37.5 91.5t91.5 37.5q55 0 92.5 -37.5t37.5 -90.5q0 -55 -37.5 -92.5t-91.5 -37.5q-55 0 -92.5 37.5t-37.5 91.5zM597 397q0 -209 263 -209h26v-189h-95q-168 0 -268 110l-20 20l-18 -21q-98 -109 -269 -109h-225v189h170q252 0 252 209v254h184v-254z" />
    <glyph glyph-name="uniFE93" unicode="&#x629;" horiz-adv-x="904" arabic-form="isolated" 
d="M485 1187q0 54 37.5 91.5t91.5 37.5q55 0 92 -37q19 -19 28.5 -42t9.5 -49q0 -55 -37.5 -92.5t-91.5 -37.5q-55 0 -92.5 37.5t-37.5 91.5zM161 1187q0 54 37.5 91.5t91.5 37.5q55 0 92.5 -37.5t37.5 -90.5q0 -55 -37.5 -92.5t-91.5 -37.5q-55 0 -92.5 37.5t-37.5 91.5z
M448 625q-186 -187 -186 -306q0 -137 190 -137q195 0 195 133q0 119 -199 310zM245 41q-154 79 -154 241q0 206 237 462l-39 35l105 119q304 -238 388 -463q31 -83 31 -160q0 -139 -123 -223q-72 -50 -226 -51q-139 -2 -219 40z" />
    <glyph glyph-name="uniFE94" unicode="&#x629;" horiz-adv-x="1148" arabic-form="final" 
d="M605 1268q0 54 37.5 91.5t91.5 37.5q55 0 92 -37q19 -19 28.5 -42t9.5 -49q0 -55 -37.5 -92.5t-91.5 -37.5q-55 0 -92.5 37.5t-37.5 91.5zM281 1268q0 54 37.5 91.5t91.5 37.5q55 0 92.5 -37.5t37.5 -90.5q0 -55 -37.5 -92.5t-91.5 -37.5q-55 0 -92.5 37.5t-37.5 91.5z
M706 370l-53 296q-404 -50 -402 -218q2 -123 455 -78zM764 187q-651 -68 -674 212q-27 342 523 430l-18 94l179 34l99 -577q33 -191 211 -191h29l1 -189h-51q-235 0 -299 187z" />
    <glyph glyph-name="uniFE95" unicode="&#x62a;" horiz-adv-x="1931" arabic-form="isolated" 
d="M990 893q0 54 37.5 91.5t91.5 37.5q55 0 92 -37q19 -19 28.5 -42t9.5 -49q0 -55 -37.5 -92.5t-91.5 -37.5q-55 0 -92.5 37.5t-37.5 91.5zM666 893q0 54 37.5 91.5t91.5 37.5q55 0 92.5 -37.5t37.5 -90.5q0 -55 -37.5 -92.5t-91.5 -37.5q-55 0 -92.5 37.5t-37.5 91.5z
M1463 189q198 1 198 262v203h178v-206q0 -301 -165 -399q-83 -49 -208 -49h-1003q-372 0 -372 442v212h179v-201q0 -264 197 -264h996z" />
    <glyph glyph-name="uniFE96" unicode="&#x62a;" horiz-adv-x="2070" arabic-form="final" 
d="M993 881q0 54 37.5 91.5t91.5 37.5q55 0 92 -37q19 -19 28.5 -42t9.5 -49q0 -55 -37.5 -92.5t-91.5 -37.5q-55 0 -92.5 37.5t-37.5 91.5zM669 881q0 54 37.5 91.5t91.5 37.5q55 0 92.5 -37.5t37.5 -90.5q0 -55 -37.5 -92.5t-91.5 -37.5q-55 0 -92.5 37.5t-37.5 91.5z
M270 452q0 -264 197 -264h665l270 3q262 4 261 233v222h183v-224q0 -233 203 -233h32v-189h-34q-221 0 -288 163l-8 18q-120 -182 -392 -182h-897q-371 0 -371 455v202h179v-204z" />
    <glyph glyph-name="uniFE97" unicode="&#x62a;" horiz-adv-x="696" arabic-form="initial" 
d="M368 1035q0 54 37.5 91.5t91.5 37.5q55 0 92 -37q19 -19 28.5 -42t9.5 -49q0 -55 -37.5 -92.5t-91.5 -37.5q-55 0 -92.5 37.5t-37.5 91.5zM44 1035q0 54 37.5 91.5t91.5 37.5q55 0 92.5 -37.5t37.5 -90.5q0 -55 -37.5 -92.5t-91.5 -37.5q-55 0 -92.5 37.5t-37.5 91.5z
M586 410q0 -411 -343 -411h-256v189h241q180 0 180 217v286h178v-281z" />
    <glyph glyph-name="uniFE98" unicode="&#x62a;" horiz-adv-x="877" arabic-form="medial" 
d="M407 1036q0 54 37.5 91.5t91.5 37.5q55 0 92 -37q19 -19 28.5 -42t9.5 -49q0 -55 -37.5 -92.5t-91.5 -37.5q-55 0 -92.5 37.5t-37.5 91.5zM83 1036q0 54 37.5 91.5t91.5 37.5q55 0 92.5 -37.5t37.5 -90.5q0 -55 -37.5 -92.5t-91.5 -37.5q-55 0 -92.5 37.5t-37.5 91.5z
M597 397q0 -209 263 -209h26v-189h-95q-168 0 -268 110l-20 20l-18 -21q-98 -109 -269 -109h-225v189h170q252 0 252 209v254h184v-254z" />
    <glyph glyph-name="uniFE99" unicode="&#x62b;" horiz-adv-x="1931" arabic-form="isolated" 
d="M824 1122q0 54 37.5 91.5t90.5 37.5q55 0 92.5 -37.5t37.5 -90.5q0 -55 -37.5 -92.5t-90.5 -37.5q-55 0 -92.5 37.5t-37.5 91.5zM984 812q0 54 37.5 91.5t91.5 37.5q55 0 92 -37q19 -19 28.5 -42t9.5 -49q0 -55 -37.5 -92.5t-91.5 -37.5q-55 0 -92.5 37.5t-37.5 91.5z
M660 812q0 54 37.5 91.5t91.5 37.5q55 0 92.5 -37.5t37.5 -90.5q0 -55 -37.5 -92.5t-91.5 -37.5q-55 0 -92.5 37.5t-37.5 91.5zM1463 189q198 1 198 262v203h178v-206q0 -301 -165 -399q-83 -49 -208 -49h-1003q-372 0 -372 442v212h179v-201q0 -264 197 -264h996z" />
    <glyph glyph-name="uniFE9A" unicode="&#x62b;" horiz-adv-x="2070" arabic-form="final" 
d="M832 1119q0 54 37.5 91.5t90.5 37.5q55 0 92.5 -37.5t37.5 -90.5q0 -55 -37.5 -92.5t-90.5 -37.5q-55 0 -92.5 37.5t-37.5 91.5zM992 809q0 54 37.5 91.5t91.5 37.5q55 0 92 -37q19 -19 28.5 -42t9.5 -49q0 -55 -37.5 -92.5t-91.5 -37.5q-55 0 -92.5 37.5t-37.5 91.5z
M668 809q0 54 37.5 91.5t91.5 37.5q55 0 92.5 -37.5t37.5 -90.5q0 -55 -37.5 -92.5t-91.5 -37.5q-55 0 -92.5 37.5t-37.5 91.5zM270 452q0 -264 197 -264h665l270 3q262 4 261 233v222h183v-224q0 -233 203 -233h32v-189h-34q-221 0 -288 163l-8 18q-120 -182 -392 -182
h-897q-371 0 -371 455v202h179v-204z" />
    <glyph glyph-name="uniFE9B" unicode="&#x62b;" horiz-adv-x="722" arabic-form="initial" 
d="M238 1302q0 54 37.5 91.5t90.5 37.5q55 0 92.5 -37.5t37.5 -90.5q0 -55 -37.5 -92.5t-90.5 -37.5q-55 0 -92.5 37.5t-37.5 91.5zM398 992q0 54 37.5 91.5t91.5 37.5q55 0 92 -37q19 -19 28.5 -42t9.5 -49q0 -55 -37.5 -92.5t-91.5 -37.5q-55 0 -92.5 37.5t-37.5 91.5z
M74 992q0 54 37.5 91.5t91.5 37.5q55 0 92.5 -37.5t37.5 -90.5q0 -55 -37.5 -92.5t-91.5 -37.5q-55 0 -92.5 37.5t-37.5 91.5zM586 410q0 -411 -343 -411h-256v189h241q180 0 180 217v286h178v-281z" />
    <glyph glyph-name="uniFE9C" unicode="&#x62b;" horiz-adv-x="877" arabic-form="medial" 
d="M220 1287q0 54 37.5 91.5t90.5 37.5q55 0 92.5 -37.5t37.5 -90.5q0 -55 -37.5 -92.5t-90.5 -37.5q-55 0 -92.5 37.5t-37.5 91.5zM380 977q0 54 37.5 91.5t91.5 37.5q55 0 92 -37q19 -19 28.5 -42t9.5 -49q0 -55 -37.5 -92.5t-91.5 -37.5q-55 0 -92.5 37.5t-37.5 91.5z
M56 977q0 54 37.5 91.5t91.5 37.5q55 0 92.5 -37.5t37.5 -90.5q0 -55 -37.5 -92.5t-91.5 -37.5q-55 0 -92.5 37.5t-37.5 91.5zM597 397q0 -209 263 -209h26v-189h-95q-168 0 -268 110l-20 20l-18 -21q-98 -109 -269 -109h-225v189h170q252 0 252 209v254h184v-254z" />
    <glyph glyph-name="uniFE9D" unicode="&#x62c;" horiz-adv-x="1369" arabic-form="isolated" 
d="M676 -155q0 54 37.5 91.5t91.5 37.5q55 0 92.5 -37.5t37.5 -90.5q0 -55 -37.5 -92.5t-91.5 -37.5q-55 0 -92.5 37.5t-37.5 91.5zM1088 305q-821 -123 -822 -503q-2 -375 548 -374h414v-183h-426q-388 1 -550 156q-165 158 -162 383q6 558 897 671q0 20 -35 36l-218 101
q-83 39 -155 39q-78 0 -140 -47l-156 -118l-118 133l146 122q123 104 260 104q97 0 200 -52l321 -160q133 -66 133 -147v-142q-79 -7 -137 -19z" />
    <glyph glyph-name="uniFE9E" unicode="&#x62c;" horiz-adv-x="1369" arabic-form="final" 
d="M629 -179q0 54 37.5 91.5t91.5 37.5q55 0 92.5 -37.5t37.5 -90.5q0 -55 -37.5 -92.5t-91.5 -37.5q-55 0 -92.5 37.5t-37.5 91.5zM987 455q0 20 -35 36l-218 101q-83 39 -155 39q-78 0 -140 -47l-156 -118l-118 133l146 122q123 104 260 104q97 0 200 -52l321 -160
q133 -66 133 -147v-142q-79 -7 -137 -19q-19 -116 235 -116h58v-189h-19q-394 0 -428 265q-667 -103 -668 -463q-2 -375 548 -374h414v-183h-426q-388 1 -550 156q-165 158 -162 383q6 558 897 671z" />
    <glyph glyph-name="uniFE9F" unicode="&#x62c;" horiz-adv-x="1293" arabic-form="initial" 
d="M374 -335q0 54 37.5 91.5t91.5 37.5q55 0 92.5 -37.5t37.5 -90.5q0 -55 -37.5 -92.5t-91.5 -37.5q-55 0 -92.5 37.5t-37.5 91.5zM977 219l-162 -91q-228 -128 -493 -128h-331v189l329 1q215 0 385 86l170 86q106 54 108 59l-79 42l-241 125q-168 88 -295 -8l-156 -118
l-118 132l146 123q216 182 460 52l344 -184q299 -160 -67 -366z" />
    <glyph glyph-name="uniFEA0" unicode="&#x62c;" horiz-adv-x="1319" arabic-form="medial" 
d="M404 -335q0 54 37.5 91.5t91.5 37.5q55 0 92.5 -37.5t37.5 -90.5q0 -55 -37.5 -92.5t-91.5 -37.5q-55 0 -92.5 37.5t-37.5 91.5zM921 186l-107 -59q-231 -127 -492 -127h-331v189l329 1q218 0 384 85l170 87l111 58l-82 43l-240 126q-74 39 -155 39q-78 0 -140 -47
l-156 -118l-118 132l146 123q123 104 260 104q104 0 200 -52l343 -185q133 -72 133 -147q0 -81 -134 -176q72 -72 191 -73h96v-189h-93q-205 0 -315 186z" />
    <glyph glyph-name="uniFEA1" unicode="&#x62d;" horiz-adv-x="1351" arabic-form="isolated" 
d="M1088 305q-821 -123 -822 -503q-2 -375 548 -374h414v-183h-426q-388 1 -550 156q-165 158 -162 383q6 558 897 671q0 20 -35 36l-218 101q-83 39 -155 39q-78 0 -140 -47l-156 -118l-118 133l146 122q123 104 260 104q97 0 200 -52l321 -160q133 -66 133 -147v-142
q-79 -7 -137 -19z" />
    <glyph glyph-name="uniFEA2" unicode="&#x62d;" horiz-adv-x="1369" arabic-form="final" 
d="M987 455q0 20 -35 36l-218 101q-83 39 -155 39q-78 0 -140 -47l-156 -118l-118 133l146 122q123 104 260 104q97 0 200 -52l321 -160q133 -66 133 -147v-142q-79 -7 -137 -19q-19 -116 235 -116h58v-189h-19q-394 0 -428 265q-667 -103 -668 -463q-2 -375 548 -374h414
v-183h-426q-388 1 -550 156q-165 158 -162 383q6 558 897 671z" />
    <glyph glyph-name="uniFEA3" unicode="&#x62d;" horiz-adv-x="1293" arabic-form="initial" 
d="M977 219l-162 -91q-228 -128 -493 -128h-331v189l329 1q215 0 385 86l170 86q106 54 108 59l-79 42l-241 125q-168 88 -295 -8l-156 -118l-118 132l146 123q216 182 460 52l344 -184q299 -160 -67 -366z" />
    <glyph glyph-name="uniFEA4" unicode="&#x62d;" horiz-adv-x="1319" arabic-form="medial" 
d="M921 186l-107 -59q-231 -127 -492 -127h-331v189l329 1q218 0 384 85l170 87l111 58l-82 43l-240 126q-74 39 -155 39q-78 0 -140 -47l-156 -118l-118 132l146 123q123 104 260 104q104 0 200 -52l343 -185q133 -72 133 -147q0 -81 -134 -176q72 -72 191 -73h96v-189h-93
q-205 0 -315 186z" />
    <glyph glyph-name="uniFEA5" unicode="&#x62e;" horiz-adv-x="1369" arabic-form="isolated" 
d="M507 1219q0 54 37.5 91.5t91.5 37.5q55 0 92.5 -37.5t37.5 -90.5q0 -55 -37.5 -92.5t-91.5 -37.5q-55 0 -92.5 37.5t-37.5 91.5zM1088 305q-821 -123 -822 -503q-2 -375 548 -374h414v-183h-426q-388 1 -550 156q-165 158 -162 383q6 558 897 671q0 20 -35 36l-218 101
q-83 39 -155 39q-78 0 -140 -47l-156 -118l-118 133l146 122q123 104 260 104q97 0 200 -52l321 -160q133 -66 133 -147v-142q-79 -7 -137 -19z" />
    <glyph glyph-name="uniFEA6" unicode="&#x62e;" horiz-adv-x="1369" arabic-form="final" 
d="M542 1223q0 54 37.5 91.5t91.5 37.5q55 0 92.5 -37.5t37.5 -90.5q0 -55 -37.5 -92.5t-91.5 -37.5q-55 0 -92.5 37.5t-37.5 91.5zM987 455q0 20 -35 36l-218 101q-83 39 -155 39q-78 0 -140 -47l-156 -118l-118 133l146 122q123 104 260 104q97 0 200 -52l321 -160
q133 -66 133 -147v-142q-79 -7 -137 -19q-19 -116 235 -116h58v-189h-19q-394 0 -428 265q-667 -103 -668 -463q-2 -375 548 -374h414v-183h-426q-388 1 -550 156q-165 158 -162 383q6 558 897 671z" />
    <glyph glyph-name="uniFEA7" unicode="&#x62e;" horiz-adv-x="1293" arabic-form="initial" 
d="M416 1186q0 54 37.5 91.5t91.5 37.5q55 0 92.5 -37.5t37.5 -90.5q0 -55 -37.5 -92.5t-91.5 -37.5q-55 0 -92.5 37.5t-37.5 91.5zM977 219l-162 -91q-228 -128 -493 -128h-331v189l329 1q215 0 385 86l170 86q106 54 108 59l-79 42l-241 125q-168 88 -295 -8l-156 -118
l-118 132l146 123q216 182 460 52l344 -184q299 -160 -67 -366z" />
    <glyph glyph-name="uniFEA8" unicode="&#x62e;" horiz-adv-x="1319" arabic-form="medial" 
d="M431 1175q0 54 37.5 91.5t91.5 37.5q55 0 92.5 -37.5t37.5 -90.5q0 -55 -37.5 -92.5t-91.5 -37.5q-55 0 -92.5 37.5t-37.5 91.5zM921 186l-107 -59q-231 -127 -492 -127h-331v189l329 1q218 0 384 85l170 87l111 58l-82 43l-240 126q-74 39 -155 39q-78 0 -140 -47
l-156 -118l-118 132l146 123q123 104 260 104q104 0 200 -52l343 -185q133 -72 133 -147q0 -81 -134 -176q72 -72 191 -73h96v-189h-93q-205 0 -315 186z" />
    <glyph glyph-name="uniFEA9" unicode="&#x62f;" horiz-adv-x="979" arabic-form="isolated" 
d="M487 -1h-396v189h3q375 -1 453.5 6t102.5 16q97 38 54 153q-20 54 -179 237l-183 212l118 131l166 -190q198 -227 201 -232q113 -159 61 -317q-70 -206 -401 -205z" />
    <glyph glyph-name="uniFEAA" unicode="&#x62f;" horiz-adv-x="1194" arabic-form="final" 
d="M1153 0q-133 1 -281 150q-88 -135 -309 -151h-471v189h268q227 -2 295 26q98 41 49 156q-16 36 -96 129l-268 312l131 130l451 -557q157 -194 268 -195h18v-189h-55z" />
    <glyph glyph-name="uniFEAB" unicode="&#x630;" horiz-adv-x="1000" arabic-form="isolated" 
d="M242 1269q0 54 37.5 91.5t91.5 37.5q55 0 92.5 -37.5t37.5 -90.5q0 -55 -37.5 -92.5t-91.5 -37.5q-55 0 -92.5 37.5t-37.5 91.5zM488 -1h-396v189h3q375 -1 453.5 6t102.5 16q97 38 54 153q-20 54 -179 237l-183 212l118 131l166 -190q198 -227 201 -232
q113 -159 61 -317q-70 -206 -401 -205z" />
    <glyph glyph-name="uniFEAC" unicode="&#x630;" horiz-adv-x="1194" arabic-form="final" 
d="M197 1286q0 54 37.5 91.5t91.5 37.5q55 0 92.5 -37.5t37.5 -90.5q0 -55 -37.5 -92.5t-91.5 -37.5q-55 0 -92.5 37.5t-37.5 91.5zM1153 0q-133 1 -281 150q-88 -135 -309 -151h-471v189h268q227 -2 295 26q98 41 49 156q-16 36 -96 129l-268 312l131 130l451 -557
q157 -194 268 -195h18v-189h-55z" />
    <glyph glyph-name="uniFEAD" unicode="&#x631;" horiz-adv-x="757" arabic-form="isolated" 
d="M124 -324q356 1 356 307v566l186 1v-565q0 -493 -540 -496l-104 -1v188h102z" />
    <glyph glyph-name="uniFEAE" unicode="&#x631;" horiz-adv-x="883" arabic-form="final" 
d="M667 -17q0 -496 -542 -495h-103v188h99q361 -1 361 305v568l184 1v-205q6 -157 207 -157h22v-189h-23q-132 0 -205 79v-95z" />
    <glyph glyph-name="uniFEAF" unicode="&#x632;" horiz-adv-x="757" arabic-form="isolated" 
d="M396 1021q0 54 37.5 91.5t91.5 37.5q55 0 92.5 -37.5t37.5 -90.5q0 -55 -37.5 -92.5t-91.5 -37.5q-55 0 -92.5 37.5t-37.5 91.5zM124 -324q356 1 356 307v566l186 1v-565q0 -493 -540 -496l-104 -1v188h102z" />
    <glyph glyph-name="uniFEB0" unicode="&#x632;" horiz-adv-x="883" arabic-form="final" 
d="M402 1021q0 54 37.5 91.5t91.5 37.5q55 0 92.5 -37.5t37.5 -90.5q0 -55 -37.5 -92.5t-91.5 -37.5q-55 0 -92.5 37.5t-37.5 91.5zM667 -17q0 -496 -542 -495h-103v188h99q361 -1 361 305v568l184 1v-205q6 -157 207 -157h22v-189h-23q-132 0 -205 79v-95z" />
    <glyph glyph-name="uniFEB1" unicode="&#x633;" horiz-adv-x="2463" arabic-form="isolated" 
d="M91 446h179v-402q0 -307 433 -307h26h27q388 8 388 312v596h190v-280q1 -184 197 -187q160 -3 160 219l-1 255h174l1 -261q0 -215 176 -212q151 2 151 233v282h179v-276q0 -418 -335 -419q-205 -1 -265 182q-63 -184 -228 -182q-166 2 -222 100l-1 -55q-3 -479 -573 -496
l-19 -1h-27q-610 0 -610 496v403z" />
    <glyph glyph-name="uniFEB2" unicode="&#x633;" horiz-adv-x="2646" arabic-form="final" 
d="M91 316v130h179v-402q0 -307 433 -307h26h27q388 8 388 312v596h190v-280q1 -184 197 -187q160 -3 160 219l-1 255h174l1 -261q0 -215 176 -212q151 2 151 233v241h179v-235q0 -229 234 -229h52v-189h-85q-200 0 -283 141q-109 -142 -253 -142q-205 0 -265 182
q-63 -184 -228 -182q-166 2 -222 100l-1 -55q-3 -479 -573 -496l-19 -1h-27q-610 0 -610 496v273z" />
    <glyph glyph-name="uniFEB3" unicode="&#x633;" horiz-adv-x="1574" arabic-form="initial" 
d="M367 149q-117 -150 -278 -150h-102v189h33q247 0 247 214l1 245h178v-250q1 -208 177 -208q172 -1 171 204v253h178v-252q1 -205 185 -205q146 -1 146 204v297h179v-298q-1 -393 -317 -393q-230 0 -288 181q-56 -181 -245 -181t-265 150z" />
    <glyph glyph-name="uniFEB4" unicode="&#x633;" horiz-adv-x="1771" arabic-form="medial" 
d="M1667 -1q-179 0 -257 166q-47 -166 -240 -165q-194 0 -270 176q-31 -90 -92 -132q-61 -41 -159 -41q-188 0 -268 157q-64 -161 -291 -161h-100v189h58q243 2 241 188l-3 272h188v-264q0 -195 180 -195q162 0 162 196v263h175l1 -261q1 -198 179 -198q152 0 152 191l1 271
h163v-233q0 -125 88 -191q50 -38 144 -38h62v-190h-114z" />
    <glyph glyph-name="uniFEB5" unicode="&#x634;" horiz-adv-x="2463" arabic-form="isolated" 
d="M1632 1279q0 54 37.5 91.5t90.5 37.5q55 0 92.5 -37.5t37.5 -90.5q0 -55 -37.5 -92.5t-90.5 -37.5q-55 0 -92.5 37.5t-37.5 91.5zM1792 969q0 54 37.5 91.5t91.5 37.5q55 0 92 -37q19 -19 28.5 -42t9.5 -49q0 -55 -37.5 -92.5t-91.5 -37.5q-55 0 -92.5 37.5t-37.5 91.5z
M1468 969q0 54 37.5 91.5t91.5 37.5q55 0 92.5 -37.5t37.5 -90.5q0 -55 -37.5 -92.5t-91.5 -37.5q-55 0 -92.5 37.5t-37.5 91.5zM91 446h179v-402q0 -307 433 -307h26h27q388 8 388 312v596h190v-280q1 -184 197 -187q160 -3 160 219l-1 255h174l1 -261q0 -215 176 -212
q151 2 151 233v282h179v-276q0 -418 -335 -419q-205 -1 -265 182q-63 -184 -228 -182q-166 2 -222 100l-1 -55q-3 -479 -573 -496l-19 -1h-27q-610 0 -610 496v403z" />
    <glyph glyph-name="uniFEB6" unicode="&#x634;" horiz-adv-x="2646" arabic-form="final" 
d="M1616 1271q0 54 37.5 91.5t90.5 37.5q55 0 92.5 -37.5t37.5 -90.5q0 -55 -37.5 -92.5t-90.5 -37.5q-55 0 -92.5 37.5t-37.5 91.5zM1776 961q0 54 37.5 91.5t91.5 37.5q55 0 92 -37q19 -19 28.5 -42t9.5 -49q0 -55 -37.5 -92.5t-91.5 -37.5q-55 0 -92.5 37.5t-37.5 91.5z
M1452 961q0 54 37.5 91.5t91.5 37.5q55 0 92.5 -37.5t37.5 -90.5q0 -55 -37.5 -92.5t-91.5 -37.5q-55 0 -92.5 37.5t-37.5 91.5zM91 316v130h179v-402q0 -307 433 -307h26h27q388 8 388 312v596h190v-280q1 -184 197 -187q160 -3 160 219l-1 255h174l1 -261q0 -215 176 -212
q151 2 151 233v241h179v-235q0 -229 234 -229h52v-189h-85q-200 0 -283 141q-109 -142 -253 -142q-205 0 -265 182q-63 -184 -228 -182q-166 2 -222 100l-1 -55q-3 -479 -573 -496l-19 -1h-27q-610 0 -610 496v273z" />
    <glyph glyph-name="uniFEB7" unicode="&#x634;" horiz-adv-x="1574" arabic-form="initial" 
d="M742 1275q0 54 37.5 91.5t90.5 37.5q55 0 92.5 -37.5t37.5 -90.5q0 -55 -37.5 -92.5t-90.5 -37.5q-55 0 -92.5 37.5t-37.5 91.5zM902 965q0 54 37.5 91.5t91.5 37.5q55 0 92 -37q19 -19 28.5 -42t9.5 -49q0 -55 -37.5 -92.5t-91.5 -37.5q-55 0 -92.5 37.5t-37.5 91.5z
M578 965q0 54 37.5 91.5t91.5 37.5q55 0 92.5 -37.5t37.5 -90.5q0 -55 -37.5 -92.5t-91.5 -37.5q-55 0 -92.5 37.5t-37.5 91.5zM367 149q-117 -150 -278 -150h-102v189h33q247 0 247 214l1 245h178v-250q1 -208 177 -208q172 -1 171 204v253h178v-252q1 -205 185 -205
q146 -1 146 204v297h179v-298q-1 -393 -317 -393q-230 0 -288 181q-56 -181 -245 -181t-265 150z" />
    <glyph glyph-name="uniFEB8" unicode="&#x634;" horiz-adv-x="1771" arabic-form="medial" 
d="M769 1278q0 54 37.5 91.5t90.5 37.5q55 0 92.5 -37.5t37.5 -90.5q0 -55 -37.5 -92.5t-90.5 -37.5q-55 0 -92.5 37.5t-37.5 91.5zM929 968q0 54 37.5 91.5t91.5 37.5q55 0 92 -37q19 -19 28.5 -42t9.5 -49q0 -55 -37.5 -92.5t-91.5 -37.5q-55 0 -92.5 37.5t-37.5 91.5z
M605 968q0 54 37.5 91.5t91.5 37.5q55 0 92.5 -37.5t37.5 -90.5q0 -55 -37.5 -92.5t-91.5 -37.5q-55 0 -92.5 37.5t-37.5 91.5zM1667 -1q-179 0 -257 166q-47 -166 -240 -165q-194 0 -270 176q-31 -90 -92 -132q-61 -41 -159 -41q-188 0 -268 157q-64 -161 -291 -161h-100
v189h58q243 2 241 188l-3 272h188v-264q0 -195 180 -195q162 0 162 196v263h175l1 -261q1 -198 179 -198q152 0 152 191l1 271h163v-233q0 -125 88 -191q50 -38 144 -38h62v-190h-114z" />
    <glyph glyph-name="uniFEB9" unicode="&#x635;" horiz-adv-x="2488" arabic-form="isolated" 
d="M2215 424q-40 168 -218 168q-205 0 -384 -390h358q155 0 206 45q44 39 44 102q0 45 -6 75zM1438 235q233 534 550 534q210 0 317 -141q85 -113 86 -269q0 -175 -115 -268q-112 -91 -325 -91h-277h-104q-178 0 -250 112v-68q0 -479 -573 -496l-19 -1h-27q-610 0 -610 496
v403h179v-402q0 -307 433 -307h26h27q388 8 388 312l-1 596h182v-168q0 -213 113 -242z" />
    <glyph glyph-name="uniFEBA" unicode="&#x635;" horiz-adv-x="2592" arabic-form="final" 
d="M2215 423q-40 169 -218 169q-205 0 -384 -391h358q155 1 206 46q44 39 44 102q0 45 -6 74zM1438 235q232 533 550 534q209 0 317 -143q85 -112 86 -267q0 -47 -9 -89q78 -82 199 -82h22v-189h-33q-161 0 -270 113q-12 -11 -24 -21q-111 -91 -325 -91h-277h-93
q-189 0 -261 112v-68q0 -479 -573 -496l-19 -1h-27q-610 0 -610 496v403h179v-402q0 -307 433 -307h26h27q388 8 388 312l-1 596h182v-168q0 -213 113 -242z" />
    <glyph glyph-name="uniFEBB" unicode="&#x635;" horiz-adv-x="1628" arabic-form="initial" 
d="M1355 424q-40 168 -218 168q-205 0 -384 -390h358q155 0 206 45q44 39 44 102q0 45 -6 75zM578 235q233 534 550 534q210 0 317 -141q85 -113 86 -269q0 -175 -115 -268q-112 -91 -325 -91h-277h-104q-252 0 -341 131q-78 -131 -311 -131h-71v189h64q217 0 217 209v255
h177l1 -249q1 -169 132 -169z" />
    <glyph glyph-name="uniFEBC" unicode="&#x635;" horiz-adv-x="1734" arabic-form="medial" 
d="M1355 424q-40 168 -218 168q-205 0 -384 -390h358q155 0 206 45q44 39 44 102q0 45 -6 75zM1522 270q78 -81 199 -81h21v-189h-32q-162 0 -271 112q-11 -11 -23 -21q-112 -91 -325 -91h-277h-93q-265 0 -352 131q-78 -131 -311 -131h-71v189h64q217 0 217 209v255h177
l1 -249q1 -169 132 -169q233 534 550 534q209 0 317 -142q85 -113 86 -268q0 -47 -9 -89z" />
    <glyph glyph-name="uniFEBD" unicode="&#x636;" horiz-adv-x="2488" arabic-form="isolated" 
d="M1801 1141q0 54 37.5 91.5t91.5 37.5q55 0 92.5 -37.5t37.5 -90.5q0 -55 -37.5 -92.5t-91.5 -37.5q-55 0 -92.5 37.5t-37.5 91.5zM2215 424q-40 168 -218 168q-205 0 -384 -390h358q155 0 206 45q44 39 44 102q0 45 -6 75zM1438 235q233 534 550 534q210 0 317 -141
q85 -113 86 -269q0 -175 -115 -268q-112 -91 -325 -91h-277h-104q-178 0 -250 112v-68q0 -479 -573 -496l-19 -1h-27q-610 0 -610 496v403h179v-402q0 -307 433 -307h26h27q388 8 388 312l-1 596h182v-168q0 -213 113 -242z" />
    <glyph glyph-name="uniFEBE" unicode="&#x636;" horiz-adv-x="2592" arabic-form="final" 
d="M1804 1135q0 54 37.5 91.5t91.5 37.5q55 0 92.5 -37.5t37.5 -90.5q0 -55 -37.5 -92.5t-91.5 -37.5q-55 0 -92.5 37.5t-37.5 91.5zM2215 423q-40 169 -218 169q-205 0 -384 -391h358q155 1 206 46q44 39 44 102q0 45 -6 74zM1438 235q232 533 550 534q209 0 317 -143
q85 -112 86 -267q0 -47 -9 -89q78 -82 199 -82h22v-189h-33q-161 0 -270 113q-12 -11 -24 -21q-111 -91 -325 -91h-277h-93q-189 0 -261 112v-68q0 -479 -573 -496l-19 -1h-27q-610 0 -610 496v403h179v-402q0 -307 433 -307h26h27q388 8 388 312l-1 596h182v-168
q0 -213 113 -242z" />
    <glyph glyph-name="uniFEBF" unicode="&#x636;" horiz-adv-x="1628" arabic-form="initial" 
d="M896 1140q0 54 37.5 91.5t91.5 37.5q55 0 92.5 -37.5t37.5 -90.5q0 -55 -37.5 -92.5t-91.5 -37.5q-55 0 -92.5 37.5t-37.5 91.5zM1355 424q-40 168 -218 168q-205 0 -384 -390h358q155 0 206 45q44 39 44 102q0 45 -6 75zM578 235q233 534 550 534q210 0 317 -141
q85 -113 86 -269q0 -175 -115 -268q-112 -91 -325 -91h-277h-104q-252 0 -341 131q-78 -131 -311 -131h-71v189h64q217 0 217 209v255h177l1 -249q1 -169 132 -169z" />
    <glyph glyph-name="uniFEC0" unicode="&#x636;" horiz-adv-x="1734" arabic-form="medial" 
d="M907 1143q0 54 37.5 91.5t91.5 37.5q55 0 92.5 -37.5t37.5 -90.5q0 -55 -37.5 -92.5t-91.5 -37.5q-55 0 -92.5 37.5t-37.5 91.5zM1355 424q-40 168 -218 168q-205 0 -384 -390h358q155 0 206 45q44 39 44 102q0 45 -6 75zM1522 270q78 -81 199 -81h21v-189h-32
q-162 0 -271 112q-11 -11 -23 -21q-112 -91 -325 -91h-277h-93q-265 0 -352 131q-78 -131 -311 -131h-71v189h64q217 0 217 209v255h177l1 -249q1 -169 132 -169q233 534 550 534q209 0 317 -142q85 -113 86 -268q0 -47 -9 -89z" />
    <glyph glyph-name="uniFEC1" unicode="&#x637;" horiz-adv-x="1281" arabic-form="isolated" 
d="M1008 424q-39 168 -217 168q-205 0 -384 -390h358q155 0 206 45q44 39 44 102q0 45 -7 75zM316 412v977h175v-756q138 136 308 136q196 0 301 -139q84 -112 84 -271q1 -175 -114 -268q-112 -91 -325 -91h-277h-104h-272v189h121q28 81 103 223z" />
    <glyph glyph-name="uniFEC2" unicode="&#x637;" horiz-adv-x="1387" arabic-form="final" 
d="M1094 112q-22 -19 -24 -21q-112 -91 -325 -91h-277h-104h-272v189h121q28 81 103 223v977h175v-756q138 136 309 136q195 0 300 -139q85 -114 84 -271q0 -41 -7 -89q78 -81 199 -81h21v-189h-33q-161 0 -270 112zM1008 424q-39 168 -200 168q-222 0 -401 -390h358
q153 0 206 45q44 39 44 102q0 45 -7 75z" />
    <glyph glyph-name="uniFEC3" unicode="&#x637;" horiz-adv-x="1146" arabic-form="initial" 
d="M873 424q-40 168 -217 168q-206 0 -385 -390h359q154 0 205 45q44 39 44 102q0 45 -6 75zM181 412v977h175v-756q138 136 308 136q196 0 300 -139q85 -112 85 -270q1 -165 -115 -269q-100 -90 -324 -91h-278h-103h-242v189h91q28 81 103 223z" />
    <glyph glyph-name="uniFEC4" unicode="&#x637;" horiz-adv-x="1254" arabic-form="medial" 
d="M962 113q-22 -20 -25 -22q-139 -90 -324 -91h-278h-103h-244v189h93q28 81 103 223v977h175v-756q138 136 309 136q195 0 299 -139q86 -113 85 -270q0 -42 -7 -89q78 -82 198 -82h22v-189h-33q-161 0 -270 113zM876 424q-39 168 -200 168q-222 0 -402 -390h359
q153 0 205 45q45 39 44 102q1 45 -6 75z" />
    <glyph glyph-name="uniFEC5" unicode="&#x638;" horiz-adv-x="1281" arabic-form="isolated" 
d="M687 1140q0 54 37.5 91.5t91.5 37.5q55 0 92.5 -37.5t37.5 -90.5q0 -55 -37.5 -92.5t-91.5 -37.5q-55 0 -92.5 37.5t-37.5 91.5zM1008 424q-39 168 -217 168q-205 0 -384 -390h358q155 0 206 45q44 39 44 102q0 45 -7 75zM316 412v977h175v-756q138 136 308 136
q196 0 301 -139q84 -112 84 -271q1 -175 -114 -268q-112 -91 -325 -91h-277h-104h-272v189h121q28 81 103 223z" />
    <glyph glyph-name="uniFEC6" unicode="&#x638;" horiz-adv-x="1387" arabic-form="final" 
d="M711 1139q0 54 37.5 91.5t91.5 37.5q55 0 92.5 -37.5t37.5 -90.5q0 -55 -37.5 -92.5t-91.5 -37.5q-55 0 -92.5 37.5t-37.5 91.5zM1094 112q-22 -19 -24 -21q-112 -91 -325 -91h-277h-104h-272v189h121q28 81 103 223v977h175v-756q138 136 309 136q195 0 300 -139
q85 -114 84 -271q0 -41 -7 -89q78 -81 199 -81h21v-189h-33q-161 0 -270 112zM1008 424q-39 168 -200 168q-222 0 -401 -390h358q153 0 206 45q44 39 44 102q0 45 -7 75z" />
    <glyph glyph-name="uniFEC7" unicode="&#x638;" horiz-adv-x="1146" arabic-form="initial" 
d="M534 1138q0 54 37.5 91.5t91.5 37.5q55 0 92.5 -37.5t37.5 -90.5q0 -55 -37.5 -92.5t-91.5 -37.5q-55 0 -92.5 37.5t-37.5 91.5zM873 424q-40 168 -217 168q-206 0 -385 -390h359q154 0 205 45q44 39 44 102q0 45 -6 75zM181 412v977h175v-756q138 136 308 136
q196 0 300 -139q85 -112 85 -270q1 -165 -115 -269q-100 -90 -324 -91h-278h-103h-242v189h91q28 81 103 223z" />
    <glyph glyph-name="uniFEC8" unicode="&#x638;" horiz-adv-x="1254" arabic-form="medial" 
d="M559 1139q0 54 37.5 91.5t91.5 37.5q55 0 92.5 -37.5t37.5 -90.5q0 -55 -37.5 -92.5t-91.5 -37.5q-55 0 -92.5 37.5t-37.5 91.5zM962 113q-22 -20 -25 -22q-139 -90 -324 -91h-278h-103h-244v189h93q28 81 103 223v977h175v-756q138 136 309 136q195 0 299 -139
q86 -113 85 -270q0 -42 -7 -89q78 -82 198 -82h22v-189h-33q-161 0 -270 113zM876 424q-39 168 -200 168q-222 0 -402 -390h359q153 0 205 45q45 39 44 102q1 45 -6 75z" />
    <glyph glyph-name="uniFEC9" unicode="&#x639;" horiz-adv-x="1260" arabic-form="isolated" 
d="M1168 -754l-367 1q-346 1 -520 131q-190 143 -189 407q1 373 424 543q-101 32 -161 113q-94 125 -56 289q49 218 277 269q220 50 441 -64l-42 -154q-196 76 -333 47q-176 -36 -178 -194q-2 -191 252 -236l375 26v-177q-418 -9 -628 -135q-199 -120 -197 -332
q3 -351 531 -352l372 -1z" />
    <glyph glyph-name="uniFECA" unicode="&#x639;" horiz-adv-x="1277" arabic-form="final" 
d="M897 541q-2 90 -215 91q-256 0 -234 -94q7 -29 76 -87q117 -96 130 -100q99 34 174 90q70 53 69 100zM485 273q-250 172 -240 300q11 124 138 185q89 42 282 42q257 0 353 -89q75 -69 66 -182q-12 -160 -281 -285q87 -55 296 -55h193v-189h-164q-241 0 -478 152
q-380 -116 -384 -350q-6 -375 548 -374h303v-183h-315q-388 2 -550 156q-165 158 -162 383q6 355 395 489z" />
    <glyph glyph-name="uniFECB" unicode="&#x639;" horiz-adv-x="1063" arabic-form="initial" 
d="M839 593q-102 99 -250 99q-149 0 -215 -88q-39 -52 -39 -130q0 -107 104 -190q71 -57 146 -57q74 0 153 17l234 51v-190q-372 -106 -597 -106h-388v189h322q-142 123 -142 295t110 285q110 112 307 112q207 0 329 -151z" />
    <glyph glyph-name="uniFECC" unicode="&#x639;" horiz-adv-x="1104" arabic-form="medial" 
d="M771 511q-2 90 -212 91q-256 0 -234 -94q7 -31 76 -87q89 -72 158 -100q20 5 141 98q72 55 71 92zM416 229q-302 159 -294 314q7 122 138 185q89 42 282 42q277 0 369 -83q70 -63 50 -188q-18 -117 -273 -276q34 -38 387 -35l38 1v-189h-114q-321 0 -442 121
q-128 -122 -462 -122h-105v189h35q363 0 391 41z" />
    <glyph glyph-name="uniFECD" unicode="&#x63a;" horiz-adv-x="1296" arabic-form="isolated" 
d="M534 1338q0 54 37.5 91.5t91.5 37.5q55 0 92.5 -37.5t37.5 -90.5q0 -55 -37.5 -92.5t-91.5 -37.5q-55 0 -92.5 37.5t-37.5 91.5zM1168 -754l-367 1q-346 1 -520 131q-190 143 -189 407q1 373 424 543q-101 32 -161 113q-94 125 -56 289q49 218 277 269q220 50 441 -64
l-42 -154q-196 76 -333 47q-176 -36 -178 -194q-2 -191 252 -236l375 26v-177q-418 -9 -628 -135q-199 -120 -197 -332q3 -351 531 -352l372 -1zM1168 -754l-367 1q-346 1 -520 131q-190 143 -189 407q1 373 424 543q-101 32 -161 113q-94 125 -56 289q49 218 277 269
q220 50 441 -64l-42 -154q-196 76 -333 47q-176 -36 -178 -194q-2 -191 252 -236l375 26v-177q-418 -9 -628 -135q-199 -120 -197 -332q3 -351 531 -352l372 -1z" />
    <glyph glyph-name="uniFECE" unicode="&#x63a;" horiz-adv-x="1277" arabic-form="final" 
d="M537 1151q0 54 37.5 91.5t91.5 37.5q55 0 92.5 -37.5t37.5 -90.5q0 -55 -37.5 -92.5t-91.5 -37.5q-55 0 -92.5 37.5t-37.5 91.5zM897 541q-2 90 -215 91q-256 0 -234 -94q7 -29 76 -87q117 -96 130 -100q99 34 174 90q70 53 69 100zM485 273q-250 172 -240 300
q11 124 138 185q89 42 282 42q257 0 353 -89q75 -69 66 -182q-12 -160 -281 -285q87 -55 296 -55h193v-189h-164q-241 0 -478 152q-380 -116 -384 -350q-6 -375 548 -374h303v-183h-315q-388 2 -550 156q-165 158 -162 383q6 355 395 489z" />
    <glyph glyph-name="uniFECF" unicode="&#x63a;" horiz-adv-x="1063" arabic-form="initial" 
d="M434 1244q0 54 37.5 91.5t91.5 37.5q55 0 92.5 -37.5t37.5 -90.5q0 -55 -37.5 -92.5t-91.5 -37.5q-55 0 -92.5 37.5t-37.5 91.5zM839 593q-102 99 -250 99q-149 0 -215 -88q-39 -52 -39 -130q0 -107 104 -190q71 -57 146 -57q74 0 153 17l234 51v-190
q-372 -106 -597 -106h-388v189h322q-142 123 -142 295t110 285q110 112 307 112q207 0 329 -151z" />
    <glyph glyph-name="uniFED0" unicode="&#x63a;" horiz-adv-x="1104" arabic-form="medial" 
d="M414 1166q0 54 37.5 91.5t91.5 37.5q55 0 92.5 -37.5t37.5 -90.5q0 -55 -37.5 -92.5t-91.5 -37.5q-55 0 -92.5 37.5t-37.5 91.5zM771 511q-2 90 -212 91q-256 0 -234 -94q7 -31 76 -87q89 -72 158 -100q20 5 141 98q72 55 71 92zM416 229q-302 159 -294 314
q7 122 138 185q89 42 282 42q277 0 369 -83q70 -63 50 -188q-18 -117 -273 -276q34 -38 387 -35l38 1v-189h-114q-321 0 -442 121q-128 -122 -462 -122h-105v189h35q363 0 391 41z" />
    <glyph glyph-name="uniFED1" unicode="&#x641;" horiz-adv-x="1941" arabic-form="isolated" 
d="M1365 1372q0 54 37.5 91.5t91.5 37.5q55 0 92.5 -37.5t37.5 -90.5q0 -55 -37.5 -92.5t-91.5 -37.5q-55 0 -92.5 37.5t-37.5 91.5zM1846 354q0 -356 -518 -355l-333 1h-533q-371 0 -371 442v212h178v-202q0 -263 198 -263h528h290q364 1 374 149l2 26q-47 -1 -99 -1t-90 1
q-156 0 -229 81q-73 80 -73 260q0 326 334 326q319 -1 339 -279q4 -60 4 -85l-1 -181v-132zM1673 625q0 153 -37 189q-44 42 -130 42q-176 -1 -176 -161q1 -145 175 -146q81 0 166 9q2 45 2 67z" />
    <glyph glyph-name="uniFED2" unicode="&#x641;" horiz-adv-x="2055" arabic-form="final" 
d="M1365 498.5q0 -73.5 53 -125.5t128.5 -52t128.5 52t53 125.5t-53 125.5t-128.5 52t-128.5 -52t-53 -125.5zM1398 189q-57 25 -99 67q-103 100 -103 242t103 243q104 101 249 101q146 -1 249 -101q103 -101 103 -242q0 -145 -103 -243q-37 -36 -104 -67h372v-188l-162 -1
q-218 -1 -356 108q-168 -108 -356 -108h-728q-372 0 -372 442v275h179v-264q0 -264 198 -264h930zM1405.04 1205.23q0 57.7764 40.123 97.8994t97.9004 40.123q58.8477 0 98.9697 -40.123q40.123 -40.123 40.123 -96.8301q0 -58.8467 -40.123 -98.9697
q-40.1221 -40.123 -97.8994 -40.123q-58.8477 0 -98.9707 40.123t-40.123 97.9004z" />
    <glyph glyph-name="uniFED3" unicode="&#x641;" horiz-adv-x="831" arabic-form="initial" 
d="M266 1341q0 54 37.5 91.5t91.5 37.5q55 0 92.5 -37.5t37.5 -90.5q0 -55 -37.5 -92.5t-91.5 -37.5q-55 0 -92.5 37.5t-37.5 91.5zM553 368q-47 -1 -99 -1t-89 1q-157 0 -230 80q-73 81 -73 260q0 326 334 326q317 0 339 -278q4 -58 4 -85v-181v-133q0 -360 -516 -358
l-231 1v189h243q318 1 318 161v18zM565 628q0 152 -37 190q-43 41 -130 41q-175 0 -175 -160q0 -146 174 -146q81 0 166 9q2 45 2 66z" />
    <glyph glyph-name="uniFED4" unicode="&#x641;" horiz-adv-x="1022" arabic-form="medial" 
d="M370 1206q0 54 37.5 91.5t91.5 37.5q55 0 92.5 -37.5t37.5 -90.5q0 -55 -37.5 -92.5t-91.5 -37.5q-55 0 -92.5 37.5t-37.5 91.5zM324 499q0 -74 53.5 -126.5t129.5 -52.5t130 53q54 52 54 126t-54 127q-54 52 -130 52t-129.5 -52.5t-53.5 -126.5zM360 188q-58 27 -100 68
q-103 101 -103 243t103 243q103 100 249 100t249 -100q103 -101 103 -243q0 -144 -103 -243q-39 -37 -104 -68l376 1v-190h-169q-205 -1 -356 108q-166 -108 -355 -108h-159v189h369z" />
    <glyph glyph-name="uniFED5" unicode="&#x642;" horiz-adv-x="1511" arabic-form="isolated" 
d="M1108 1133q0 54 37.5 91.5t91.5 37.5q55 0 92 -37q19 -19 28.5 -42t9.5 -49q0 -55 -37.5 -92.5t-91.5 -37.5q-55 0 -92.5 37.5t-37.5 91.5zM784 1133q0 54 37.5 91.5t91.5 37.5q55 0 92.5 -37.5t37.5 -90.5q0 -55 -37.5 -92.5t-91.5 -37.5q-55 0 -92.5 37.5t-37.5 91.5z
M701 -482q-610 0 -610 525v403h179v-402q0 -337 433 -337h26l116 1q392 2 395 340l1 65h-168t-164 22q-59 21 -98 65q-82 89 -66 300q11 149 79 223q90 100 268 97q334 -7 328 -415q-2 -115 -1 -170v-132v-40q-6 -549 -582 -546l-108 1h-28zM1244 307q9 214 -29.5 277.5
t-136 60.5t-138 -53.5t-38 -142t48.5 -121.5q70 -45 293 -21z" />
    <glyph glyph-name="uniFED6" unicode="&#x642;" horiz-adv-x="1588" arabic-form="final" 
d="M1096 1026q0 54 37.5 91.5t91.5 37.5q55 0 92 -37q19 -19 28.5 -42t9.5 -49q0 -55 -37.5 -92.5t-91.5 -37.5q-55 0 -92.5 37.5t-37.5 91.5zM772 1026q0 54 37.5 91.5t91.5 37.5q55 0 92.5 -37.5t37.5 -90.5q0 -55 -37.5 -92.5t-91.5 -37.5q-55 0 -92.5 37.5t-37.5 91.5z
M1238 3q-9 -3 -92 -3h-99q-154 0 -234 88q-80 89 -63 299q11 139 83 218q95 105 263 101q275 -5 320 -278q10 -63 8 -136l-2 -102h177v-190l-186 -1l1 -63q7 -537 -575 -532l-68 1h-70q-610 0 -610 529v402l179 1v-402q0 -341 433 -341h68l77 1q380 3 389 344zM1248 194
q8 214 -28 273.5t-109.5 63t-113.5 -14.5q-80 -35 -88 -150t47 -151q69 -46 292 -21z" />
    <glyph glyph-name="uniFED7" unicode="&#x642;" horiz-adv-x="831" arabic-form="initial" 
d="M422 1340q0 54 37.5 91.5t91.5 37.5q55 0 92 -37q19 -19 28.5 -42t9.5 -49q0 -55 -37.5 -92.5t-91.5 -37.5q-55 0 -92.5 37.5t-37.5 91.5zM98 1340q0 54 37.5 91.5t91.5 37.5q55 0 92.5 -37.5t37.5 -90.5q0 -55 -37.5 -92.5t-91.5 -37.5q-55 0 -92.5 37.5t-37.5 91.5z
M553 368q-47 -1 -99 -1t-89 1q-157 0 -230 80q-73 81 -73 260q0 326 334 326q317 0 339 -278q4 -58 4 -85v-181v-133q0 -360 -516 -358l-231 1v189h243q318 1 318 161v18zM565 628q0 152 -37 190q-43 41 -130 41q-175 0 -175 -160q0 -146 174 -146q81 0 166 9q2 45 2 66z
" />
    <glyph glyph-name="uniFED8" unicode="&#x642;" horiz-adv-x="1022" arabic-form="medial" 
d="M525 1210q0 54 37.5 91.5t91.5 37.5q55 0 92 -37q19 -19 28.5 -42t9.5 -49q0 -55 -37.5 -92.5t-91.5 -37.5q-55 0 -92.5 37.5t-37.5 91.5zM201 1210q0 54 37.5 91.5t91.5 37.5q55 0 92.5 -37.5t37.5 -90.5q0 -55 -37.5 -92.5t-91.5 -37.5q-55 0 -92.5 37.5t-37.5 91.5z
M324 499q0 -74 53.5 -126.5t129.5 -52.5t130 53q54 52 54 126t-54 127q-54 52 -130 52t-129.5 -52.5t-53.5 -126.5zM360 188q-58 27 -100 68q-103 101 -103 243t103 243q103 100 249 100t249 -100q103 -101 103 -243q0 -144 -103 -243q-39 -37 -104 -68l376 1v-190h-169
q-205 -1 -356 108q-166 -108 -355 -108h-159v189h369z" />
    <glyph glyph-name="uniFED9" unicode="&#x643;" horiz-adv-x="1877" arabic-form="isolated" 
d="M704 814q64 -9 128.5 -9t120.5 22q84 33 84 85t-91 66.5t-127 61.5q-54 72 -30 149q47 148 311 167l30 3v-101l-25 -2q-172 -14 -214 -84q-2 -4 -2 -29q0 -48 54 -66q27 -9 78.5 -16.5t85.5 -40t34 -89.5t-24 -94q-112 -179 -421 -131l-23 4v108zM1372 188q197 0 197 262
v937h179v-910q0 -478 -383 -478h-902q-372 0 -372 442v213h179v-202q0 -264 197 -264h905z" />
    <glyph glyph-name="uniFEDA" unicode="&#x643;" horiz-adv-x="2039" arabic-form="final" 
d="M735 814q64 -9 105 -9q149 0 199 51q29 30 29 56q0 52 -91 66.5t-127 61.5q-54 72 -30 149q47 148 311 167l30 3v-101l-25 -2q-172 -14 -214 -84q-2 -4 -2 -29q0 -48 54 -66q27 -9 78.5 -16.5t85.5 -40t34 -89.5t-24 -94q-112 -179 -421 -131l-23 4v108zM1779 391
q0 -203 219 -203h49v-189h-59q-196 0 -298 127q-102 -127 -294 -127h-902q-347 0 -368 378q-4 62 -4 64v215h179v-204q0 -264 198 -264h904q197 1 197 228v971h179v-996z" />
    <glyph glyph-name="uniFEDB" unicode="&#x643;" horiz-adv-x="888" arabic-form="initial" 
d="M391 0h-404v189h356q207 0 208 134q0 56 -107 178l-271 309q-58 66 -80 96q-26 35 -21 94q10 121 117 160l647 236v-184l-589 -216l320 -364q163 -185 146 -347q-17 -152 -148 -238q-71 -47 -174 -47z" />
    <glyph glyph-name="uniFEDC" unicode="&#x643;" horiz-adv-x="1066" arabic-form="medial" 
d="M697 220q-76 -221 -308 -221h-402v189h353q207 0 208 134q0 56 -107 178l-271 309q-52 59 -79 96q-27 35 -22 94q10 122 117 161l648 235v-184l-590 -213l576 -654q137 -155 227 -155h30v-189h-21q-202 0 -359 220z" />
    <glyph glyph-name="uniFEDD" unicode="&#x644;" horiz-adv-x="1377" arabic-form="isolated" 
d="M270 44q0 -342 386 -342h26l27 1q359 8 363 345l1 49q-1 1 -1 337v953h174v-953v-334l-1 -56q-6 -514 -545 -530l-19 -1h-27q-563 0 -563 530v403h179v-402z" />
    <glyph glyph-name="uniFEDE" unicode="&#x644;" horiz-adv-x="1517" arabic-form="final" 
d="M270 44q0 -340 386 -340h26h27q358 8 362 344l1 49q0 289 -1 337v953h174v-953q0 -245 219 -245h69v-189h-52q-174 0 -236 82l-1 -38q-6 -513 -544 -529l-19 -1h-27q-563 0 -563 529v403h179v-402z" />
    <glyph glyph-name="uniFEDF" unicode="&#x644;" horiz-adv-x="589" arabic-form="initial" 
d="M97 189q184 0 184 214v985h179v-993q0 -395 -384 -395h-89v189h110z" />
    <glyph glyph-name="uniFEE0" unicode="&#x644;" horiz-adv-x="699" arabic-form="medial" 
d="M459 438q0 -250 210 -250h46v-189h-56q-166 0 -288 130q-119 -130 -271 -130h-116v189h104q196 0 196 251v949h175v-950z" />
    <glyph glyph-name="uniFEE1" unicode="&#x645;" horiz-adv-x="1284" arabic-form="isolated" 
d="M833 579q-135 0 -148.5 -11.5t-13.5 -167.5t49.5 -206.5t138.5 -50.5q11 0 24 1q140 10 140 268q0 167 -190 167zM928 745q268 -3 265 -353q0 -266 -151 -365q-75 -49 -210.5 -43t-220.5 88q-120 110 -112 353q2 88 6 129q-240 -23 -240 -393v-657h-174v650v6
q1 544 402 585h435z" />
    <glyph glyph-name="uniFEE2" unicode="&#x645;" horiz-adv-x="1360" arabic-form="final" 
d="M833 579q-135 0 -148.5 -11.5t-13.5 -167.5t49.5 -206.5t138.5 -50.5q11 0 24 1q140 10 140 268q0 167 -190 167zM1116 105q-37 -55 -74 -78q-75 -49 -210 -43q-136 6 -221 88q-118 112 -112 353q2 88 6 129q-240 -23 -240 -393v-657h-174v653q0 547 402 588h435
q241 -3 262 -279q5 -58 2 -95q-4 -59 -4 -66q-1 -118 133 -118h51v-188h-42q-157 0 -214 106z" />
    <glyph glyph-name="uniFEE3" unicode="&#x645;" horiz-adv-x="936" arabic-form="initial" 
d="M502 785q277 0 327 -248q17 -86 17 -157q0 -148 -52 -253q-69 -142 -281 -141q-207 1 -270 103q-65 -90 -196 -90h-60v189h78q100 0 100 74q-2 232 37 329q79 194 300 194zM511 613q-166 0 -169 -223q-4 -225 171 -226q159 -1 159 225q0 224 -161 224z" />
    <glyph glyph-name="uniFEE4" unicode="&#x645;" horiz-adv-x="1018" arabic-form="medial" 
d="M512 613q-166 0 -170 -227q-4 -221 166 -222q165 -1 165 221q0 228 -161 228zM774 91q-75 -106 -271 -105q-198 2 -260 103q-65 -90 -196 -90h-60v189h78q100 0 100 74q0 238 37 329q80 194 300 194q278 0 328 -248q16 -80 17 -157q0 -46 -7 -112q0 -80 139 -80h49v-189
h-73q-124 0 -181 92z" />
    <glyph glyph-name="uniFEE5" unicode="&#x646;" horiz-adv-x="1462" arabic-form="isolated" 
d="M598 656q0 54 37.5 91.5t91.5 37.5q55 0 92.5 -37.5t37.5 -90.5q0 -55 -37.5 -92.5t-91.5 -37.5q-55 0 -92.5 37.5t-37.5 91.5zM91 446h179v-341q0 -388 454 -388h42h41q382 6 382 392l-1 496h182v-506q0 -561 -571 -571h-34h-43q-631 0 -631 575v343z" />
    <glyph glyph-name="uniFEE6" unicode="&#x646;" horiz-adv-x="1610" arabic-form="final" 
d="M91 446h179v-402q0 -312 365 -312h49l73 1q389 3 389 316v556h181v-186q0 -230 229 -230h69v-189h-138q-78 0 -164 90v-46q0 -495 -574 -500l-65 -1h-51q-542 0 -542 500v403zM562.041 617.226q0 57.7764 40.123 97.8994t97.9004 40.123q58.8477 0 98.9697 -40.123
q40.123 -40.123 40.123 -96.8301q0 -58.8467 -40.123 -98.9697q-40.1221 -40.123 -97.8994 -40.123q-58.8477 0 -98.9707 40.123t-40.123 97.9004z" />
    <glyph glyph-name="uniFEE7" unicode="&#x646;" horiz-adv-x="678" arabic-form="initial" 
d="M197 1036q0 54 37.5 91.5t91.5 37.5q55 0 92.5 -37.5t37.5 -90.5q0 -55 -37.5 -92.5t-91.5 -37.5q-55 0 -92.5 37.5t-37.5 91.5zM586 410q0 -411 -343 -411h-256v189h241q180 0 180 217v286h178v-281z" />
    <glyph glyph-name="uniFEE8" unicode="&#x646;" horiz-adv-x="877" arabic-form="medial" 
d="M227 1036q0 54 37.5 91.5t91.5 37.5q55 0 92.5 -37.5t37.5 -90.5q0 -55 -37.5 -92.5t-91.5 -37.5q-55 0 -92.5 37.5t-37.5 91.5zM597 397q0 -209 263 -209h26v-189h-95q-168 0 -268 110l-20 20l-18 -21q-98 -109 -269 -109h-225v189h170q252 0 252 209v254h184v-254z" />
    <glyph glyph-name="uniFEE9" unicode="&#x647;" horiz-adv-x="904" arabic-form="isolated" 
d="M448 625q-186 -187 -186 -306q0 -137 190 -137q195 0 195 133q0 119 -199 310zM245 41q-154 79 -154 241q0 206 237 462l-39 35l105 119q304 -238 388 -463q31 -83 31 -160q0 -139 -123 -223q-72 -50 -226 -51q-139 -2 -219 40z" />
    <glyph glyph-name="uniFEEA" unicode="&#x647;" horiz-adv-x="1104" arabic-form="final" 
d="M706 370l-53 296q-404 -50 -402 -218q2 -123 455 -78zM764 187q-651 -68 -674 212q-27 342 523 430l-18 94l179 34l99 -577q33 -191 211 -191h29l1 -189h-51q-235 0 -299 187z" />
    <glyph glyph-name="uniFEEB" unicode="&#x647;" horiz-adv-x="1253" arabic-form="initial" 
d="M461 240q75 17 135 138q24 50 33 93q20 107 -63 150q-63 34 -131 7q-97 -40 -124 -130q-31 -110 21 -183t129 -75zM630 183q112 -62 201 -73q72 -8 108 23q54 47 62 114q15 129 -255 385q76 -263 -116 -449zM616 756l104 151q445 -418 439 -683q-2 -140 -140 -241
q-78 -57 -227 -33q-170 28 -320 120q-234 -70 -422 -70h-63v189h267q-115 93 -115 253q1 107 60 200q74 115 199 142q112 24 218 -28z" />
    <glyph glyph-name="uniFEEC" unicode="&#x647;" horiz-adv-x="961" arabic-form="medial" 
d="M177 2l-186 -3v189h191q-9 231 52 366q101 222 313 202q110 -10 176 -84q88 -100 78 -234q-10 -146 -109 -248l280 -1v-190l-286 1q100 -102 109 -248q10 -135 -78 -234q-65 -74 -176 -84q-212 -19 -312 202q-61 135 -52 366zM635 -250q-1 105 -66 181q-59 69 -157 70
l-78 1q-8 -65 4 -161q31 -250 156 -250q142 1 141 159zM640 440q1 159 -140 159q-125 0 -157 -250q-12 -96 -4 -161l79 1q97 1 156 70q65 76 66 181z" />
    <glyph glyph-name="uniFEED" unicode="&#x648;" horiz-adv-x="857" arabic-form="isolated" 
d="M510 533q-36 19 -93 19q-135 -1 -158 -127.5t25 -193.5q37 -51 178 -50q44 0 128 11q3 47 3 88q0 211 -83 253zM579 2q-35 -6 -93 -6h-61q-335 0 -334 354q0 148 60 242q87 138 274 138q231 0 316 -226q23 -61 25 -186q0 -2 -1 -322v-7q0 -502 -553 -501q-1 -1 -91 0h-3
v188h100q361 -1 361 281v45z" />
    <glyph glyph-name="uniFEEE" unicode="&#x648;" horiz-adv-x="911" arabic-form="final" 
d="M766 292l-3 -106l158 3v-189h-157q-8 -511 -541 -510h-106v188h100q348 -1 362 302l1 20h-11h-68h-116q-152 0 -232 90q-81 89 -62 324q12 149 79 223q92 100 268 97q276 -5 319 -279q10 -61 9 -163zM434 558q-174 8 -184 -168q-7 -139 47 -175q70 -46 293 -21
q8 241 -28 300.5t-128 63.5z" />
    <glyph glyph-name="uniFEEF" unicode="&#x649;" horiz-adv-x="1476" arabic-form="isolated" 
d="M1161 263q224 0 224 -222v-29q-2 -515 -560 -521h-55h-79q-600 0 -601 565v443h179v-442q0 -377 424 -377h77l64 1q375 3 375 313v12q0 78 -79 78l-191 1q-173 0 -173 167v65q0 473 423 473h196l1 -189h-239q-197 0 -202 -277l-2 -61h218z" />
    <glyph glyph-name="uniFEF0" unicode="&#x649;" horiz-adv-x="1466" arabic-form="final" 
d="M747 -511q-656 0 -657 472v403l179 -1v-401q0 -284 480 -284h42l34 1q374 6 374 231v90h-251q-53 0 -76 90t7 98l599 1v-189h-102v-87q0 -410 -560 -424h-25h-44z" />
    <glyph glyph-name="uniFEF1" unicode="&#x64a;" horiz-adv-x="1476" arabic-form="isolated" 
d="M756 -703q0 54 37.5 91.5t91.5 37.5q55 0 92 -37q19 -19 28.5 -42t9.5 -49q0 -55 -37.5 -92.5t-91.5 -37.5q-55 0 -92.5 37.5t-37.5 91.5zM432 -703q0 54 37.5 91.5t91.5 37.5q55 0 92.5 -37.5t37.5 -90.5q0 -55 -37.5 -92.5t-91.5 -37.5q-55 0 -92.5 37.5t-37.5 91.5z
M1161 263q224 0 224 -222v-29q-2 -515 -560 -521h-55h-79q-600 0 -601 565v443h179v-442q0 -377 424 -377h77l64 1q375 3 375 313v12q0 78 -79 78l-191 1q-173 0 -173 167v65q0 473 423 473h196l1 -189h-239q-197 0 -202 -277l-2 -61h218z" />
    <glyph glyph-name="uniFEF2" unicode="&#x64a;" horiz-adv-x="1466" arabic-form="final" 
d="M785 -721q0 54 37.5 91.5t91.5 37.5q55 0 92 -37q19 -19 28.5 -42t9.5 -49q0 -55 -37.5 -92.5t-91.5 -37.5q-55 0 -92.5 37.5t-37.5 91.5zM461 -721q0 54 37.5 91.5t91.5 37.5q55 0 92.5 -37.5t37.5 -90.5q0 -55 -37.5 -92.5t-91.5 -37.5q-55 0 -92.5 37.5t-37.5 91.5z
M747 -511q-656 0 -657 472v403l179 -1v-401q0 -284 480 -284h42l34 1q374 6 374 231v90h-251q-53 0 -76 90t7 98l599 1v-189h-102v-87q0 -410 -560 -424h-25h-44z" />
    <glyph glyph-name="uniFEF3" unicode="&#x64a;" horiz-adv-x="721" arabic-form="initial" 
d="M371 -335q0 54 37.5 91.5t91.5 37.5q55 0 92 -37q19 -19 28.5 -42t9.5 -49q0 -55 -37.5 -92.5t-91.5 -37.5q-55 0 -92.5 37.5t-37.5 91.5zM47 -335q0 54 37.5 91.5t91.5 37.5q55 0 92.5 -37.5t37.5 -90.5q0 -55 -37.5 -92.5t-91.5 -37.5q-55 0 -92.5 37.5t-37.5 91.5z
M586 410q0 -411 -343 -411h-256v189h241q180 0 180 217v286h178v-281z" />
    <glyph glyph-name="uniFEF4" unicode="&#x64a;" horiz-adv-x="877" arabic-form="medial" 
d="M383 -335q0 54 37.5 91.5t91.5 37.5q55 0 92 -37q19 -19 28.5 -42t9.5 -49q0 -55 -37.5 -92.5t-91.5 -37.5q-55 0 -92.5 37.5t-37.5 91.5zM59 -335q0 54 37.5 91.5t91.5 37.5q55 0 92.5 -37.5t37.5 -90.5q0 -55 -37.5 -92.5t-91.5 -37.5q-55 0 -92.5 37.5t-37.5 91.5z
M597 397q0 -209 263 -209h26v-189h-95q-168 0 -268 110l-20 20l-18 -21q-98 -109 -269 -109h-225v189h170q252 0 252 209v254h184v-254z" />
    <glyph glyph-name=".notdef" horiz-adv-x="748" 
d="M68 0v1365h544v-1365h-544zM136 68h408v1229h-408v-1229z" />
    <glyph glyph-name=".null" 
 />
    <glyph glyph-name="nonmarkingreturn" horiz-adv-x="682" 
 />
    <glyph glyph-name="space" unicode=" " horiz-adv-x="550" 
 />
    <glyph glyph-name="exclam" unicode="!" horiz-adv-x="915" 
d="M331 132q0 54 38 92t92 39q56 -1 94 -39t38 -92t-38 -92t-93 -38t-93 38t-38 92zM357 1445h202l-21 -962h-159z" />
    <glyph glyph-name="parenleft" unicode="(" horiz-adv-x="891" 
d="M618 1521q-255 -447 -255 -894t255 -896h-136q-292 461 -292 895.5t292 894.5h136z" />
    <glyph glyph-name="parenright" unicode=")" horiz-adv-x="891" 
d="M186 -269q254 449 254 895q0 445 -254 895h135q292 -463 292 -896t-292 -894h-135z" />
    <glyph glyph-name="period" unicode="." horiz-adv-x="592" 
d="M166 129q0 54 38 92t93 39q55 -1 93 -39t38 -92t-38 -92t-92 -38q-56 0 -94 38t-38 92z" />
    <glyph glyph-name="zero" unicode="0" horiz-adv-x="876" 
d="M329 443q35 -68 110 -68q51 0 87.5 36.5t36.5 88t-36.5 88t-87.5 36.5t-87 -36.5t-36 -90.5q0 -29 13 -54zM181 369q-31 59 -31 125q0 126 84.5 211t203.5 85t203.5 -85t84.5 -204.5t-84.5 -204.5t-203.5 -85q-176 0 -257 158z" />
    <glyph glyph-name="one" unicode="1" horiz-adv-x="652" 
d="M502 4h-185q-3 818 -150 1278l178 49q156 -494 157 -1327z" />
    <glyph glyph-name="two" unicode="2" horiz-adv-x="1164" 
d="M497 12v-8h-185v8q-2 701 -140 1267l177 52q41 -193 44 -196q51 -225 260 -225q193 -3 214 220q9 100 1 212h158q4 -247 -11 -333q-51 -281 -361 -282q-118 0 -196 65q38 -277 39 -780z" />
    <glyph glyph-name="three" unicode="3" horiz-adv-x="1382" 
d="M870 1084q0 -171 135 -171q126 0 125 166v261h171q1 -44 1 -85q0 -220 -26 -322q-49 -196 -258 -196q-140 0 -222 121q-63 -115 -181 -118q-95 -3 -160 49q31 -240 32 -777v-8h-185v35q1 811 -142 1247l171 55l60 -226q54 -202 194 -202q128 0 128 181l1 247h157z" />
    <glyph glyph-name="four" unicode="4" horiz-adv-x="1171" 
d="M1012 1151q-120 30 -191 30q-126 0 -194 -70q-73 -73 -73 -193q0 -140 236 -142q69 -1 270 29l3 -161q-313 -79 -590 36q14 -62 17 -676h-179q-3 843 -141 1277l172 49q51 -189 74 -393q15 396 370 404q125 3 226 -41v-149z" />
    <glyph glyph-name="five" unicode="5" horiz-adv-x="1205" 
d="M395 192q132 -1 153 227h113q10 -229 171 -231q130 -3 129 159q0 73 -26 149q-77 218 -334 507q-242 -278 -321 -512q-30 -89 -29 -146q4 -153 144 -153zM360 0q-280 0 -280 309q0 341 409 814q-26 27 -51 54l122 141q24 -31 93 -104q472 -511 472 -858q0 -32 -3 -63
q-31 -293 -288 -293q-173 0 -229 156l-5 14l-5 -14q-57 -156 -235 -156z" />
    <glyph glyph-name="six" unicode="6" horiz-adv-x="1010" 
d="M276 972q-9 -161 195 -190q89 -13 149 30q80 56 160 113l90 -158q-229 -131 -532 -767l-154 75q91 213 309 548q-338 23 -375 271q-5 30 -5 72q0 159 98 267q91 100 254 107q137 6 222 -45l-1 -155q-71 36 -160 44q-71 7 -130 -20q-112 -51 -120 -192z" />
    <glyph glyph-name="seven" unicode="7" horiz-adv-x="1250" 
d="M535 4q-115 667 -435 1272l191 64q237 -508 339 -935q86 369 339 935l181 -64q-313 -590 -426 -1272h-189z" />
    <glyph glyph-name="eight" unicode="8" horiz-adv-x="1250" 
d="M535 1340h189q113 -682 426 -1272l-181 -64q-253 566 -339 935q-102 -427 -339 -935l-191 64q320 605 435 1272z" />
    <glyph glyph-name="nine" unicode="9" horiz-adv-x="1137" 
d="M525 587q-194 0 -286 108q-85 100 -85 245q0 172 92 272q116 127 313 127q327 0 360 -362q12 -132 20 -246q26 -394 47 -727h-179q-15 305 -33 644q-101 -61 -249 -61zM515 747q147 -9 237 89q0 80 -15 181q-23 157 -169 157q-144 0 -205 -88q-54 -77 -41 -165
q24 -164 193 -174z" />
    <glyph glyph-name="colon" unicode=":" horiz-adv-x="770" 
d="M258 834q0 54 38 92t93 39q55 -1 93 -39t38 -92t-38 -92t-92 -38q-56 0 -94 38t-38 92zM258 129q0 54 38 92t93 39q55 -1 93 -39t38 -92t-38 -92t-92 -38q-56 0 -94 38t-38 92z" />
    <glyph glyph-name="uni00A0" unicode="&#xa0;" horiz-adv-x="597" 
 />
    <glyph glyph-name="guillemotleft" unicode="&#xab;" horiz-adv-x="995" 
d="M454 951l-34 -60q-29 -51 -51 -102t-37 -101q-10 -35 -16.5 -69.5t-10 -69.5t-3.5 -70q0 -106 30 -210q29 -101 88 -204l34 -60h-157l-11 19q-74 115 -110 227q-38 114 -38 228q0 112 38 226q18 56 45.5 113t64.5 114l11 19h157zM830 951l-34 -60q-59 -103 -88 -203
q-6 -21 -11 -41.5t-8.5 -41.5t-6 -42t-3.5 -42t-1 -42q0 -53 7.5 -105.5t22.5 -104.5q15 -50 37 -101.5t51 -102.5l34 -60h-157l-11 19q-74 116 -110 227q-38 114 -38 228q0 112 38 226q18 56 45.5 113t64.5 114l11 19h157z" />
    <glyph glyph-name="guillemotright" unicode="&#xbb;" horiz-adv-x="992" 
d="M541 951h157l11 -19q148 -233 148 -454t-147 -454l-12 -19h-157l34 60q118 207 118 413t-118 413zM165 951h157l11 -19q148 -233 148 -454.5t-148 -453.5l-11 -19h-157l34 60q118 207 118 413t-118 413z" />
    <glyph glyph-name="afii57388" unicode="&#x60c;" horiz-adv-x="777" 
d="M468 7q-27 -8 -75 -8q-111 0 -136 121q-13 57 10 156q41 180 234 366l64 -48q-161 -169 -173 -320q146 2 160 -104q17 -134 -84 -163z" />
    <glyph glyph-name="uni0615" unicode="&#x615;" horiz-adv-x="11" 
d="M877 1836q-27 71 -126 26q-81 -37 -180 -134l-41 -40h123q141 0 205 70q34 37 19 78zM950 1817q0 -204 -268 -204h-335v75h102v501h77v-445l48 56q86 101 162 130q77 28 133 7q81 -31 81 -120z" />
    <glyph glyph-name="uni061B" unicode="&#x61b;" horiz-adv-x="777" 
d="M265 129q0 54 38 92t92 39q56 -1 94 -39t38 -92t-38 -92t-93 -38t-93 38t-38 92zM539 610q-7 -127 -136 -127q-63 0 -84 12q-20 13 -26 18q-82 65 -40 246q41 181 234 367l65 -48q-162 -169 -174 -320q145 2 160 -105q3 -19 1 -43z" />
    <glyph glyph-name="uni061F" unicode="&#x61f;" horiz-adv-x="1241" 
d="M565 129q0 54 38 92t93 39q55 -1 93 -39t38 -92t-38 -92t-92 -38q-56 0 -94 38t-38 92zM599 482q-2 195 -137 278q-233 144 -228 360q3 152 114 248q201 173 560 76q68 -19 151 -68l-63 -163q-125 74 -263 88q-210 22 -280 -99q-27 -47 -24 -100q8 -122 129 -206
q225 -156 242 -414h-201z" />
    <glyph glyph-name="uni0621" unicode="&#x621;" horiz-adv-x="807" 
d="M445 670q-188 -14 -188 -164q0 -143 169 -175q38 -8 93 -8t149 49l47 -158l-548 -210l-61 144l213 75q-228 59 -227 293q0 174 139 260q96 60 216 54q79 -4 150 -34v-152q-110 30 -152 26z" />
    <glyph glyph-name="uni0627" unicode="&#x627;" horiz-adv-x="491" 
d="M157 1388h175v-1387h-175v1387z" />
    <glyph glyph-name="uni0628" unicode="&#x628;" horiz-adv-x="1931" 
d="M858 -335q0 54 37.5 91.5t91.5 37.5q55 0 92.5 -37.5t37.5 -90.5q0 -55 -37.5 -92.5t-91.5 -37.5q-55 0 -92.5 37.5t-37.5 91.5zM1463 189q198 1 198 262v203h178v-206q0 -301 -165 -399q-83 -49 -208 -49h-1003q-372 0 -372 442v212h179v-201q0 -264 197 -264h996z" />
    <glyph glyph-name="uni0629" unicode="&#x629;" horiz-adv-x="904" 
d="M485 1187q0 54 37.5 91.5t91.5 37.5q55 0 92 -37q19 -19 28.5 -42t9.5 -49q0 -55 -37.5 -92.5t-91.5 -37.5q-55 0 -92.5 37.5t-37.5 91.5zM161 1187q0 54 37.5 91.5t91.5 37.5q55 0 92.5 -37.5t37.5 -90.5q0 -55 -37.5 -92.5t-91.5 -37.5q-55 0 -92.5 37.5t-37.5 91.5z
M448 625q-186 -187 -186 -306q0 -137 190 -137q195 0 195 133q0 119 -199 310zM245 41q-154 79 -154 241q0 206 237 462l-39 35l105 119q304 -238 388 -463q31 -83 31 -160q0 -139 -123 -223q-72 -50 -226 -51q-139 -2 -219 40z" />
    <glyph glyph-name="uni062A" unicode="&#x62a;" horiz-adv-x="1931" 
d="M990 893q0 54 37.5 91.5t91.5 37.5q55 0 92 -37q19 -19 28.5 -42t9.5 -49q0 -55 -37.5 -92.5t-91.5 -37.5q-55 0 -92.5 37.5t-37.5 91.5zM666 893q0 54 37.5 91.5t91.5 37.5q55 0 92.5 -37.5t37.5 -90.5q0 -55 -37.5 -92.5t-91.5 -37.5q-55 0 -92.5 37.5t-37.5 91.5z
M1463 189q198 1 198 262v203h178v-206q0 -301 -165 -399q-83 -49 -208 -49h-1003q-372 0 -372 442v212h179v-201q0 -264 197 -264h996z" />
    <glyph glyph-name="uni062B" unicode="&#x62b;" horiz-adv-x="1931" 
d="M824 1122q0 54 37.5 91.5t90.5 37.5q55 0 92.5 -37.5t37.5 -90.5q0 -55 -37.5 -92.5t-90.5 -37.5q-55 0 -92.5 37.5t-37.5 91.5zM984 812q0 54 37.5 91.5t91.5 37.5q55 0 92 -37q19 -19 28.5 -42t9.5 -49q0 -55 -37.5 -92.5t-91.5 -37.5q-55 0 -92.5 37.5t-37.5 91.5z
M660 812q0 54 37.5 91.5t91.5 37.5q55 0 92.5 -37.5t37.5 -90.5q0 -55 -37.5 -92.5t-91.5 -37.5q-55 0 -92.5 37.5t-37.5 91.5zM1463 189q198 1 198 262v203h178v-206q0 -301 -165 -399q-83 -49 -208 -49h-1003q-372 0 -372 442v212h179v-201q0 -264 197 -264h996z" />
    <glyph glyph-name="uni062C" unicode="&#x62c;" horiz-adv-x="1369" 
d="M676 -155q0 54 37.5 91.5t91.5 37.5q55 0 92.5 -37.5t37.5 -90.5q0 -55 -37.5 -92.5t-91.5 -37.5q-55 0 -92.5 37.5t-37.5 91.5zM1088 305q-821 -123 -822 -503q-2 -375 548 -374h414v-183h-426q-388 1 -550 156q-165 158 -162 383q6 558 897 671q0 20 -35 36l-218 101
q-83 39 -155 39q-78 0 -140 -47l-156 -118l-118 133l146 122q123 104 260 104q97 0 200 -52l321 -160q133 -66 133 -147v-142q-79 -7 -137 -19z" />
    <glyph glyph-name="uni062D" unicode="&#x62d;" horiz-adv-x="1369" 
d="M1088 305q-821 -123 -822 -503q-2 -375 548 -374h414v-183h-426q-388 1 -550 156q-165 158 -162 383q6 558 897 671q0 20 -35 36l-218 101q-83 39 -155 39q-78 0 -140 -47l-156 -118l-118 133l146 122q123 104 260 104q97 0 200 -52l321 -160q133 -66 133 -147v-142
q-79 -7 -137 -19z" />
    <glyph glyph-name="uni062E" unicode="&#x62e;" horiz-adv-x="1369" 
d="M507 1219q0 54 37.5 91.5t91.5 37.5q55 0 92.5 -37.5t37.5 -90.5q0 -55 -37.5 -92.5t-91.5 -37.5q-55 0 -92.5 37.5t-37.5 91.5zM1088 305q-821 -123 -822 -503q-2 -375 548 -374h414v-183h-426q-388 1 -550 156q-165 158 -162 383q6 558 897 671q0 20 -35 36l-218 101
q-83 39 -155 39q-78 0 -140 -47l-156 -118l-118 133l146 122q123 104 260 104q97 0 200 -52l321 -160q133 -66 133 -147v-142q-79 -7 -137 -19z" />
    <glyph glyph-name="uni062F" unicode="&#x62f;" horiz-adv-x="1000" 
d="M488 -1h-396v189h3q375 -1 453.5 6t102.5 16q97 38 54 153q-20 54 -179 237l-183 212l118 131l166 -190q198 -227 201 -232q113 -159 61 -317q-70 -206 -401 -205z" />
    <glyph glyph-name="uni0630" unicode="&#x630;" horiz-adv-x="1000" 
d="M242 1269q0 54 37.5 91.5t91.5 37.5q55 0 92.5 -37.5t37.5 -90.5q0 -55 -37.5 -92.5t-91.5 -37.5q-55 0 -92.5 37.5t-37.5 91.5zM488 -1h-396v189h3q375 -1 453.5 6t102.5 16q97 38 54 153q-20 54 -179 237l-183 212l118 131l166 -190q198 -227 201 -232
q113 -159 61 -317q-70 -206 -401 -205z" />
    <glyph glyph-name="uni0631" unicode="&#x631;" horiz-adv-x="757" 
d="M124 -324q356 1 356 307v566l186 1v-565q0 -493 -540 -496l-104 -1v188h102z" />
    <glyph glyph-name="uni0632" unicode="&#x632;" horiz-adv-x="757" 
d="M396 1021q0 54 37.5 91.5t91.5 37.5q55 0 92.5 -37.5t37.5 -90.5q0 -55 -37.5 -92.5t-91.5 -37.5q-55 0 -92.5 37.5t-37.5 91.5zM124 -324q356 1 356 307v566l186 1v-565q0 -493 -540 -496l-104 -1v188h102z" />
    <glyph glyph-name="uni0633" unicode="&#x633;" horiz-adv-x="2463" 
d="M91 446h179v-402q0 -307 433 -307h26h27q388 8 388 312v596h190v-280q1 -184 197 -187q160 -3 160 219l-1 255h174l1 -261q0 -215 176 -212q151 2 151 233v282h179v-276q0 -418 -335 -419q-205 -1 -265 182q-63 -184 -228 -182q-166 2 -222 100l-1 -55q-3 -479 -573 -496
l-19 -1h-27q-610 0 -610 496v403z" />
    <glyph glyph-name="uni0634" unicode="&#x634;" horiz-adv-x="2463" 
d="M1632 1279q0 54 37.5 91.5t90.5 37.5q55 0 92.5 -37.5t37.5 -90.5q0 -55 -37.5 -92.5t-90.5 -37.5q-55 0 -92.5 37.5t-37.5 91.5zM1792 969q0 54 37.5 91.5t91.5 37.5q55 0 92 -37q19 -19 28.5 -42t9.5 -49q0 -55 -37.5 -92.5t-91.5 -37.5q-55 0 -92.5 37.5t-37.5 91.5z
M1468 969q0 54 37.5 91.5t91.5 37.5q55 0 92.5 -37.5t37.5 -90.5q0 -55 -37.5 -92.5t-91.5 -37.5q-55 0 -92.5 37.5t-37.5 91.5zM91 446h179v-402q0 -307 433 -307h26h27q388 8 388 312v596h190v-280q1 -184 197 -187q160 -3 160 219l-1 255h174l1 -261q0 -215 176 -212
q151 2 151 233v282h179v-276q0 -418 -335 -419q-205 -1 -265 182q-63 -184 -228 -182q-166 2 -222 100l-1 -55q-3 -479 -573 -496l-19 -1h-27q-610 0 -610 496v403z" />
    <glyph glyph-name="uni0635" unicode="&#x635;" horiz-adv-x="2488" 
d="M2215 424q-40 168 -218 168q-205 0 -384 -390h358q155 0 206 45q44 39 44 102q0 45 -6 75zM1438 235q233 534 550 534q210 0 317 -141q85 -113 86 -269q0 -175 -115 -268q-112 -91 -325 -91h-277h-104q-178 0 -250 112v-68q0 -479 -573 -496l-19 -1h-27q-610 0 -610 496
v403h179v-402q0 -307 433 -307h26h27q388 8 388 312l-1 596h182v-168q0 -213 113 -242z" />
    <glyph glyph-name="uni0636" unicode="&#x636;" horiz-adv-x="2488" 
d="M1801 1141q0 54 37.5 91.5t91.5 37.5q55 0 92.5 -37.5t37.5 -90.5q0 -55 -37.5 -92.5t-91.5 -37.5q-55 0 -92.5 37.5t-37.5 91.5zM2215 424q-40 168 -218 168q-205 0 -384 -390h358q155 0 206 45q44 39 44 102q0 45 -6 75zM1438 235q233 534 550 534q210 0 317 -141
q85 -113 86 -269q0 -175 -115 -268q-112 -91 -325 -91h-277h-104q-178 0 -250 112v-68q0 -479 -573 -496l-19 -1h-27q-610 0 -610 496v403h179v-402q0 -307 433 -307h26h27q388 8 388 312l-1 596h182v-168q0 -213 113 -242z" />
    <glyph glyph-name="uni0637" unicode="&#x637;" horiz-adv-x="1281" 
d="M1008 424q-39 168 -217 168q-205 0 -384 -390h358q155 0 206 45q44 39 44 102q0 45 -7 75zM316 412v977h175v-756q138 136 308 136q196 0 301 -139q84 -112 84 -271q1 -175 -114 -268q-112 -91 -325 -91h-277h-104h-272v189h121q28 81 103 223z" />
    <glyph glyph-name="uni0638" unicode="&#x638;" horiz-adv-x="1281" 
d="M687 1140q0 54 37.5 91.5t91.5 37.5q55 0 92.5 -37.5t37.5 -90.5q0 -55 -37.5 -92.5t-91.5 -37.5q-55 0 -92.5 37.5t-37.5 91.5zM1008 424q-39 168 -217 168q-205 0 -384 -390h358q155 0 206 45q44 39 44 102q0 45 -7 75zM316 412v977h175v-756q138 136 308 136
q196 0 301 -139q84 -112 84 -271q1 -175 -114 -268q-112 -91 -325 -91h-277h-104h-272v189h121q28 81 103 223z" />
    <glyph glyph-name="uni0639" unicode="&#x639;" horiz-adv-x="1260" 
d="M1168 -754l-367 1q-346 1 -520 131q-190 143 -189 407q1 373 424 543q-101 32 -161 113q-94 125 -56 289q49 218 277 269q220 50 441 -64l-42 -154q-196 76 -333 47q-176 -36 -178 -194q-2 -191 252 -236l375 26v-177q-418 -9 -628 -135q-199 -120 -197 -332
q3 -351 531 -352l372 -1z" />
    <glyph glyph-name="uni063A" unicode="&#x63a;" horiz-adv-x="1296" 
d="M534 1338q0 54 37.5 91.5t91.5 37.5q55 0 92.5 -37.5t37.5 -90.5q0 -55 -37.5 -92.5t-91.5 -37.5q-55 0 -92.5 37.5t-37.5 91.5zM1168 -754l-367 1q-346 1 -520 131q-190 143 -189 407q1 373 424 543q-101 32 -161 113q-94 125 -56 289q49 218 277 269q220 50 441 -64
l-42 -154q-196 76 -333 47q-176 -36 -178 -194q-2 -191 252 -236l375 26v-177q-418 -9 -628 -135q-199 -120 -197 -332q3 -351 531 -352l372 -1z" />
    <glyph glyph-name="afii57440" unicode="&#x640;" horiz-adv-x="763" 
d="M-9 0v189h780v-189h-780z" />
    <glyph glyph-name="uni0641" unicode="&#x641;" horiz-adv-x="1941" 
d="M1365 1372q0 54 37.5 91.5t91.5 37.5q55 0 92.5 -37.5t37.5 -90.5q0 -55 -37.5 -92.5t-91.5 -37.5q-55 0 -92.5 37.5t-37.5 91.5zM1846 354q0 -356 -518 -355l-333 1h-533q-371 0 -371 442v212h178v-202q0 -263 198 -263h528h290q364 1 374 149l2 26q-47 -1 -99 -1t-90 1
q-156 0 -229 81q-73 80 -73 260q0 326 334 326q319 -1 339 -279q4 -60 4 -85l-1 -181v-132zM1673 625q0 153 -37 189q-44 42 -130 42q-176 -1 -176 -161q1 -145 175 -146q81 0 166 9q2 45 2 67z" />
    <glyph glyph-name="uni0642" unicode="&#x642;" horiz-adv-x="1511" 
d="M1108 1133q0 54 37.5 91.5t91.5 37.5q55 0 92 -37q19 -19 28.5 -42t9.5 -49q0 -55 -37.5 -92.5t-91.5 -37.5q-55 0 -92.5 37.5t-37.5 91.5zM784 1133q0 54 37.5 91.5t91.5 37.5q55 0 92.5 -37.5t37.5 -90.5q0 -55 -37.5 -92.5t-91.5 -37.5q-55 0 -92.5 37.5t-37.5 91.5z
M701 -482q-610 0 -610 525v403h179v-402q0 -337 433 -337h26l116 1q392 2 395 340l1 65h-168t-164 22q-59 21 -98 65q-82 89 -66 300q11 149 79 223q90 100 268 97q334 -7 328 -415q-2 -115 -1 -170v-132v-40q-6 -549 -582 -546l-108 1h-28zM1244 307q9 214 -29.5 277.5
t-136 60.5t-138 -53.5t-38 -142t48.5 -121.5q70 -45 293 -21z" />
    <glyph glyph-name="uni0643" unicode="&#x643;" horiz-adv-x="1877" 
d="M704 814q64 -9 128.5 -9t120.5 22q84 33 84 85t-91 66.5t-127 61.5q-54 72 -30 149q47 148 311 167l30 3v-101l-25 -2q-172 -14 -214 -84q-2 -4 -2 -29q0 -48 54 -66q27 -9 78.5 -16.5t85.5 -40t34 -89.5t-24 -94q-112 -179 -421 -131l-23 4v108zM1372 188q197 0 197 262
v937h179v-910q0 -478 -383 -478h-902q-372 0 -372 442v213h179v-202q0 -264 197 -264h905z" />
    <glyph glyph-name="uni0644" unicode="&#x644;" horiz-adv-x="1377" 
d="M270 44q0 -342 386 -342h26l27 1q359 8 363 345l1 49q-1 1 -1 337v953h174v-953v-334l-1 -56q-6 -514 -545 -530l-19 -1h-27q-563 0 -563 530v403h179v-402z" />
    <glyph glyph-name="uni0645" unicode="&#x645;" horiz-adv-x="1284" 
d="M833 579q-135 0 -148.5 -11.5t-13.5 -167.5t49.5 -206.5t138.5 -50.5q11 0 24 1q140 10 140 268q0 167 -190 167zM928 745q268 -3 265 -353q0 -266 -151 -365q-75 -49 -210.5 -43t-220.5 88q-120 110 -112 353q2 88 6 129q-240 -23 -240 -393v-657h-174v650v6
q1 544 402 585h435z" />
    <glyph glyph-name="uni0646" unicode="&#x646;" horiz-adv-x="1462" 
d="M598 656q0 54 37.5 91.5t91.5 37.5q55 0 92.5 -37.5t37.5 -90.5q0 -55 -37.5 -92.5t-91.5 -37.5q-55 0 -92.5 37.5t-37.5 91.5zM91 446h179v-341q0 -388 454 -388h42h41q382 6 382 392l-1 496h182v-506q0 -561 -571 -571h-34h-43q-631 0 -631 575v343z" />
    <glyph glyph-name="uni0647" unicode="&#x647;" horiz-adv-x="904" 
d="M448 625q-186 -187 -186 -306q0 -137 190 -137q195 0 195 133q0 119 -199 310zM245 41q-154 79 -154 241q0 206 237 462l-39 35l105 119q304 -238 388 -463q31 -83 31 -160q0 -139 -123 -223q-72 -50 -226 -51q-139 -2 -219 40z" />
    <glyph glyph-name="uni0648" unicode="&#x648;" horiz-adv-x="857" 
d="M510 533q-36 19 -93 19q-135 -1 -158 -127.5t25 -193.5q37 -51 178 -50q44 0 128 11q3 47 3 88q0 211 -83 253zM579 2q-35 -6 -93 -6h-61q-335 0 -334 354q0 148 60 242q87 138 274 138q231 0 316 -226q23 -61 25 -186q0 -2 -1 -322v-7q0 -502 -553 -501q-1 -1 -91 0h-3
v188h100q361 -1 361 281v45z" />
    <glyph glyph-name="uni0649" unicode="&#x649;" horiz-adv-x="1476" 
d="M1161 263q224 0 224 -222v-29q-2 -515 -560 -521h-55h-79q-600 0 -601 565v443h179v-442q0 -377 424 -377h77l64 1q375 3 375 313v12q0 78 -79 78l-191 1q-173 0 -173 167v65q0 473 423 473h196l1 -189h-239q-197 0 -202 -277l-2 -61h218z" />
    <glyph glyph-name="uni064A" unicode="&#x64a;" horiz-adv-x="1476" 
d="M776 -715q0 54 37.5 91.5t91.5 37.5q55 0 92 -37q19 -19 28.5 -42t9.5 -49q0 -55 -37.5 -92.5t-91.5 -37.5q-55 0 -92.5 37.5t-37.5 91.5zM452 -715q0 54 37.5 91.5t91.5 37.5q55 0 92.5 -37.5t37.5 -90.5q0 -55 -37.5 -92.5t-91.5 -37.5q-55 0 -92.5 37.5t-37.5 91.5z
M1161 263q224 0 224 -222v-29q-2 -515 -560 -521h-55h-79q-600 0 -601 565v443h179v-442q0 -377 424 -377h77l64 1q375 3 375 313v12q0 78 -79 78l-191 1q-173 0 -173 167v65q0 473 423 473h196l1 -189h-239q-197 0 -202 -277l-2 -61h218z" />
    <glyph glyph-name="uni064B" unicode="&#x64b;" 
d="M286 993v127l494 202v-127zM286 1252v127l494 202v-127z" />
    <glyph glyph-name="uni064C" unicode="&#x64c;" 
d="M567 1299q41 40 65 87l7 15l-16 3q-33 7 -56 20q-109 58 -109 150q0 87 68 139q27 20 90 20q73 0 112 -38q55 -54 55 -133q0 -40 -13 -79l-5 -16l17 -1q20 -1 36 -1q13 -1 28 -1v-92q-40 1 -58 2l-65 7l-3 -9q-27 -63 -106 -145q-87 -88 -182 -88q-113 0 -170 156
q-14 40 -15 148h70q1 -96 14 -124q41 -88 101 -88q65 0 135 68zM669 1483l11 25q11 25 11 54q0 42 -23 61q-22 18 -48 18q-28 0 -44 -12q-24 -19 -24 -55q0 -48 56 -70q22 -9 50 -18z" />
    <glyph glyph-name="uni064D" unicode="&#x64d;" 
d="M291 -497v127l494 202v-127zM291 -238v127l494 202v-127z" />
    <glyph glyph-name="uni064E" unicode="&#x64e;" 
d="M257 1251v127l494 202v-127z" />
    <glyph glyph-name="uni064F" unicode="&#x64f;" 
d="M595 1427q-8 2 -27 11q-109 57 -109 151q0 86 69 138q26 20 89 20q73 0 112 -38q55 -54 55 -133q0 -33 -14 -79l-5 -16l16 -1q19 -1 38 -1q13 -1 28 -1v-91q-30 0 -58 2q-31 2 -61 5l-8 1l-4 -7q-45 -63 -116 -106q-202 -124 -352 -130v92q161 5 307 119q25 20 46 42
l16 17zM671 1497l11 25q10 25 10 54q0 42 -22 61q-22 18 -48 18q-29 0 -45 -12q-24 -19 -24 -54q0 -49 56 -71q22 -9 51 -18z" />
    <glyph glyph-name="uni0650" unicode="&#x650;" 
d="M301 -343v127l494 202v-127z" />
    <glyph glyph-name="uni0651" unicode="&#x651;" 
d="M508 1339q-38 -45 -129 -45q-78 0 -118 62q-34 52 -34 130q0 41 15 141h79q-11 -124 -11 -167q0 -65 89 -67q98 -2 107 126q2 26 2 162h78q2 -35 2 -83q0 -146 113 -146q85 0 85 147q0 110 -11 171h83q11 -75 11 -189q0 -69 -28 -124q-45 -90 -118 -98q-65 -7 -107 20
q-59 40 -61 52q-9 -47 -47 -92z" />
    <glyph glyph-name="uni0652" unicode="&#x652;" 
d="M675 1384q0 44 -31.5 75t-76.5 31q-46 0 -76.5 -30.5t-30.5 -75.5q0 -46 30.5 -77t76.5 -31q45 0 76.5 31t31.5 77zM750 1384q0 -77 -53 -130.5t-129.5 -53.5t-130 53.5t-53.5 130.5t53.5 130t130 53t129.5 -53t53 -130z" />
    <glyph glyph-name="uni0653" unicode="&#x653;" horiz-adv-x="11" 
d="M306 1686h404l2 -151h-394q-89 0 -152 -83l-20 -26l-102 115l11 18q84 127 251 127z" />
    <glyph glyph-name="uni0654" unicode="&#x654;" 
d="M390 1654l109 25q-80 47 -99 117q-8 31 -8 69q0 106 111 169q84 48 201 23q38 -8 83 -32v-115l-20 9q-84 34 -137 29q-120 -12 -127 -87q-8 -94 121 -133q42 -9 190 23v-121l-424 -95v119z" />
    <glyph glyph-name="uni0655" unicode="&#x655;" 
d="M390 -181l109 25q-80 47 -99 117q-8 31 -8 69q0 106 111 169q84 48 201 23q38 -8 83 -32v-115l-20 9q-84 34 -137 29q-120 -12 -127 -87q-8 -94 121 -133q42 -9 190 23v-121l-424 -95v119z" />
    <glyph glyph-name="uni0657" unicode="&#x657;" horiz-adv-x="11" 
d="M307 1992l144 -10q59 84 141 134q225 139 397 150v-86q-188 -11 -356 -142q-30 -24 -55 -50l-31 -33l44 -10q8 -2 49 -23t71.5 -63t30.5 -92t-15 -79q-48 -98 -167 -98t-164 109q-15 37 -15 77.5t16 92.5l10 32l-33 2q-30 1 -67 2v87zM498 1886l-17 -39q-13 -31 -13 -76
t29.5 -69.5t63.5 -24.5q72 2 88 60q3 13 3 25q0 76 -132 117z" />
    </font>
</defs>
</svg>
