<?xml version="1.0" standalone="no"?>
<!DOCTYPE svg PUBLIC "-//W3C//DTD SVG 1.1//EN" "http://www.w3.org/Graphics/SVG/1.1/DTD/svg11.dtd" >
<svg xmlns="http://www.w3.org/2000/svg" xmlns:xlink="http://www.w3.org/1999/xlink" version="1.1">
<metadata>
Created by FontForge 20201107 at Sat Aug 27 01:02:11 2016
 By 
Copyright (c) 2003 by Bitstream, Inc. All Rights Reserved.
DejaVu changes are in public domain
Copyright (c) 2015 by Saber Rastikerdar. All Rights Reserved.
Non-Arabic(Latin) glyphs and data are imported from Open Sans font under the Apache License, Version 2.0.
</metadata>
<defs>
<font id="Samim" horiz-adv-x="1171" >
  <font-face 
    font-family="Samim"
    font-weight="400"
    font-stretch="normal"
    units-per-em="2048"
    panose-1="2 11 6 3 3 8 4 2 2 4"
    ascent="1638"
    descent="-410"
    x-height="1096"
    cap-height="1462"
    bbox="-1051 -1045.52 2995.17 2280"
    underline-thickness="100"
    underline-position="-300"
    unicode-range="U+000D-FFFD"
  />
<missing-glyph horiz-adv-x="1229" 
d="M193 1462h841v-1462h-841v1462zM297 104h633v1254h-633v-1254z" />
    <glyph glyph-name="uni0622" unicode="&#x627;&#x653;" horiz-adv-x="570" 
d="M225 1318.75l173 67.498v-1381.44h-130zM71 1495l-92 91q108 179 254 152l134 -26q77 -14 195 57l65 -104q-100 -113 -269 -85l-126 22q-102 17 -161 -107z" />
    <glyph glyph-name="uni0623" unicode="&#x627;&#x654;" horiz-adv-x="448" 
d="M151 1318.75l173 67.498v-1381.44h-130zM192 1997q108 22 200 -32v-112l-20 10q-65 32 -130 25q-100 -11 -107 -87q-7 -82 107 -117q35 -10 174 22v-116l-389 -87v113l92 22q-90 56 -90 154.5t68 158.5q39 34 95 46z" />
    <glyph glyph-name="afii57412" unicode="&#x648;&#x654;" horiz-adv-x="891" 
d="M409 1346q108 22 200 -32v-112l-20 10q-65 32 -130 25q-100 -11 -107 -87q-7 -82 107 -117q35 -10 174 22v-116l-389 -87v113l92 22q-90 56 -90 154.5t68 158.5q39 34 95 46zM441 548q-135 -4 -180 -183q-53 -205 178 -204q121 0 191 54q0 57 -4 94q-28 244 -185 239z
M727 534q64 -132 63 -352q-1 -314 -127 -477q-185 -239 -560 -242h-2l-75 139q553 33 596 438q-59 -48 -208 -49q-92 1 -160 31q-151 68 -150 254q1 107 50 216q35 79 91 137q114 116 274 83q136 -28 208 -178z" />
    <glyph glyph-name="uni0625" unicode="&#x627;&#x655;" horiz-adv-x="448" 
d="M225 -80q108 22 200 -32v-112l-20 10q-65 32 -130 25q-100 -11 -107 -87q-7 -82 107 -117q35 -10 174 22v-116l-389 -87v113l92 22q-90 56 -90 154.5t68 158.5q39 34 95 46zM138 1462l173 75v-1535h-130z" />
    <glyph glyph-name="afii57414" unicode="&#x64a;&#x654;" horiz-adv-x="1470" 
d="M542 1257q108 22 200 -32v-112l-20 10q-65 32 -130 25q-100 -11 -107 -87q-7 -82 107 -117q35 -10 174 22v-116l-389 -87v113l92 22q-90 56 -90 154.5t68 158.5q39 34 95 46zM1042 160l58 1q107 0 168 -25q106 -43 105 -159q1 -122 -76 -224q-177 -237 -579 -238
q-205 0 -334 56q-286 125 -287 480q-1 221 116 470l147 -60q-93 -211 -97 -388q-9 -385 463 -382q293 2 448 151q44 42 47 85q3 69 -82 69h-94q-255 4 -270 162q-8 76 19 157q60 175 194 288q138 118 293 120q54 0 88 -8l-60 -183h-4q-168 0 -302 -162q-57 -69 -68 -139.5
t107 -70.5z" />
    <glyph glyph-name="ff" unicode="ff" horiz-adv-x="1389" 
d="M1364 967h-279v-967h-166v967h-196v75l196 60v61q0 404 353 404q87 0 204 -35l-43 -133q-96 31 -164 31q-94 0 -139 -62.5t-45 -200.5v-71h279v-129zM670 967h-279v-967h-166v967h-196v75l196 60v61q0 404 353 404q87 0 204 -35l-43 -133q-96 31 -164 31
q-94 0 -139 -62.5t-45 -200.5v-71h279v-129z" />
    <glyph glyph-name="uniFB01" unicode="fi" horiz-adv-x="1212" 
d="M670 967h-279v-967h-166v967h-196v75l196 60v61q0 404 353 404q87 0 204 -35l-43 -133q-96 31 -164 31q-94 0 -139 -62.5t-45 -200.5v-71h279v-129zM1036 0h-166v1096h166v-1096zM856 1393q0 57 28 83.5t70 26.5q40 0 69 -27t29 -83t-29 -83.5t-69 -27.5q-42 0 -70 27.5
t-28 83.5z" />
    <glyph glyph-name="uniFB02" unicode="fl" horiz-adv-x="1212" 
d="M670 967h-279v-967h-166v967h-196v75l196 60v61q0 404 353 404q87 0 204 -35l-43 -133q-96 31 -164 31q-94 0 -139 -62.5t-45 -200.5v-71h279v-129zM1036 0h-166v1556h166v-1556z" />
    <glyph glyph-name="uniFB03" unicode="ffi" horiz-adv-x="1909" 
d="M1358 967h-279v-967h-166v967h-196v75l196 60v61q0 404 353 404q87 0 204 -35l-43 -133q-96 31 -164 31q-94 0 -139 -62.5t-45 -200.5v-71h279v-129zM670 967h-279v-967h-166v967h-196v75l196 60v61q0 404 353 404q87 0 204 -35l-43 -133q-96 31 -164 31
q-94 0 -139 -62.5t-45 -200.5v-71h279v-129zM1731 0h-166v1096h166v-1096zM1551 1393q0 57 28 83.5t70 26.5q40 0 69 -27t29 -83t-29 -83.5t-69 -27.5q-42 0 -70 27.5t-28 83.5z" />
    <glyph glyph-name="uniFB04" unicode="ffl" horiz-adv-x="1909" 
d="M1358 967h-279v-967h-166v967h-196v75l196 60v61q0 404 353 404q87 0 204 -35l-43 -133q-96 31 -164 31q-94 0 -139 -62.5t-45 -200.5v-71h279v-129zM670 967h-279v-967h-166v967h-196v75l196 60v61q0 404 353 404q87 0 204 -35l-43 -133q-96 31 -164 31
q-94 0 -139 -62.5t-45 -200.5v-71h279v-129zM1731 0h-166v1556h166v-1556z" />
    <glyph glyph-name="uniFDF2" unicode="&#x627;&#xfedf;&#xfee0;&#xfeea;" horiz-adv-x="2822" arabic-form="isolated" 
d="M1391 1796l-26 423l104 61v-484h-78zM1436 1461q-32 -175 -185 -175q-154 0 -154 197q-1 39 16 149h80q-14 -95 -14 -124q0 -120 85 -120q116 0 122 153q2 42 2 92v59h78q2 -38 3 -89q-1 -149 129 -149h1q78 1 79 126q0 112 -12 178h84q12 -84 12 -184q0 -162 -89 -200
q-35 -15 -69 -16q-75 -3 -114 26q-48 35 -54 77zM1152 185q48 0 48 -77v-34q0 -74 -48 -74h-48q-292 0 -346 255q-530 -84 -638 121q-20 38 -22 89q-10 275 586 390q0 17 -14 122l157 38l68 -597q26 -232 210 -232zM740 412q-16 166 -35 285q-426 -79 -441 -197
q-11 -84 80 -102q132 -27 396 14zM1152 185h73q193 0 183 242l-31 747l172 74v-820q0 -243 201 -243h71q48 0 48 -77v-34q0 -74 -48 -74h-80q-149 0 -257 114q-103 -114 -260 -114h-72q-48 0 -48 74v34q0 77 48 77zM1820 185h63q230 0 220 295l-30 858l174 76v-948
q0 -246 -99 -356q-100 -110 -255 -110h-73q-48 0 -48 74v34q0 77 48 77zM2512 1462l173 75v-1535h-130z" />
    <glyph glyph-name="uniFE70" unicode="&#x20;&#x64b;" horiz-adv-x="680" arabic-form="isolated" 
d="M80 1121v122l534 218v-121zM80 1411v122l534 218v-121z" />
    <glyph glyph-name="uniFE72" unicode="&#x20;&#x64c;" horiz-adv-x="680" arabic-form="isolated" 
d="M452 1837q-88 0 -88 -79q-1 -52 65 -83q25 -12 73 -25l5 12q20 46 21 90q-2 85 -76 85zM101 1606q2 -236 136 -237q72 1 151 77q46 44 74 99l10 22q-52 10 -92 31q-110 56 -110 168q0 61 30 101q47 64 133.5 64t137.5 -49.5t51 -137.5q1 -42 -13 -87l-7 -23l24 -1
q29 -2 67 -2v-95q-44 1 -60 3l-72 7q-78 -179 -225 -250q-44 -21 -102 -21q-127 0 -180 141q-22 56 -23 190h70zM666 1632v0v0z" />
    <glyph glyph-name="uniFE74" unicode="&#x20;&#x64d;" horiz-adv-x="680" arabic-form="isolated" 
d="M86 -546v121l534 219v-122zM86 -256v121l534 218v-121z" />
    <glyph glyph-name="uniFE76" unicode="&#x20;&#x64e;" horiz-adv-x="680" arabic-form="isolated" 
d="M48 1410v122l534 218v-121z" />
    <glyph glyph-name="uniFE78" unicode="&#x20;&#x64f;" horiz-adv-x="680" arabic-form="isolated" 
d="M632 1552q-85 1 -140 9q-56 -78 -135 -127q-125 -78 -267 -84v95q210 32 297 145q-106 24 -151 89q-30 40 -30 93q0 86 71 139q49 36 107 36q75 0 126 -50t51 -137q0 -36 -15 -87l-8 -23l24 -1q41 -3 70 -3v-94zM441 1666l4 8q23 50 23 92t-27 65q-27 22 -58 22
q-32 0 -55 -18q-26 -22 -27 -57q-1 -55 67 -87q34 -16 73 -25z" />
    <glyph glyph-name="uniFE7A" unicode="&#x20;&#x650;" horiz-adv-x="680" arabic-form="isolated" 
d="M97 -374v122l534 218v-122z" />
    <glyph glyph-name="uniFE7C" unicode="&#x20;&#x651;" horiz-adv-x="680" arabic-form="isolated" 
d="M372 1624q-32 -175 -185 -175q-154 0 -154 197q-1 39 16 149h80q-14 -95 -14 -124q0 -120 85 -120q116 0 122 153q2 42 2 92v59h78q2 -38 3 -89q-1 -149 129 -149h1q78 1 79 126q0 112 -12 178h84q12 -84 12 -184q0 -162 -89 -200q-35 -15 -69 -16q-75 -3 -114 26
q-48 35 -54 77z" />
    <glyph glyph-name="uniFE7E" unicode="&#x20;&#x652;" horiz-adv-x="680" arabic-form="isolated" 
d="M510 1545q0 51 -36 87t-89 36t-88.5 -35.5t-35.5 -87.5q0 -54 35.5 -89.5t88.5 -35.5t89 36t36 89zM586 1544.5q0 -84.5 -58 -143t-142 -58.5q-29 0 -54 6.5t-47 19.5t-42 33q-29 29 -43.5 64.5t-14.5 78.5q0 84 58 142t142.5 58t142.5 -58t58 -142.5z" />
    <glyph glyph-name="uniFEF5" unicode="&#xfedf;&#xfe82;" horiz-adv-x="1193" arabic-form="isolated" 
d="M237 1418q233 -443 363 -1231q165 17 249 145q67 103 54 474l-22 655l174 76v-988q0 -288 -156 -425q-147 -128 -459 -127q-189 1 -274 27v175q117 -35 283 -24q-103 702 -352 1129zM-25 1457l-92 91q108 179 254 152l134 -26q77 -14 195 57l65 -104q-100 -113 -269 -85
l-126 22q-102 17 -161 -107z" />
    <glyph glyph-name="uniFEF6" unicode="&#xfee0;&#xfe82;" horiz-adv-x="1314" arabic-form="final" 
d="M1321 185q48 0 48 -77v-34q0 -75 -48 -74l-48 1q-300 3 -330 338q-143 -337 -583 -338q-106 -1 -199 17v178q212 -45 283 -18q-94 708 -348 1129l141 116q230 -441 353 -1210q314 108 300 657l-15 589l172 77v-894q0 -190 26 -277q51 -178 201 -179zM-29 1486l-92 91
q108 179 254 152l134 -26q77 -14 195 57l65 -104q-100 -113 -269 -85l-126 22q-102 17 -161 -107z" />
    <glyph glyph-name="uniFEF7" unicode="&#xfedf;&#xfe84;" horiz-adv-x="1193" arabic-form="isolated" 
d="M237 1418q233 -443 363 -1231q165 17 249 145q67 103 54 474l-22 655l174 76v-988q0 -288 -156 -425q-147 -128 -459 -127q-189 1 -274 27v175q117 -35 283 -24q-103 702 -352 1129zM160 1931q108 22 200 -32v-112l-20 10q-65 32 -130 25q-100 -11 -107 -87
q-7 -82 107 -117q35 -10 174 22v-116l-389 -87v113l92 22q-90 56 -90 154.5t68 158.5q39 34 95 46z" />
    <glyph glyph-name="uniFEF8" unicode="&#xfee0;&#xfe84;" horiz-adv-x="1314" arabic-form="final" 
d="M1321 185q48 0 48 -77v-34q0 -75 -48 -74l-48 1q-300 3 -330 338q-143 -337 -583 -338q-106 -1 -199 17v178q212 -45 283 -18q-94 708 -348 1129l141 116q230 -441 353 -1210q314 108 300 657l-15 589l172 77v-894q0 -190 26 -277q51 -178 201 -179zM160 1953
q108 22 200 -32v-112l-20 10q-65 32 -130 25q-100 -11 -107 -87q-7 -82 107 -117q35 -10 174 22v-116l-389 -87v113l92 22q-90 56 -90 154.5t68 158.5q39 34 95 46z" />
    <glyph glyph-name="uniFEF9" unicode="&#xfedf;&#xfe88;" horiz-adv-x="1193" arabic-form="isolated" 
d="M237 1418q233 -443 363 -1231q165 17 249 145q67 103 54 474l-22 655l174 76v-988q0 -288 -156 -425q-147 -128 -459 -127q-189 1 -274 27v175q117 -35 283 -24q-103 702 -352 1129zM216 -80q108 22 200 -32v-112l-20 10q-65 32 -130 25q-100 -11 -107 -87
q-7 -82 107 -117q35 -10 174 22v-116l-389 -87v113l92 22q-90 56 -90 154.5t68 158.5q39 34 95 46z" />
    <glyph glyph-name="uniFEFA" unicode="&#xfee0;&#xfe88;" horiz-adv-x="1314" arabic-form="final" 
d="M1321 185q48 0 48 -77v-34q0 -75 -48 -74l-48 1q-300 3 -330 338q-143 -337 -583 -338q-106 -1 -199 17v178q212 -45 283 -18q-94 708 -348 1129l141 116q230 -441 353 -1210q314 108 300 657l-15 589l172 77v-894q0 -190 26 -277q51 -178 201 -179zM198 -80
q108 22 200 -32v-112l-20 10q-65 32 -130 25q-100 -11 -107 -87q-7 -82 107 -117q35 -10 174 22v-116l-389 -87v113l92 22q-90 56 -90 154.5t68 158.5q39 34 95 46z" />
    <glyph glyph-name="uniFEFB" unicode="&#xfedf;&#xfe8e;" horiz-adv-x="1193" arabic-form="isolated" 
d="M237 1418q233 -443 363 -1231q165 17 249 145q67 103 54 474l-22 655l174 76v-988q0 -288 -156 -425q-147 -128 -459 -127q-189 1 -274 27v175q117 -35 283 -24q-103 702 -352 1129z" />
    <glyph glyph-name="uniFEFC" unicode="&#xfee0;&#xfe8e;" horiz-adv-x="1314" arabic-form="final" 
d="M1321 185q48 0 48 -77v-34q0 -75 -48 -74l-48 1q-300 3 -330 338q-143 -337 -583 -338q-106 -1 -199 17v178q212 -45 283 -18q-94 708 -348 1129l141 116q230 -441 353 -1210q314 108 300 657l-15 589l172 77v-894q0 -190 26 -277q51 -178 201 -179z" />
    <glyph glyph-name="uni0651064B" unicode="&#x64b;&#x651;" horiz-adv-x="0" 
d="M346 1275v122l534 218v-121zM346 1565v122l534 218v-121zM638 959q-32 -175 -185 -175q-154 0 -154 197q-1 39 16 149h80q-14 -95 -14 -124q0 -120 85 -120q116 0 122 153q2 42 2 92v59h78q2 -38 3 -89q-1 -149 129 -149h1q78 1 79 126q0 112 -12 178h84q12 -84 12 -184
q0 -162 -89 -200q-35 -15 -69 -16q-75 -3 -114 26q-48 35 -54 77z" />
    <glyph glyph-name="uni0651064C" unicode="&#x64c;&#x651;" horiz-adv-x="0" 
d="M707 1849q-88 0 -88 -79q-1 -52 65 -83q25 -12 73 -25l5 12q20 46 21 90q-2 85 -76 85zM356 1618q2 -236 136 -237q72 1 151 77q46 44 74 99l10 22q-52 10 -92 31q-110 56 -110 168q0 61 30 101q47 64 133.5 64t137.5 -49.5t51 -137.5q1 -42 -13 -87l-7 -23l24 -1
q29 -2 67 -2v-95q-44 1 -60 3l-72 7q-78 -179 -225 -250q-44 -21 -102 -21q-127 0 -180 141q-22 56 -23 190h70zM921 1644v0v0zM627 964q-32 -175 -185 -175q-154 0 -154 197q-1 39 16 149h80q-14 -95 -14 -124q0 -120 85 -120q116 0 122 153q2 42 2 92v59h78q2 -38 3 -89
q-1 -149 129 -149h1q78 1 79 126q0 112 -12 178h84q12 -84 12 -184q0 -162 -89 -200q-35 -15 -69 -16q-75 -3 -114 26q-48 35 -54 77z" />
    <glyph glyph-name="uni064B0651" unicode="&#x64d;&#x651;" horiz-adv-x="0" 
d="M591 1623q-32 -175 -185 -175q-154 0 -154 197q-1 39 16 149h80q-14 -95 -14 -124q0 -120 85 -120q116 0 122 153q2 42 2 92v59h78q2 -38 3 -89q-1 -149 129 -149h1q78 1 79 126q0 112 -12 178h84q12 -84 12 -184q0 -162 -89 -200q-35 -15 -69 -16q-75 -3 -114 26
q-48 35 -54 77zM299 783v122l534 218v-121zM299 1073v122l534 218v-121z" />
    <glyph glyph-name="uni0651064E" unicode="&#x64e;&#x651;" horiz-adv-x="0" 
d="M320 1475v122l534 218v-121zM644 1147q-32 -175 -185 -175q-154 0 -154 197q-1 39 16 149h80q-14 -95 -14 -124q0 -120 85 -120q116 0 122 153q2 42 2 92v59h78q2 -38 3 -89q-1 -149 129 -149h1q78 1 79 126q0 112 -12 178h84q12 -84 12 -184q0 -162 -89 -200
q-35 -15 -69 -16q-75 -3 -114 26q-48 35 -54 77z" />
    <glyph glyph-name="uni0651064F" unicode="&#x64f;&#x651;" horiz-adv-x="0" 
d="M888 1539q-85 1 -140 9q-56 -78 -135 -127q-125 -78 -267 -84v95q210 32 297 145q-106 24 -151 89q-30 40 -30 93q0 86 71 139q49 36 107 36q75 0 126 -50t51 -137q0 -36 -15 -87l-8 -23l24 -1q41 -3 70 -3v-94zM697 1653l4 8q23 50 23 92t-27 65q-27 22 -58 22
q-32 0 -55 -18q-26 -22 -27 -57q-1 -55 67 -87q34 -16 73 -25zM628 995q-32 -175 -185 -175q-154 0 -154 197q-1 39 16 149h80q-14 -95 -14 -124q0 -120 85 -120q116 0 122 153q2 42 2 92v59h78q2 -38 3 -89q-1 -149 129 -149h1q78 1 79 126q0 112 -12 178h84
q12 -84 12 -184q0 -162 -89 -200q-35 -15 -69 -16q-75 -3 -114 26q-48 35 -54 77z" />
    <glyph glyph-name="uni064E0651" unicode="&#x650;&#x651;" horiz-adv-x="0" 
d="M629 1569q-32 -175 -185 -175q-154 0 -154 197q-1 39 16 149h80q-14 -95 -14 -124q0 -120 85 -120q116 0 122 153q2 42 2 92v59h78q2 -38 3 -89q-1 -149 129 -149h1q78 1 79 126q0 112 -12 178h84q12 -84 12 -184q0 -162 -89 -200q-35 -15 -69 -16q-75 -3 -114 26
q-48 35 -54 77zM373 1040v122l534 218v-121z" />
    <glyph glyph-name="uni0654064E" unicode="&#x64e;&#x654;" horiz-adv-x="0" 
d="M266 1474v122l534 218v-121zM545 1419q108 22 200 -32v-112l-20 10q-65 32 -130 25q-100 -11 -107 -87q-7 -82 107 -117q35 -10 174 22v-116l-389 -87v113l92 22q-90 56 -90 154.5t68 158.5q39 34 95 46z" />
    <glyph glyph-name="uni0654064F" unicode="&#x64f;&#x654;" horiz-adv-x="0" 
d="M877 1534q-85 1 -140 9q-56 -78 -135 -127q-125 -78 -267 -84v95q210 32 297 145q-106 24 -151 89q-30 40 -30 93q0 86 71 139q49 36 107 36q75 0 126 -50t51 -137q0 -36 -15 -87l-8 -23l24 -1q41 -3 70 -3v-94zM686 1648l4 8q23 50 23 92t-27 65q-27 22 -58 22
q-32 0 -55 -18q-26 -22 -27 -57q-1 -55 67 -87q34 -16 73 -25zM554 1254q108 22 200 -32v-112l-20 10q-65 32 -130 25q-100 -11 -107 -87q-7 -82 107 -117q35 -10 174 22v-116l-389 -87v113l92 22q-90 56 -90 154.5t68 158.5q39 34 95 46z" />
    <glyph glyph-name="uni066E.init" unicode="&#x66e;" horiz-adv-x="640" 
d="M441 80q-94 -80 -356 -80h-87q-50 0 -50 74v34q0 77 48 77h93q93 0 120 4q116 16 146 88q30 70 18 211q-12 142 -36 240l161 34q38 -108 46 -255q17 -323 -103 -427z" />
    <glyph glyph-name="uni066E.medi" unicode="&#x66e;" horiz-adv-x="744" 
d="M750 0h-43q-156 0 -276 130q-117 -130 -302 -130h-133q-48 0 -48 74v34q0 77 48 77h137q213 0 217 182l5 225l154 26l9 -251q6 -182 192 -182h40q48 0 48 -77v-34q0 -74 -48 -74z" />
    <glyph glyph-name="uni066E.fina" unicode="&#x66e;" horiz-adv-x="2132" 
d="M2139 185q48 0 48 -77v-34q0 -74 -48 -74l-63 1q-245 2 -328 219q-52 -61 -190 -125q-200 -95 -651 -95q-340 0 -509 71q-273 113 -298 396q-12 133 31 285l142 -38q-21 -141 -18 -207q12 -259 339 -306q80 -12 310 -13q428 -2 599 78q198 94 226 310h121
q14 -179 41 -253q49 -135 208 -137z" />
    <glyph glyph-name="uni066F.init" unicode="&#x66f;" horiz-adv-x="798" 
d="M-4 185h264q205 0 267 45q83 58 87 188q-73 -52 -218 -51q-158 1 -234 102q-66 88 -49 244q18 161 112 260q117 124 280 91q111 -23 180 -139q91 -152 92 -388q1 -359 -179 -473q-101 -64 -344 -64h-258q-48 0 -48 74v34q0 77 48 77zM436 899q-124 -3 -166 -172
q-49 -197 144 -198q124 -1 203 57q6 26 -12 123q-36 194 -169 190z" />
    <glyph glyph-name="uni066F.medi" unicode="&#x66f;" horiz-adv-x="1072" 
d="M-4 185h124q174 0 244 29q-99 65 -141 163q-46 106 -13 228q41 156 189 219q65 27 154 28q85 1 159 -34q138 -64 172 -214q25 -114 -13 -210q-43 -108 -158 -182q79 -27 223 -27h141q48 0 48 -77v-34q0 -74 -48 -74h-137q-246 0 -396 113q-132 -113 -405 -113h-143
q-48 0 -48 74v34q0 77 48 77zM359 506q-1 -78 54 -133q86 -88 132 -88q46 1 132 88q53 54 54 133q0 79 -55 134t-131 55t-132 -55q-54 -54 -54 -134z" />
    <glyph glyph-name="uni066F.fina" unicode="&#x66f;" horiz-adv-x="1456" 
d="M1463 0l-140 2q-9 -146 -52 -246q-144 -328 -572 -327q-433 2 -564 302q-67 153 -35 369q21 143 82 281l159 -55q-80 -195 -80 -344q0 -33 4 -65q41 -315 436 -315q428 2 474 401q-33 -1 -184 -1q-200 0 -281 104q-64 83 -51 218q20 194 146 318q80 78 186 77
q189 -2 279 -190q54 -111 61 -343l132 -1q48 0 48 -77v-34q0 -75 -48 -74zM981 547q-81 -1 -134 -101q-28 -52 -34 -114q-7 -76 33 -113q38 -33 114 -39q72 -6 216 1q0 367 -195 366z" />
    <glyph glyph-name="uni06A1.init" unicode="&#x6a1;" horiz-adv-x="870" 
d="M-4 185h264q205 0 267 45q83 58 87 188q-73 -52 -218 -51q-158 1 -234 102q-66 88 -49 244q18 161 112 260q117 124 280 91q111 -23 180 -139q91 -152 92 -388q1 -359 -179 -473q-101 -64 -344 -64h-258q-48 0 -48 74v34q0 77 48 77zM436 899q-124 -3 -166 -172
q-49 -197 144 -198q124 -1 203 57q6 26 -12 123q-36 194 -169 190z" />
    <glyph glyph-name="uni06A1.medi" unicode="&#x6a1;" horiz-adv-x="1070" 
d="M-4 185h124q174 0 244 29q-99 65 -141 163q-46 106 -13 228q41 156 189 219q65 27 154 28q85 1 159 -34q138 -64 172 -214q25 -114 -13 -210q-43 -108 -158 -182q79 -27 223 -27h141q48 0 48 -77v-34q0 -74 -48 -74h-137q-246 0 -396 113q-132 -113 -405 -113h-143
q-48 0 -48 74v34q0 77 48 77zM359 506q-1 -78 54 -133q86 -88 132 -88q46 1 132 88q53 54 54 133q0 79 -55 134t-131 55t-132 -55q-54 -54 -54 -134z" />
    <glyph glyph-name="uni06A1.fina" unicode="&#x6a1;" horiz-adv-x="1992" 
d="M1999 185q48 0 48 -77v-34q0 -74 -48 -74l-93 1q-236 1 -372 115q-274 -116 -675 -116q-296 0 -465 71q-273 113 -298 396q-11 135 31 285l142 -38q-23 -147 -20 -207q11 -255 341 -306q49 -8 184 -12q211 -6 348 2q59 3 217 23q-97 64 -141 163q-46 106 -13 228
q42 157 189 219q68 28 154 28q88 0 159 -34q137 -64 172 -214q26 -112 -13 -210q-41 -107 -158 -182q27 -25 226 -26zM1334 506q-1 -78 54 -133q86 -88 132 -88q47 1 132 88q54 54 54 133q1 79 -54 134q-56 55 -132 55t-131 -55q-54 -54 -55 -134z" />
    <glyph glyph-name="uni06CA.fina" unicode="&#x6ca;" horiz-adv-x="905" 
d="M615 1157l83 -83q26 -26 1 -52l-87 -87q-28 -28 -56 0l-87 86q-26 27 4 56l81 81q30 30 61 -1zM315 1157l83 -83q26 -26 1 -52l-87 -87q-28 -28 -56 0l-87 86q-26 27 4 56l81 81q30 30 61 -1zM912 185q48 0 48 -77v-34q0 -74 -48 -74h-136q-29 -192 -157 -340
q-168 -196 -519 -197h-2l-72 140q524 32 596 398h-176q-200 0 -281 104q-65 84 -51 218q21 197 146 318q80 78 185 77q189 -2 280 -190q54 -111 61 -342zM436 546q-81 -1 -135 -101q-28 -52 -33 -114q-7 -77 33 -113q37 -34 113 -39q73 -6 217 1q0 367 -195 366z" />
    <glyph glyph-name="uni06D5.fina" unicode="&#x6d5;" horiz-adv-x="1144" 
d="M1151 185q48 0 48 -77v-34q0 -74 -48 -74h-48q-292 0 -346 255q-530 -84 -638 121q-20 38 -22 89q-10 275 586 390q0 17 -14 122l157 38l68 -597q26 -232 210 -232zM739 412q-16 166 -35 285q-426 -79 -441 -197q-11 -84 80 -102q132 -27 396 14z" />
    <glyph glyph-name="uniFB56" unicode="&#x67e;" horiz-adv-x="1842" arabic-form="isolated" 
d="M921 1q-353 -1 -522 70q-275 115 -301 409q-11 116 34 272l142 -38q-23 -147 -20 -207q15 -295 448 -316q67 -3 232 -2.5t195 3.5q431 41 444 144q9 69 -4.5 201.5t-39.5 214.5l174 89q29 -119 43 -259q24 -254 -29 -370q-98 -209 -796 -211zM1158.66 -167.381
l88.8057 -89.876q28.8887 -27.8184 1.07031 -55.6367l-93.0859 -92.0156q-29.958 -29.959 -58.8467 -1.07031l-93.0859 93.0859q-27.8184 27.8184 3.20996 58.8467l86.666 87.7354q32.0986 32.0986 65.2666 -1.06934zM837.674 -167.381l88.8047 -89.876
q28.8887 -27.8184 1.07031 -55.6367l-93.085 -92.0156q-29.959 -29.959 -58.8477 -1.07031l-93.085 93.0859q-27.8184 27.8184 3.20996 58.8467l86.665 87.7354q32.0986 32.0986 65.2676 -1.06934zM998.165 -403.84l88.8057 -88.8047q28.8887 -28.8887 1.07031 -55.6377
l-93.0859 -93.085q-29.958 -29.959 -58.8467 -1.07031l-93.085 93.0859q-27.8193 27.8184 3.20898 59.916l86.666 86.666q32.0986 32.0986 65.2666 -1.07031z" />
    <glyph glyph-name="uniFB57" unicode="&#x67e;" horiz-adv-x="2132" arabic-form="final" 
d="M1113.66 -167.381l88.8057 -89.876q28.8887 -27.8184 1.07031 -55.6367l-93.0859 -92.0156q-29.958 -29.959 -58.8467 -1.07031l-93.0859 93.0859q-27.8184 27.8184 3.20996 58.8467l86.666 87.7354q32.0986 32.0986 65.2666 -1.06934zM792.674 -167.381l88.8047 -89.876
q28.8887 -27.8184 1.07031 -55.6367l-93.085 -92.0156q-29.959 -29.959 -58.8477 -1.07031l-93.085 93.0859q-27.8184 27.8184 3.20996 58.8467l86.665 87.7354q32.0986 32.0986 65.2676 -1.06934zM953.165 -403.84l88.8057 -88.8047q28.8887 -28.8887 1.07031 -55.6377
l-93.0859 -93.085q-29.958 -29.959 -58.8467 -1.07031l-93.085 93.0859q-27.8193 27.8184 3.20898 59.916l86.666 86.666q32.0986 32.0986 65.2666 -1.07031zM2139 185q48 0 48 -77v-34q0 -74 -48 -74l-63 1q-245 2 -328 219q-52 -61 -190 -125q-200 -95 -651 -95
q-340 0 -509 71q-273 113 -298 396q-12 133 31 285l142 -38q-21 -141 -18 -207q12 -259 339 -306q80 -12 310 -13q428 -2 599 78q198 94 226 310h121q14 -179 41 -253q49 -135 208 -137z" />
    <glyph glyph-name="uniFB58" unicode="&#x67e;" horiz-adv-x="655" arabic-form="initial" 
d="M491.657 -167.381l88.8057 -89.876q28.8887 -27.8184 1.07031 -55.6367l-93.0859 -92.0156q-29.958 -29.959 -58.8467 -1.07031l-93.0859 93.0859q-27.8184 27.8184 3.20996 58.8467l86.666 87.7354q32.0986 32.0986 65.2666 -1.06934zM170.674 -167.381l88.8047 -89.876
q28.8887 -27.8184 1.07031 -55.6367l-93.085 -92.0156q-29.959 -29.959 -58.8477 -1.07031l-93.085 93.0859q-27.8184 27.8184 3.20996 58.8467l86.665 87.7354q32.0986 32.0986 65.2676 -1.06934zM331.165 -403.84l88.8057 -88.8047q28.8887 -28.8887 1.07031 -55.6377
l-93.0859 -93.085q-29.958 -29.959 -58.8467 -1.07031l-93.085 93.0859q-27.8193 27.8184 3.20898 59.916l86.666 86.666q32.0986 32.0986 65.2666 -1.07031zM441 80q-94 -80 -356 -80h-87q-50 0 -50 74v34q0 77 48 77h93q93 0 120 4q116 16 146 88q30 70 18 211
q-12 142 -36 240l161 34q38 -108 46 -255q17 -323 -103 -427z" />
    <glyph glyph-name="uniFB59" unicode="&#x67e;" horiz-adv-x="756" arabic-form="medial" 
d="M750 0h-43q-156 0 -276 130q-117 -130 -302 -130h-133q-48 0 -48 74v34q0 77 48 77h137q213 0 217 182l5 225l154 26l9 -251q6 -182 192 -182h40q48 0 48 -77v-34q0 -74 -48 -74zM492.657 -167.381l88.8057 -89.876q28.8887 -27.8184 1.07031 -55.6367l-93.0859 -92.0156
q-29.958 -29.959 -58.8467 -1.07031l-93.0859 93.0859q-27.8184 27.8184 3.20996 58.8467l86.666 87.7354q32.0986 32.0986 65.2666 -1.06934zM171.674 -167.381l88.8047 -89.876q28.8887 -27.8184 1.07031 -55.6367l-93.085 -92.0156q-29.959 -29.959 -58.8477 -1.07031
l-93.085 93.0859q-27.8184 27.8184 3.20996 58.8467l86.665 87.7354q32.0986 32.0986 65.2676 -1.06934zM332.165 -403.84l88.8057 -88.8047q28.8887 -28.8887 1.07031 -55.6377l-93.0859 -93.085q-29.958 -29.959 -58.8467 -1.07031l-93.085 93.0859
q-27.8193 27.8184 3.20898 59.916l86.666 86.666q32.0986 32.0986 65.2666 -1.07031z" />
    <glyph glyph-name="uniFB7A" unicode="&#x686;" horiz-adv-x="1300" arabic-form="isolated" 
d="M120 625q170 249 370 249q32 0 71 -10q39 -11 196 -88q158 -76 239 -105q81 -28 174 -40l-25 -176q-128 -10 -150 -12q-245 -30 -404 -121q-326 -188 -326 -462q0 -156 114 -247q114 -92 398 -93q197 0 374 50l54 -155q-208 -64 -426 -64q-412 0 -572 188
q-111 129 -111 318t103 342q152 230 486 329q96 28 185 35q-69 18 -199 79q-130 62 -165 62q-135 0 -271 -175zM984.657 160.619l88.8057 -89.876q28.8887 -27.8184 1.07031 -55.6367l-93.0859 -92.0156q-29.958 -29.959 -58.8467 -1.07031l-93.0859 93.0859
q-27.8184 27.8184 3.20996 58.8467l86.666 87.7354q32.0986 32.0986 65.2666 -1.06934zM663.674 160.619l88.8047 -89.876q28.8887 -27.8184 1.07031 -55.6367l-93.085 -92.0156q-29.959 -29.959 -58.8477 -1.07031l-93.085 93.0859q-27.8184 27.8184 3.20996 58.8467
l86.665 87.7354q32.0986 32.0986 65.2676 -1.06934zM824.165 -75.8398l88.8057 -88.8047q28.8887 -28.8887 1.07031 -55.6377l-93.0859 -93.085q-29.958 -29.959 -58.8467 -1.07031l-93.085 93.0859q-27.8193 27.8184 3.20898 59.916l86.666 86.666
q32.0986 32.0986 65.2666 -1.07031z" />
    <glyph glyph-name="uniFB7B" unicode="&#x686;" horiz-adv-x="1383" arabic-form="final" 
d="M905.657 116.619l88.8057 -89.876q28.8887 -27.8184 1.07031 -55.6367l-93.0859 -92.0156q-29.958 -29.959 -58.8467 -1.07031l-93.0859 93.0859q-27.8184 27.8184 3.20996 58.8467l86.666 87.7354q32.0986 32.0986 65.2666 -1.06934zM584.674 116.619l88.8047 -89.876
q28.8887 -27.8184 1.07031 -55.6367l-93.085 -92.0156q-29.959 -29.959 -58.8477 -1.07031l-93.085 93.0859q-27.8184 27.8184 3.20996 58.8467l86.665 87.7354q32.0986 32.0986 65.2676 -1.06934zM745.165 -119.84l88.8057 -88.8047q28.8887 -28.8887 1.07031 -55.6377
l-93.0859 -93.085q-29.958 -29.959 -58.8467 -1.07031l-93.085 93.0859q-27.8193 27.8184 3.20898 59.916l86.666 86.666q32.0986 32.0986 65.2666 -1.07031zM1390 185q48 1 48 -77v-34q0 -73 -48 -74l-43 -1q-355 -4 -414 436q-211 -39 -363 -126q-304 -175 -304 -449
q0 -156 114 -247q114 -92 397 -93q205 0 378 49l51 -154q-211 -65 -425 -65q-413 0 -574 189q-111 129 -111 314q0 189 105 349q111 166 307 258q188 89 364 103q-69 18 -152 57q-82 38 -117 53q-68 29 -96 31q-127 8 -271 -175l-115 95q171 249 370 249q32 0 71 -10
q39 -11 197 -88q157 -76 238 -105q81 -28 174 -40l-24 -175q-41 -3 -72 -5q35 -268 267 -265h48z" />
    <glyph glyph-name="uniFB7C" unicode="&#x686;" horiz-adv-x="1409" arabic-form="initial" 
d="M-4 185h44q348 0 492 53q247 90 444 185q-85 9 -262 88q-177 78 -280 94q-120 17 -254 -160l-115 89q100 141 159 184q133 96 308 48q57 -16 388 -159q216 -94 395 -82l-24 -147q-85 -18 -633 -283q-196 -95 -609 -95h-53q-48 0 -48 74v34q0 77 48 77zM846.657 -167.381
l88.8057 -89.876q28.8887 -27.8184 1.07031 -55.6367l-93.0859 -92.0156q-29.958 -29.959 -58.8467 -1.07031l-93.0859 93.0859q-27.8184 27.8184 3.20996 58.8467l86.666 87.7354q32.0986 32.0986 65.2666 -1.06934zM525.674 -167.381l88.8047 -89.876
q28.8887 -27.8184 1.07031 -55.6367l-93.085 -92.0156q-29.959 -29.959 -58.8477 -1.07031l-93.085 93.0859q-27.8184 27.8184 3.20996 58.8467l86.665 87.7354q32.0986 32.0986 65.2676 -1.06934zM686.165 -403.84l88.8057 -88.8047q28.8887 -28.8887 1.07031 -55.6377
l-93.0859 -93.085q-29.958 -29.959 -58.8467 -1.07031l-93.085 93.0859q-27.8193 27.8184 3.20898 59.916l86.666 86.666q32.0986 32.0986 65.2666 -1.07031z" />
    <glyph glyph-name="uniFB7D" unicode="&#x686;" horiz-adv-x="1423" arabic-form="medial" 
d="M1430 185q48 0 48 -77v-34q0 -74 -48 -74h-132q-345 0 -412 212q-112 -61 -228 -117q-196 -95 -609 -95h-53q-48 0 -48 74v34q0 77 48 77h44q352 0 492 53q261 97 444 185q-85 9 -262 88q-177 78 -280 94q-120 17 -254 -160l-115 89q98 138 159 184q130 98 307 48
q59 -17 389 -159q216 -94 395 -82l-24 -147q-125 -29 -260 -98q15 -91 290 -94zM850.657 -167.381l88.8057 -89.876q28.8887 -27.8184 1.07031 -55.6367l-93.0859 -92.0156q-29.958 -29.959 -58.8467 -1.07031l-93.0859 93.0859q-27.8184 27.8184 3.20996 58.8467
l86.666 87.7354q32.0986 32.0986 65.2666 -1.06934zM529.674 -167.381l88.8047 -89.876q28.8887 -27.8184 1.07031 -55.6367l-93.085 -92.0156q-29.959 -29.959 -58.8477 -1.07031l-93.085 93.0859q-27.8184 27.8184 3.20996 58.8467l86.665 87.7354
q32.0986 32.0986 65.2676 -1.06934zM690.165 -403.84l88.8057 -88.8047q28.8887 -28.8887 1.07031 -55.6377l-93.0859 -93.085q-29.958 -29.959 -58.8467 -1.07031l-93.085 93.0859q-27.8193 27.8184 3.20898 59.916l86.666 86.666q32.0986 32.0986 65.2666 -1.07031z" />
    <glyph glyph-name="uniFB8A" unicode="&#x698;" horiz-adv-x="887" arabic-form="isolated" 
d="M745.728 1054.08l88.8057 -88.8057q27.8184 -27.8184 0 -55.6377l-92.0156 -93.085q-29.959 -29.958 -59.917 0l-93.0859 93.085q-27.8184 27.8193 3.20996 58.8477l86.666 86.666q33.168 32.0977 66.3369 -1.07031zM424.743 1054.08l88.8057 -88.8057
q27.8184 -27.8184 0 -55.6377l-92.0156 -93.085q-29.958 -29.958 -59.917 0l-93.085 93.085q-27.8184 27.8193 3.20996 58.8477l86.665 86.666q33.1689 32.0977 66.3369 -1.07031zM585.235 1308.73l88.8057 -88.8057q27.8184 -27.8184 0 -55.6377l-93.0859 -93.085
q-28.8887 -29.959 -58.8467 0l-93.085 93.085q-27.8193 27.8193 3.20898 58.8477l86.666 86.665q33.168 32.0986 66.3369 -1.06934zM714 562q103 -287 72 -508q-83 -585 -682 -590h-2l-76 138q568 40 599 472q8 108 -65 381z" />
    <glyph glyph-name="uniFB8B" unicode="&#x698;" horiz-adv-x="986" arabic-form="final" 
d="M993 185q48 0 48 -77v-34q0 -74 -48 -74h-35q-127 0 -175 50q-79 -582 -679 -584h-3l-75 136q550 33 600 472q11 101 -67 379l151 109q60 -284 64 -300q21 -77 179 -77h40zM771.728 1054.08l88.8057 -88.8057q27.8184 -27.8184 0 -55.6377l-92.0156 -93.085
q-29.959 -29.958 -59.917 0l-93.0859 93.085q-27.8184 27.8193 3.20996 58.8477l86.666 86.666q33.168 32.0977 66.3369 -1.07031zM450.743 1054.08l88.8057 -88.8057q27.8184 -27.8184 0 -55.6377l-92.0156 -93.085q-29.958 -29.958 -59.917 0l-93.085 93.085
q-27.8184 27.8193 3.20996 58.8477l86.665 86.666q33.1689 32.0977 66.3369 -1.07031zM611.235 1308.73l88.8057 -88.8057q27.8184 -27.8184 0 -55.6377l-93.0859 -93.085q-28.8887 -29.959 -58.8467 0l-93.085 93.085q-27.8193 27.8193 3.20898 58.8477l86.666 86.665
q33.168 32.0986 66.3369 -1.06934z" />
    <glyph glyph-name="uniFB8E" unicode="&#x6a9;" horiz-adv-x="1994" arabic-form="isolated" 
d="M891 0q-327 0 -496 71q-270 113 -299 392q-13 133 32 289l142 -38q-27 -152 -25 -207q15 -298 450 -316q71 -3 153 -3l268 -2h178q226 0 256 143q17 82 -64 171l-277 308q-96 106 -99 180q-4 127 123 190l720 359v-184l-697 -348l348 -385q141 -155 94 -344
q-68 -276 -489 -276h-318z" />
    <glyph glyph-name="uniFB8F" unicode="&#x6a9;" horiz-adv-x="2151" arabic-form="final" 
d="M2158 185q48 -1 48 -77v-34q0 -75 -48 -74l-41 1q-182 5 -388 272q-32 -272 -483 -272h-384q-276 0 -457 70q-274 106 -303 409q-11 116 35 272l143 -38q-23 -147 -21 -207q10 -258 341 -306q82 -12 254 -15h477q225 0 256 144q17 81 -64 171l-277 307q-97 108 -100 183
q-4 123 124 187l720 360v-185l-697 -347l650 -722q85 -95 185 -98z" />
    <glyph glyph-name="uniFB90" unicode="&#x6a9;" horiz-adv-x="956" arabic-form="initial" 
d="M-4 185l259 1q226 0 256 143q17 82 -64 171l-277 308q-96 106 -99 180q-4 127 123 190l720 359v-184l-697 -348l348 -385q133 -147 94 -334q-60 -286 -438 -286h-225q-48 0 -48 74v34q0 77 48 77z" />
    <glyph glyph-name="uniFB91" unicode="&#x6a9;" horiz-adv-x="1090" arabic-form="medial" 
d="M-4 185l259 1q226 0 256 143q17 82 -64 171l-277 308q-96 106 -99 180q-4 127 123 190l720 359v-184l-697 -348l650 -721q87 -97 185 -98l45 -1q48 0 48 -77v-34q0 -75 -48 -74l-49 1q-190 2 -395 272q-34 -273 -430 -273h-227q-48 0 -48 74v34q0 77 48 77z" />
    <glyph glyph-name="uniFB92" unicode="&#x6af;" horiz-adv-x="1994" arabic-form="isolated" 
d="M891 0q-327 0 -496 71q-270 113 -299 392q-13 133 32 289l142 -38q-27 -152 -25 -207q15 -298 450 -316q71 -3 153 -3l268 -2h178q226 0 256 143q17 82 -64 171l-277 308q-96 106 -99 180q-4 127 123 190l720 359v-184l-697 -348l348 -385q141 -155 94 -344
q-68 -276 -489 -276h-318zM1951.8 1679.06l-761.802 -371.271v131.604l761.802 370.201v-130.533z" />
    <glyph glyph-name="uniFB93" unicode="&#x6af;" horiz-adv-x="2151" arabic-form="final" 
d="M2158 185q48 -1 48 -77v-34q0 -75 -48 -74l-41 1q-182 5 -388 272q-32 -272 -483 -272h-384q-276 0 -457 70q-274 106 -303 409q-11 116 35 272l143 -38q-23 -147 -21 -207q10 -258 341 -306q82 -12 254 -15h477q225 0 256 144q17 81 -64 171l-277 307q-97 108 -100 183
q-4 123 124 187l720 360v-185l-697 -347l650 -722q85 -95 185 -98zM1989.8 1676.06l-761.802 -371.271v131.604l761.802 370.201v-130.533z" />
    <glyph glyph-name="uniFB94" unicode="&#x6af;" horiz-adv-x="922" arabic-form="initial" 
d="M-4 185l259 1q226 0 256 143q17 82 -64 171l-277 308q-96 106 -99 180q-4 127 123 190l720 359v-184l-697 -348l348 -385q133 -147 94 -334q-60 -286 -438 -286h-225q-48 0 -48 74v34q0 77 48 77zM907.802 1679.06l-761.802 -371.271v131.604l761.802 370.201v-130.533z
" />
    <glyph glyph-name="uniFB95" unicode="&#x6af;" horiz-adv-x="1090" arabic-form="medial" 
d="M-4 185l259 1q226 0 256 143q17 82 -64 171l-277 308q-96 106 -99 180q-4 127 123 190l720 359v-184l-697 -348l650 -721q87 -97 185 -98l45 -1q48 0 48 -77v-34q0 -75 -48 -74l-49 1q-190 2 -395 272q-34 -273 -430 -273h-227q-48 0 -48 74v34q0 77 48 77z
M912.802 1677.06l-761.802 -371.271v131.604l761.802 370.201v-130.533z" />
    <glyph glyph-name="uniFB9E" unicode="&#x6ba;" horiz-adv-x="1463" arabic-form="isolated" 
d="M1224 754q136 -227 135 -452q-4 -647 -651 -647q-580 0 -612 542q-5 83 18 203q24 120 76 233l149 -57q-94 -232 -77 -393q41 -363 451 -363q460 -1 480 423q9 189 -118 368z" />
    <glyph glyph-name="uniFB9F" unicode="&#x6ba;" horiz-adv-x="1467" arabic-form="final" 
d="M1474 185q48 0 48 -77v-34q0 -75 -48 -74l-32 1q-98 1 -141 60q2 -215 -84 -353q-140 -226 -518 -226q-433 1 -564 302q-67 153 -35 369q21 143 82 281l159 -55q-80 -195 -80 -344q0 -33 4 -65q40 -314 436 -314q410 -1 449 348q12 98 -15 201q-31 120 -98 206l147 139
q66 -162 113 -263q48 -100 144 -101z" />
    <glyph glyph-name="uniFBA5.fina" unicode="&#x6c0;" horiz-adv-x="1144" arabic-form="final" 
d="M657 1632q108 22 200 -32v-112l-20 10q-65 32 -130 25q-100 -11 -107 -87q-7 -82 107 -117q35 -10 174 22v-116l-389 -87v113l92 22q-90 56 -90 154.5t68 158.5q39 34 95 46zM1151 185q48 0 48 -77v-34q0 -74 -48 -74h-48q-292 0 -346 255q-530 -84 -638 121
q-20 38 -22 89q-10 275 586 390q0 17 -14 122l157 38l68 -597q26 -232 210 -232zM739 412q-16 166 -35 285q-426 -79 -441 -197q-11 -84 80 -102q132 -27 396 14z" />
    <glyph glyph-name="uniFBAC" unicode="&#x6be;" horiz-adv-x="1220" arabic-form="initial" 
d="M-4 185l184 1q-75 88 -69 227q5 111 69 201q101 143 254 160l-68 36l56 130l355 -225q329 -218 352 -423q11 -100 -36 -186q-68 -122 -235 -132q-212 -12 -461 91q-143 -65 -367 -65h-34q-48 0 -48 74v34q0 77 48 77zM753 536q2 -215 -184 -363q377 -109 408 65
q23 122 -224 298zM604 418q64 142 -11.5 191.5t-143.5 29.5q-66 -20 -115 -82q-55 -69 -65 -143q-22 -159 140 -190q139 70 195 194z" />
    <glyph glyph-name="uniFBAD" unicode="&#x6be;" horiz-adv-x="1014" arabic-form="medial" 
d="M-4 185l186 1q-10 319 48 451q82 184 242 183q246 0 246 -316q0 -274 -170 -428q-84 -75 -205 -76q5 -201 100 -361q45 297 258 461q116 89 255 87l65 -2q48 0 48 -77v-34q0 -74 -48 -74h-77q-282 0 -411 -524l-91 -36q-232 184 -258 560h-188q-48 0 -48 74v34
q0 77 48 77zM332 186l38 2q89 5 125 60q69 104 69 264q0 83 -22 117q-23 35 -67 35q-102 0 -128 -169q-26 -165 -15 -309z" />
    <glyph glyph-name="uniFBE8" unicode="&#x649;" horiz-adv-x="640" arabic-form="initial" 
d="M441 80q-94 -80 -356 -80h-87q-50 0 -50 74v34q0 77 48 77h93q93 0 120 4q116 16 146 88q30 70 18 211q-12 142 -36 240l161 34q38 -108 46 -255q17 -323 -103 -427z" />
    <glyph glyph-name="uniFBE9" unicode="&#x649;" horiz-adv-x="744" arabic-form="medial" 
d="M750 0h-43q-156 0 -276 130q-117 -130 -302 -130h-133q-48 0 -48 74v34q0 77 48 77h137q213 0 217 182l5 225l154 26l9 -251q6 -182 192 -182h40q48 0 48 -77v-34q0 -74 -48 -74z" />
    <glyph glyph-name="uniFBFC" unicode="&#x6cc;" horiz-adv-x="1470" arabic-form="isolated" 
d="M1042 160l58 1q107 0 168 -25q106 -43 105 -159q1 -122 -76 -224q-177 -237 -579 -238q-205 0 -334 56q-286 125 -287 480q-1 221 116 470l147 -60q-93 -211 -97 -388q-9 -385 463 -382q293 2 448 151q44 42 47 85q3 69 -82 69h-94q-255 4 -270 162q-8 76 19 157
q60 175 194 288q138 118 293 120q54 0 88 -8l-60 -183h-4q-168 0 -302 -162q-57 -69 -68 -139.5t107 -70.5z" />
    <glyph glyph-name="uniFBFD" unicode="&#x6cc;" horiz-adv-x="1481" arabic-form="final" 
d="M1488 185q48 0 48 -77v-34q0 -74 -48 -74l-125 1l-222 -1q-75 0 -75 -43q0 -21 95 -36q34 -5 62 -11q119 -26 151 -117q30 -84 -13 -188q-64 -151 -269 -230q-155 -59 -374 -59q-205 0 -334 56q-286 124 -287 480q-1 221 116 470l147 -60q-93 -211 -97 -388
q-9 -386 463 -382q227 2 375 72q143 67 139 153q-1 19 -52 30q-64 14 -128 25q-166 30 -167 174q0 77 30 133q58 107 226 107z" />
    <glyph glyph-name="uniFBFE" unicode="&#x6cc;" horiz-adv-x="652" arabic-form="initial" 
d="M441 80q-94 -80 -356 -80h-87q-50 0 -50 74v34q0 77 48 77h93q93 0 120 4q116 16 146 88q30 70 18 211q-12 142 -36 240l161 34q38 -108 46 -255q17 -323 -103 -427zM494.657 -209.011l88.8057 -88.8057q27.8184 -27.8184 1.07031 -55.6367l-93.0859 -93.0859
q-29.958 -29.958 -59.917 0l-93.085 92.0156q-27.8184 28.8887 4.2793 59.917l86.666 86.666q32.0986 32.0977 65.2666 -1.07031zM173.674 -209.011l88.8047 -88.8057q27.8193 -27.8184 1.07031 -55.6367l-93.085 -93.0859q-29.959 -29.958 -59.917 0l-93.0859 92.0156
q-27.8184 28.8887 4.28027 59.917l86.665 86.666q32.0986 32.0977 65.2676 -1.07031z" />
    <glyph glyph-name="uniFBFF" unicode="&#x6cc;" horiz-adv-x="744" arabic-form="medial" 
d="M750 0h-43q-156 0 -276 130q-117 -130 -302 -130h-133q-48 0 -48 74v34q0 77 48 77h137q213 0 217 182l5 225l154 26l9 -251q6 -182 192 -182h40q48 0 48 -77v-34q0 -74 -48 -74zM497.657 -209.011l88.8057 -88.8057q27.8184 -27.8184 1.07031 -55.6367
l-93.0859 -93.0859q-29.958 -29.958 -59.917 0l-93.085 92.0156q-27.8184 28.8887 4.2793 59.917l86.666 86.666q32.0986 32.0977 65.2666 -1.07031zM176.674 -209.011l88.8047 -88.8057q27.8193 -27.8184 1.07031 -55.6367l-93.085 -93.0859q-29.959 -29.958 -59.917 0
l-93.0859 92.0156q-27.8184 28.8887 4.28027 59.917l86.665 86.666q32.0986 32.0977 65.2676 -1.07031z" />
    <glyph glyph-name="uniFDFC" unicode="&#xfdfc;" horiz-adv-x="3104" arabic-form="isolated" 
d="M1229 102q4 -591 -545 -589q-400 1 -532 302q-66 150 -35 368q21 143 83 281l158 -54q-79 -193 -80 -344q0 -33 4 -65q44 -314 405 -315q404 -1 396 456l-24 1323l172 71v-1130q0 -203 -2 -304zM1878 185q48 0 48 -77v-34q0 -74 -48 -74h-40q-204 0 -290 133
q-61 95 -67 298l-29 1029l173 76v-1091q-1 -260 212 -260h41zM2175.66 -120.011l88.8057 -88.8057q27.8184 -27.8184 1.07031 -55.6367l-93.0859 -93.0859q-29.958 -29.958 -59.917 0l-93.085 92.0156q-27.8184 28.8887 4.2793 59.917l86.666 86.666
q32.0986 32.0977 65.2666 -1.07031zM1854.67 -120.011l88.8047 -88.8057q27.8193 -27.8184 1.07031 -55.6367l-93.085 -93.0859q-29.959 -29.958 -59.917 0l-93.0859 92.0156q-27.8184 28.8887 4.28027 59.917l86.665 86.666q32.0986 32.0977 65.2676 -1.07031zM2317 80
q-94 -80 -356 -80h-87q-50 0 -50 74v34q0 77 48 77h93q93 0 120 4q116 16 146 88q30 70 18 211q-12 142 -36 240l161 34q38 -108 46 -255q17 -323 -103 -427zM2916 562q103 -287 72 -508q-83 -585 -682 -590h-2l-76 138q568 40 599 472q8 108 -65 381z" />
    <glyph glyph-name="uniFE71" unicode="&#xfe71;" horiz-adv-x="680" arabic-form="medial" 
d="M693 0h-697q-48 0 -48 74v34q0 77 48 77h697q48 0 48 -77v-34q0 -74 -48 -74zM80 1121v122l534 218v-121zM80 1411v122l534 218v-121z" />
    <glyph glyph-name="uniFE77" unicode="&#xfe77;" horiz-adv-x="680" arabic-form="medial" 
d="M48 1410v122l534 218v-121zM693 0h-697q-48 0 -48 74v34q0 77 48 77h697q48 0 48 -77v-34q0 -74 -48 -74z" />
    <glyph glyph-name="uniFE79" unicode="&#xfe79;" horiz-adv-x="680" arabic-form="medial" 
d="M632 1552q-85 1 -140 9q-56 -78 -135 -127q-125 -78 -267 -84v95q210 32 297 145q-106 24 -151 89q-30 40 -30 93q0 86 71 139q49 36 107 36q75 0 126 -50t51 -137q0 -36 -15 -87l-8 -23l24 -1q41 -3 70 -3v-94zM441 1666l4 8q23 50 23 92t-27 65q-27 22 -58 22
q-32 0 -55 -18q-26 -22 -27 -57q-1 -55 67 -87q34 -16 73 -25zM693 0h-697q-48 0 -48 74v34q0 77 48 77h697q48 0 48 -77v-34q0 -74 -48 -74z" />
    <glyph glyph-name="uniFE7B" unicode="&#xfe7b;" horiz-adv-x="680" arabic-form="medial" 
d="M97 -374v122l534 218v-122zM693 0h-697q-48 0 -48 74v34q0 77 48 77h697q48 0 48 -77v-34q0 -74 -48 -74z" />
    <glyph glyph-name="uniFE7D" unicode="&#xfe7d;" horiz-adv-x="680" arabic-form="medial" 
d="M372 1624q-32 -175 -185 -175q-154 0 -154 197q-1 39 16 149h80q-14 -95 -14 -124q0 -120 85 -120q116 0 122 153q2 42 2 92v59h78q2 -38 3 -89q-1 -149 129 -149h1q78 1 79 126q0 112 -12 178h84q12 -84 12 -184q0 -162 -89 -200q-35 -15 -69 -16q-75 -3 -114 26
q-48 35 -54 77zM693 0h-697q-48 0 -48 74v34q0 77 48 77h697q48 0 48 -77v-34q0 -74 -48 -74z" />
    <glyph glyph-name="uniFE7F" unicode="&#xfe7f;" horiz-adv-x="680" arabic-form="medial" 
d="M693 0h-697q-48 0 -48 74v34q0 77 48 77h697q48 0 48 -77v-34q0 -74 -48 -74zM510 1545q0 51 -36 87t-89 36t-88.5 -35.5t-35.5 -87.5q0 -54 35.5 -89.5t88.5 -35.5t89 36t36 89zM586 1544.5q0 -84.5 -58 -143t-142 -58.5q-29 0 -54 6.5t-47 19.5t-42 33
q-29 29 -43.5 64.5t-14.5 78.5q0 84 58 142t142.5 58t142.5 -58t58 -142.5z" />
    <glyph glyph-name="uniFE80" unicode="&#x621;" horiz-adv-x="778" arabic-form="isolated" 
d="M91 -9v148l211 84q-210 62 -207 268q3 172 142.5 257t356.5 37v-155q-164 45 -253.5 -0.5t-88.5 -147.5q0 -130 163 -158q38 -7 88 -5t184 62v-155z" />
    <glyph glyph-name="uniFE81" unicode="&#x622;" horiz-adv-x="570" arabic-form="isolated" 
d="M225 1318.75l173 67.498v-1381.44h-130zM71 1495l-92 91q108 179 254 152l134 -26q77 -14 195 57l65 -104q-100 -113 -269 -85l-126 22q-102 17 -161 -107z" />
    <glyph glyph-name="uniFE82" unicode="&#x622;" horiz-adv-x="557" arabic-form="final" 
d="M564 185q48 0 48 -77v-34q0 -74 -48 -74h-40q-204 0 -290 133q-61 95 -67 298l-29 1029l173 76v-1091q-1 -260 212 -260h41zM50 1604l-92 91q108 179 254 152l134 -26q77 -14 195 57l65 -104q-100 -113 -269 -85l-126 22q-102 17 -161 -107z" />
    <glyph glyph-name="uniFE83" unicode="&#x623;" horiz-adv-x="448" arabic-form="isolated" 
d="M151 1318.75l173 67.498v-1381.44h-130zM192 1997q108 22 200 -32v-112l-20 10q-65 32 -130 25q-100 -11 -107 -87q-7 -82 107 -117q35 -10 174 22v-116l-389 -87v113l92 22q-90 56 -90 154.5t68 158.5q39 34 95 46z" />
    <glyph glyph-name="uniFE84" unicode="&#x623;" horiz-adv-x="557" arabic-form="final" 
d="M564 185q48 0 48 -77v-34q0 -74 -48 -74h-40q-204 0 -290 133q-61 95 -67 298l-29 1029l173 76v-1091q-1 -260 212 -260h41zM226 2117q108 22 200 -32v-112l-20 10q-65 32 -130 25q-100 -11 -107 -87q-7 -82 107 -117q35 -10 174 22v-116l-389 -87v113l92 22
q-90 56 -90 154.5t68 158.5q39 34 95 46z" />
    <glyph glyph-name="uniFE85" unicode="&#x624;" horiz-adv-x="891" arabic-form="isolated" 
d="M409 1346q108 22 200 -32v-112l-20 10q-65 32 -130 25q-100 -11 -107 -87q-7 -82 107 -117q35 -10 174 22v-116l-389 -87v113l92 22q-90 56 -90 154.5t68 158.5q39 34 95 46zM441 548q-135 -4 -180 -183q-53 -205 178 -204q121 0 191 54q0 57 -4 94q-28 244 -185 239z
M727 534q64 -132 63 -352q-1 -314 -127 -477q-185 -239 -560 -242h-2l-75 139q553 33 596 438q-59 -48 -208 -49q-92 1 -160 31q-151 68 -150 254q1 107 50 216q35 79 91 137q114 116 274 83q136 -28 208 -178z" />
    <glyph glyph-name="uniFE86" unicode="&#x624;" horiz-adv-x="905" arabic-form="final" 
d="M912 185q48 0 48 -77v-34q0 -74 -48 -74h-136q-29 -192 -157 -340q-168 -196 -519 -197h-2l-72 140q524 32 596 398h-176q-200 0 -281 104q-65 84 -51 218q21 197 146 318q80 78 185 77q189 -2 280 -190q54 -111 61 -342zM436 546q-81 -1 -135 -101q-28 -52 -33 -114
q-7 -77 33 -113q37 -34 113 -39q73 -6 217 1q0 367 -195 366zM428 1371q108 22 200 -32v-112l-20 10q-65 32 -130 25q-100 -11 -107 -87q-7 -82 107 -117q35 -10 174 22v-116l-389 -87v113l92 22q-90 56 -90 154.5t68 158.5q39 34 95 46z" />
    <glyph glyph-name="uniFE87" unicode="&#x625;" horiz-adv-x="448" arabic-form="isolated" 
d="M295 -80q108 22 200 -32v-112l-20 10q-65 32 -130 25q-100 -11 -107 -87q-7 -82 107 -117q35 -10 174 22v-116l-389 -87v113l92 22q-90 56 -90 154.5t68 158.5q39 34 95 46zM138 1462l173 75v-1535h-130z" />
    <glyph glyph-name="uniFE88" unicode="&#x625;" horiz-adv-x="557" arabic-form="final" 
d="M564 185q48 0 48 -77v-34q0 -74 -48 -74h-40q-204 0 -290 133q-61 95 -67 298l-29 1029l173 76v-1091q-1 -260 212 -260h41zM353 -80q108 22 200 -32v-112l-20 10q-65 32 -130 25q-100 -11 -107 -87q-7 -82 107 -117q35 -10 174 22v-116l-389 -87v113l92 22
q-90 56 -90 154.5t68 158.5q39 34 95 46z" />
    <glyph glyph-name="uniFE89" unicode="&#x626;" horiz-adv-x="1470" arabic-form="isolated" 
d="M542 1257q108 22 200 -32v-112l-20 10q-65 32 -130 25q-100 -11 -107 -87q-7 -82 107 -117q35 -10 174 22v-116l-389 -87v113l92 22q-90 56 -90 154.5t68 158.5q39 34 95 46zM1042 160l58 1q107 0 168 -25q106 -43 105 -159q1 -122 -76 -224q-177 -237 -579 -238
q-205 0 -334 56q-286 125 -287 480q-1 221 116 470l147 -60q-93 -211 -97 -388q-9 -385 463 -382q293 2 448 151q44 42 47 85q3 69 -82 69h-94q-255 4 -270 162q-8 76 19 157q60 175 194 288q138 118 293 120q54 0 88 -8l-60 -183h-4q-168 0 -302 -162q-57 -69 -68 -139.5
t107 -70.5z" />
    <glyph glyph-name="uniFE8A" unicode="&#x626;" horiz-adv-x="1481" arabic-form="final" 
d="M1488 185q48 0 48 -77v-34q0 -74 -48 -74l-125 1l-222 -1q-75 0 -75 -43q0 -21 95 -36q34 -5 62 -11q119 -26 151 -117q30 -84 -13 -188q-64 -151 -269 -230q-155 -59 -374 -59q-205 0 -334 56q-286 124 -287 480q-1 221 116 470l147 -60q-93 -211 -97 -388
q-9 -386 463 -382q227 2 375 72q143 67 139 153q-1 19 -52 30q-64 14 -128 25q-166 30 -167 174q0 77 30 133q58 107 226 107zM651 895q108 22 200 -32v-112l-20 10q-65 32 -130 25q-100 -11 -107 -87q-7 -82 107 -117q35 -10 174 22v-116l-389 -87v113l92 22
q-90 56 -90 154.5t68 158.5q39 34 95 46z" />
    <glyph glyph-name="uniFE8B" unicode="&#x626;" horiz-adv-x="640" arabic-form="initial" 
d="M441 80q-94 -80 -356 -80h-87q-50 0 -50 74v34q0 77 48 77h93q93 0 120 4q116 16 146 88q30 70 18 211q-12 142 -36 240l161 34q38 -108 46 -255q17 -323 -103 -427zM280 1419q108 22 200 -32v-112l-20 10q-65 32 -130 25q-100 -11 -107 -87q-7 -82 107 -117
q35 -10 174 22v-116l-389 -87v113l92 22q-90 56 -90 154.5t68 158.5q39 34 95 46z" />
    <glyph glyph-name="uniFE8C" unicode="&#x626;" horiz-adv-x="744" arabic-form="medial" 
d="M750 0h-43q-156 0 -276 130q-117 -130 -302 -130h-133q-48 0 -48 74v34q0 77 48 77h137q213 0 217 182l5 225l154 26l9 -251q6 -182 192 -182h40q48 0 48 -77v-34q0 -74 -48 -74zM308 1299q108 22 200 -32v-112l-20 10q-65 32 -130 25q-100 -11 -107 -87q-7 -82 107 -117
q35 -10 174 22v-116l-389 -87v113l92 22q-90 56 -90 154.5t68 158.5q39 34 95 46z" />
    <glyph glyph-name="uniFE8D" unicode="&#x627;" horiz-adv-x="448" arabic-form="isolated" 
d="M138 1462l173 75v-1535h-130z" />
    <glyph glyph-name="uniFE8E" unicode="&#x627;" horiz-adv-x="557" arabic-form="final" 
d="M564 185q48 0 48 -77v-34q0 -74 -48 -74h-40q-204 0 -290 133q-61 95 -67 298l-29 1029l173 76v-1091q-1 -260 212 -260h41z" />
    <glyph glyph-name="uniFE8F" unicode="&#x628;" horiz-adv-x="1842" arabic-form="isolated" 
d="M920 1q-353 -1 -522 70q-275 115 -301 409q-11 116 34 272l142 -38q-23 -147 -20 -207q15 -295 448 -316q67 -3 232 -2.5t195 3.5q431 41 444 144q9 69 -4.5 201.5t-39.5 214.5l174 89q29 -119 43 -259q24 -254 -29 -370q-98 -209 -796 -211zM979.904 -209.011
l88.8047 -88.8057q28.8887 -27.8184 1.07031 -55.6367l-93.085 -93.0859q-29.959 -29.958 -58.8477 0l-93.085 92.0156q-27.8184 28.8887 3.20996 59.917l86.665 86.666q32.0986 32.0977 65.2676 -1.07031z" />
    <glyph glyph-name="uniFE90" unicode="&#x628;" horiz-adv-x="2132" arabic-form="final" 
d="M2139 185q48 0 48 -77v-34q0 -74 -48 -74l-63 1q-245 2 -328 219q-52 -61 -190 -125q-200 -95 -651 -95q-340 0 -509 71q-273 113 -298 396q-12 133 31 285l142 -38q-21 -141 -18 -207q12 -259 339 -306q80 -12 310 -13q428 -2 599 78q198 94 226 310h121
q14 -179 41 -253q49 -135 208 -137zM969.904 -209.011l88.8047 -88.8057q28.8887 -27.8184 1.07031 -55.6367l-93.085 -93.0859q-29.959 -29.958 -58.8477 0l-93.085 92.0156q-27.8184 28.8887 3.20996 59.917l86.665 86.666q32.0986 32.0977 65.2676 -1.07031z" />
    <glyph glyph-name="uniFE91" unicode="&#x628;" horiz-adv-x="633" arabic-form="initial" 
d="M441 80q-94 -80 -356 -80h-87q-50 0 -50 74v34q0 77 48 77h93q93 0 120 4q116 16 146 88q30 70 18 211q-12 142 -36 240l161 34q38 -108 46 -255q17 -323 -103 -427zM264.904 -209.011l88.8047 -88.8057q28.8887 -27.8184 1.07031 -55.6367l-93.085 -93.0859
q-29.959 -29.958 -58.8477 0l-93.085 92.0156q-27.8184 28.8887 3.20996 59.917l86.665 86.666q32.0986 32.0977 65.2676 -1.07031z" />
    <glyph glyph-name="uniFE92" unicode="&#x628;" horiz-adv-x="738" arabic-form="medial" 
d="M750 0h-43q-156 0 -276 130q-117 -130 -302 -130h-133q-48 0 -48 74v34q0 77 48 77h137q213 0 217 182l5 225l154 26l9 -251q6 -182 192 -182h40q48 0 48 -77v-34q0 -74 -48 -74zM251.904 -209.011l88.8047 -88.8057q28.8887 -27.8184 1.07031 -55.6367l-93.085 -93.0859
q-29.959 -29.958 -58.8477 0l-93.085 92.0156q-27.8184 28.8887 3.20996 59.917l86.665 86.666q32.0986 32.0977 65.2676 -1.07031z" />
    <glyph glyph-name="uniFE93" unicode="&#x629;" horiz-adv-x="965" arabic-form="isolated" 
d="M469 661q-201 -204 -200 -340q1 -163 219 -163q203 0 204 154q2 137 -223 349zM489 4q-381 0 -384 293q-2 224 243 475l-39 34l104 127q292 -212 393 -427q56 -118 56 -209q3 -294 -373 -293zM639.657 1401.99l88.8057 -88.8057q27.8184 -27.8184 1.07031 -55.6367
l-93.0859 -93.0859q-29.958 -29.958 -59.917 0l-93.085 92.0156q-27.8184 28.8887 4.2793 59.917l86.666 86.666q32.0986 32.0977 65.2666 -1.07031zM318.674 1401.99l88.8047 -88.8057q27.8193 -27.8184 1.07031 -55.6367l-93.085 -93.0859q-29.959 -29.958 -59.917 0
l-93.0859 92.0156q-27.8184 28.8887 4.28027 59.917l86.665 86.666q32.0986 32.0977 65.2676 -1.07031z" />
    <glyph glyph-name="uniFE94" unicode="&#x629;" horiz-adv-x="1144" arabic-form="final" 
d="M1151 185q48 0 48 -77v-34q0 -74 -48 -74h-48q-292 0 -346 255q-530 -84 -638 121q-20 38 -22 89q-10 275 586 390q0 17 -14 122l157 38l68 -597q26 -232 210 -232zM739 412q-16 166 -35 285q-426 -79 -441 -197q-11 -84 80 -102q132 -27 396 14zM884.657 1419.99
l88.8057 -88.8057q27.8184 -27.8184 1.07031 -55.6367l-93.0859 -93.0859q-29.958 -29.958 -59.917 0l-93.085 92.0156q-27.8184 28.8887 4.2793 59.917l86.666 86.666q32.0986 32.0977 65.2666 -1.07031zM563.674 1419.99l88.8047 -88.8057
q27.8193 -27.8184 1.07031 -55.6367l-93.085 -93.0859q-29.959 -29.958 -59.917 0l-93.0859 92.0156q-27.8184 28.8887 4.28027 59.917l86.665 86.666q32.0986 32.0977 65.2676 -1.07031z" />
    <glyph glyph-name="uniFE95" unicode="&#x62a;" horiz-adv-x="1842" arabic-form="isolated" 
d="M920 1q-353 -1 -522 70q-275 115 -301 409q-11 116 34 272l142 -38q-23 -147 -20 -207q15 -295 448 -316q67 -3 232 -2.5t195 3.5q431 41 444 144q9 69 -4.5 201.5t-39.5 214.5l174 89q29 -119 43 -259q24 -254 -29 -370q-98 -209 -796 -211zM1088.66 1106.99
l88.8057 -88.8057q27.8184 -27.8184 1.07031 -55.6367l-93.0859 -93.0859q-29.958 -29.958 -59.917 0l-93.085 92.0156q-27.8184 28.8887 4.2793 59.917l86.666 86.666q32.0986 32.0977 65.2666 -1.07031zM767.674 1106.99l88.8047 -88.8057
q27.8193 -27.8184 1.07031 -55.6367l-93.085 -93.0859q-29.959 -29.958 -59.917 0l-93.0859 92.0156q-27.8184 28.8887 4.28027 59.917l86.665 86.666q32.0986 32.0977 65.2676 -1.07031z" />
    <glyph glyph-name="uniFE96" unicode="&#x62a;" horiz-adv-x="2132" arabic-form="final" 
d="M2139 185q48 0 48 -77v-34q0 -74 -48 -74l-63 1q-245 2 -328 219q-52 -61 -190 -125q-200 -95 -651 -95q-340 0 -509 71q-273 113 -298 396q-12 133 31 285l142 -38q-21 -141 -18 -207q12 -259 339 -306q80 -12 310 -13q428 -2 599 78q198 94 226 310h121
q14 -179 41 -253q49 -135 208 -137zM1163.66 1070.99l88.8057 -88.8057q27.8184 -27.8184 1.07031 -55.6367l-93.0859 -93.0859q-29.958 -29.958 -59.917 0l-93.085 92.0156q-27.8184 28.8887 4.2793 59.917l86.666 86.666q32.0986 32.0977 65.2666 -1.07031z
M842.674 1070.99l88.8047 -88.8057q27.8193 -27.8184 1.07031 -55.6367l-93.085 -93.0859q-29.959 -29.958 -59.917 0l-93.0859 92.0156q-27.8184 28.8887 4.28027 59.917l86.665 86.666q32.0986 32.0977 65.2676 -1.07031z" />
    <glyph glyph-name="uniFE97" unicode="&#x62a;" horiz-adv-x="649" arabic-form="initial" 
d="M441 80q-94 -80 -356 -80h-87q-50 0 -50 74v34q0 77 48 77h93q93 0 120 4q116 16 146 88q30 70 18 211q-12 142 -36 240l161 34q38 -108 46 -255q17 -323 -103 -427zM491.657 1205.99l88.8057 -88.8057q27.8184 -27.8184 1.07031 -55.6367l-93.0859 -93.0859
q-29.958 -29.958 -59.917 0l-93.085 92.0156q-27.8184 28.8887 4.2793 59.917l86.666 86.666q32.0986 32.0977 65.2666 -1.07031zM170.674 1205.99l88.8047 -88.8057q27.8193 -27.8184 1.07031 -55.6367l-93.085 -93.0859q-29.959 -29.958 -59.917 0l-93.0859 92.0156
q-27.8184 28.8887 4.28027 59.917l86.665 86.666q32.0986 32.0977 65.2676 -1.07031z" />
    <glyph glyph-name="uniFE98" unicode="&#x62a;" horiz-adv-x="744" arabic-form="medial" 
d="M750 0h-43q-156 0 -276 130q-117 -130 -302 -130h-133q-48 0 -48 74v34q0 77 48 77h137q213 0 217 182l5 225l154 26l9 -251q6 -182 192 -182h40q48 0 48 -77v-34q0 -74 -48 -74zM504.657 1076.99l88.8057 -88.8057q27.8184 -27.8184 1.07031 -55.6367l-93.0859 -93.0859
q-29.958 -29.958 -59.917 0l-93.085 92.0156q-27.8184 28.8887 4.2793 59.917l86.666 86.666q32.0986 32.0977 65.2666 -1.07031zM183.674 1076.99l88.8047 -88.8057q27.8193 -27.8184 1.07031 -55.6367l-93.085 -93.0859q-29.959 -29.958 -59.917 0l-93.0859 92.0156
q-27.8184 28.8887 4.28027 59.917l86.665 86.666q32.0986 32.0977 65.2676 -1.07031z" />
    <glyph glyph-name="uniFE99" unicode="&#x62b;" horiz-adv-x="1842" arabic-form="isolated" 
d="M920 1q-353 -1 -522 70q-275 115 -301 409q-11 116 34 272l142 -38q-23 -147 -20 -207q15 -295 448 -316q67 -3 232 -2.5t195 3.5q431 41 444 144q9 69 -4.5 201.5t-39.5 214.5l174 89q29 -119 43 -259q24 -254 -29 -370q-98 -209 -796 -211zM1097.73 1039.08
l88.8057 -88.8057q27.8184 -27.8184 0 -55.6377l-92.0156 -93.085q-29.959 -29.958 -59.917 0l-93.0859 93.085q-27.8184 27.8193 3.20996 58.8477l86.666 86.666q33.168 32.0977 66.3369 -1.07031zM776.743 1039.08l88.8057 -88.8057q27.8184 -27.8184 0 -55.6377
l-92.0156 -93.085q-29.958 -29.958 -59.917 0l-93.085 93.085q-27.8184 27.8193 3.20996 58.8477l86.665 86.666q33.1689 32.0977 66.3369 -1.07031zM937.235 1293.73l88.8057 -88.8057q27.8184 -27.8184 0 -55.6377l-93.0859 -93.085q-28.8887 -29.959 -58.8467 0
l-93.085 93.085q-27.8193 27.8193 3.20898 58.8477l86.666 86.665q33.168 32.0986 66.3369 -1.06934z" />
    <glyph glyph-name="uniFE9A" unicode="&#x62b;" horiz-adv-x="2132" arabic-form="final" 
d="M2139 185q48 0 48 -77v-34q0 -74 -48 -74l-63 1q-245 2 -328 219q-52 -61 -190 -125q-200 -95 -651 -95q-340 0 -509 71q-273 113 -298 396q-12 133 31 285l142 -38q-21 -141 -18 -207q12 -259 339 -306q80 -12 310 -13q428 -2 599 78q198 94 226 310h121
q14 -179 41 -253q49 -135 208 -137zM1137.73 978.08l88.8057 -88.8057q27.8184 -27.8184 0 -55.6377l-92.0156 -93.085q-29.959 -29.958 -59.917 0l-93.0859 93.085q-27.8184 27.8193 3.20996 58.8477l86.666 86.666q33.168 32.0977 66.3369 -1.07031zM816.743 978.08
l88.8057 -88.8057q27.8184 -27.8184 0 -55.6377l-92.0156 -93.085q-29.958 -29.958 -59.917 0l-93.085 93.085q-27.8184 27.8193 3.20996 58.8477l86.665 86.666q33.1689 32.0977 66.3369 -1.07031zM977.235 1232.73l88.8057 -88.8057q27.8184 -27.8184 0 -55.6377
l-93.0859 -93.085q-28.8887 -29.959 -58.8467 0l-93.085 93.085q-27.8193 27.8193 3.20898 58.8477l86.666 86.665q33.168 32.0986 66.3369 -1.06934z" />
    <glyph glyph-name="uniFE9B" unicode="&#x62b;" horiz-adv-x="649" arabic-form="initial" 
d="M441 80q-94 -80 -356 -80h-87q-50 0 -50 74v34q0 77 48 77h93q93 0 120 4q116 16 146 88q30 70 18 211q-12 142 -36 240l161 34q38 -108 46 -255q17 -323 -103 -427zM491.728 1207.08l88.8057 -88.8057q27.8184 -27.8184 0 -55.6377l-92.0156 -93.085
q-29.959 -29.958 -59.917 0l-93.0859 93.085q-27.8184 27.8193 3.20996 58.8477l86.666 86.666q33.168 32.0977 66.3369 -1.07031zM170.743 1207.08l88.8057 -88.8057q27.8184 -27.8184 0 -55.6377l-92.0156 -93.085q-29.958 -29.958 -59.917 0l-93.085 93.085
q-27.8184 27.8193 3.20996 58.8477l86.665 86.666q33.1689 32.0977 66.3369 -1.07031zM331.235 1461.73l88.8057 -88.8057q27.8184 -27.8184 0 -55.6377l-93.0859 -93.085q-28.8887 -29.959 -58.8467 0l-93.085 93.085q-27.8193 27.8193 3.20898 58.8477l86.666 86.665
q33.168 32.0986 66.3369 -1.06934z" />
    <glyph glyph-name="uniFE9C" unicode="&#x62b;" horiz-adv-x="744" arabic-form="medial" 
d="M750 0h-43q-156 0 -276 130q-117 -130 -302 -130h-133q-48 0 -48 74v34q0 77 48 77h137q213 0 217 182l5 225l154 26l9 -251q6 -182 192 -182h40q48 0 48 -77v-34q0 -74 -48 -74zM503.728 1070.08l88.8057 -88.8057q27.8184 -27.8184 0 -55.6377l-92.0156 -93.085
q-29.959 -29.958 -59.917 0l-93.0859 93.085q-27.8184 27.8193 3.20996 58.8477l86.666 86.666q33.168 32.0977 66.3369 -1.07031zM182.743 1070.08l88.8057 -88.8057q27.8184 -27.8184 0 -55.6377l-92.0156 -93.085q-29.958 -29.958 -59.917 0l-93.085 93.085
q-27.8184 27.8193 3.20996 58.8477l86.665 86.666q33.1689 32.0977 66.3369 -1.07031zM343.235 1324.73l88.8057 -88.8057q27.8184 -27.8184 0 -55.6377l-93.0859 -93.085q-28.8887 -29.959 -58.8467 0l-93.085 93.085q-27.8193 27.8193 3.20898 58.8477l86.666 86.665
q33.168 32.0986 66.3369 -1.06934z" />
    <glyph glyph-name="uniFE9D" unicode="&#x62c;" horiz-adv-x="1300" arabic-form="isolated" 
d="M120 625q170 249 370 249q32 0 71 -10q39 -11 196 -88q158 -76 239 -105q81 -28 174 -40l-25 -176q-128 -10 -150 -12q-245 -30 -404 -121q-326 -188 -326 -462q0 -156 114 -247q114 -92 398 -93q197 0 374 50l54 -155q-208 -64 -426 -64q-412 0 -572 188
q-111 129 -111 318t103 342q152 230 486 329q96 28 185 35q-69 18 -199 79q-130 62 -165 62q-135 0 -271 -175zM807.904 81.9893l88.8047 -88.8057q28.8887 -27.8184 1.07031 -55.6367l-93.085 -93.0859q-29.959 -29.958 -58.8477 0l-93.085 92.0156
q-27.8184 28.8887 3.20996 59.917l86.665 86.666q32.0986 32.0977 65.2676 -1.07031z" />
    <glyph glyph-name="uniFE9E" unicode="&#x62c;" horiz-adv-x="1383" arabic-form="final" 
d="M1390 185q48 1 48 -77v-34q0 -73 -48 -74l-43 -1q-355 -4 -414 436q-211 -39 -363 -126q-304 -175 -304 -449q0 -156 114 -247q114 -92 397 -93q205 0 378 49l51 -154q-211 -65 -425 -65q-413 0 -574 189q-111 129 -111 314q0 189 105 349q111 166 307 258
q188 89 364 103q-69 18 -152 57q-82 38 -117 53q-68 29 -96 31q-127 8 -271 -175l-115 95q171 249 370 249q32 0 71 -10q39 -11 197 -88q157 -76 238 -105q81 -28 174 -40l-24 -175q-41 -3 -72 -5q35 -268 267 -265h48zM782.904 33.9893l88.8047 -88.8057
q28.8887 -27.8184 1.07031 -55.6367l-93.085 -93.0859q-29.959 -29.958 -58.8477 0l-93.085 92.0156q-27.8184 28.8887 3.20996 59.917l86.665 86.666q32.0986 32.0977 65.2676 -1.07031z" />
    <glyph glyph-name="uniFE9F" unicode="&#x62c;" horiz-adv-x="1409" arabic-form="initial" 
d="M-4 185h44q348 0 492 53q247 90 444 185q-85 9 -262 88q-177 78 -280 94q-120 17 -254 -160l-115 89q100 141 159 184q133 96 308 48q57 -16 388 -159q216 -94 395 -82l-24 -147q-85 -18 -633 -283q-196 -95 -609 -95h-53q-48 0 -48 74v34q0 77 48 77zM713.904 -209.011
l88.8047 -88.8057q28.8887 -27.8184 1.07031 -55.6367l-93.085 -93.0859q-29.959 -29.958 -58.8477 0l-93.085 92.0156q-27.8184 28.8887 3.20996 59.917l86.665 86.666q32.0986 32.0977 65.2676 -1.07031z" />
    <glyph glyph-name="uniFEA0" unicode="&#x62c;" horiz-adv-x="1423" arabic-form="medial" 
d="M1430 185q48 0 48 -77v-34q0 -74 -48 -74h-132q-345 0 -412 212q-112 -61 -228 -117q-196 -95 -609 -95h-53q-48 0 -48 74v34q0 77 48 77h44q352 0 492 53q261 97 444 185q-85 9 -262 88q-177 78 -280 94q-120 17 -254 -160l-115 89q98 138 159 184q130 98 307 48
q59 -17 389 -159q216 -94 395 -82l-24 -147q-125 -29 -260 -98q15 -91 290 -94zM675.904 -209.011l88.8047 -88.8057q28.8887 -27.8184 1.07031 -55.6367l-93.085 -93.0859q-29.959 -29.958 -58.8477 0l-93.085 92.0156q-27.8184 28.8887 3.20996 59.917l86.665 86.666
q32.0986 32.0977 65.2676 -1.07031z" />
    <glyph glyph-name="uniFEA1" unicode="&#x62d;" horiz-adv-x="1300" arabic-form="isolated" 
d="M120 625q170 249 370 249q32 0 71 -10q39 -11 196 -88q158 -76 239 -105q81 -28 174 -40l-25 -176q-128 -10 -150 -12q-245 -30 -404 -121q-326 -188 -326 -462q0 -156 114 -247q114 -92 398 -93q197 0 374 50l54 -155q-208 -64 -426 -64q-412 0 -572 188
q-111 129 -111 318t103 342q152 230 486 329q96 28 185 35q-69 18 -199 79q-130 62 -165 62q-135 0 -271 -175z" />
    <glyph glyph-name="uniFEA2" unicode="&#x62d;" horiz-adv-x="1383" arabic-form="final" 
d="M1390 185q48 1 48 -77v-34q0 -73 -48 -74l-43 -1q-355 -4 -414 436q-211 -39 -363 -126q-304 -175 -304 -449q0 -156 114 -247q114 -92 397 -93q205 0 378 49l51 -154q-211 -65 -425 -65q-413 0 -574 189q-111 129 -111 314q0 189 105 349q111 166 307 258
q188 89 364 103q-69 18 -152 57q-82 38 -117 53q-68 29 -96 31q-127 8 -271 -175l-115 95q171 249 370 249q32 0 71 -10q39 -11 197 -88q157 -76 238 -105q81 -28 174 -40l-24 -175q-41 -3 -72 -5q35 -268 267 -265h48z" />
    <glyph glyph-name="uniFEA3" unicode="&#x62d;" horiz-adv-x="1411" arabic-form="initial" 
d="M-4 185h44q348 0 492 53q247 90 444 185q-85 9 -262 88q-177 78 -280 94q-120 17 -254 -160l-115 89q100 141 159 184q133 96 308 48q57 -16 388 -159q216 -94 395 -82l-24 -147q-85 -18 -633 -283q-196 -95 -609 -95h-53q-48 0 -48 74v34q0 77 48 77z" />
    <glyph glyph-name="uniFEA4" unicode="&#x62d;" horiz-adv-x="1423" arabic-form="medial" 
d="M1430 185q48 0 48 -77v-34q0 -74 -48 -74h-132q-345 0 -412 212q-112 -61 -228 -117q-196 -95 -609 -95h-53q-48 0 -48 74v34q0 77 48 77h44q352 0 492 53q261 97 444 185q-85 9 -262 88q-177 78 -280 94q-120 17 -254 -160l-115 89q98 138 159 184q130 98 307 48
q59 -17 389 -159q216 -94 395 -82l-24 -147q-125 -29 -260 -98q15 -91 290 -94z" />
    <glyph glyph-name="uniFEA5" unicode="&#x62e;" horiz-adv-x="1300" arabic-form="isolated" 
d="M120 625q170 249 370 249q32 0 71 -10q39 -11 196 -88q158 -76 239 -105q81 -28 174 -40l-25 -176q-128 -10 -150 -12q-245 -30 -404 -121q-326 -188 -326 -462q0 -156 114 -247q114 -92 398 -93q197 0 374 50l54 -155q-208 -64 -426 -64q-412 0 -572 188
q-111 129 -111 318t103 342q152 230 486 329q96 28 185 35q-69 18 -199 79q-130 62 -165 62q-135 0 -271 -175zM678.904 1331.99l88.8047 -88.8057q28.8887 -27.8184 1.07031 -55.6367l-93.085 -93.0859q-29.959 -29.958 -58.8477 0l-93.085 92.0156
q-27.8184 28.8887 3.20996 59.917l86.665 86.666q32.0986 32.0977 65.2676 -1.07031z" />
    <glyph glyph-name="uniFEA6" unicode="&#x62e;" horiz-adv-x="1383" arabic-form="final" 
d="M1390 185q48 1 48 -77v-34q0 -73 -48 -74l-43 -1q-355 -4 -414 436q-211 -39 -363 -126q-304 -175 -304 -449q0 -156 114 -247q114 -92 397 -93q205 0 378 49l51 -154q-211 -65 -425 -65q-413 0 -574 189q-111 129 -111 314q0 189 105 349q111 166 307 258
q188 89 364 103q-69 18 -152 57q-82 38 -117 53q-68 29 -96 31q-127 8 -271 -175l-115 95q171 249 370 249q32 0 71 -10q39 -11 197 -88q157 -76 238 -105q81 -28 174 -40l-24 -175q-41 -3 -72 -5q35 -268 267 -265h48zM676.904 1334.99l88.8047 -88.8057
q28.8887 -27.8184 1.07031 -55.6367l-93.085 -93.0859q-29.959 -29.958 -58.8477 0l-93.085 92.0156q-27.8184 28.8887 3.20996 59.917l86.665 86.666q32.0986 32.0977 65.2676 -1.07031z" />
    <glyph glyph-name="uniFEA7" unicode="&#x62e;" horiz-adv-x="1409" arabic-form="initial" 
d="M-4 185h44q348 0 492 53q247 90 444 185q-85 9 -262 88q-177 78 -280 94q-120 17 -254 -160l-115 89q100 141 159 184q133 96 308 48q57 -16 388 -159q216 -94 395 -82l-24 -147q-85 -18 -633 -283q-196 -95 -609 -95h-53q-48 0 -48 74v34q0 77 48 77zM677.904 1250.99
l88.8047 -88.8057q28.8887 -27.8184 1.07031 -55.6367l-93.085 -93.0859q-29.959 -29.958 -58.8477 0l-93.085 92.0156q-27.8184 28.8887 3.20996 59.917l86.665 86.666q32.0986 32.0977 65.2676 -1.07031z" />
    <glyph glyph-name="uniFEA8" unicode="&#x62e;" horiz-adv-x="1423" arabic-form="medial" 
d="M1430 185q48 0 48 -77v-34q0 -74 -48 -74h-132q-345 0 -412 212q-112 -61 -228 -117q-196 -95 -609 -95h-53q-48 0 -48 74v34q0 77 48 77h44q352 0 492 53q261 97 444 185q-85 9 -262 88q-177 78 -280 94q-120 17 -254 -160l-115 89q98 138 159 184q130 98 307 48
q59 -17 389 -159q216 -94 395 -82l-24 -147q-125 -29 -260 -98q15 -91 290 -94zM678.904 1251.99l88.8047 -88.8057q28.8887 -27.8184 1.07031 -55.6367l-93.085 -93.0859q-29.959 -29.958 -58.8477 0l-93.085 92.0156q-27.8184 28.8887 3.20996 59.917l86.665 86.666
q32.0986 32.0977 65.2676 -1.07031z" />
    <glyph glyph-name="uniFEA9" unicode="&#x62f;" horiz-adv-x="992" arabic-form="isolated" 
d="M98 200q113 -38 264 -37q236 0 332 71q49 36 49 82q0 45 -18 87q-87 207 -351 408l95 145q379 -283 426 -577q5 -32 5 -62q0 -161 -149 -251q-138 -83 -402 -83q-162 0 -252 32z" />
    <glyph glyph-name="uniFEAA" unicode="&#x62f;" horiz-adv-x="1162" arabic-form="final" 
d="M1169 185q48 -1 48 -77v-34q0 -74 -48 -74h-31q-161 0 -265 137q-122 -159 -467 -159q-177 0 -310 46v198q130 -56 301 -56q243 0 326 83q21 21 21 49t-16 60l-248 506l152 94l281 -558q106 -210 228 -214z" />
    <glyph glyph-name="uniFEAB" unicode="&#x630;" horiz-adv-x="992" arabic-form="isolated" 
d="M98 200q113 -38 264 -37q236 0 332 71q49 36 49 82q0 45 -18 87q-87 207 -351 408l95 145q379 -283 426 -577q5 -32 5 -62q0 -161 -149 -251q-138 -83 -402 -83q-162 0 -252 32zM453.904 1451.99l88.8047 -88.8057q28.8887 -27.8184 1.07031 -55.6367l-93.085 -93.0859
q-29.959 -29.958 -58.8477 0l-93.085 92.0156q-27.8184 28.8887 3.20996 59.917l86.665 86.666q32.0986 32.0977 65.2676 -1.07031z" />
    <glyph glyph-name="uniFEAC" unicode="&#x630;" horiz-adv-x="1162" arabic-form="final" 
d="M1169 185q48 -1 48 -77v-34q0 -74 -48 -74h-31q-161 0 -265 137q-122 -159 -467 -159q-177 0 -310 46v198q130 -56 301 -56q243 0 326 83q21 21 21 49t-16 60l-248 506l152 94l281 -558q106 -210 228 -214zM556.904 1432.99l88.8047 -88.8057
q28.8887 -27.8184 1.07031 -55.6367l-93.085 -93.0859q-29.959 -29.958 -58.8477 0l-93.085 92.0156q-27.8184 28.8887 3.20996 59.917l86.665 86.666q32.0986 32.0977 65.2676 -1.07031z" />
    <glyph glyph-name="uniFEAD" unicode="&#x631;" horiz-adv-x="887" arabic-form="isolated" 
d="M714 562q103 -287 72 -508q-83 -585 -682 -590h-2l-76 138q568 40 599 472q8 108 -65 381z" />
    <glyph glyph-name="uniFEAE" unicode="&#x631;" horiz-adv-x="986" arabic-form="final" 
d="M993 185q48 0 48 -77v-34q0 -74 -48 -74h-35q-127 0 -175 50q-79 -582 -679 -584h-3l-75 136q550 33 600 472q11 101 -67 379l151 109q60 -284 64 -300q21 -77 179 -77h40z" />
    <glyph glyph-name="uniFEAF" unicode="&#x632;" horiz-adv-x="887" arabic-form="isolated" 
d="M714 562q103 -287 72 -508q-83 -585 -682 -590h-2l-76 138q568 40 599 472q8 108 -65 381zM597.904 1060.99l88.8047 -88.8057q28.8887 -27.8184 1.07031 -55.6367l-93.085 -93.0859q-29.959 -29.958 -58.8477 0l-93.085 92.0156q-27.8184 28.8887 3.20996 59.917
l86.665 86.666q32.0986 32.0977 65.2676 -1.07031z" />
    <glyph glyph-name="uniFEB0" unicode="&#x632;" horiz-adv-x="986" arabic-form="final" 
d="M994 185q48 0 48 -77v-34q0 -74 -48 -74h-35q-127 0 -175 50q-79 -582 -679 -584h-3l-75 136q550 33 600 472q11 101 -67 379l151 109q60 -284 64 -300q21 -77 179 -77h40zM573.904 1074.99l88.8047 -88.8057q28.8887 -27.8184 1.07031 -55.6367l-93.085 -93.0859
q-29.959 -29.958 -58.8477 0l-93.085 92.0156q-27.8184 28.8887 3.20996 59.917l86.665 86.666q32.0986 32.0977 65.2676 -1.07031z" />
    <glyph glyph-name="uniFEB1" unicode="&#x633;" horiz-adv-x="2394" arabic-form="isolated" 
d="M1479 0q-104 -1 -180 70q-11 -587 -609 -588q-422 1 -553 302q-67 153 -35 369q21 143 83 281l158 -55q-80 -195 -80 -344q0 -33 4 -65q42 -314 436 -314q395 0 443 348q5 37 5 74q-2 186 -118 333l147 139q71 -168 100 -242q50 -127 192 -127q143 0 162 191l18 191h118
l26 -192q27 -195 183 -194q102 1 138 71q33 64 17 203q-6 56 -39 238l157 50q43 -122 52 -253q34 -484 -323 -486q-206 -2 -270 148q-77 -148 -232 -148z" />
    <glyph glyph-name="uniFEB2" unicode="&#x633;" horiz-adv-x="2565" arabic-form="final" 
d="M2572 185q48 0 48 -77v-34q0 -74 -48 -74l-53 1q-208 2 -279 137q-74 -136 -240 -135q-217 0 -289 146q-87 -147 -231 -149q-109 -1 -182 67q-12 -579 -600 -585q-430 -4 -562 302q-67 153 -35 369q21 143 82 281l159 -55q-80 -195 -80 -344q0 -33 4 -65
q41 -314 434 -314q401 -1 445 348q28 226 -113 407l147 139q32 -94 99 -242q59 -125 194 -126q142 -1 161 191l19 191h118l25 -192q25 -190 199 -190q154 0 167 202l17 247h122l21 -248q17 -198 204 -198h47z" />
    <glyph glyph-name="uniFEB3" unicode="&#x633;" horiz-adv-x="1622" arabic-form="initial" 
d="M-4 185h87q219 0 237 191l17 187h118l25 -187q26 -194 203 -194q153 -1 172 191l19 190h118l25 -191q27 -196 184 -194q101 1 137 71q34 65 18 203q-7 56 -40 238l157 50q44 -123 53 -254q31 -483 -323 -485q-207 -2 -271 147q-77 -148 -253 -148q-205 1 -290 137
q-101 -137 -308 -137h-85q-48 0 -48 74v34q0 77 48 77z" />
    <glyph glyph-name="uniFEB4" unicode="&#x633;" horiz-adv-x="1786" arabic-form="medial" 
d="M-4 185h87q219 0 237 191l17 187h118l25 -187q26 -194 203 -194q153 -1 172 191l19 190h118l25 -192q25 -189 199 -189q154 -1 167 201l16 248h123l21 -249q17 -192 204 -196l46 -1q48 -1 48 -77v-34q0 -74 -48 -74h-52q-209 0 -279 137q-75 -135 -241 -135
q-216 0 -289 146q-86 -147 -250 -147q-209 1 -293 136q-101 -137 -308 -137h-85q-48 0 -48 74v34q0 77 48 77z" />
    <glyph glyph-name="uniFEB5" unicode="&#x634;" horiz-adv-x="2394" arabic-form="isolated" 
d="M1479 0q-104 -1 -180 70q-11 -587 -609 -588q-422 1 -553 302q-67 153 -35 369q21 143 83 281l158 -55q-80 -195 -80 -344q0 -33 4 -65q42 -314 436 -314q395 0 443 348q5 37 5 74q-2 186 -118 333l147 139q71 -168 100 -242q50 -127 192 -127q143 0 162 191l18 191h118
l26 -192q27 -195 183 -194q102 1 138 71q33 64 17 203q-6 56 -39 238l157 50q43 -122 52 -253q34 -484 -323 -486q-206 -2 -270 148q-77 -148 -232 -148zM1863.73 1073.08l88.8057 -88.8057q27.8184 -27.8184 0 -55.6377l-92.0156 -93.085q-29.959 -29.958 -59.917 0
l-93.0859 93.085q-27.8184 27.8193 3.20996 58.8477l86.666 86.666q33.168 32.0977 66.3369 -1.07031zM1542.74 1073.08l88.8057 -88.8057q27.8184 -27.8184 0 -55.6377l-92.0156 -93.085q-29.958 -29.958 -59.917 0l-93.085 93.085q-27.8184 27.8193 3.20996 58.8477
l86.665 86.666q33.1689 32.0977 66.3369 -1.07031zM1703.24 1327.73l88.8057 -88.8057q27.8184 -27.8184 0 -55.6377l-93.0859 -93.085q-28.8887 -29.959 -58.8467 0l-93.085 93.085q-27.8193 27.8193 3.20898 58.8477l86.666 86.665q33.168 32.0986 66.3369 -1.06934z" />
    <glyph glyph-name="uniFEB6" unicode="&#x634;" horiz-adv-x="2565" arabic-form="final" 
d="M2572 185q48 0 48 -77v-34q0 -74 -48 -74l-53 1q-208 2 -279 137q-74 -136 -240 -135q-217 0 -289 146q-87 -147 -231 -149q-109 -1 -182 67q-12 -579 -600 -585q-430 -4 -562 302q-67 153 -35 369q21 143 82 281l159 -55q-80 -195 -80 -344q0 -33 4 -65
q41 -314 434 -314q401 -1 445 348q28 226 -113 407l147 139q32 -94 99 -242q59 -125 194 -126q142 -1 161 191l19 191h118l25 -192q25 -190 199 -190q154 0 167 202l17 247h122l21 -248q17 -198 204 -198h47zM1885.73 1075.08l88.8057 -88.8057q27.8184 -27.8184 0 -55.6377
l-92.0156 -93.085q-29.959 -29.958 -59.917 0l-93.0859 93.085q-27.8184 27.8193 3.20996 58.8477l86.666 86.666q33.168 32.0977 66.3369 -1.07031zM1564.74 1075.08l88.8057 -88.8057q27.8184 -27.8184 0 -55.6377l-92.0156 -93.085q-29.958 -29.958 -59.917 0
l-93.085 93.085q-27.8184 27.8193 3.20996 58.8477l86.665 86.666q33.1689 32.0977 66.3369 -1.07031zM1725.24 1329.73l88.8057 -88.8057q27.8184 -27.8184 0 -55.6377l-93.0859 -93.085q-28.8887 -29.959 -58.8467 0l-93.085 93.085q-27.8193 27.8193 3.20898 58.8477
l86.666 86.665q33.168 32.0986 66.3369 -1.06934z" />
    <glyph glyph-name="uniFEB7" unicode="&#x634;" horiz-adv-x="1622" arabic-form="initial" 
d="M1083.73 1073.08l88.8057 -88.8057q27.8184 -27.8184 0 -55.6377l-92.0156 -93.085q-29.959 -29.958 -59.917 0l-93.0859 93.085q-27.8184 27.8193 3.20996 58.8477l86.666 86.666q33.168 32.0977 66.3369 -1.07031zM762.743 1073.08l88.8057 -88.8057
q27.8184 -27.8184 0 -55.6377l-92.0156 -93.085q-29.958 -29.958 -59.917 0l-93.085 93.085q-27.8184 27.8193 3.20996 58.8477l86.665 86.666q33.1689 32.0977 66.3369 -1.07031zM923.235 1327.73l88.8057 -88.8057q27.8184 -27.8184 0 -55.6377l-93.0859 -93.085
q-28.8887 -29.959 -58.8467 0l-93.085 93.085q-27.8193 27.8193 3.20898 58.8477l86.666 86.665q33.168 32.0986 66.3369 -1.06934zM-4 185h87q219 0 237 191l17 187h118l25 -187q26 -194 203 -194q153 -1 172 191l19 190h118l25 -191q27 -196 184 -194q101 1 137 71
q34 65 18 203q-7 56 -40 238l157 50q44 -123 53 -254q31 -483 -323 -485q-207 -2 -271 147q-77 -148 -253 -148q-205 1 -290 137q-101 -137 -308 -137h-85q-48 0 -48 74v34q0 77 48 77z" />
    <glyph glyph-name="uniFEB8" unicode="&#x634;" horiz-adv-x="1786" arabic-form="medial" 
d="M1083.73 1073.08l88.8057 -88.8057q27.8184 -27.8184 0 -55.6377l-92.0156 -93.085q-29.959 -29.958 -59.917 0l-93.0859 93.085q-27.8184 27.8193 3.20996 58.8477l86.666 86.666q33.168 32.0977 66.3369 -1.07031zM762.743 1073.08l88.8057 -88.8057
q27.8184 -27.8184 0 -55.6377l-92.0156 -93.085q-29.958 -29.958 -59.917 0l-93.085 93.085q-27.8184 27.8193 3.20996 58.8477l86.665 86.666q33.1689 32.0977 66.3369 -1.07031zM923.235 1327.73l88.8057 -88.8057q27.8184 -27.8184 0 -55.6377l-93.0859 -93.085
q-28.8887 -29.959 -58.8467 0l-93.085 93.085q-27.8193 27.8193 3.20898 58.8477l86.666 86.665q33.168 32.0986 66.3369 -1.06934zM-4 185h87q219 0 237 191l17 187h118l25 -187q26 -194 203 -194q153 -1 172 191l19 190h118l25 -192q25 -189 199 -189q154 -1 167 201
l16 248h123l21 -249q17 -192 204 -196l46 -1q48 -1 48 -77v-34q0 -74 -48 -74h-52q-209 0 -279 137q-75 -135 -241 -135q-216 0 -289 146q-86 -147 -250 -147q-209 1 -293 136q-101 -137 -308 -137h-85q-48 0 -48 74v34q0 77 48 77z" />
    <glyph glyph-name="uniFEB9" unicode="&#x635;" horiz-adv-x="2514" arabic-form="isolated" 
d="M1529 187h183q271 0 390 46q149 59 138 195q-4 53 -32 86q-49 64 -144 64q-126 0 -263 -106q-116 -90 -272 -285zM1365 227q368 531 704 530q153 0 247 -88q100 -92 102 -246q1 -189 -161 -309q-152 -116 -528 -115l-276 1q-80 0 -140 78h-14q-7 -596 -603 -596
q-429 1 -560 302q-67 153 -35 369q21 143 82 281l159 -55q-80 -195 -80 -344q0 -33 4 -65q41 -314 436 -314q400 -2 444 348q28 226 -113 407l147 139q33 -94 100 -242q34 -77 85 -81z" />
    <glyph glyph-name="uniFEBA" unicode="&#x635;" horiz-adv-x="2629" arabic-form="final" 
d="M2636 0h-56q-195 -1 -298 138q-10 -13 -27 -24q-164 -116 -528 -115l-233 1q-116 0 -177 78h-14q-7 -592 -604 -596q-433 -2 -565 302q-67 153 -35 369q21 143 82 281l159 -55q-80 -195 -80 -344q0 -33 4 -65q41 -314 436 -314q406 -2 450 348q29 226 -113 407l147 139
q61 -145 100 -242q31 -78 81 -83q366 533 702 532q153 0 247 -88q101 -93 101 -246q1 -73 -22 -135q80 -104 210 -103h33q48 1 48 -77v-34q0 -74 -48 -74zM1527 187h183q271 0 390 46q149 59 138 195q-5 53 -32 86q-49 64 -144 64q-126 0 -263 -106q-116 -90 -272 -285z" />
    <glyph glyph-name="uniFEBB" unicode="&#x635;" horiz-adv-x="1720" arabic-form="initial" 
d="M-4 185h53q233 0 237 184l6 223l153 26l7 -250q4 -121 122 -142q364 532 702 532q153 0 247 -88q100 -92 102 -246q1 -193 -161 -310q-160 -115 -528 -114l-233 1q-252 0 -333 132q-100 -133 -302 -133h-72q-48 0 -48 74v34q0 77 48 77zM736 188h183q271 0 390 46
q150 59 138 195q-4 52 -32 86q-49 64 -144 63q-126 1 -263 -106q-115 -89 -272 -284z" />
    <glyph glyph-name="uniFEBC" unicode="&#x635;" horiz-adv-x="1839" arabic-form="medial" 
d="M-4 185h53q233 0 237 184l6 223l153 26l7 -250q4 -121 122 -142q365 532 702 532q153 0 247 -88q101 -93 102 -246q0 -73 -23 -136q80 -101 199 -102l45 -1q48 0 48 -77v-34q0 -74 -48 -74l-57 1q-195 1 -298 137q-10 -12 -27 -24q-169 -115 -528 -114l-233 1
q-252 0 -333 132q-100 -133 -302 -133h-72q-48 0 -48 74v34q0 77 48 77zM736 188h183q271 0 390 46q150 59 138 195q-4 52 -32 86q-49 64 -144 63q-126 1 -263 -106q-115 -89 -272 -284z" />
    <glyph glyph-name="uniFEBD" unicode="&#x636;" horiz-adv-x="2514" arabic-form="isolated" 
d="M1529 187h183q271 0 390 46q149 59 138 195q-4 53 -32 86q-49 64 -144 64q-126 0 -263 -106q-116 -90 -272 -285zM1365 227q368 531 704 530q153 0 247 -88q100 -92 102 -246q1 -189 -161 -309q-152 -116 -528 -115l-276 1q-80 0 -140 78h-14q-7 -596 -603 -596
q-429 1 -560 302q-67 153 -35 369q21 143 82 281l159 -55q-80 -195 -80 -344q0 -33 4 -65q41 -314 436 -314q400 -2 444 348q28 226 -113 407l147 139q33 -94 100 -242q34 -77 85 -81zM1861.9 1250.99l88.8047 -88.8057q28.8887 -27.8184 1.07031 -55.6367l-93.085 -93.0859
q-29.959 -29.958 -58.8477 0l-93.085 92.0156q-27.8184 28.8887 3.20996 59.917l86.665 86.666q32.0986 32.0977 65.2676 -1.07031z" />
    <glyph glyph-name="uniFEBE" unicode="&#x636;" horiz-adv-x="2629" arabic-form="final" 
d="M2636 0h-56q-195 -1 -298 138q-10 -13 -27 -24q-164 -116 -528 -115l-233 1q-116 0 -177 78h-14q-7 -592 -604 -596q-433 -2 -565 302q-67 153 -35 369q21 143 82 281l159 -55q-80 -195 -80 -344q0 -33 4 -65q41 -314 436 -314q406 -2 450 348q29 226 -113 407l147 139
q61 -145 100 -242q31 -78 81 -83q366 533 702 532q153 0 247 -88q101 -93 101 -246q1 -73 -22 -135q80 -104 210 -103h33q48 1 48 -77v-34q0 -74 -48 -74zM1527 187h183q271 0 390 46q149 59 138 195q-5 53 -32 86q-49 64 -144 64q-126 0 -263 -106q-116 -90 -272 -285z
M1920.9 1247.99l88.8047 -88.8057q28.8887 -27.8184 1.07031 -55.6367l-93.085 -93.0859q-29.959 -29.958 -58.8477 0l-93.085 92.0156q-27.8184 28.8887 3.20996 59.917l86.665 86.666q32.0986 32.0977 65.2676 -1.07031z" />
    <glyph glyph-name="uniFEBF" unicode="&#x636;" horiz-adv-x="1720" arabic-form="initial" 
d="M-4 185h53q233 0 237 184l6 223l153 26l7 -250q4 -121 122 -142q364 532 702 532q153 0 247 -88q100 -92 102 -246q1 -193 -161 -310q-160 -115 -528 -114l-233 1q-252 0 -333 132q-100 -133 -302 -133h-72q-48 0 -48 74v34q0 77 48 77zM736 188h183q271 0 390 46
q150 59 138 195q-4 52 -32 86q-49 64 -144 63q-126 1 -263 -106q-115 -89 -272 -284zM1112.9 1243.99l88.8047 -88.8057q28.8887 -27.8184 1.07031 -55.6367l-93.085 -93.0859q-29.959 -29.958 -58.8477 0l-93.085 92.0156q-27.8184 28.8887 3.20996 59.917l86.665 86.666
q32.0986 32.0977 65.2676 -1.07031z" />
    <glyph glyph-name="uniFEC0" unicode="&#x636;" horiz-adv-x="1839" arabic-form="medial" 
d="M-4 185h53q233 0 237 184l6 223l153 26l7 -250q4 -121 122 -142q365 532 702 532q153 0 247 -88q101 -93 102 -246q0 -73 -23 -136q80 -101 199 -102l45 -1q48 0 48 -77v-34q0 -74 -48 -74l-57 1q-195 1 -298 137q-10 -12 -27 -24q-169 -115 -528 -114l-233 1
q-252 0 -333 132q-100 -133 -302 -133h-72q-48 0 -48 74v34q0 77 48 77zM736 188h183q271 0 390 46q150 59 138 195q-4 52 -32 86q-49 64 -144 63q-126 1 -263 -106q-115 -89 -272 -284zM1148.9 1246.99l88.8047 -88.8057q28.8887 -27.8184 1.07031 -55.6367
l-93.085 -93.0859q-29.959 -29.958 -58.8477 0l-93.085 92.0156q-27.8184 28.8887 3.20996 59.917l86.665 86.666q32.0986 32.0977 65.2676 -1.07031z" />
    <glyph glyph-name="uniFEC1" unicode="&#x637;" horiz-adv-x="1544" arabic-form="isolated" 
d="M559 188h183q271 0 390 46q150 59 138 195q-4 52 -32 86q-49 64 -144 63q-126 1 -263 -106q-115 -89 -272 -284zM406 256q365 502 693 502q151 0 247 -88q100 -92 102 -246q1 -195 -161 -310q-162 -114 -528 -114h-662v185h167l-33 1283l175 69v-1281z" />
    <glyph glyph-name="uniFEC2" unicode="&#x637;" horiz-adv-x="1665" arabic-form="final" 
d="M1672 185q48 0 48 -77v-34q0 -74 -48 -74l-63 1q-195 1 -298 137q-120 -138 -552 -138h-662v185h167l-33 1283l175 69v-1281q365 502 693 502q151 0 247 -88q101 -93 102 -246q0 -73 -26 -136q80 -101 199 -102zM559 188h183q271 0 390 46q150 59 138 195q-4 52 -32 86
q-49 64 -144 63q-126 1 -263 -106q-115 -89 -272 -284z" />
    <glyph glyph-name="uniFEC3" unicode="&#x637;" horiz-adv-x="1472" arabic-form="initial" 
d="M-4 185h194l-33 1283l175 69v-1281q364 502 693 502q151 0 247 -88q100 -92 101 -246q2 -195 -160 -310q-163 -114 -528 -114h-689q-48 0 -48 74v34q0 77 48 77zM485 188h183q271 0 390 46q149 59 138 195q-5 52 -32 86q-49 64 -144 63q-126 1 -263 -106
q-116 -89 -272 -284z" />
    <glyph glyph-name="uniFEC4" unicode="&#x637;" horiz-adv-x="1600" arabic-form="medial" 
d="M-4 185h194l-33 1283l175 69v-1281q364 502 693 502q151 0 247 -88q101 -93 101 -246q1 -73 -25 -136q80 -101 199 -102l60 -1q48 0 48 -77v-34q0 -74 -48 -74l-72 1q-195 1 -298 137q-120 -138 -552 -138h-689q-48 0 -48 74v34q0 77 48 77zM485 188h183q271 0 390 46
q149 59 138 195q-5 52 -32 86q-49 64 -144 63q-126 1 -263 -106q-116 -89 -272 -284z" />
    <glyph glyph-name="uniFEC5" unicode="&#x638;" horiz-adv-x="1544" arabic-form="isolated" 
d="M559 188h183q271 0 390 46q150 59 138 195q-4 52 -32 86q-49 64 -144 63q-126 1 -263 -106q-115 -89 -272 -284zM406 256q365 502 693 502q151 0 247 -88q100 -92 102 -246q1 -195 -161 -310q-162 -114 -528 -114h-662v185h167l-33 1283l175 69v-1281zM973.904 1244.99
l88.8047 -88.8057q28.8887 -27.8184 1.07031 -55.6367l-93.085 -93.0859q-29.959 -29.958 -58.8477 0l-93.085 92.0156q-27.8184 28.8887 3.20996 59.917l86.665 86.666q32.0986 32.0977 65.2676 -1.07031z" />
    <glyph glyph-name="uniFEC6" unicode="&#x638;" horiz-adv-x="1665" arabic-form="final" 
d="M1672 185q48 0 48 -77v-34q0 -74 -48 -74l-63 1q-195 1 -298 137q-120 -138 -552 -138h-662v185h167l-33 1283l175 69v-1281q365 502 693 502q151 0 247 -88q101 -93 102 -246q0 -73 -26 -136q80 -101 199 -102zM559 188h183q271 0 390 46q150 59 138 195q-4 52 -32 86
q-49 64 -144 63q-126 1 -263 -106q-115 -89 -272 -284zM993.904 1249.99l88.8047 -88.8057q28.8887 -27.8184 1.07031 -55.6367l-93.085 -93.0859q-29.959 -29.958 -58.8477 0l-93.085 92.0156q-27.8184 28.8887 3.20996 59.917l86.665 86.666
q32.0986 32.0977 65.2676 -1.07031z" />
    <glyph glyph-name="uniFEC7" unicode="&#x638;" horiz-adv-x="1472" arabic-form="initial" 
d="M-4 185h194l-33 1283l175 69v-1281q364 502 693 502q151 0 247 -88q100 -92 101 -246q2 -195 -160 -310q-163 -114 -528 -114h-689q-48 0 -48 74v34q0 77 48 77zM485 188h183q271 0 390 46q149 59 138 195q-5 52 -32 86q-49 64 -144 63q-126 1 -263 -106
q-116 -89 -272 -284zM891.904 1250.99l88.8047 -88.8057q28.8887 -27.8184 1.07031 -55.6367l-93.085 -93.0859q-29.959 -29.958 -58.8477 0l-93.085 92.0156q-27.8184 28.8887 3.20996 59.917l86.665 86.666q32.0986 32.0977 65.2676 -1.07031z" />
    <glyph glyph-name="uniFEC8" unicode="&#x638;" horiz-adv-x="1600" arabic-form="medial" 
d="M-4 185h194l-33 1283l175 69v-1281q364 502 693 502q151 0 247 -88q101 -93 101 -246q1 -73 -25 -136q80 -101 199 -102l60 -1q48 0 48 -77v-34q0 -74 -48 -74l-72 1q-195 1 -298 137q-120 -138 -552 -138h-689q-48 0 -48 74v34q0 77 48 77zM485 188h183q271 0 390 46
q149 59 138 195q-5 52 -32 86q-49 64 -144 63q-126 1 -263 -106q-116 -89 -272 -284zM916.904 1246.99l88.8047 -88.8057q28.8887 -27.8184 1.07031 -55.6367l-93.085 -93.0859q-29.959 -29.958 -58.8477 0l-93.085 92.0156q-27.8184 28.8887 3.20996 59.917l86.665 86.666
q32.0986 32.0977 65.2676 -1.07031z" />
    <glyph glyph-name="uniFEC9" unicode="&#x639;" horiz-adv-x="1370" arabic-form="isolated" 
d="M98 -152q1 201 99 340q102 145 244 211q-105 39 -168 118q-65 83 -65 207q0 113 54 202q99 164 321 164q148 0 298 -85l-42 -153q-136 65 -247 65q-112 0 -168 -56q-53 -52 -57 -121q-4 -65 21 -108q32 -59 140 -112q53 -25 77 -29q31 -6 176 18q113 18 225 36v-167
q-252 -18 -460 -125q-281 -145 -280 -402q1 -146 114 -236q114 -92 398 -93q190 0 322 38l54 -156q-166 -51 -374 -51q-408 0 -572 188q-110 126 -110 307z" />
    <glyph glyph-name="uniFECA" unicode="&#x639;" horiz-adv-x="1268" arabic-form="final" 
d="M1275 185q48 0 48 -77v-34q0 -74 -48 -74l-54 1q-364 3 -622 258l-11 -2q-318 -173 -323 -397q-3 -153 114 -247q114 -92 398 -93q176 0 323 42l54 -156q-181 -55 -375 -55q-412 0 -572 188q-111 129 -111 318q1 281 371 501q-68 30 -198 139q-99 84 -92 185
q16 225 445 227q398 1 430 -226q25 -178 -304 -340q198 -155 475 -157zM889 649q0 96 -267 96q-145 0 -230 -34q-62 -25 -46 -63q14 -34 106 -92q149 -96 170 -106q116 52 192 112q75 58 75 87z" />
    <glyph glyph-name="uniFECB" unicode="&#x639;" horiz-adv-x="1084" arabic-form="initial" 
d="M-4 185l264 1q-132 135 -133 284q0 91 33 170q102 248 401 248q201 0 352 -140l-61 -138q-146 92 -283 92q-202 0 -256 -141q-18 -46 -18 -103q2 -119 152 -241q32 -26 226 7l315 54v-168q-428 -110 -641 -110h-351q-48 0 -48 74v34q0 77 48 77z" />
    <glyph glyph-name="uniFECC" unicode="&#x639;" horiz-adv-x="1079" arabic-form="medial" 
d="M-4 185h87q195 0 324 84q-314 138 -315 320q0 19 5 39q34 152 263 186q87 13 177 13q87 0 165 -10q201 -24 258 -135q20 -40 20 -81q1 -173 -292 -333q163 -83 334 -83h71q48 0 48 -77v-34q0 -74 -48 -74l-76 1q-242 1 -468 172q-225 -173 -472 -173h-81q-48 0 -48 74v34
q0 77 48 77zM820 565q-1 96 -285 95.5t-284 -83.5q-1 -49 200 -159q51 -28 101 -52q87 37 196 114q71 52 72 85z" />
    <glyph glyph-name="uniFECD" unicode="&#x63a;" horiz-adv-x="1247" arabic-form="isolated" 
d="M98 -152q1 201 99 340q102 145 244 211q-105 39 -168 118q-65 83 -65 207q0 113 54 202q99 164 321 164q148 0 298 -85l-42 -153q-136 65 -247 65q-112 0 -168 -56q-53 -52 -57 -121q-4 -65 21 -108q32 -59 140 -112q53 -25 77 -29q31 -6 176 18q113 18 225 36v-167
q-252 -18 -460 -125q-281 -145 -280 -402q1 -146 114 -236q114 -92 398 -93q190 0 322 38l54 -156q-166 -51 -374 -51q-408 0 -572 188q-110 126 -110 307zM583.904 1515.99l88.8047 -88.8057q28.8887 -27.8184 1.07031 -55.6367l-93.085 -93.0859
q-29.959 -29.958 -58.8477 0l-93.085 92.0156q-27.8184 28.8887 3.20996 59.917l86.665 86.666q32.0986 32.0977 65.2676 -1.07031z" />
    <glyph glyph-name="uniFECE" unicode="&#x63a;" horiz-adv-x="1268" arabic-form="final" 
d="M1275 185q48 0 48 -77v-34q0 -74 -48 -74l-54 1q-364 3 -622 258l-11 -2q-318 -173 -323 -397q-3 -153 114 -247q114 -92 398 -93q176 0 323 42l54 -156q-181 -55 -375 -55q-412 0 -572 188q-111 129 -111 318q1 281 371 501q-68 30 -198 139q-99 84 -92 185
q16 225 445 227q398 1 430 -226q25 -178 -304 -340q198 -155 475 -157zM889 649q0 96 -267 96q-145 0 -230 -34q-62 -25 -46 -63q14 -34 106 -92q149 -96 170 -106q116 52 192 112q75 58 75 87zM624.904 1381.99l88.8047 -88.8057q28.8887 -27.8184 1.07031 -55.6367
l-93.085 -93.0859q-29.959 -29.958 -58.8477 0l-93.085 92.0156q-27.8184 28.8887 3.20996 59.917l86.665 86.666q32.0986 32.0977 65.2676 -1.07031z" />
    <glyph glyph-name="uniFECF" unicode="&#x63a;" horiz-adv-x="1084" arabic-form="initial" 
d="M-4 185l264 1q-132 135 -133 284q0 91 33 170q102 248 401 248q201 0 352 -140l-61 -138q-146 92 -283 92q-202 0 -256 -141q-18 -46 -18 -103q2 -119 152 -241q32 -26 226 7l315 54v-168q-428 -110 -641 -110h-351q-48 0 -48 74v34q0 77 48 77zM542.904 1371.99
l88.8047 -88.8057q28.8887 -27.8184 1.07031 -55.6367l-93.085 -93.0859q-29.959 -29.958 -58.8477 0l-93.085 92.0156q-27.8184 28.8887 3.20996 59.917l86.665 86.666q32.0986 32.0977 65.2676 -1.07031z" />
    <glyph glyph-name="uniFED0" unicode="&#x63a;" horiz-adv-x="1079" arabic-form="medial" 
d="M-4 185h87q195 0 324 84q-314 138 -315 320q0 19 5 39q34 152 263 186q87 13 177 13q87 0 165 -10q201 -24 258 -135q20 -40 20 -81q1 -173 -292 -333q163 -83 334 -83h71q48 0 48 -77v-34q0 -74 -48 -74l-76 1q-242 1 -468 172q-225 -173 -472 -173h-81q-48 0 -48 74v34
q0 77 48 77zM820 565q-1 96 -285 95.5t-284 -83.5q-1 -49 200 -159q51 -28 101 -52q87 37 196 114q71 52 72 85zM568.904 1315.99l88.8047 -88.8057q28.8887 -27.8184 1.07031 -55.6367l-93.085 -93.0859q-29.959 -29.958 -58.8477 0l-93.085 92.0156
q-27.8184 28.8887 3.20996 59.917l86.665 86.666q32.0986 32.0977 65.2676 -1.07031z" />
    <glyph glyph-name="uniFED1" unicode="&#x641;" horiz-adv-x="1857" arabic-form="isolated" 
d="M904 188q356 0 491 38q166 47 203 209q-74 -52 -218 -52q-158 2 -234 102q-67 90 -49 245q18 161 112 260q117 124 280 90q111 -22 179 -138q96 -161 92 -388q-1 -135 -26 -219q-62 -211 -286 -283q-171 -55 -541 -52q-348 3 -509 71q-273 113 -298 396q-12 133 31 285
l142 -38q-21 -141 -18 -207q10 -257 339 -306q87 -13 310 -13zM1420 916q-125 -4 -167 -172q-48 -197 145 -199q124 0 202 58q7 25 -11 123q-36 194 -169 190zM1440.9 1526.99l88.8047 -88.8057q28.8887 -27.8184 1.07031 -55.6367l-93.085 -93.0859
q-29.959 -29.958 -58.8477 0l-93.085 92.0156q-27.8184 28.8887 3.20996 59.917l86.665 86.666q32.0986 32.0977 65.2676 -1.07031z" />
    <glyph glyph-name="uniFED2" unicode="&#x641;" horiz-adv-x="1992" arabic-form="final" 
d="M1999 185q48 0 48 -77v-34q0 -74 -48 -74l-93 1q-236 1 -372 115q-274 -116 -675 -116q-296 0 -465 71q-273 113 -298 396q-11 135 31 285l142 -38q-23 -147 -20 -207q11 -255 341 -306q49 -8 184 -12q211 -6 348 2q59 3 217 23q-97 64 -141 163q-46 106 -13 228
q42 157 189 219q68 28 154 28q88 0 159 -34q137 -64 172 -214q26 -112 -13 -210q-41 -107 -158 -182q27 -25 226 -26zM1334 506q-1 -78 54 -133q86 -88 132 -88q47 1 132 88q54 54 54 133q1 79 -54 134q-56 55 -132 55t-131 -55q-54 -54 -55 -134zM1539.9 1323.99
l88.8047 -88.8057q28.8887 -27.8184 1.07031 -55.6367l-93.085 -93.0859q-29.959 -29.958 -58.8477 0l-93.085 92.0156q-27.8184 28.8887 3.20996 59.917l86.665 86.666q32.0986 32.0977 65.2676 -1.07031z" />
    <glyph glyph-name="uniFED3" unicode="&#x641;" horiz-adv-x="874" arabic-form="initial" 
d="M-4 185h264q205 0 267 45q83 58 87 188q-73 -52 -218 -51q-158 1 -234 102q-66 88 -49 244q18 161 112 260q117 124 280 91q111 -23 180 -139q91 -152 92 -388q1 -359 -179 -473q-101 -64 -344 -64h-258q-48 0 -48 74v34q0 77 48 77zM436 899q-124 -3 -166 -172
q-49 -197 144 -198q124 -1 203 57q6 26 -12 123q-36 194 -169 190zM463.904 1528.99l88.8047 -88.8057q28.8887 -27.8184 1.07031 -55.6367l-93.085 -93.0859q-29.959 -29.958 -58.8477 0l-93.085 92.0156q-27.8184 28.8887 3.20996 59.917l86.665 86.666
q32.0986 32.0977 65.2676 -1.07031z" />
    <glyph glyph-name="uniFED4" unicode="&#x641;" horiz-adv-x="1070" arabic-form="medial" 
d="M-4 185h124q174 0 244 29q-99 65 -141 163q-46 106 -13 228q41 156 189 219q65 27 154 28q85 1 159 -34q138 -64 172 -214q25 -114 -13 -210q-43 -108 -158 -182q79 -27 223 -27h141q48 0 48 -77v-34q0 -74 -48 -74h-137q-246 0 -396 113q-132 -113 -405 -113h-143
q-48 0 -48 74v34q0 77 48 77zM359 506q-1 -78 54 -133q86 -88 132 -88q46 1 132 88q53 54 54 133q0 79 -55 134t-131 55t-132 -55q-54 -54 -54 -134zM581.904 1316.99l88.8047 -88.8057q28.8887 -27.8184 1.07031 -55.6367l-93.085 -93.0859q-29.959 -29.958 -58.8477 0
l-93.085 92.0156q-27.8184 28.8887 3.20996 59.917l86.665 86.666q32.0986 32.0977 65.2676 -1.07031z" />
    <glyph glyph-name="uniFED5" unicode="&#x642;" horiz-adv-x="1427" arabic-form="isolated" 
d="M997 611q-125 -4 -166 -172q-50 -199 152 -199q113 1 193 58q0 61 -10 123q-26 194 -169 190zM1331 249q1 -280 -71 -440q-134 -296 -561 -295q-433 2 -564 302q-67 153 -35 369q21 143 82 281l159 -55q-80 -195 -80 -344q0 -33 4 -65q41 -315 436 -315q473 1 474 443
q-95 -53 -218 -52q-158 2 -234 102q-67 89 -49 244q18 162 112 261q117 124 280 90q111 -22 180 -138q84 -141 85 -388zM1168.66 1209.99l88.8057 -88.8057q27.8184 -27.8184 1.07031 -55.6367l-93.0859 -93.0859q-29.958 -29.958 -59.917 0l-93.085 92.0156
q-27.8184 28.8887 4.2793 59.917l86.666 86.666q32.0986 32.0977 65.2666 -1.07031zM847.674 1209.99l88.8047 -88.8057q27.8193 -27.8184 1.07031 -55.6367l-93.085 -93.0859q-29.959 -29.958 -59.917 0l-93.0859 92.0156q-27.8184 28.8887 4.28027 59.917l86.665 86.666
q32.0986 32.0977 65.2676 -1.07031z" />
    <glyph glyph-name="uniFED6" unicode="&#x642;" horiz-adv-x="1456" arabic-form="final" 
d="M1463 0l-140 2q-9 -146 -52 -246q-144 -328 -572 -327q-433 2 -564 302q-67 153 -35 369q21 143 82 281l159 -55q-80 -195 -80 -344q0 -33 4 -65q41 -315 436 -315q428 2 474 401q-33 -1 -184 -1q-200 0 -281 104q-64 83 -51 218q20 194 146 318q80 78 186 77
q189 -2 279 -190q54 -111 61 -343l132 -1q48 0 48 -77v-34q0 -75 -48 -74zM981 547q-81 -1 -134 -101q-28 -52 -34 -114q-7 -76 33 -113q38 -33 114 -39q72 -6 216 1q0 367 -195 366zM1170.66 1155.99l88.8057 -88.8057q27.8184 -27.8184 1.07031 -55.6367
l-93.0859 -93.0859q-29.958 -29.958 -59.917 0l-93.085 92.0156q-27.8184 28.8887 4.2793 59.917l86.666 86.666q32.0986 32.0977 65.2666 -1.07031zM849.674 1155.99l88.8047 -88.8057q27.8193 -27.8184 1.07031 -55.6367l-93.085 -93.0859q-29.959 -29.958 -59.917 0
l-93.0859 92.0156q-27.8184 28.8887 4.28027 59.917l86.665 86.666q32.0986 32.0977 65.2676 -1.07031z" />
    <glyph glyph-name="uniFED7" unicode="&#x642;" horiz-adv-x="874" arabic-form="initial" 
d="M-4 185h264q205 0 267 45q83 58 87 188q-73 -52 -218 -51q-158 1 -234 102q-66 88 -49 244q18 161 112 260q117 124 280 91q111 -23 180 -139q91 -152 92 -388q1 -359 -179 -473q-101 -64 -344 -64h-258q-48 0 -48 74v34q0 77 48 77zM436 899q-124 -3 -166 -172
q-49 -197 144 -198q124 -1 203 57q6 26 -12 123q-36 194 -169 190zM611.657 1527.99l88.8057 -88.8057q27.8184 -27.8184 1.07031 -55.6367l-93.0859 -93.0859q-29.958 -29.958 -59.917 0l-93.085 92.0156q-27.8184 28.8887 4.2793 59.917l86.666 86.666
q32.0986 32.0977 65.2666 -1.07031zM290.674 1527.99l88.8047 -88.8057q27.8193 -27.8184 1.07031 -55.6367l-93.085 -93.0859q-29.959 -29.958 -59.917 0l-93.0859 92.0156q-27.8184 28.8887 4.28027 59.917l86.665 86.666q32.0986 32.0977 65.2676 -1.07031z" />
    <glyph glyph-name="uniFED8" unicode="&#x642;" horiz-adv-x="1070" arabic-form="medial" 
d="M-4 185h124q174 0 244 29q-99 65 -141 163q-46 106 -13 228q41 156 189 219q65 27 154 28q85 1 159 -34q138 -64 172 -214q25 -114 -13 -210q-43 -108 -158 -182q79 -27 223 -27h141q48 0 48 -77v-34q0 -74 -48 -74h-137q-246 0 -396 113q-132 -113 -405 -113h-143
q-48 0 -48 74v34q0 77 48 77zM359 506q-1 -78 54 -133q86 -88 132 -88q46 1 132 88q53 54 54 133q0 79 -55 134t-131 55t-132 -55q-54 -54 -54 -134zM733.657 1318.99l88.8057 -88.8057q27.8184 -27.8184 1.07031 -55.6367l-93.0859 -93.0859q-29.958 -29.958 -59.917 0
l-93.085 92.0156q-27.8184 28.8887 4.2793 59.917l86.666 86.666q32.0986 32.0977 65.2666 -1.07031zM412.674 1318.99l88.8047 -88.8057q27.8193 -27.8184 1.07031 -55.6367l-93.085 -93.0859q-29.959 -29.958 -59.917 0l-93.0859 92.0156q-27.8184 28.8887 4.28027 59.917
l86.665 86.666q32.0986 32.0977 65.2676 -1.07031z" />
    <glyph glyph-name="uniFED9" unicode="&#x643;" horiz-adv-x="1876" arabic-form="isolated" 
d="M733 785q68 -9 127 -9q66 0 106 16q78 31 78 77q-1 24 -21 39t-67 23q-70 11 -106 51t-34 94q2 103 91 148q84 43 206 50l17 1v-93l-15 -1q-75 -5 -112 -19q-91 -34 -91 -82q0 -42 42 -57q24 -9 70 -15q116 -18 116 -131q0 -98 -113 -162q-108 -62 -299 -30l-13 2v100z
M1598 466l-37 1003l177 68v-1103q0 -18 -3 -59q-16 -229 -325 -326q-152 -47 -497 -48q-346 -1 -515 70q-273 116 -296 392q-12 143 29 289l142 -38q-23 -147 -20 -207q14 -280 388 -312q168 -14 554 3q412 17 403 268z" />
    <glyph glyph-name="uniFEDA" unicode="&#x643;" horiz-adv-x="1956" arabic-form="final" 
d="M733 785q68 -9 127 -9q66 0 106 16q78 31 78 77q-1 24 -21 39t-67 23q-70 11 -106 51t-34 94q2 103 91 148q84 43 206 50l17 1v-93l-15 -1q-75 -5 -112 -19q-91 -34 -91 -82q0 -42 42 -57q24 -9 70 -15q116 -18 116 -131q0 -98 -113 -162q-108 -62 -299 -30l-13 2v100z
M1712 267q60 -81 225 -81h52v-185h-65q-186 0 -313 127q-121 -73 -288 -101q-162 -26 -410 -26q-358 0 -507 64q-148 62 -225 162q-74 97 -86 239q-11 140 30 286l142 -38q-23 -147 -21 -207q14 -259 341 -306q81 -12 292 -13q212 0 323 5q404 18 396 273l-32 987l173 85
v-1104q-3 -96 -27 -167z" />
    <glyph glyph-name="uniFEDB" unicode="&#x643;" horiz-adv-x="956" arabic-form="initial" 
d="M-4 185l259 1q226 0 256 143q17 82 -64 171l-277 308q-96 106 -99 180q-4 127 123 190l720 359v-184l-697 -348l348 -385q133 -147 94 -334q-60 -286 -438 -286h-225q-48 0 -48 74v34q0 77 48 77z" />
    <glyph glyph-name="uniFEDC" unicode="&#x643;" horiz-adv-x="1090" arabic-form="medial" 
d="M-4 185l259 1q226 0 256 143q17 82 -64 171l-277 308q-96 106 -99 180q-4 127 123 190l720 359v-184l-697 -348l650 -721q87 -97 185 -98l45 -1q48 0 48 -77v-34q0 -75 -48 -74l-49 1q-190 2 -395 272q-34 -273 -430 -273h-227q-48 0 -48 74v34q0 77 48 77z" />
    <glyph glyph-name="uniFEDD" unicode="&#x644;" horiz-adv-x="1369" arabic-form="isolated" 
d="M1229 102q4 -591 -545 -589q-400 1 -532 302q-66 150 -35 368q21 143 83 281l158 -54q-79 -193 -80 -344q0 -33 4 -65q44 -314 405 -315q404 -1 396 456l-24 1323l172 71v-1130q0 -203 -2 -304z" />
    <glyph glyph-name="uniFEDE" unicode="&#x644;" horiz-adv-x="1500" arabic-form="final" 
d="M1507 185q48 0 48 -77v-34q0 -75 -48 -74l-38 1q-178 2 -244 66q-5 -554 -537 -554q-406 0 -536 302q-66 153 -35 368q21 143 83 281l158 -54q-79 -193 -80 -344q0 -33 4 -65q41 -314 409 -315q400 -1 392 456l-24 1353l172 71v-1151q0 -227 224 -229z" />
    <glyph glyph-name="uniFEDF" unicode="&#x644;" horiz-adv-x="561" arabic-form="initial" 
d="M-4 185h42q250 0 241 295l-30 981l174 76v-1071q0 -246 -99 -356q-100 -110 -277 -110h-51q-48 0 -48 74v34q0 77 48 77z" />
    <glyph glyph-name="uniFEE0" unicode="&#x644;" horiz-adv-x="688" arabic-form="medial" 
d="M-4 185h93q200 0 193 242l-31 1035l172 74v-1108q0 -243 219 -243h53q48 0 48 -77v-34q0 -74 -48 -74h-62q-167 0 -275 114q-103 -114 -271 -114h-91q-48 0 -48 74v34q0 77 48 77z" />
    <glyph glyph-name="uniFEE1" unicode="&#x645;" horiz-adv-x="1190" arabic-form="isolated" 
d="M481 347q0 -9 103 -14t141 -5q135 0 166 20q21 14 38 50q64 138 -226 257q-72 30 -130 7q-50 -20 -70 -83q-15 -48 -22 -171v-61zM972 179q-69 -27 -253 -22q-184 6 -306 6q-191 0 -177 -288l24 -481l-165 -94v624q0 198 81 300q53 69 140 84q-16 318 117 444
q91 86 202 85q66 0 136 -34q374 -178 318 -393q-61 -234 -117 -231z" />
    <glyph glyph-name="uniFEE2" unicode="&#x645;" horiz-adv-x="1187" arabic-form="final" 
d="M1194 185q48 1 48 -77v-34q0 -75 -48 -74l-39 1q-135 2 -203 79q-49 -160 -227 -160q-75 0 -139 26q-226 90 -240 413q-121 -45 -107 -335l29 -615l-172 -86v763q0 282 187 417q190 137 412 140q240 4 288 -230q12 -59 22 -152q51 -77 165 -76h24zM485 417
q9 -221 128 -302q51 -33 115 -34q122 0 122 168q0 52 -11 120q-19 116 -128 119q-129 3 -226 -71z" />
    <glyph glyph-name="uniFEE3" unicode="&#x645;" horiz-adv-x="968" arabic-form="initial" 
d="M-4 185h61q75 0 107 66q96 195 148 283q97 159 237 160q180 2 279 -236q43 -105 42 -209q0 -82 -25 -141q-31 -73 -93 -114q-65 -43 -165 -42q-169 2 -318 142q-59 -94 -228 -94h-45q-48 0 -48 74v34q0 77 48 77zM331 245q147 -131 254 -131q72 1 106 58q51 83 -23 239
q-44 91 -115 100q-67 9 -124 -83q-56 -89 -98 -183z" />
    <glyph glyph-name="uniFEE4" unicode="&#x645;" horiz-adv-x="1087" arabic-form="medial" 
d="M-4 185h61q76 0 107 66q72 152 148 283q92 158 237 160q180 3 279 -236q16 -39 34 -110q43 -162 205 -162l27 -1q48 0 48 -77v-34q0 -74 -48 -74h-30q-149 1 -218 108q-31 -72 -94 -114q-65 -43 -165 -42q-169 2 -318 142q-59 -94 -228 -94h-45q-48 0 -48 74v34
q0 77 48 77zM331 245q147 -131 254 -131q72 1 106 58q51 83 -23 239q-44 91 -115 100q-67 9 -124 -83q-56 -89 -98 -183z" />
    <glyph glyph-name="uniFEE5" unicode="&#x646;" horiz-adv-x="1463" arabic-form="isolated" 
d="M1225 700q136 -227 135 -452q-4 -647 -651 -647q-580 0 -612 542q-5 83 18 203q24 120 76 233l149 -57q-94 -232 -77 -393q41 -363 451 -363q460 -1 480 423q9 189 -118 368zM744.904 850.989l88.8047 -88.8057q28.8887 -27.8184 1.07031 -55.6367l-93.085 -93.0859
q-29.959 -29.958 -58.8477 0l-93.085 92.0156q-27.8184 28.8887 3.20996 59.917l86.665 86.666q32.0986 32.0977 65.2676 -1.07031z" />
    <glyph glyph-name="uniFEE6" unicode="&#x646;" horiz-adv-x="1467" arabic-form="final" 
d="M1474 185q48 0 48 -77v-34q0 -75 -48 -74l-32 1q-98 1 -141 60q2 -215 -84 -353q-140 -226 -518 -226q-433 1 -564 302q-67 153 -35 369q21 143 82 281l159 -55q-80 -195 -80 -344q0 -33 4 -65q40 -314 436 -314q410 -1 449 348q12 98 -15 201q-31 120 -98 206l147 139
q66 -162 113 -263q48 -100 144 -101zM712.904 689.989l88.8047 -88.8057q28.8887 -27.8184 1.07031 -55.6367l-93.085 -93.0859q-29.959 -29.958 -58.8477 0l-93.085 92.0156q-27.8184 28.8887 3.20996 59.917l86.665 86.666q32.0986 32.0977 65.2676 -1.07031z" />
    <glyph glyph-name="uniFEE7" unicode="&#x646;" horiz-adv-x="633" arabic-form="initial" 
d="M315.904 1204.99l88.8047 -88.8057q28.8887 -27.8184 1.07031 -55.6367l-93.085 -93.0859q-29.959 -29.958 -58.8477 0l-93.085 92.0156q-27.8184 28.8887 3.20996 59.917l86.665 86.666q32.0986 32.0977 65.2676 -1.07031zM441 80q-94 -80 -356 -80h-87q-50 0 -50 74v34
q0 77 48 77h93q93 0 120 4q116 16 146 88q30 70 18 211q-12 142 -36 240l161 34q38 -108 46 -255q17 -323 -103 -427z" />
    <glyph glyph-name="uniFEE8" unicode="&#x646;" horiz-adv-x="744" arabic-form="medial" 
d="M750 0h-43q-156 0 -276 130q-117 -130 -302 -130h-133q-48 0 -48 74v34q0 77 48 77h137q213 0 217 182l5 225l154 26l9 -251q6 -182 192 -182h40q48 0 48 -77v-34q0 -74 -48 -74zM402.904 1077.99l88.8047 -88.8057q28.8887 -27.8184 1.07031 -55.6367l-93.085 -93.0859
q-29.959 -29.958 -58.8477 0l-93.085 92.0156q-27.8184 28.8887 3.20996 59.917l86.665 86.666q32.0986 32.0977 65.2676 -1.07031z" />
    <glyph glyph-name="uniFEE9" unicode="&#x647;" horiz-adv-x="965" arabic-form="isolated" 
d="M469 661q-201 -204 -200 -340q1 -163 219 -163q203 0 204 154q2 137 -223 349zM489 4q-381 0 -384 293q-2 224 243 475l-39 34l104 127q292 -212 393 -427q56 -118 56 -209q3 -294 -373 -293z" />
    <glyph glyph-name="uniFEEA" unicode="&#x647;" horiz-adv-x="1144" arabic-form="final" 
d="M1151 185q48 0 48 -77v-34q0 -74 -48 -74h-48q-292 0 -346 255q-530 -84 -638 121q-20 38 -22 89q-10 275 586 390q0 17 -14 122l157 38l68 -597q26 -232 210 -232zM739 412q-16 166 -35 285q-426 -79 -441 -197q-11 -84 80 -102q132 -27 396 14z" />
    <glyph glyph-name="uniFEEB" unicode="&#x647;" horiz-adv-x="1220" arabic-form="initial" 
d="M-4 185l184 1q-75 88 -69 227q5 111 69 201q101 143 254 160l-68 36l56 130l355 -225q329 -218 352 -423q11 -100 -36 -186q-68 -122 -235 -132q-212 -12 -461 91q-143 -65 -367 -65h-34q-48 0 -48 74v34q0 77 48 77zM753 536q2 -215 -184 -363q377 -109 408 65
q23 122 -224 298zM604 418q64 142 -11.5 191.5t-143.5 29.5q-66 -20 -115 -82q-55 -69 -65 -143q-22 -159 140 -190q139 70 195 194z" />
    <glyph glyph-name="uniFEEC" unicode="&#x647;" horiz-adv-x="1014" arabic-form="medial" 
d="M-4 185l186 1q-10 319 48 451q82 184 242 183q246 0 246 -316q0 -274 -170 -428q-84 -75 -205 -76q5 -201 100 -361q45 297 258 461q116 89 255 87l65 -2q48 0 48 -77v-34q0 -74 -48 -74h-77q-282 0 -411 -524l-91 -36q-232 184 -258 560h-188q-48 0 -48 74v34
q0 77 48 77zM332 186l38 2q89 5 125 60q69 104 69 264q0 83 -22 117q-23 35 -67 35q-102 0 -128 -169q-26 -165 -15 -309z" />
    <glyph glyph-name="uniFEED" unicode="&#x648;" horiz-adv-x="891" arabic-form="isolated" 
d="M441 548q-135 -4 -180 -183q-53 -205 178 -204q121 0 191 54q0 57 -4 94q-28 244 -185 239zM727 534q64 -132 63 -352q-1 -314 -127 -477q-185 -239 -560 -242h-2l-75 139q553 33 596 438q-59 -48 -208 -49q-92 1 -160 31q-151 68 -150 254q1 107 50 216q35 79 91 137
q114 116 274 83q136 -28 208 -178z" />
    <glyph glyph-name="uniFEEE" unicode="&#x648;" horiz-adv-x="905" arabic-form="final" 
d="M912 185q48 0 48 -77v-34q0 -74 -48 -74h-136q-29 -192 -157 -340q-168 -196 -519 -197h-2l-72 140q524 32 596 398h-176q-200 0 -281 104q-65 84 -51 218q21 197 146 318q80 78 185 77q189 -2 280 -190q54 -111 61 -342zM436 546q-81 -1 -135 -101q-28 -52 -33 -114
q-7 -77 33 -113q37 -34 113 -39q73 -6 217 1q0 367 -195 366z" />
    <glyph glyph-name="uniFEEF" unicode="&#x649;" horiz-adv-x="1470" arabic-form="isolated" 
d="M1042 160l58 1q107 0 168 -25q106 -43 105 -159q1 -122 -76 -224q-177 -237 -579 -238q-205 0 -334 56q-286 125 -287 480q-1 221 116 470l147 -60q-93 -211 -97 -388q-9 -385 463 -382q293 2 448 151q44 42 47 85q3 69 -82 69h-94q-255 4 -270 162q-8 76 19 157
q60 175 194 288q138 118 293 120q54 0 88 -8l-60 -183h-4q-168 0 -302 -162q-57 -69 -68 -139.5t107 -70.5z" />
    <glyph glyph-name="uniFEF0" unicode="&#x649;" horiz-adv-x="1481" arabic-form="final" 
d="M1488 185q48 0 48 -77v-34q0 -74 -48 -74l-125 1l-222 -1q-75 0 -75 -43q0 -21 95 -36q34 -5 62 -11q119 -26 151 -117q30 -84 -13 -188q-64 -151 -269 -230q-155 -59 -374 -59q-205 0 -334 56q-286 124 -287 480q-1 221 116 470l147 -60q-93 -211 -97 -388
q-9 -386 463 -382q227 2 375 72q143 67 139 153q-1 19 -52 30q-64 14 -128 25q-166 30 -167 174q0 77 30 133q58 107 226 107z" />
    <glyph glyph-name="uniFEF1" unicode="&#x64a;" horiz-adv-x="1470" arabic-form="isolated" 
d="M909.657 -523.011l88.8057 -88.8057q27.8184 -27.8184 1.07031 -55.6367l-93.0859 -93.0859q-29.958 -29.958 -59.917 0l-93.085 92.0156q-27.8184 28.8887 4.2793 59.917l86.666 86.666q32.0986 32.0977 65.2666 -1.07031zM588.674 -523.011l88.8047 -88.8057
q27.8193 -27.8184 1.07031 -55.6367l-93.085 -93.0859q-29.959 -29.958 -59.917 0l-93.0859 92.0156q-27.8184 28.8887 4.28027 59.917l86.665 86.666q32.0986 32.0977 65.2676 -1.07031zM1042 160l58 1q107 0 168 -25q106 -43 105 -159q1 -122 -76 -224
q-177 -237 -579 -238q-205 0 -334 56q-286 125 -287 480q-1 221 116 470l147 -60q-93 -211 -97 -388q-9 -385 463 -382q293 2 448 151q44 42 47 85q3 69 -82 69h-94q-255 4 -270 162q-8 76 19 157q60 175 194 288q138 118 293 120q54 0 88 -8l-60 -183h-4q-168 0 -302 -162
q-57 -69 -68 -139.5t107 -70.5z" />
    <glyph glyph-name="uniFEF2" unicode="&#x64a;" horiz-adv-x="1481" arabic-form="final" 
d="M851.657 -793.011l88.8057 -88.8057q27.8184 -27.8184 1.07031 -55.6367l-93.0859 -93.0859q-29.958 -29.958 -59.917 0l-93.085 92.0156q-27.8184 28.8887 4.2793 59.917l86.666 86.666q32.0986 32.0977 65.2666 -1.07031zM530.674 -793.011l88.8047 -88.8057
q27.8193 -27.8184 1.07031 -55.6367l-93.085 -93.0859q-29.959 -29.958 -59.917 0l-93.0859 92.0156q-27.8184 28.8887 4.28027 59.917l86.665 86.666q32.0986 32.0977 65.2676 -1.07031zM1488 185q48 0 48 -77v-34q0 -74 -48 -74l-125 1l-222 -1q-75 0 -75 -43
q0 -21 95 -36q34 -5 62 -11q119 -26 151 -117q30 -84 -13 -188q-64 -151 -269 -230q-155 -59 -374 -59q-205 0 -334 56q-286 124 -287 480q-1 221 116 470l147 -60q-93 -211 -97 -388q-9 -386 463 -382q227 2 375 72q143 67 139 153q-1 19 -52 30q-64 14 -128 25
q-166 30 -167 174q0 77 30 133q58 107 226 107z" />
    <glyph glyph-name="uniFEF3" unicode="&#x64a;" horiz-adv-x="652" arabic-form="initial" 
d="M441 80q-94 -80 -356 -80h-87q-50 0 -50 74v34q0 77 48 77h93q93 0 120 4q116 16 146 88q30 70 18 211q-12 142 -36 240l161 34q38 -108 46 -255q17 -323 -103 -427zM494.657 -209.011l88.8057 -88.8057q27.8184 -27.8184 1.07031 -55.6367l-93.0859 -93.0859
q-29.958 -29.958 -59.917 0l-93.085 92.0156q-27.8184 28.8887 4.2793 59.917l86.666 86.666q32.0986 32.0977 65.2666 -1.07031zM173.674 -209.011l88.8047 -88.8057q27.8193 -27.8184 1.07031 -55.6367l-93.085 -93.0859q-29.959 -29.958 -59.917 0l-93.0859 92.0156
q-27.8184 28.8887 4.28027 59.917l86.665 86.666q32.0986 32.0977 65.2676 -1.07031z" />
    <glyph glyph-name="uniFEF4" unicode="&#x64a;" horiz-adv-x="744" arabic-form="medial" 
d="M750 0h-43q-156 0 -276 130q-117 -130 -302 -130h-133q-48 0 -48 74v34q0 77 48 77h137q213 0 217 182l5 225l154 26l9 -251q6 -182 192 -182h40q48 0 48 -77v-34q0 -74 -48 -74zM497.657 -209.011l88.8057 -88.8057q27.8184 -27.8184 1.07031 -55.6367
l-93.0859 -93.0859q-29.958 -29.958 -59.917 0l-93.085 92.0156q-27.8184 28.8887 4.2793 59.917l86.666 86.666q32.0986 32.0977 65.2666 -1.07031zM176.674 -209.011l88.8047 -88.8057q27.8193 -27.8184 1.07031 -55.6367l-93.085 -93.0859q-29.959 -29.958 -59.917 0
l-93.0859 92.0156q-27.8184 28.8887 4.28027 59.917l86.665 86.666q32.0986 32.0977 65.2676 -1.07031z" />
    <glyph glyph-name=".notdef" horiz-adv-x="1229" 
d="M193 1462h841v-1462h-841v1462zM297 104h633v1254h-633v-1254z" />
    <glyph glyph-name=".null" horiz-adv-x="0" 
 />
    <glyph glyph-name="nonmarkingreturn" unicode="&#xd;" horiz-adv-x="1044" 
 />
    <glyph glyph-name="space" unicode=" " horiz-adv-x="570" 
 />
    <glyph glyph-name="exclam" unicode="!" horiz-adv-x="559" 
d="M153 130.5q0 52.5 38 90.5t89 37q52 1 90 -37t38 -90.5t-38 -90.5t-90 -37q-51 -1 -89 37t-38 90.5zM179 1490h201l-21 -1076h-158z" />
    <glyph glyph-name="quotedbl" unicode="&#x22;" horiz-adv-x="821" 
d="M319 1462l-40 -528h-105l-41 528h186zM688 1462l-41 -528h-104l-41 528h186z" />
    <glyph glyph-name="numbersign" unicode="#" horiz-adv-x="1323" 
d="M981 899l-66 -340h283v-129h-307l-84 -430h-137l84 430h-303l-82 -430h-136l80 430h-262v129h287l68 340h-277v127h299l82 436h139l-82 -436h305l84 436h134l-84 -436h264v-127h-289zM475 559h303l66 340h-303z" />
    <glyph glyph-name="dollar" unicode="$" 
d="M1036 449q0 -136 -102 -224.5t-285 -111.5v-232h-129v223q-112 0 -217 17.5t-172 48.5v156q83 -37 191.5 -60.5t197.5 -23.5v440q-205 65 -287.5 151t-82.5 222q0 131 101.5 215t268.5 102v182h129v-180q184 -5 355 -74l-52 -131q-149 59 -303 70v-434q157 -50 235 -97.5
t115 -109t37 -149.5zM866 436q0 72 -44.5 116.5t-172.5 88.5v-389q217 30 217 184zM319 1057q0 -76 45 -122t156 -87v387q-99 -16 -150 -62.5t-51 -115.5z" />
    <glyph glyph-name="percent" unicode="%" horiz-adv-x="1686" 
d="M242 1026q0 -170 37 -255t120 -85q164 0 164 340q0 338 -164 338q-83 0 -120 -84t-37 -254zM700 1026q0 -228 -76.5 -344.5t-224.5 -116.5q-140 0 -217.5 119t-77.5 342q0 227 74.5 342t220.5 115q145 0 223 -119t78 -338zM1122 440q0 -171 37 -255.5t121 -84.5t124 83.5
t40 256.5q0 171 -40 253.5t-124 82.5t-121 -82.5t-37 -253.5zM1581 440q0 -227 -76.5 -343.5t-224.5 -116.5q-142 0 -218.5 119t-76.5 341q0 227 74.5 342t220.5 115q142 0 221.5 -117.5t79.5 -339.5zM1323 1462l-811 -1462h-147l811 1462h147z" />
    <glyph glyph-name="ampersand" unicode="&#x26;" horiz-adv-x="1495" 
d="M414 1171q0 -69 36 -131.5t123 -150.5q129 75 179.5 138.5t50.5 146.5q0 77 -51.5 125.5t-137.5 48.5q-89 0 -144.5 -48t-55.5 -129zM569 129q241 0 400 154l-437 424q-111 -68 -157 -112.5t-68 -95.5t-22 -116q0 -117 77.5 -185.5t206.5 -68.5zM113 379q0 130 69.5 230
t249.5 202q-85 95 -115.5 144t-48.5 102t-18 110q0 150 98 234t273 84q162 0 255 -83.5t93 -232.5q0 -107 -68 -197.5t-225 -183.5l407 -391q56 62 89.5 145.5t56.5 182.5h168q-68 -286 -205 -434l299 -291h-229l-185 178q-118 -106 -240 -152t-272 -46q-215 0 -333.5 106
t-118.5 293z" />
    <glyph glyph-name="quotesingle" unicode="'" horiz-adv-x="453" 
d="M319 1462l-40 -528h-105l-41 528h186z" />
    <glyph glyph-name="parenleft" unicode="(" horiz-adv-x="606" 
d="M82 561q0 265 77.5 496t223.5 405h162q-144 -193 -216.5 -424t-72.5 -475q0 -240 74 -469t213 -418h-160q-147 170 -224 397t-77 488z" />
    <glyph glyph-name="parenright" unicode=")" horiz-adv-x="606" 
d="M524 561q0 -263 -77.5 -490t-223.5 -395h-160q139 188 213 417.5t74 469.5q0 244 -72.5 475t-216.5 424h162q147 -175 224 -406.5t77 -494.5z" />
    <glyph glyph-name="asterisk" unicode="*" horiz-adv-x="1130" 
d="M657 1556l-43 -395l398 111l26 -182l-381 -31l248 -326l-172 -94l-176 362l-160 -362l-176 94l242 326l-377 31l29 182l391 -111l-43 395h194z" />
    <glyph glyph-name="plus" unicode="+" 
d="M653 791h412v-138h-412v-426h-139v426h-410v138h410v428h139v-428z" />
    <glyph glyph-name="comma" unicode="," horiz-adv-x="502" 
d="M350 238l15 -23q-26 -100 -75 -232.5t-102 -246.5h-125q27 104 59.5 257t45.5 245h182z" />
    <glyph glyph-name="hyphen" unicode="-" horiz-adv-x="659" 
d="M84 473v152h491v-152h-491z" />
    <glyph glyph-name="period" unicode="." horiz-adv-x="561" 
d="M153 130.5q0 52.5 38 90.5t89 37q52 1 90 -37t38 -90.5t-38 -90.5t-90 -37q-51 -1 -89 37t-38 90.5z" />
    <glyph glyph-name="slash" unicode="/" horiz-adv-x="752" 
d="M731 1462l-545 -1462h-166l545 1462h166z" />
    <glyph glyph-name="zero" unicode="0" 
d="M1069 733q0 -379 -119.5 -566t-365.5 -187q-236 0 -359 191.5t-123 561.5q0 382 119 567t363 185q238 0 361.5 -193t123.5 -559zM270 733q0 -319 75 -464.5t239 -145.5q166 0 240.5 147.5t74.5 462.5t-74.5 461.5t-240.5 146.5q-164 0 -239 -144.5t-75 -463.5z" />
    <glyph glyph-name="one" unicode="1" 
d="M715 0h-162v1042q0 130 8 246q-21 -21 -47 -44t-238 -195l-88 114l387 299h140v-1462z" />
    <glyph glyph-name="two" unicode="2" 
d="M1061 0h-961v143l385 387q176 178 232 254t84 148t28 155q0 117 -71 185.5t-197 68.5q-91 0 -172.5 -30t-181.5 -109l-88 113q202 168 440 168q206 0 323 -105.5t117 -283.5q0 -139 -78 -275t-292 -344l-320 -313v-8h752v-154z" />
    <glyph glyph-name="three" unicode="3" 
d="M1006 1118q0 -140 -78.5 -229t-222.5 -119v-8q176 -22 261 -112t85 -236q0 -209 -145 -321.5t-412 -112.5q-116 0 -212.5 17.5t-187.5 61.5v158q95 -47 202.5 -71.5t203.5 -24.5q379 0 379 297q0 266 -418 266h-144v143h146q171 0 271 75.5t100 209.5q0 107 -73.5 168
t-199.5 61q-96 0 -181 -26t-194 -96l-84 112q90 71 207.5 111.5t247.5 40.5q213 0 331 -97.5t118 -267.5z" />
    <glyph glyph-name="four" unicode="4" 
d="M1130 336h-217v-336h-159v336h-711v145l694 989h176v-983h217v-151zM754 487v486q0 143 10 323h-8q-48 -96 -90 -159l-457 -650h545z" />
    <glyph glyph-name="five" unicode="5" 
d="M557 893q231 0 363.5 -114.5t132.5 -313.5q0 -227 -144.5 -356t-398.5 -129q-247 0 -377 79v160q70 -45 174 -70.5t205 -25.5q176 0 273.5 83t97.5 240q0 306 -375 306q-95 0 -254 -29l-86 55l55 684h727v-153h-585l-37 -439q115 23 229 23z" />
    <glyph glyph-name="six" unicode="6" 
d="M117 625q0 431 167.5 644.5t495.5 213.5q113 0 178 -19v-143q-77 25 -176 25q-235 0 -359 -146.5t-136 -460.5h12q110 172 348 172q197 0 310.5 -119t113.5 -323q0 -228 -124.5 -358.5t-336.5 -130.5q-227 0 -360 170.5t-133 474.5zM608 121q142 0 220.5 89.5t78.5 258.5
q0 145 -73 228t-218 83q-90 0 -165 -37t-119.5 -102t-44.5 -135q0 -103 40 -192t113.5 -141t167.5 -52z" />
    <glyph glyph-name="seven" unicode="7" 
d="M285 0l606 1309h-797v153h973v-133l-598 -1329h-184z" />
    <glyph glyph-name="eight" unicode="8" 
d="M584 1483q200 0 317 -93t117 -257q0 -108 -67 -197t-214 -162q178 -85 253 -178.5t75 -216.5q0 -182 -127 -290.5t-348 -108.5q-234 0 -360 102.5t-126 290.5q0 251 306 391q-138 78 -198 168.5t-60 202.5q0 159 117.5 253.5t314.5 94.5zM268 369q0 -120 83.5 -187
t234.5 -67q149 0 232 70t83 192q0 97 -78 172.5t-272 146.5q-149 -64 -216 -141.5t-67 -185.5zM582 1348q-125 0 -196 -60t-71 -160q0 -92 59 -158t218 -132q143 60 202.5 129t59.5 161q0 101 -72.5 160.5t-199.5 59.5z" />
    <glyph glyph-name="nine" unicode="9" 
d="M1061 838q0 -858 -664 -858q-116 0 -184 20v143q80 -26 182 -26q240 0 362.5 148.5t133.5 455.5h-12q-55 -83 -146 -126.5t-205 -43.5q-194 0 -308 116t-114 324q0 228 127.5 360t335.5 132q149 0 260.5 -76.5t171.5 -223t60 -345.5zM569 1341q-143 0 -221 -92t-78 -256
q0 -144 72 -226.5t219 -82.5q91 0 167.5 37t120.5 101t44 134q0 105 -41 194t-114.5 140t-168.5 51z" />
    <glyph glyph-name="colon" unicode=":" horiz-adv-x="559" 
d="M153 810.5q0 52.5 38 90.5t89 37q52 1 90 -37t38 -90.5t-38 -90.5t-90 -37q-51 -1 -89 37t-38 90.5zM153 130.5q0 52.5 38 90.5t89 37q52 1 90 -37t38 -90.5t-38 -90.5t-90 -37q-51 -1 -89 37t-38 90.5z" />
    <glyph glyph-name="semicolon" unicode=";" horiz-adv-x="545" 
d="M350 238l15 -23q-26 -100 -75 -232.5t-102 -246.5h-125q27 104 59.5 257t45.5 245h182zM147 989q0 135 119 135q123 0 123 -135q0 -65 -33 -100t-90 -35q-58 0 -88.5 35t-30.5 100z" />
    <glyph glyph-name="less" unicode="&#x3c;" 
d="M1065 242l-961 422v98l961 479v-149l-782 -371l782 -328v-151z" />
    <glyph glyph-name="equal" unicode="=" 
d="M119 858v137h930v-137h-930zM119 449v137h930v-137h-930z" />
    <glyph glyph-name="greater" unicode="&#x3e;" 
d="M104 393l783 326l-783 373v149l961 -479v-98l-961 -422v151z" />
    <glyph glyph-name="question" unicode="?" horiz-adv-x="879" 
d="M289 403v54q0 117 36 192.5t134 159.5q136 115 171.5 173t35.5 140q0 102 -65.5 157.5t-188.5 55.5q-79 0 -154 -18.5t-172 -67.5l-59 135q189 99 395 99q191 0 297 -94t106 -265q0 -73 -19.5 -128.5t-57.5 -105t-164 -159.5q-101 -86 -133.5 -143t-32.5 -152v-33h-129z
M240 106q0 136 120 136q58 0 89.5 -35t31.5 -101q0 -64 -32 -99.5t-89 -35.5q-52 0 -86 31.5t-34 103.5z" />
    <glyph glyph-name="at" unicode="@" horiz-adv-x="1841" 
d="M1720 729q0 -142 -44 -260t-124 -183t-184 -65q-86 0 -145 52t-70 133h-8q-40 -87 -114.5 -136t-176.5 -49q-150 0 -234.5 102.5t-84.5 278.5q0 204 118 331.5t310 127.5q68 0 154 -12.5t155 -34.5l-25 -470v-22q0 -178 133 -178q91 0 148 107.5t57 279.5q0 181 -74 317
t-210.5 209.5t-313.5 73.5q-223 0 -388 -92.5t-252 -264t-87 -396.5q0 -305 161 -469t464 -164q210 0 436 86v-133q-192 -84 -436 -84q-363 0 -563.5 199.5t-200.5 557.5q0 260 107 463t305 314.5t454 111.5q215 0 382.5 -90.5t259 -257t91.5 -383.5zM686 598
q0 -254 195 -254q207 0 225 313l14 261q-72 20 -157 20q-130 0 -203.5 -90t-73.5 -250z" />
    <glyph glyph-name="A" unicode="A" horiz-adv-x="1296" 
d="M1120 0l-182 465h-586l-180 -465h-172l578 1468h143l575 -1468h-176zM885 618l-170 453q-33 86 -68 211q-22 -96 -63 -211l-172 -453h473z" />
    <glyph glyph-name="B" unicode="B" horiz-adv-x="1327" 
d="M201 1462h413q291 0 421 -87t130 -275q0 -130 -72.5 -214.5t-211.5 -109.5v-10q333 -57 333 -350q0 -196 -132.5 -306t-370.5 -110h-510v1462zM371 836h280q180 0 259 56.5t79 190.5q0 123 -88 177.5t-280 54.5h-250v-479zM371 692v-547h305q177 0 266.5 68.5t89.5 214.5
q0 136 -91.5 200t-278.5 64h-291z" />
    <glyph glyph-name="C" unicode="C" horiz-adv-x="1292" 
d="M827 1331q-241 0 -380.5 -160.5t-139.5 -439.5q0 -287 134.5 -443.5t383.5 -156.5q153 0 349 55v-149q-152 -57 -375 -57q-323 0 -498.5 196t-175.5 557q0 226 84.5 396t244 262t375.5 92q230 0 402 -84l-72 -146q-166 78 -332 78z" />
    <glyph glyph-name="D" unicode="D" horiz-adv-x="1493" 
d="M1368 745q0 -362 -196.5 -553.5t-565.5 -191.5h-405v1462h448q341 0 530 -189t189 -528zM1188 739q0 286 -143.5 431t-426.5 145h-247v-1168h207q304 0 457 149.5t153 442.5z" />
    <glyph glyph-name="E" unicode="E" horiz-adv-x="1139" 
d="M1016 0h-815v1462h815v-151h-645v-471h606v-150h-606v-538h645v-152z" />
    <glyph glyph-name="F" unicode="F" horiz-adv-x="1057" 
d="M371 0h-170v1462h815v-151h-645v-535h606v-151h-606v-625z" />
    <glyph glyph-name="G" unicode="G" horiz-adv-x="1491" 
d="M844 766h497v-711q-116 -37 -236 -56t-278 -19q-332 0 -517 197.5t-185 553.5q0 228 91.5 399.5t263.5 262t403 90.5q234 0 436 -86l-66 -150q-198 84 -381 84q-267 0 -417 -159t-150 -441q0 -296 144.5 -449t424.5 -153q152 0 297 35v450h-327v152z" />
    <glyph glyph-name="H" unicode="H" horiz-adv-x="1511" 
d="M1311 0h-170v688h-770v-688h-170v1462h170v-622h770v622h170v-1462z" />
    <glyph glyph-name="I" unicode="I" horiz-adv-x="571" 
d="M201 0v1462h170v-1462h-170z" />
    <glyph glyph-name="J" unicode="J" horiz-adv-x="547" 
d="M-12 -385q-94 0 -148 27v145q71 -20 148 -20q99 0 150.5 60t51.5 173v1462h170v-1448q0 -190 -96 -294.5t-276 -104.5z" />
    <glyph glyph-name="K" unicode="K" horiz-adv-x="1257" 
d="M1257 0h-200l-533 709l-153 -136v-573h-170v1462h170v-725l663 725h201l-588 -635z" />
    <glyph glyph-name="L" unicode="L" horiz-adv-x="1063" 
d="M201 0v1462h170v-1308h645v-154h-815z" />
    <glyph glyph-name="M" unicode="M" horiz-adv-x="1849" 
d="M848 0l-496 1296h-8q14 -154 14 -366v-930h-157v1462h256l463 -1206h8l467 1206h254v-1462h-170v942q0 162 14 352h-8l-500 -1294h-137z" />
    <glyph glyph-name="N" unicode="N" horiz-adv-x="1544" 
d="M1343 0h-194l-799 1227h-8q16 -216 16 -396v-831h-157v1462h192l797 -1222h8q-2 27 -9 173.5t-5 209.5v839h159v-1462z" />
    <glyph glyph-name="O" unicode="O" horiz-adv-x="1595" 
d="M1470 733q0 -351 -177.5 -552t-493.5 -201q-323 0 -498.5 197.5t-175.5 557.5q0 357 176 553.5t500 196.5q315 0 492 -200t177 -552zM305 733q0 -297 126.5 -450.5t367.5 -153.5q243 0 367 153t124 451q0 295 -123.5 447.5t-365.5 152.5q-243 0 -369.5 -153.5
t-126.5 -446.5z" />
    <glyph glyph-name="P" unicode="P" horiz-adv-x="1233" 
d="M1128 1036q0 -222 -151.5 -341.5t-433.5 -119.5h-172v-575h-170v1462h379q548 0 548 -426zM371 721h153q226 0 327 73t101 234q0 145 -95 216t-296 71h-190v-594z" />
    <glyph glyph-name="Q" unicode="Q" horiz-adv-x="1595" 
d="M1470 733q0 -281 -113 -467t-319 -252l348 -362h-247l-285 330l-55 -2q-323 0 -498.5 197.5t-175.5 557.5q0 357 176 553.5t500 196.5q315 0 492 -200t177 -552zM305 733q0 -297 126.5 -450.5t367.5 -153.5q243 0 367 153t124 451q0 295 -123.5 447.5t-365.5 152.5
q-243 0 -369.5 -153.5t-126.5 -446.5z" />
    <glyph glyph-name="R" unicode="R" horiz-adv-x="1266" 
d="M371 608v-608h-170v1462h401q269 0 397.5 -103t128.5 -310q0 -290 -294 -392l397 -657h-201l-354 608h-305zM371 754h233q180 0 264 71.5t84 214.5q0 145 -85.5 209t-274.5 64h-221v-559z" />
    <glyph glyph-name="S" unicode="S" horiz-adv-x="1124" 
d="M1026 389q0 -193 -140 -301t-380 -108q-260 0 -400 67v164q90 -38 196 -60t210 -22q170 0 256 64.5t86 179.5q0 76 -30.5 124.5t-102 89.5t-217.5 93q-204 73 -291.5 173t-87.5 261q0 169 127 269t336 100q218 0 401 -80l-53 -148q-181 76 -352 76q-135 0 -211 -58
t-76 -161q0 -76 28 -124.5t94.5 -89t203.5 -89.5q230 -82 316.5 -176t86.5 -244z" />
    <glyph glyph-name="T" unicode="T" horiz-adv-x="1133" 
d="M651 0h-170v1311h-463v151h1096v-151h-463v-1311z" />
    <glyph glyph-name="U" unicode="U" horiz-adv-x="1491" 
d="M1305 1462v-946q0 -250 -151 -393t-415 -143t-408.5 144t-144.5 396v942h170v-954q0 -183 100 -281t294 -98q185 0 285 98.5t100 282.5v952h170z" />
    <glyph glyph-name="V" unicode="V" horiz-adv-x="1219" 
d="M1036 1462h183l-527 -1462h-168l-524 1462h180l336 -946q58 -163 92 -317q36 162 94 323z" />
    <glyph glyph-name="W" unicode="W" horiz-adv-x="1896" 
d="M1477 0h-168l-295 979q-21 65 -47 164t-27 119q-22 -132 -70 -289l-286 -973h-168l-389 1462h180l231 -903q48 -190 70 -344q27 183 80 358l262 889h180l275 -897q48 -155 81 -350q19 142 72 346l230 901h180z" />
    <glyph glyph-name="X" unicode="X" horiz-adv-x="1182" 
d="M1174 0h-193l-393 643l-400 -643h-180l486 764l-453 698h188l363 -579l366 579h181l-453 -692z" />
    <glyph glyph-name="Y" unicode="Y" horiz-adv-x="1147" 
d="M573 731l390 731h184l-488 -895v-567h-172v559l-487 903h186z" />
    <glyph glyph-name="Z" unicode="Z" horiz-adv-x="1169" 
d="M1087 0h-1005v133l776 1176h-752v153h959v-133l-776 -1175h798v-154z" />
    <glyph glyph-name="bracketleft" unicode="[" horiz-adv-x="674" 
d="M623 -324h-457v1786h457v-141h-289v-1503h289v-142z" />
    <glyph glyph-name="backslash" unicode="\" horiz-adv-x="752" 
d="M186 1462l547 -1462h-166l-544 1462h163z" />
    <glyph glyph-name="bracketright" unicode="]" horiz-adv-x="674" 
d="M51 -182h289v1503h-289v141h457v-1786h-457v142z" />
    <glyph glyph-name="asciicircum" unicode="^" horiz-adv-x="1110" 
d="M49 551l434 922h99l477 -922h-152l-372 745l-334 -745h-152z" />
    <glyph glyph-name="underscore" unicode="_" horiz-adv-x="918" 
d="M922 -315h-926v131h926v-131z" />
    <glyph glyph-name="grave" unicode="`" horiz-adv-x="1182" 
d="M786 1241h-110q-65 52 -154 148t-129 159v21h203q32 -69 89 -159.5t101 -143.5v-25z" />
    <glyph glyph-name="a" unicode="a" horiz-adv-x="1139" 
d="M850 0l-33 156h-8q-82 -103 -163.5 -139.5t-203.5 -36.5q-163 0 -255.5 84t-92.5 239q0 332 531 348l186 6v68q0 129 -55.5 190.5t-177.5 61.5q-137 0 -310 -84l-51 127q81 44 177.5 69t193.5 25q196 0 290.5 -87t94.5 -279v-748h-123zM475 117q155 0 243.5 85t88.5 238
v99l-166 -7q-198 -7 -285.5 -61.5t-87.5 -169.5q0 -90 54.5 -137t152.5 -47z" />
    <glyph glyph-name="b" unicode="b" horiz-adv-x="1255" 
d="M686 1114q216 0 335.5 -147.5t119.5 -417.5t-120.5 -419.5t-334.5 -149.5q-107 0 -195.5 39.5t-148.5 121.5h-12l-35 -141h-119v1556h166v-378q0 -127 -8 -228h8q116 164 344 164zM662 975q-170 0 -245 -97.5t-75 -328.5t77 -330.5t247 -99.5q153 0 228 111.5t75 320.5
q0 214 -75 319t-232 105z" />
    <glyph glyph-name="c" unicode="c" horiz-adv-x="975" 
d="M614 -20q-238 0 -368.5 146.5t-130.5 414.5q0 275 132.5 425t377.5 150q79 0 158 -17t124 -40l-51 -141q-55 22 -120 36.5t-115 14.5q-334 0 -334 -426q0 -202 81.5 -310t241.5 -108q137 0 281 59v-147q-110 -57 -277 -57z" />
    <glyph glyph-name="d" unicode="d" horiz-adv-x="1255" 
d="M922 147h-9q-115 -167 -344 -167q-215 0 -334.5 147t-119.5 418t120 421t334 150q223 0 342 -162h13l-7 79l-4 77v446h166v-1556h-135zM590 119q170 0 246.5 92.5t76.5 298.5v35q0 233 -77.5 332.5t-247.5 99.5q-146 0 -223.5 -113.5t-77.5 -320.5q0 -210 77 -317
t226 -107z" />
    <glyph glyph-name="e" unicode="e" horiz-adv-x="1149" 
d="M639 -20q-243 0 -383.5 148t-140.5 411q0 265 130.5 421t350.5 156q206 0 326 -135.5t120 -357.5v-105h-755q5 -193 97.5 -293t260.5 -100q177 0 350 74v-148q-88 -38 -166.5 -54.5t-189.5 -16.5zM594 977q-132 0 -210.5 -86t-92.5 -238h573q0 157 -70 240.5t-200 83.5z
" />
    <glyph glyph-name="f" unicode="f" horiz-adv-x="694" 
d="M670 967h-279v-967h-166v967h-196v75l196 60v61q0 404 353 404q87 0 204 -35l-43 -133q-96 31 -164 31q-94 0 -139 -62.5t-45 -200.5v-71h279v-129z" />
    <glyph glyph-name="g" unicode="g" horiz-adv-x="1122" 
d="M1073 1096v-105l-203 -24q28 -35 50 -91.5t22 -127.5q0 -161 -110 -257t-302 -96q-49 0 -92 8q-106 -56 -106 -141q0 -45 37 -66.5t127 -21.5h194q178 0 273.5 -75t95.5 -218q0 -182 -146 -277.5t-426 -95.5q-215 0 -331.5 80t-116.5 226q0 100 64 173t180 99
q-42 19 -70.5 59t-28.5 93q0 60 32 105t101 87q-85 35 -138.5 119t-53.5 192q0 180 108 277.5t306 97.5q86 0 155 -20h379zM199 -184q0 -89 75 -135t215 -46q209 0 309.5 62.5t100.5 169.5q0 89 -55 123.5t-207 34.5h-199q-113 0 -176 -54t-63 -155zM289 745q0 -115 65 -174
t181 -59q243 0 243 236q0 247 -246 247q-117 0 -180 -63t-63 -187z" />
    <glyph glyph-name="h" unicode="h" horiz-adv-x="1257" 
d="M926 0v709q0 134 -61 200t-191 66q-173 0 -252.5 -94t-79.5 -308v-573h-166v1556h166v-471q0 -85 -8 -141h10q49 79 139.5 124.5t206.5 45.5q201 0 301.5 -95.5t100.5 -303.5v-715h-166z" />
    <glyph glyph-name="i" unicode="i" horiz-adv-x="518" 
d="M342 0h-166v1096h166v-1096zM162 1393q0 57 28 83.5t70 26.5q40 0 69 -27t29 -83t-29 -83.5t-69 -27.5q-42 0 -70 27.5t-28 83.5z" />
    <glyph glyph-name="j" unicode="j" horiz-adv-x="518" 
d="M43 -492q-95 0 -154 25v135q69 -20 136 -20q78 0 114.5 42.5t36.5 129.5v1276h166v-1264q0 -324 -299 -324zM162 1393q0 57 28 83.5t70 26.5q40 0 69 -27t29 -83t-29 -83.5t-69 -27.5q-42 0 -70 27.5t-28 83.5z" />
    <glyph glyph-name="k" unicode="k" horiz-adv-x="1075" 
d="M340 561q43 61 131 160l354 375h197l-444 -467l475 -629h-201l-387 518l-125 -108v-410h-164v1556h164v-825q0 -55 -8 -170h8z" />
    <glyph glyph-name="l" unicode="l" horiz-adv-x="518" 
d="M342 0h-166v1556h166v-1556z" />
    <glyph glyph-name="m" unicode="m" horiz-adv-x="1905" 
d="M1573 0v713q0 131 -56 196.5t-174 65.5q-155 0 -229 -89t-74 -274v-612h-166v713q0 131 -56 196.5t-175 65.5q-156 0 -228.5 -93.5t-72.5 -306.5v-575h-166v1096h135l27 -150h8q47 80 132.5 125t191.5 45q257 0 336 -186h8q49 86 142 136t212 50q186 0 278.5 -95.5
t92.5 -305.5v-715h-166z" />
    <glyph glyph-name="n" unicode="n" horiz-adv-x="1257" 
d="M926 0v709q0 134 -61 200t-191 66q-172 0 -252 -93t-80 -307v-575h-166v1096h135l27 -150h8q51 81 143 125.5t205 44.5q198 0 298 -95.5t100 -305.5v-715h-166z" />
    <glyph glyph-name="o" unicode="o" horiz-adv-x="1237" 
d="M1122 549q0 -268 -135 -418.5t-373 -150.5q-147 0 -261 69t-176 198t-62 302q0 268 134 417.5t372 149.5q230 0 365.5 -153t135.5 -414zM287 549q0 -210 84 -320t247 -110t247.5 109.5t84.5 320.5q0 209 -84.5 317.5t-249.5 108.5q-163 0 -246 -107t-83 -319z" />
    <glyph glyph-name="p" unicode="p" horiz-adv-x="1255" 
d="M686 -20q-107 0 -195.5 39.5t-148.5 121.5h-12q12 -96 12 -182v-451h-166v1588h135l23 -150h8q64 90 149 130t195 40q218 0 336.5 -149t118.5 -418q0 -270 -120.5 -419.5t-334.5 -149.5zM662 975q-168 0 -243 -93t-77 -296v-37q0 -231 77 -330.5t247 -99.5
q142 0 222.5 115t80.5 317q0 205 -80.5 314.5t-226.5 109.5z" />
    <glyph glyph-name="q" unicode="q" horiz-adv-x="1255" 
d="M590 119q166 0 242 89t81 300v37q0 230 -78 331t-247 101q-146 0 -223.5 -113.5t-77.5 -320.5t76.5 -315.5t226.5 -108.5zM565 -20q-212 0 -331 149t-119 416q0 269 120 420t334 151q225 0 346 -170h9l24 150h131v-1588h-166v469q0 100 11 170h-13q-115 -167 -346 -167z
" />
    <glyph glyph-name="r" unicode="r" horiz-adv-x="836" 
d="M676 1116q73 0 131 -12l-23 -154q-68 15 -120 15q-133 0 -227.5 -108t-94.5 -269v-588h-166v1096h137l19 -203h8q61 107 147 165t189 58z" />
    <glyph glyph-name="s" unicode="s" horiz-adv-x="977" 
d="M883 299q0 -153 -114 -236t-320 -83q-218 0 -340 69v154q79 -40 169.5 -63t174.5 -23q130 0 200 41.5t70 126.5q0 64 -55.5 109.5t-216.5 107.5q-153 57 -217.5 99.5t-96 96.5t-31.5 129q0 134 109 211.5t299 77.5q177 0 346 -72l-59 -135q-165 68 -299 68
q-118 0 -178 -37t-60 -102q0 -44 22.5 -75t72.5 -59t192 -81q195 -71 263.5 -143t68.5 -181z" />
    <glyph glyph-name="t" unicode="t" horiz-adv-x="723" 
d="M530 117q44 0 85 6.5t65 13.5v-127q-27 -13 -79.5 -21.5t-94.5 -8.5q-318 0 -318 335v652h-157v80l157 69l70 234h96v-254h318v-129h-318v-645q0 -99 47 -152t129 -53z" />
    <glyph glyph-name="u" unicode="u" horiz-adv-x="1257" 
d="M332 1096v-711q0 -134 61 -200t191 -66q172 0 251.5 94t79.5 307v576h166v-1096h-137l-24 147h-9q-51 -81 -141.5 -124t-206.5 -43q-200 0 -299.5 95t-99.5 304v717h168z" />
    <glyph glyph-name="v" unicode="v" horiz-adv-x="1026" 
d="M416 0l-416 1096h178l236 -650q80 -228 94 -296h8q11 53 69.5 219.5t262.5 726.5h178l-416 -1096h-194z" />
    <glyph glyph-name="w" unicode="w" horiz-adv-x="1593" 
d="M1071 0l-201 643q-19 59 -71 268h-8q-40 -175 -70 -270l-207 -641h-192l-299 1096h174q106 -413 161.5 -629t63.5 -291h8q11 57 35.5 147.5t42.5 143.5l201 629h180l196 -629q56 -172 76 -289h8q4 36 21.5 111t208.5 807h172l-303 -1096h-197z" />
    <glyph glyph-name="x" unicode="x" horiz-adv-x="1073" 
d="M440 561l-381 535h189l289 -420l288 420h187l-381 -535l401 -561h-188l-307 444l-310 -444h-188z" />
    <glyph glyph-name="y" unicode="y" horiz-adv-x="1032" 
d="M2 1096h178l240 -625q79 -214 98 -309h8q13 51 54.5 174.5t271.5 759.5h178l-471 -1248q-70 -185 -163.5 -262.5t-229.5 -77.5q-76 0 -150 17v133q55 -12 123 -12q171 0 244 192l61 156z" />
    <glyph glyph-name="z" unicode="z" horiz-adv-x="958" 
d="M877 0h-795v113l598 854h-561v129h743v-129l-590 -838h605v-129z" />
    <glyph glyph-name="braceleft" unicode="{" horiz-adv-x="776" 
d="M475 12q0 -102 58.5 -148t171.5 -48v-140q-190 2 -294 87t-104 239v303q0 104 -63 148.5t-183 44.5v141q130 2 188 48t58 142v306q0 155 108 241t290 86v-139q-230 -6 -230 -199v-295q0 -215 -223 -254v-12q223 -39 223 -254v-297z" />
    <glyph glyph-name="bar" unicode="|" horiz-adv-x="1128" 
d="M494 1556h141v-2052h-141v2052z" />
    <glyph glyph-name="braceright" unicode="}" horiz-adv-x="776" 
d="M522 575q-223 39 -223 254v295q0 193 -227 199v139q184 0 289.5 -87t105.5 -240v-306q0 -97 59 -142.5t189 -47.5v-141q-122 0 -185 -44.5t-63 -148.5v-303q0 -153 -102.5 -238.5t-292.5 -87.5v140q111 2 169 48t58 148v297q0 114 55 174t168 80v12z" />
    <glyph glyph-name="asciitilde" unicode="~" 
d="M338 713q-53 0 -116.5 -33.5t-117.5 -87.5v151q100 109 244 109q68 0 124.5 -14t145.5 -52q66 -28 115 -41.5t96 -13.5q54 0 118 32t118 89v-150q-102 -110 -244 -110q-72 0 -135 16.5t-135 48.5q-75 32 -120 44t-93 12z" />
    <glyph glyph-name="uni00A0" unicode="&#xa0;" horiz-adv-x="583" 
 />
    <glyph glyph-name="exclamdown" unicode="&#xa1;" horiz-adv-x="547" 
d="M219 684h105l51 -1057h-207zM393 983q0 -135 -121 -135q-60 0 -90 35.5t-30 99.5q0 63 31.5 99t88.5 36q51 0 86 -32t35 -103z" />
    <glyph glyph-name="cent" unicode="&#xa2;" 
d="M971 240q-105 -54 -252 -60v-200h-133v206q-203 32 -299.5 168.5t-96.5 386.5q0 508 396 570v172h135v-164q75 -3 146 -19.5t120 -39.5l-49 -140q-133 51 -242 51q-172 0 -253 -105.5t-81 -322.5q0 -212 79.5 -313.5t246.5 -101.5q141 0 283 59v-147z" />
    <glyph glyph-name="sterling" unicode="&#xa3;" 
d="M682 1481q190 0 360 -84l-61 -133q-154 77 -297 77q-123 0 -185.5 -62t-62.5 -202v-295h422v-127h-422v-221q0 -100 -32.5 -168t-106.5 -112h795v-154h-1029v141q205 47 205 291v223h-198v127h198v316q0 178 112 280.5t302 102.5z" />
    <glyph glyph-name="currency" unicode="&#xa4;" 
d="M184 723q0 122 74 229l-135 140l94 92l135 -133q104 73 234 73q127 0 229 -73l137 133l95 -92l-134 -138q74 -113 74 -231q0 -131 -74 -234l131 -135l-92 -92l-137 133q-102 -71 -229 -71q-134 0 -234 73l-135 -133l-92 92l133 136q-74 107 -74 231zM313 723
q0 -112 78.5 -192t194.5 -80t195 79.5t79 192.5q0 114 -80 195t-194 81q-116 0 -194.5 -82t-78.5 -194z" />
    <glyph glyph-name="yen" unicode="&#xa5;" 
d="M584 735l379 727h174l-416 -770h262v-127h-317v-170h317v-127h-317v-268h-164v268h-316v127h316v170h-316v127h256l-411 770h178z" />
    <glyph glyph-name="brokenbar" unicode="&#xa6;" horiz-adv-x="1128" 
d="M494 1556h141v-776h-141v776zM494 281h141v-777h-141v777z" />
    <glyph glyph-name="section" unicode="&#xa7;" horiz-adv-x="1057" 
d="M139 809q0 86 43 154.5t121 105.5q-74 40 -116 95.5t-42 140.5q0 121 103.5 190.5t300.5 69.5q94 0 173.5 -14.5t176.5 -53.5l-53 -131q-98 39 -165.5 52.5t-143.5 13.5q-116 0 -174 -29.5t-58 -93.5q0 -60 61.5 -102t215.5 -97q186 -68 261 -143.5t75 -182.5
q0 -90 -41 -160.5t-115 -111.5q153 -81 153 -227q0 -140 -117 -216.5t-329 -76.5q-218 0 -346 65v148q78 -37 175 -59.5t179 -22.5q134 0 204.5 38t70.5 109q0 46 -24 75t-78 58t-169 72q-142 52 -209 97t-100 102t-33 135zM285 829q0 -77 66 -129.5t233 -113.5l49 -19
q137 80 137 191q0 83 -73.5 139t-258.5 113q-68 -19 -110.5 -69t-42.5 -112z" />
    <glyph glyph-name="dieresis" unicode="&#xa8;" horiz-adv-x="1182" 
d="M309 1393q0 52 26.5 75t63.5 23q38 0 65.5 -23t27.5 -75q0 -50 -27.5 -74.5t-65.5 -24.5q-37 0 -63.5 24.5t-26.5 74.5zM690 1393q0 52 26.5 75t63.5 23t64.5 -23t27.5 -75q0 -50 -27.5 -74.5t-64.5 -24.5t-63.5 24.5t-26.5 74.5z" />
    <glyph glyph-name="copyright" unicode="&#xa9;" horiz-adv-x="1704" 
d="M893 1059q-125 0 -192.5 -87t-67.5 -241q0 -168 63.5 -249t194.5 -81q86 0 211 45v-124q-48 -20 -98.5 -34t-120.5 -14q-194 0 -298 120.5t-104 336.5q0 209 110.5 332t301.5 123q128 0 246 -60l-58 -118q-108 51 -188 51zM100 731q0 200 100 375t275 276t377 101
q200 0 375 -100t276 -275t101 -377q0 -197 -97 -370t-272 -277t-383 -104q-207 0 -382 103.5t-272.5 276.5t-97.5 371zM205 731q0 -173 87 -323.5t237.5 -237t322.5 -86.5q174 0 323 87t236.5 235.5t87.5 324.5q0 174 -87 323t-235.5 236.5t-324.5 87.5q-174 0 -323 -87
t-236.5 -235.5t-87.5 -324.5z" />
    <glyph glyph-name="ordfeminine" unicode="&#xaa;" horiz-adv-x="725" 
d="M532 801l-24 84q-92 -97 -232 -97q-95 0 -150.5 49.5t-55.5 151.5t77 154.5t242 58.5l117 4v39q0 133 -148 133q-100 0 -204 -51l-43 96q114 56 247 56q130 0 198.5 -52.5t68.5 -173.5v-452h-93zM193 989q0 -100 112 -100q201 0 201 180v49l-98 -4q-112 -4 -163.5 -32.5
t-51.5 -92.5z" />
    <glyph glyph-name="guillemotleft" unicode="&#xab;" horiz-adv-x="966" 
d="M288 5q-166 261 -166 493.5t165 494.5h150l-30 -52q-126 -222 -126 -441q0 -221 126 -442l30 -53h-149zM686 5q-166 261 -166 493.5t166 494.5h149l-29 -52q-127 -222 -127 -441q0 -221 126 -442l30 -53h-149z" />
    <glyph glyph-name="logicalnot" unicode="&#xac;" 
d="M1065 791v-527h-137v389h-824v138h961z" />
    <glyph glyph-name="uni00AD" unicode="&#xad;" horiz-adv-x="659" 
d="M84 473v152h491v-152h-491z" />
    <glyph glyph-name="registered" unicode="&#xae;" horiz-adv-x="1704" 
d="M723 762h108q80 0 128.5 41.5t48.5 105.5q0 75 -43 107.5t-136 32.5h-106v-287zM1157 913q0 -80 -42.5 -141.5t-119.5 -91.5l238 -395h-168l-207 354h-135v-354h-148v891h261q166 0 243.5 -65t77.5 -198zM100 731q0 200 100 375t275 276t377 101q200 0 375 -100t276 -275
t101 -377q0 -197 -97 -370t-272 -277t-383 -104q-207 0 -382 103.5t-272.5 276.5t-97.5 371zM205 731q0 -173 87 -323.5t237.5 -237t322.5 -86.5q174 0 323 87t236.5 235.5t87.5 324.5q0 174 -87 323t-235.5 236.5t-324.5 87.5q-174 0 -323 -87t-236.5 -235.5t-87.5 -324.5z
" />
    <glyph glyph-name="overscore" unicode="&#xaf;" horiz-adv-x="1024" 
d="M1030 1556h-1036v127h1036v-127z" />
    <glyph glyph-name="degree" unicode="&#xb0;" horiz-adv-x="877" 
d="M127 1171q0 130 90.5 221t220.5 91t221 -90.5t91 -221.5q0 -84 -41 -155.5t-114 -113.5t-157 -42q-130 0 -220.5 90t-90.5 221zM242 1171q0 -82 58.5 -139t139.5 -57q80 0 137.5 56.5t57.5 139.5q0 84 -56.5 140.5t-138.5 56.5q-83 0 -140.5 -57t-57.5 -140z" />
    <glyph glyph-name="plusminus" unicode="&#xb1;" 
d="M653 791h412v-138h-412v-426h-139v426h-410v138h410v428h139v-428zM104 1v138h961v-138h-961z" />
    <glyph glyph-name="twosuperior" unicode="&#xb2;" horiz-adv-x="711" 
d="M653 586h-604v104l236 230q89 86 130 134.5t57.5 86.5t16.5 92q0 68 -40 102.5t-103 34.5q-52 0 -101 -19t-118 -69l-66 88q131 111 283 111q132 0 205.5 -65t73.5 -177q0 -80 -44.5 -155.5t-191.5 -213.5l-174 -165h440v-119z" />
    <glyph glyph-name="threesuperior" unicode="&#xb3;" horiz-adv-x="711" 
d="M627 1255q0 -80 -41 -131.5t-109 -74.5q176 -47 176 -209q0 -128 -92 -199.5t-260 -71.5q-152 0 -268 56v123q147 -68 270 -68q211 0 211 162q0 145 -231 145h-117v107h119q103 0 152.5 39.5t49.5 107.5q0 61 -40 95t-107 34q-66 0 -122 -21.5t-112 -56.5l-69 90
q63 45 133 72t164 27q136 0 214.5 -59.5t78.5 -166.5z" />
    <glyph glyph-name="acute" unicode="&#xb4;" horiz-adv-x="1182" 
d="M393 1266q48 62 103.5 150t87.5 153h202v-21q-44 -65 -131 -160t-151 -147h-111v25z" />
    <glyph glyph-name="mu" unicode="&#xb5;" horiz-adv-x="1268" 
d="M342 381q0 -262 254 -262q171 0 250.5 94.5t79.5 306.5v576h166v-1096h-136l-26 147h-10q-111 -167 -340 -167q-150 0 -238 92h-10q10 -84 10 -244v-320h-166v1588h166v-715z" />
    <glyph glyph-name="paragraph" unicode="&#xb6;" horiz-adv-x="1341" 
d="M1120 -260h-114v1712h-213v-1712h-115v819q-62 -18 -146 -18q-216 0 -317.5 125t-101.5 376q0 260 109 387t341 127h557v-1816z" />
    <glyph glyph-name="periodcentered" unicode="&#xb7;" horiz-adv-x="545" 
d="M152 723q0 66 31 100.5t87 34.5q58 0 90.5 -34.5t32.5 -100.5q0 -65 -33 -100t-90 -35q-51 0 -84.5 31.5t-33.5 103.5z" />
    <glyph glyph-name="cedilla" unicode="&#xb8;" horiz-adv-x="465" 
d="M436 -289q0 -97 -76.5 -150t-226.5 -53q-51 0 -96 9v106q45 -8 104 -8q79 0 119.5 20t40.5 74q0 43 -39.5 69.5t-148.5 43.5l88 178h110l-55 -115q180 -39 180 -174z" />
    <glyph glyph-name="onesuperior" unicode="&#xb9;" horiz-adv-x="711" 
d="M338 1462h143v-876h-133v579q0 91 6 181q-22 -22 -49 -44.5t-162 -117.5l-67 96z" />
    <glyph glyph-name="ordmasculine" unicode="&#xba;" horiz-adv-x="768" 
d="M702 1135q0 -164 -85.5 -255.5t-235.5 -91.5q-146 0 -230.5 93t-84.5 254q0 163 84 253.5t235 90.5q152 0 234.5 -91t82.5 -253zM188 1135q0 -122 45.5 -183t149.5 -61q105 0 151 61t46 183q0 123 -46 182t-151 59q-103 0 -149 -59t-46 -182z" />
    <glyph glyph-name="guillemotright" unicode="&#xbb;" horiz-adv-x="966" 
d="M679 993q165 -262 165 -494.5t-165 -493.5h-150l30 53q126 220 126 442q0 219 -126 441l-30 52h150zM280 993q166 -262 166 -494.5t-166 -493.5h-149l30 53q126 220 126 442q0 219 -126 441l-30 52h149z" />
    <glyph glyph-name="onequarter" unicode="&#xbc;" horiz-adv-x="1597" 
d="M1298 1462l-903 -1462h-143l903 1462h143zM337 1462h143v-876h-133v579q0 91 6 181q-22 -22 -49 -44.5t-162 -117.5l-67 96zM1489 203h-125v-202h-145v202h-402v101l408 579h139v-563h125v-117zM1219 320v195q0 134 6 209q-5 -12 -17 -31.5t-27 -42l-30 -45t-26 -39.5
l-168 -246h262z" />
    <glyph glyph-name="onehalf" unicode="&#xbd;" horiz-adv-x="1597" 
d="M1230 1462l-903 -1462h-143l903 1462h143zM308 1462h143v-876h-133v579q0 91 6 181q-22 -22 -49 -44.5t-162 -117.5l-67 96zM1499 1h-604v104l236 230q89 86 130 134.5t57.5 86.5t16.5 92q0 68 -40 102.5t-103 34.5q-52 0 -101 -19t-118 -69l-66 88q131 111 283 111
q132 0 205.5 -65t73.5 -177q0 -80 -44.5 -155.5t-191.5 -213.5l-174 -165h440v-119z" />
    <glyph glyph-name="threequarters" unicode="&#xbe;" horiz-adv-x="1597" 
d="M620 1255q0 -80 -41 -131.5t-109 -74.5q176 -47 176 -209q0 -128 -92 -199.5t-260 -71.5q-152 0 -268 56v123q147 -68 270 -68q211 0 211 162q0 145 -231 145h-117v107h119q103 0 152.5 39.5t49.5 107.5q0 61 -40 95t-107 34q-66 0 -122 -21.5t-112 -56.5l-69 90
q63 45 133 72t164 27q136 0 214.5 -59.5t78.5 -166.5zM1390 1462l-903 -1462h-143l903 1462h143zM1569 203h-125v-202h-145v202h-402v101l408 579h139v-563h125v-117zM1299 320v195q0 134 6 209q-5 -12 -17 -31.5t-27 -42l-30 -45t-26 -39.5l-168 -246h262z" />
    <glyph glyph-name="questiondown" unicode="&#xbf;" horiz-adv-x="879" 
d="M590 684v-51q0 -122 -37.5 -196t-134.5 -158q-121 -106 -151.5 -143.5t-43 -76t-12.5 -94.5q0 -100 66 -156.5t188 -56.5q80 0 155 19t173 67l59 -135q-197 -96 -395 -96q-190 0 -298 93t-108 263q0 70 17.5 122.5t49.5 97t76.5 85.5t98.5 88q101 88 133.5 146t32.5 151
v31h131zM639 983q0 -135 -121 -135q-59 0 -90 34.5t-31 100.5q0 64 33 99.5t88 35.5q51 0 86 -32t35 -103z" />
    <glyph glyph-name="uni02BC" unicode="&#x2bc;" horiz-adv-x="348" 
d="M309 1462l15 -22q-26 -100 -75 -232.5t-102 -246.5h-122q70 285 102 501h182z" />
    <glyph glyph-name="circumflex" unicode="&#x2c6;" horiz-adv-x="1212" 
d="M268 1264q127 136 178 200t74 105h166q22 -42 76.5 -108.5t179.5 -196.5v-23h-119q-88 55 -221 186q-136 -134 -219 -186h-115v23z" />
    <glyph glyph-name="caron" unicode="&#x2c7;" horiz-adv-x="1212" 
d="M268 1569h115q114 -74 219 -189q130 130 221 189h119v-25l-66 -68q-144 -148 -190 -235h-166q-23 41 -74 104t-178 199v25z" />
    <glyph glyph-name="macron" unicode="&#x2c9;" horiz-adv-x="1202" 
d="M301 1378h600v-137h-600v137z" />
    <glyph glyph-name="breve" unicode="&#x2d8;" horiz-adv-x="1212" 
d="M598 1241q-140 0 -218 68.5t-87 199.5h104q6 -49 26.5 -77t57 -41t121.5 -13q101 0 149 32t58 99h104q-10 -126 -93.5 -197t-221.5 -71z" />
    <glyph glyph-name="dotaccent" unicode="&#x2d9;" horiz-adv-x="518" 
d="M162 1393q0 57 28 83.5t70 26.5q40 0 69 -27t29 -83t-29 -83.5t-69 -27.5q-42 0 -70 27.5t-28 83.5z" />
    <glyph glyph-name="ring" unicode="&#x2da;" horiz-adv-x="1182" 
d="M813 1458q0 -98 -61.5 -157.5t-163.5 -59.5q-101 0 -161 58.5t-60 156.5t60.5 155.5t160.5 57.5q101 0 163 -59.5t62 -151.5zM705 1456q0 56 -33 86.5t-84 30.5t-84 -30.5t-33 -86.5t30 -86.5t87 -30.5q52 0 84.5 30.5t32.5 86.5z" />
    <glyph glyph-name="ogonek" unicode="&#x2db;" horiz-adv-x="403" 
d="M178 -238q0 -94 94 -94q42 0 97 13v-109q-65 -18 -125 -18q-207 0 -207 188q0 70 43 137.5t115 120.5h120q-68 -66 -102.5 -120.5t-34.5 -117.5z" />
    <glyph glyph-name="tilde" unicode="&#x2dc;" horiz-adv-x="1212" 
d="M788 1243q-43 0 -84 18.5t-80.5 41t-76 41t-70.5 18.5q-50 0 -75.5 -30t-39.5 -91h-98q13 121 70.5 189.5t148.5 68.5q46 0 89 -18.5t82 -41t75 -41t68 -18.5q49 0 73 29.5t39 91.5h99q-13 -121 -69.5 -189.5t-150.5 -68.5z" />
    <glyph glyph-name="hungarumlaut" unicode="&#x2dd;" horiz-adv-x="1182" 
d="M231 1266q36 48 91 141t86 162h186v-21q-37 -63 -122.5 -161t-143.5 -146h-97v25zM588 1266q49 68 99.5 156.5t76.5 146.5h186v-21q-37 -63 -122.5 -161t-143.5 -146h-96v25z" />
    <glyph glyph-name="uni02F3" unicode="&#x2f3;" horiz-adv-x="682" 
d="M565 -338q0 -97 -62.5 -157t-164.5 -60q-101 0 -161 58.5t-60 156.5t60 156.5t161 58.5t164 -59t63 -154zM455 -340q0 57 -33 87t-84 30t-84 -30t-33 -87q0 -56 30 -86.5t87 -30.5q53 0 85 30.5t32 86.5z" />
    <glyph glyph-name="hook" unicode="&#x309;" horiz-adv-x="0" 
d="M-397 1495q0 -140 -166 -174l-10 -113h-105l-12 176q86 14 125 39t39 68t-33.5 63.5t-106.5 20.5q-62 0 -94 -6v100q38 10 107 10q256 0 256 -184z" />
    <glyph glyph-name="uni030F" unicode="&#x30f;" horiz-adv-x="0" 
d="M-332 1241h-96q-52 42 -140.5 143t-125.5 164v21h186q28 -61 77.5 -148t98.5 -155v-25zM-688 1241h-96q-56 44 -143 144t-124 163v21h187q28 -61 77.5 -148t98.5 -155v-25z" />
    <glyph glyph-name="dotbelow" unicode="&#x323;" horiz-adv-x="0" 
d="M-709 -242q0 57 29.5 84t71.5 27q40 0 69 -27t29 -84q0 -55 -29 -82.5t-69 -27.5q-42 0 -71.5 27.5t-29.5 82.5z" />
    <glyph glyph-name="tonos" unicode="&#x384;" horiz-adv-x="1182" 
d="M508 1270q27 72 53.5 185.5t38.5 195.5h184v-23q-18 -74 -72.5 -192.5t-103.5 -194.5h-100v29z" />
    <glyph glyph-name="afii57388" unicode="&#x60c;" horiz-adv-x="543" 
d="M280 0q-130 0 -130 117v71q0 250 225 423l68 -34q-148 -162 -151 -312h16q98 0 98 -112v-37q0 -116 -112 -116h-14z" />
    <glyph glyph-name="uni0615" unicode="&#x615;" horiz-adv-x="6" 
d="M504 1551h84q76 0 114 13q68 24 71 79q3 52 -41 58q-36 7 -97 -33q-82 -56 -131 -117zM869 1654q0 -196 -254 -197h-315v94h91v452h95v-383q66 95 173 148q93 46 165 -7q45 -34 45 -107z" />
    <glyph glyph-name="uni061B" unicode="&#x61b;" horiz-adv-x="543" 
d="M153 130.5q0 52.5 38 90.5t89 37q52 1 90 -37t38 -90.5t-38 -90.5t-90 -37q-51 -1 -89 37t-38 90.5zM280 418q-130 0 -130 117v71q0 250 225 422l68 -33q-148 -163 -151 -313h16q98 0 98 -112v-42q0 -110 -112 -110h-14z" />
    <glyph glyph-name="uni061F" unicode="&#x61f;" horiz-adv-x="1025" 
d="M458 130.5q0 52.5 38 90.5t89 37q52 1 90 -37t38 -90.5t-38 -90.5t-90 -37q-51 -1 -89 37t-38 90.5zM494 425v71q0 75 -13 114q-20 55 -102 135l-93 91q-170 166 -170 296q0 124 52 207q122 197 381 197q201 0 395 -115l-69 -159q-324 169 -486 34q-72 -61 -72 -159
t117 -213l95 -94q99 -98 125 -161q27 -69 27 -170v-74h-187z" />
    <glyph glyph-name="uni0621" unicode="&#x621;" horiz-adv-x="778" 
d="M91 -9v148l211 84q-210 62 -207 268q3 172 142.5 257t356.5 37v-155q-164 45 -253.5 -0.5t-88.5 -147.5q0 -130 163 -158q38 -7 88 -5t184 62v-155z" />
    <glyph glyph-name="uni0627" unicode="&#x627;" horiz-adv-x="448" 
d="M138 1462l173 75v-1535h-130z" />
    <glyph glyph-name="uni0628" unicode="&#x628;" horiz-adv-x="1842" 
d="M920 1q-353 -1 -522 70q-275 115 -301 409q-11 116 34 272l142 -38q-23 -147 -20 -207q15 -295 448 -316q67 -3 232 -2.5t195 3.5q431 41 444 144q9 69 -4.5 201.5t-39.5 214.5l174 89q29 -119 43 -259q24 -254 -29 -370q-98 -209 -796 -211zM979.904 -209.011
l88.8047 -88.8057q28.8887 -27.8184 1.07031 -55.6367l-93.085 -93.0859q-29.959 -29.958 -58.8477 0l-93.085 92.0156q-27.8184 28.8887 3.20996 59.917l86.665 86.666q32.0986 32.0977 65.2676 -1.07031z" />
    <glyph glyph-name="uni0629" unicode="&#x629;" horiz-adv-x="965" 
d="M469 661q-201 -204 -200 -340q1 -163 219 -163q203 0 204 154q2 137 -223 349zM489 4q-381 0 -384 293q-2 224 243 475l-39 34l104 127q292 -212 393 -427q56 -118 56 -209q3 -294 -373 -293zM639.657 1401.99l88.8057 -88.8057q27.8184 -27.8184 1.07031 -55.6367
l-93.0859 -93.0859q-29.958 -29.958 -59.917 0l-93.085 92.0156q-27.8184 28.8887 4.2793 59.917l86.666 86.666q32.0986 32.0977 65.2666 -1.07031zM318.674 1401.99l88.8047 -88.8057q27.8193 -27.8184 1.07031 -55.6367l-93.085 -93.0859q-29.959 -29.958 -59.917 0
l-93.0859 92.0156q-27.8184 28.8887 4.28027 59.917l86.665 86.666q32.0986 32.0977 65.2676 -1.07031z" />
    <glyph glyph-name="uni062A" unicode="&#x62a;" horiz-adv-x="1842" 
d="M920 1q-353 -1 -522 70q-275 115 -301 409q-11 116 34 272l142 -38q-23 -147 -20 -207q15 -295 448 -316q67 -3 232 -2.5t195 3.5q431 41 444 144q9 69 -4.5 201.5t-39.5 214.5l174 89q29 -119 43 -259q24 -254 -29 -370q-98 -209 -796 -211zM1088.66 1106.99
l88.8057 -88.8057q27.8184 -27.8184 1.07031 -55.6367l-93.0859 -93.0859q-29.958 -29.958 -59.917 0l-93.085 92.0156q-27.8184 28.8887 4.2793 59.917l86.666 86.666q32.0986 32.0977 65.2666 -1.07031zM767.674 1106.99l88.8047 -88.8057
q27.8193 -27.8184 1.07031 -55.6367l-93.085 -93.0859q-29.959 -29.958 -59.917 0l-93.0859 92.0156q-27.8184 28.8887 4.28027 59.917l86.665 86.666q32.0986 32.0977 65.2676 -1.07031z" />
    <glyph glyph-name="uni062B" unicode="&#x62b;" horiz-adv-x="1842" 
d="M920 1q-353 -1 -522 70q-275 115 -301 409q-11 116 34 272l142 -38q-23 -147 -20 -207q15 -295 448 -316q67 -3 232 -2.5t195 3.5q431 41 444 144q9 69 -4.5 201.5t-39.5 214.5l174 89q29 -119 43 -259q24 -254 -29 -370q-98 -209 -796 -211zM1097.73 1039.08
l88.8057 -88.8057q27.8184 -27.8184 0 -55.6377l-92.0156 -93.085q-29.959 -29.958 -59.917 0l-93.0859 93.085q-27.8184 27.8193 3.20996 58.8477l86.666 86.666q33.168 32.0977 66.3369 -1.07031zM776.743 1039.08l88.8057 -88.8057q27.8184 -27.8184 0 -55.6377
l-92.0156 -93.085q-29.958 -29.958 -59.917 0l-93.085 93.085q-27.8184 27.8193 3.20996 58.8477l86.665 86.666q33.1689 32.0977 66.3369 -1.07031zM937.235 1293.73l88.8057 -88.8057q27.8184 -27.8184 0 -55.6377l-93.0859 -93.085q-28.8887 -29.959 -58.8467 0
l-93.085 93.085q-27.8193 27.8193 3.20898 58.8477l86.666 86.665q33.168 32.0986 66.3369 -1.06934z" />
    <glyph glyph-name="uni062C" unicode="&#x62c;" horiz-adv-x="1300" 
d="M120 625q170 249 370 249q32 0 71 -10q39 -11 196 -88q158 -76 239 -105q81 -28 174 -40l-25 -176q-128 -10 -150 -12q-245 -30 -404 -121q-326 -188 -326 -462q0 -156 114 -247q114 -92 398 -93q197 0 374 50l54 -155q-208 -64 -426 -64q-412 0 -572 188
q-111 129 -111 318t103 342q152 230 486 329q96 28 185 35q-69 18 -199 79q-130 62 -165 62q-135 0 -271 -175zM807.904 81.9893l88.8047 -88.8057q28.8887 -27.8184 1.07031 -55.6367l-93.085 -93.0859q-29.959 -29.958 -58.8477 0l-93.085 92.0156
q-27.8184 28.8887 3.20996 59.917l86.665 86.666q32.0986 32.0977 65.2676 -1.07031z" />
    <glyph glyph-name="uni062D" unicode="&#x62d;" horiz-adv-x="1300" 
d="M120 625q170 249 370 249q32 0 71 -10q39 -11 196 -88q158 -76 239 -105q81 -28 174 -40l-25 -176q-128 -10 -150 -12q-245 -30 -404 -121q-326 -188 -326 -462q0 -156 114 -247q114 -92 398 -93q197 0 374 50l54 -155q-208 -64 -426 -64q-412 0 -572 188
q-111 129 -111 318t103 342q152 230 486 329q96 28 185 35q-69 18 -199 79q-130 62 -165 62q-135 0 -271 -175z" />
    <glyph glyph-name="uni062E" unicode="&#x62e;" horiz-adv-x="1300" 
d="M120 625q170 249 370 249q32 0 71 -10q39 -11 196 -88q158 -76 239 -105q81 -28 174 -40l-25 -176q-128 -10 -150 -12q-245 -30 -404 -121q-326 -188 -326 -462q0 -156 114 -247q114 -92 398 -93q197 0 374 50l54 -155q-208 -64 -426 -64q-412 0 -572 188
q-111 129 -111 318t103 342q152 230 486 329q96 28 185 35q-69 18 -199 79q-130 62 -165 62q-135 0 -271 -175zM678.904 1331.99l88.8047 -88.8057q28.8887 -27.8184 1.07031 -55.6367l-93.085 -93.0859q-29.959 -29.958 -58.8477 0l-93.085 92.0156
q-27.8184 28.8887 3.20996 59.917l86.665 86.666q32.0986 32.0977 65.2676 -1.07031z" />
    <glyph glyph-name="uni062F" unicode="&#x62f;" horiz-adv-x="992" 
d="M98 200q113 -38 264 -37q236 0 332 71q49 36 49 82q0 45 -18 87q-87 207 -351 408l95 145q379 -283 426 -577q5 -32 5 -62q0 -161 -149 -251q-138 -83 -402 -83q-162 0 -252 32z" />
    <glyph glyph-name="uni0630" unicode="&#x630;" horiz-adv-x="992" 
d="M98 200q113 -38 264 -37q236 0 332 71q49 36 49 82q0 45 -18 87q-87 207 -351 408l95 145q379 -283 426 -577q5 -32 5 -62q0 -161 -149 -251q-138 -83 -402 -83q-162 0 -252 32zM453.904 1451.99l88.8047 -88.8057q28.8887 -27.8184 1.07031 -55.6367l-93.085 -93.0859
q-29.959 -29.958 -58.8477 0l-93.085 92.0156q-27.8184 28.8887 3.20996 59.917l86.665 86.666q32.0986 32.0977 65.2676 -1.07031z" />
    <glyph glyph-name="uni0631" unicode="&#x631;" horiz-adv-x="887" 
d="M714 562q103 -287 72 -508q-83 -585 -682 -590h-2l-76 138q568 40 599 472q8 108 -65 381z" />
    <glyph glyph-name="uni0632" unicode="&#x632;" horiz-adv-x="887" 
d="M714 562q103 -287 72 -508q-83 -585 -682 -590h-2l-76 138q568 40 599 472q8 108 -65 381zM597.904 1060.99l88.8047 -88.8057q28.8887 -27.8184 1.07031 -55.6367l-93.085 -93.0859q-29.959 -29.958 -58.8477 0l-93.085 92.0156q-27.8184 28.8887 3.20996 59.917
l86.665 86.666q32.0986 32.0977 65.2676 -1.07031z" />
    <glyph glyph-name="uni0633" unicode="&#x633;" horiz-adv-x="2394" 
d="M1479 0q-104 -1 -180 70q-11 -587 -609 -588q-422 1 -553 302q-67 153 -35 369q21 143 83 281l158 -55q-80 -195 -80 -344q0 -33 4 -65q42 -314 436 -314q395 0 443 348q5 37 5 74q-2 186 -118 333l147 139q71 -168 100 -242q50 -127 192 -127q143 0 162 191l18 191h118
l26 -192q27 -195 183 -194q102 1 138 71q33 64 17 203q-6 56 -39 238l157 50q43 -122 52 -253q34 -484 -323 -486q-206 -2 -270 148q-77 -148 -232 -148z" />
    <glyph glyph-name="uni0634" unicode="&#x634;" horiz-adv-x="2394" 
d="M1479 0q-104 -1 -180 70q-11 -587 -609 -588q-422 1 -553 302q-67 153 -35 369q21 143 83 281l158 -55q-80 -195 -80 -344q0 -33 4 -65q42 -314 436 -314q395 0 443 348q5 37 5 74q-2 186 -118 333l147 139q71 -168 100 -242q50 -127 192 -127q143 0 162 191l18 191h118
l26 -192q27 -195 183 -194q102 1 138 71q33 64 17 203q-6 56 -39 238l157 50q43 -122 52 -253q34 -484 -323 -486q-206 -2 -270 148q-77 -148 -232 -148zM1863.73 1073.08l88.8057 -88.8057q27.8184 -27.8184 0 -55.6377l-92.0156 -93.085q-29.959 -29.958 -59.917 0
l-93.0859 93.085q-27.8184 27.8193 3.20996 58.8477l86.666 86.666q33.168 32.0977 66.3369 -1.07031zM1542.74 1073.08l88.8057 -88.8057q27.8184 -27.8184 0 -55.6377l-92.0156 -93.085q-29.958 -29.958 -59.917 0l-93.085 93.085q-27.8184 27.8193 3.20996 58.8477
l86.665 86.666q33.1689 32.0977 66.3369 -1.07031zM1703.24 1327.73l88.8057 -88.8057q27.8184 -27.8184 0 -55.6377l-93.0859 -93.085q-28.8887 -29.959 -58.8467 0l-93.085 93.085q-27.8193 27.8193 3.20898 58.8477l86.666 86.665q33.168 32.0986 66.3369 -1.06934z" />
    <glyph glyph-name="uni0635" unicode="&#x635;" horiz-adv-x="2514" 
d="M1529 187h183q271 0 390 46q149 59 138 195q-4 53 -32 86q-49 64 -144 64q-126 0 -263 -106q-116 -90 -272 -285zM1365 227q368 531 704 530q153 0 247 -88q100 -92 102 -246q1 -189 -161 -309q-152 -116 -528 -115l-276 1q-80 0 -140 78h-14q-7 -596 -603 -596
q-429 1 -560 302q-67 153 -35 369q21 143 82 281l159 -55q-80 -195 -80 -344q0 -33 4 -65q41 -314 436 -314q400 -2 444 348q28 226 -113 407l147 139q33 -94 100 -242q34 -77 85 -81z" />
    <glyph glyph-name="uni0636" unicode="&#x636;" horiz-adv-x="2514" 
d="M1529 187h183q271 0 390 46q149 59 138 195q-4 53 -32 86q-49 64 -144 64q-126 0 -263 -106q-116 -90 -272 -285zM1365 227q368 531 704 530q153 0 247 -88q100 -92 102 -246q1 -189 -161 -309q-152 -116 -528 -115l-276 1q-80 0 -140 78h-14q-7 -596 -603 -596
q-429 1 -560 302q-67 153 -35 369q21 143 82 281l159 -55q-80 -195 -80 -344q0 -33 4 -65q41 -314 436 -314q400 -2 444 348q28 226 -113 407l147 139q33 -94 100 -242q34 -77 85 -81zM1861.9 1250.99l88.8047 -88.8057q28.8887 -27.8184 1.07031 -55.6367l-93.085 -93.0859
q-29.959 -29.958 -58.8477 0l-93.085 92.0156q-27.8184 28.8887 3.20996 59.917l86.665 86.666q32.0986 32.0977 65.2676 -1.07031z" />
    <glyph glyph-name="uni0637" unicode="&#x637;" horiz-adv-x="1544" 
d="M559 188h183q271 0 390 46q150 59 138 195q-4 52 -32 86q-49 64 -144 63q-126 1 -263 -106q-115 -89 -272 -284zM406 256q365 502 693 502q151 0 247 -88q100 -92 102 -246q1 -195 -161 -310q-162 -114 -528 -114h-662v185h167l-33 1283l175 69v-1281z" />
    <glyph glyph-name="uni0638" unicode="&#x638;" horiz-adv-x="1544" 
d="M559 188h183q271 0 390 46q150 59 138 195q-4 52 -32 86q-49 64 -144 63q-126 1 -263 -106q-115 -89 -272 -284zM406 256q365 502 693 502q151 0 247 -88q100 -92 102 -246q1 -195 -161 -310q-162 -114 -528 -114h-662v185h167l-33 1283l175 69v-1281zM973.904 1244.99
l88.8047 -88.8057q28.8887 -27.8184 1.07031 -55.6367l-93.085 -93.0859q-29.959 -29.958 -58.8477 0l-93.085 92.0156q-27.8184 28.8887 3.20996 59.917l86.665 86.666q32.0986 32.0977 65.2676 -1.07031z" />
    <glyph glyph-name="uni0639" unicode="&#x639;" horiz-adv-x="1247" 
d="M98 -152q1 201 99 340q102 145 244 211q-105 39 -168 118q-65 83 -65 207q0 113 54 202q99 164 321 164q148 0 298 -85l-42 -153q-136 65 -247 65q-112 0 -168 -56q-53 -52 -57 -121q-4 -65 21 -108q32 -59 140 -112q53 -25 77 -29q31 -6 176 18q113 18 225 36v-167
q-252 -18 -460 -125q-281 -145 -280 -402q1 -146 114 -236q114 -92 398 -93q190 0 322 38l54 -156q-166 -51 -374 -51q-408 0 -572 188q-110 126 -110 307z" />
    <glyph glyph-name="uni063A" unicode="&#x63a;" horiz-adv-x="1247" 
d="M98 -152q1 201 99 340q102 145 244 211q-105 39 -168 118q-65 83 -65 207q0 113 54 202q99 164 321 164q148 0 298 -85l-42 -153q-136 65 -247 65q-112 0 -168 -56q-53 -52 -57 -121q-4 -65 21 -108q32 -59 140 -112q53 -25 77 -29q31 -6 176 18q113 18 225 36v-167
q-252 -18 -460 -125q-281 -145 -280 -402q1 -146 114 -236q114 -92 398 -93q190 0 322 38l54 -156q-166 -51 -374 -51q-408 0 -572 188q-110 126 -110 307zM583.904 1515.99l88.8047 -88.8057q28.8887 -27.8184 1.07031 -55.6367l-93.085 -93.0859
q-29.959 -29.958 -58.8477 0l-93.085 92.0156q-27.8184 28.8887 3.20996 59.917l86.665 86.666q32.0986 32.0977 65.2676 -1.07031z" />
    <glyph glyph-name="afii57440" unicode="&#x640;" horiz-adv-x="686" 
d="M693 0h-697q-48 0 -48 74v34q0 77 48 77h697q48 0 48 -77v-34q0 -74 -48 -74z" />
    <glyph glyph-name="uni0641" unicode="&#x641;" horiz-adv-x="1857" 
d="M904 188q356 0 491 38q166 47 203 209q-74 -52 -218 -52q-158 2 -234 102q-67 90 -49 245q18 161 112 260q117 124 280 90q111 -22 179 -138q96 -161 92 -388q-1 -135 -26 -219q-62 -211 -286 -283q-171 -55 -541 -52q-348 3 -509 71q-273 113 -298 396q-12 133 31 285
l142 -38q-21 -141 -18 -207q10 -257 339 -306q87 -13 310 -13zM1420 916q-125 -4 -167 -172q-48 -197 145 -199q124 0 202 58q7 25 -11 123q-36 194 -169 190zM1440.9 1526.99l88.8047 -88.8057q28.8887 -27.8184 1.07031 -55.6367l-93.085 -93.0859
q-29.959 -29.958 -58.8477 0l-93.085 92.0156q-27.8184 28.8887 3.20996 59.917l86.665 86.666q32.0986 32.0977 65.2676 -1.07031z" />
    <glyph glyph-name="uni0642" unicode="&#x642;" horiz-adv-x="1427" 
d="M997 611q-125 -4 -166 -172q-50 -199 152 -199q113 1 193 58q0 61 -10 123q-26 194 -169 190zM1331 249q1 -280 -71 -440q-134 -296 -561 -295q-433 2 -564 302q-67 153 -35 369q21 143 82 281l159 -55q-80 -195 -80 -344q0 -33 4 -65q41 -315 436 -315q473 1 474 443
q-95 -53 -218 -52q-158 2 -234 102q-67 89 -49 244q18 162 112 261q117 124 280 90q111 -22 180 -138q84 -141 85 -388zM1168.66 1209.99l88.8057 -88.8057q27.8184 -27.8184 1.07031 -55.6367l-93.0859 -93.0859q-29.958 -29.958 -59.917 0l-93.085 92.0156
q-27.8184 28.8887 4.2793 59.917l86.666 86.666q32.0986 32.0977 65.2666 -1.07031zM847.674 1209.99l88.8047 -88.8057q27.8193 -27.8184 1.07031 -55.6367l-93.085 -93.0859q-29.959 -29.958 -59.917 0l-93.0859 92.0156q-27.8184 28.8887 4.28027 59.917l86.665 86.666
q32.0986 32.0977 65.2676 -1.07031z" />
    <glyph glyph-name="uni0643" unicode="&#x643;" horiz-adv-x="1876" 
d="M733 785q68 -9 127 -9q66 0 106 16q78 31 78 77q-1 24 -21 39t-67 23q-70 11 -106 51t-34 94q2 103 91 148q84 43 206 50l17 1v-93l-15 -1q-75 -5 -112 -19q-91 -34 -91 -82q0 -42 42 -57q24 -9 70 -15q116 -18 116 -131q0 -98 -113 -162q-108 -62 -299 -30l-13 2v100z
M1598 466l-37 1003l177 68v-1103q0 -18 -3 -59q-16 -229 -325 -326q-152 -47 -497 -48q-346 -1 -515 70q-273 116 -296 392q-12 143 29 289l142 -38q-23 -147 -20 -207q14 -280 388 -312q168 -14 554 3q412 17 403 268z" />
    <glyph glyph-name="uni0644" unicode="&#x644;" horiz-adv-x="1369" 
d="M1229 102q4 -591 -545 -589q-400 1 -532 302q-66 150 -35 368q21 143 83 281l158 -54q-79 -193 -80 -344q0 -33 4 -65q44 -314 405 -315q404 -1 396 456l-24 1323l172 71v-1130q0 -203 -2 -304z" />
    <glyph glyph-name="uni0645" unicode="&#x645;" horiz-adv-x="1190" 
d="M481 347q0 -9 103 -14t141 -5q135 0 166 20q21 14 38 50q64 138 -226 257q-72 30 -130 7q-50 -20 -70 -83q-15 -48 -22 -171v-61zM972 179q-69 -27 -253 -22q-184 6 -306 6q-191 0 -177 -288l24 -481l-165 -94v624q0 198 81 300q53 69 140 84q-16 318 117 444
q91 86 202 85q66 0 136 -34q374 -178 318 -393q-61 -234 -117 -231z" />
    <glyph glyph-name="uni0646" unicode="&#x646;" horiz-adv-x="1463" 
d="M1225 700q136 -227 135 -452q-4 -647 -651 -647q-580 0 -612 542q-5 83 18 203q24 120 76 233l149 -57q-94 -232 -77 -393q41 -363 451 -363q460 -1 480 423q9 189 -118 368zM744.904 850.989l88.8047 -88.8057q28.8887 -27.8184 1.07031 -55.6367l-93.085 -93.0859
q-29.959 -29.958 -58.8477 0l-93.085 92.0156q-27.8184 28.8887 3.20996 59.917l86.665 86.666q32.0986 32.0977 65.2676 -1.07031z" />
    <glyph glyph-name="uni0647" unicode="&#x647;" horiz-adv-x="965" 
d="M469 661q-201 -204 -200 -340q1 -163 219 -163q203 0 204 154q2 137 -223 349zM489 4q-381 0 -384 293q-2 224 243 475l-39 34l104 127q292 -212 393 -427q56 -118 56 -209q3 -294 -373 -293z" />
    <glyph glyph-name="uni0648" unicode="&#x648;" horiz-adv-x="891" 
d="M441 548q-135 -4 -180 -183q-53 -205 178 -204q121 0 191 54q0 57 -4 94q-28 244 -185 239zM727 534q64 -132 63 -352q-1 -314 -127 -477q-185 -239 -560 -242h-2l-75 139q553 33 596 438q-59 -48 -208 -49q-92 1 -160 31q-151 68 -150 254q1 107 50 216q35 79 91 137
q114 116 274 83q136 -28 208 -178z" />
    <glyph glyph-name="uni0649" unicode="&#x649;" horiz-adv-x="1470" 
d="M1042 160l58 1q107 0 168 -25q106 -43 105 -159q1 -122 -76 -224q-177 -237 -579 -238q-205 0 -334 56q-286 125 -287 480q-1 221 116 470l147 -60q-93 -211 -97 -388q-9 -385 463 -382q293 2 448 151q44 42 47 85q3 69 -82 69h-94q-255 4 -270 162q-8 76 19 157
q60 175 194 288q138 118 293 120q54 0 88 -8l-60 -183h-4q-168 0 -302 -162q-57 -69 -68 -139.5t107 -70.5z" />
    <glyph glyph-name="uni064A" unicode="&#x64a;" horiz-adv-x="1470" 
d="M1042 160l58 1q107 0 168 -25q106 -43 105 -159q1 -122 -76 -224q-177 -237 -579 -238q-205 0 -334 56q-286 125 -287 480q-1 221 116 470l147 -60q-93 -211 -97 -388q-9 -385 463 -382q293 2 448 151q44 42 47 85q3 69 -82 69h-94q-255 4 -270 162q-8 76 19 157
q60 175 194 288q138 118 293 120q54 0 88 -8l-60 -183h-4q-168 0 -302 -162q-57 -69 -68 -139.5t107 -70.5zM860.657 -544.011l88.8057 -88.8057q27.8184 -27.8184 1.07031 -55.6367l-93.0859 -93.0859q-29.958 -29.958 -59.917 0l-93.085 92.0156
q-27.8184 28.8887 4.2793 59.917l86.666 86.666q32.0986 32.0977 65.2666 -1.07031zM539.674 -544.011l88.8047 -88.8057q27.8193 -27.8184 1.07031 -55.6367l-93.085 -93.0859q-29.959 -29.958 -59.917 0l-93.0859 92.0156q-27.8184 28.8887 4.28027 59.917l86.665 86.666
q32.0986 32.0977 65.2676 -1.07031z" />
    <glyph glyph-name="uni064B" unicode="&#x64b;" horiz-adv-x="0" 
d="M320 1121v122l534 218v-121zM320 1411v122l534 218v-121z" />
    <glyph glyph-name="uni064C" unicode="&#x64c;" horiz-adv-x="0" 
d="M692 1837q-88 0 -88 -79q-1 -52 65 -83q25 -12 73 -25l5 12q20 46 21 90q-2 85 -76 85zM341 1606q2 -236 136 -237q72 1 151 77q46 44 74 99l10 22q-52 10 -92 31q-110 56 -110 168q0 61 30 101q47 64 133.5 64t137.5 -49.5t51 -137.5q1 -42 -13 -87l-7 -23l24 -1
q29 -2 67 -2v-95q-44 1 -60 3l-72 7q-78 -179 -225 -250q-44 -21 -102 -21q-127 0 -180 141q-22 56 -23 190h70zM906 1632v0v0z" />
    <glyph glyph-name="uni064D" unicode="&#x64d;" horiz-adv-x="0" 
d="M326 -546v121l534 219v-122zM326 -256v121l534 218v-121z" />
    <glyph glyph-name="uni064E" unicode="&#x64e;" horiz-adv-x="0" 
d="M288 1410v122l534 218v-121z" />
    <glyph glyph-name="uni064F" unicode="&#x64f;" horiz-adv-x="0" 
d="M872 1552q-85 1 -140 9q-56 -78 -135 -127q-125 -78 -267 -84v95q210 32 297 145q-106 24 -151 89q-30 40 -30 93q0 86 71 139q49 36 107 36q75 0 126 -50t51 -137q0 -36 -15 -87l-8 -23l24 -1q41 -3 70 -3v-94zM681 1666l4 8q23 50 23 92t-27 65q-27 22 -58 22
q-32 0 -55 -18q-26 -22 -27 -57q-1 -55 67 -87q34 -16 73 -25z" />
    <glyph glyph-name="uni0650" unicode="&#x650;" horiz-adv-x="0" 
d="M337 -374v122l534 218v-122z" />
    <glyph glyph-name="uni0651" unicode="&#x651;" horiz-adv-x="0" 
d="M612 1624q-32 -175 -185 -175q-154 0 -154 197q-1 39 16 149h80q-14 -95 -14 -124q0 -120 85 -120q116 0 122 153q2 42 2 92v59h78q2 -38 3 -89q-1 -149 129 -149h1q78 1 79 126q0 112 -12 178h84q12 -84 12 -184q0 -162 -89 -200q-35 -15 -69 -16q-75 -3 -114 26
q-48 35 -54 77z" />
    <glyph glyph-name="uni0652" unicode="&#x652;" horiz-adv-x="0" 
d="M750 1545q0 51 -36 87t-89 36t-88.5 -35.5t-35.5 -87.5q0 -54 35.5 -89.5t88.5 -35.5t89 36t36 89zM826 1544.5q0 -84.5 -58 -143t-142 -58.5q-29 0 -54 6.5t-47 19.5t-42 33q-29 29 -43.5 64.5t-14.5 78.5q0 84 58 142t142.5 58t142.5 -58t58 -142.5z" />
    <glyph glyph-name="uni0653" unicode="&#x653;" horiz-adv-x="0" 
d="M170 1316l-92 91q108 179 254 152l134 -26q77 -14 195 57l65 -104q-100 -113 -269 -85l-126 22q-102 17 -161 -107z" />
    <glyph glyph-name="uni0654" unicode="&#x654;" horiz-adv-x="0" 
d="M549 1871q108 22 200 -32v-112l-20 10q-65 32 -130 25q-100 -11 -107 -87q-7 -82 107 -117q35 -10 174 22v-116l-389 -87v113l92 22q-90 56 -90 154.5t68 158.5q39 34 95 46z" />
    <glyph glyph-name="uni0655" unicode="&#x655;" horiz-adv-x="0" 
d="M549 -75q108 22 200 -32v-112l-20 10q-65 32 -130 25q-100 -11 -107 -87q-7 -82 107 -117q35 -10 174 22v-116l-389 -87v113l92 22q-90 56 -90 154.5t68 158.5q39 34 95 46z" />
    <glyph glyph-name="uni0657" unicode="&#x657;" horiz-adv-x="0" 
d="M531 1776q9 -2 29 -12q115 -60 115 -159q0 -92 -73 -147q-28 -21 -95 -21q-77 0 -119 40q-58 57 -58 141q0 34 15 84l6 16l-18 1q-19 2 -40 2q-14 0 -30 1v97q32 -1 62 -2q33 -3 65 -6l8 -1l5 7q47 67 123 113q213 131 372 137v-97q-170 -5 -325 -127q-27 -21 -49 -44
l-17 -18zM450 1702l-11 -27q-12 -27 -12 -57q0 -45 25 -65q23 -19 50 -19q31 0 47 13q26 20 26 58q0 51 -59 75q-24 9 -54 18z" />
    <glyph glyph-name="uni065A" unicode="&#x65a;" horiz-adv-x="1160" 
d="M505 1440l-205 343h126l155 -233l155 233h126l-205 -343h-152z" />
    <glyph glyph-name="afii57392" unicode="&#x660;" horiz-adv-x="826" 
d="M312 551q0 -42 29.5 -72t71.5 -30t71.5 30t29.5 72t-29.5 71.5t-71.5 29.5t-71.5 -29.5t-29.5 -71.5zM150 553.5q0 109.5 77.5 187t185.5 77.5t185.5 -77.5t77.5 -187t-77.5 -187t-185.5 -77.5t-185.5 77.5t-77.5 187z" />
    <glyph glyph-name="afii57393" unicode="&#x661;" horiz-adv-x="776" 
d="M565 9h-172v3q-1 462 -48.5 766.5t-184.5 599.5l153 75q116 -193 197 -561q53 -244 55 -880v-3z" />
    <glyph glyph-name="afii57394" unicode="&#x662;" horiz-adv-x="1136" 
d="M249 1453l128 -291q59 -100 221 -99q157 1 227 157q29 67 51 232l163 -39q-14 -189 -70 -310q-103 -222 -369 -221q-81 0 -179 26q78 -239 80 -899h-173v3q0 427 -52 736q-63 375 -181 631z" />
    <glyph glyph-name="afii57395" unicode="&#x663;" horiz-adv-x="1275" 
d="M421 908q78 -239 80 -899h-173v3q0 430 -52 736q-63 375 -181 631l154 74l130 -298q42 -97 140 -97q53 0 84 32q53 56 53 311v3l129 -1q10 -184 17 -244q12 -100 129 -100q134 1 105 385l142 -2q38 -556 -248 -553q-135 1 -204 101q-63 -103 -195 -104q-53 0 -110 22z
" />
    <glyph glyph-name="afii57396" unicode="&#x664;" horiz-adv-x="990" 
d="M726 790q-454 -201 -454 -427q0 -183 306 -182l313 1l3 -182h-356q-441 1 -442 324q0 270 338 498q-260 61 -260 299q0 345 516 382v-189q-325 -18 -325 -202q0 -157 359 -165z" />
    <glyph glyph-name="afii57397" unicode="&#x665;" horiz-adv-x="1234" 
d="M635 194q327 0 322 304q-3 276 -358 606q-320 -335 -319 -587q0 -323 355 -323zM394 1261l126 164q621 -475 622 -931q0 -479 -508 -480q-528 0 -537 478q-7 335 360 711z" />
    <glyph glyph-name="afii57398" unicode="&#x666;" horiz-adv-x="1205" 
d="M95 1447q387 -102 832 0v-4q1 -323 37.5 -669t143.5 -765h-189q-94 362 -127 715t-36 523q-127 -37 -302 -37t-359 53v184z" />
    <glyph glyph-name="afii57399" unicode="&#x667;" horiz-adv-x="1220" 
d="M523 9q-81 660 -428 1357l171 87q237 -487 349 -1096q115 603 339 1096l170 -87q-325 -700 -426 -1357h-175z" />
    <glyph glyph-name="afii57400" unicode="&#x668;" horiz-adv-x="1220" 
d="M523 1453h175q101 -657 426 -1357l-170 -87q-224 493 -339 1096q-112 -609 -349 -1096l-171 87q347 697 428 1357z" />
    <glyph glyph-name="afii57401" unicode="&#x669;" horiz-adv-x="1189" 
d="M903 9q-94 454 -124 699q-319 -23 -495 69q-180 94 -180 303q0 166 116 281q114 115 278 115q392 3 423 -410q12 -154 43 -408q31 -255 128 -649h-189zM761 882l-6 100q-16 320 -246 316q-93 -1 -157 -52q-70 -55 -70 -160q0 -120 119 -178q110 -52 360 -26z" />
    <glyph glyph-name="afii57381" unicode="&#x66a;" horiz-adv-x="1253" 
d="M270 1297.5q0 49.5 35.5 85t83.5 34.5q48 1 84 -34.5t36 -85t-36 -85t-84 -34.5q-48 -1 -83.5 34.5t-35.5 85zM750 180.5q0 49.5 35.5 85t83.5 34.5q48 1 84 -34.5t36 -85t-36 -85t-84 -34.5q-48 -1 -83.5 34.5t-35.5 85zM925 1463l124 -63l-725 -1401l-124 68z" />
    <glyph glyph-name="uni066B" unicode="&#x66b;" horiz-adv-x="760" 
d="M432 524l133 -63l-392 -706l-129 66z" />
    <glyph glyph-name="uni066C" unicode="&#x66c;" horiz-adv-x="627" 
d="M317 258q141 -3 151 -122q8 -110 -51 -222q-79 -149 -237 -265l-53 49q168 152 222 302q-33 -1 -44 0q-148 8 -126 150q18 111 138 108z" />
    <glyph glyph-name="uni066E" unicode="&#x66e;" horiz-adv-x="1842" 
d="M920 1q-353 -1 -522 70q-275 115 -301 409q-11 116 34 272l142 -38q-23 -147 -20 -207q15 -295 448 -316q67 -3 232 -2.5t195 3.5q431 41 444 144q9 69 -4.5 201.5t-39.5 214.5l174 89q29 -119 43 -259q24 -254 -29 -370q-98 -209 -796 -211z" />
    <glyph glyph-name="uni066F" unicode="&#x66f;" horiz-adv-x="1427" 
d="M997 611q-125 -4 -166 -172q-50 -199 152 -199q113 1 193 58q0 61 -10 123q-26 194 -169 190zM1331 249q1 -280 -71 -440q-134 -296 -561 -295q-433 2 -564 302q-67 153 -35 369q21 143 82 281l159 -55q-80 -195 -80 -344q0 -33 4 -65q41 -315 436 -315q473 1 474 443
q-95 -53 -218 -52q-158 2 -234 102q-67 89 -49 244q18 162 112 261q117 124 280 90q111 -22 180 -138q84 -141 85 -388z" />
    <glyph glyph-name="uni0670" unicode="&#x670;" horiz-adv-x="6" 
d="M558 1407l-26 423l104 61v-484h-78z" />
    <glyph glyph-name="uni0674" unicode="&#x674;" horiz-adv-x="683" 
d="M307 2001q108 22 200 -32v-112l-20 10q-65 32 -130 25q-100 -11 -107 -87q-7 -82 107 -117q35 -10 174 22v-116l-389 -87v113l92 22q-90 56 -90 154.5t68 158.5q39 34 95 46z" />
    <glyph glyph-name="afii57506" unicode="&#x67e;" horiz-adv-x="1842" 
d="M921 1q-353 -1 -522 70q-275 115 -301 409q-11 116 34 272l142 -38q-23 -147 -20 -207q15 -295 448 -316q67 -3 232 -2.5t195 3.5q431 41 444 144q9 69 -4.5 201.5t-39.5 214.5l174 89q29 -119 43 -259q24 -254 -29 -370q-98 -209 -796 -211zM1158.66 -167.381
l88.8057 -89.876q28.8887 -27.8184 1.07031 -55.6367l-93.0859 -92.0156q-29.958 -29.959 -58.8467 -1.07031l-93.0859 93.0859q-27.8184 27.8184 3.20996 58.8467l86.666 87.7354q32.0986 32.0986 65.2666 -1.06934zM837.674 -167.381l88.8047 -89.876
q28.8887 -27.8184 1.07031 -55.6367l-93.085 -92.0156q-29.959 -29.959 -58.8477 -1.07031l-93.085 93.0859q-27.8184 27.8184 3.20996 58.8467l86.665 87.7354q32.0986 32.0986 65.2676 -1.06934zM998.165 -403.84l88.8057 -88.8047q28.8887 -28.8887 1.07031 -55.6377
l-93.0859 -93.085q-29.958 -29.959 -58.8467 -1.07031l-93.085 93.0859q-27.8193 27.8184 3.20898 59.916l86.666 86.666q32.0986 32.0986 65.2666 -1.07031z" />
    <glyph glyph-name="afii57507" unicode="&#x686;" horiz-adv-x="1300" 
d="M120 625q170 249 370 249q32 0 71 -10q39 -11 196 -88q158 -76 239 -105q81 -28 174 -40l-25 -176q-128 -10 -150 -12q-245 -30 -404 -121q-326 -188 -326 -462q0 -156 114 -247q114 -92 398 -93q197 0 374 50l54 -155q-208 -64 -426 -64q-412 0 -572 188
q-111 129 -111 318t103 342q152 230 486 329q96 28 185 35q-69 18 -199 79q-130 62 -165 62q-135 0 -271 -175zM984.657 160.619l88.8057 -89.876q28.8887 -27.8184 1.07031 -55.6367l-93.0859 -92.0156q-29.958 -29.959 -58.8467 -1.07031l-93.0859 93.0859
q-27.8184 27.8184 3.20996 58.8467l86.666 87.7354q32.0986 32.0986 65.2666 -1.06934zM663.674 160.619l88.8047 -89.876q28.8887 -27.8184 1.07031 -55.6367l-93.085 -92.0156q-29.959 -29.959 -58.8477 -1.07031l-93.085 93.0859q-27.8184 27.8184 3.20996 58.8467
l86.665 87.7354q32.0986 32.0986 65.2676 -1.06934zM824.165 -75.8398l88.8057 -88.8047q28.8887 -28.8887 1.07031 -55.6377l-93.0859 -93.085q-29.958 -29.959 -58.8467 -1.07031l-93.085 93.0859q-27.8193 27.8184 3.20898 59.916l86.666 86.666
q32.0986 32.0986 65.2666 -1.07031z" />
    <glyph glyph-name="afii57508" unicode="&#x698;" horiz-adv-x="887" 
d="M714 562q103 -287 72 -508q-83 -585 -682 -590h-2l-76 138q568 40 599 472q8 108 -65 381zM753.728 1053.08l88.8057 -88.8057q27.8184 -27.8184 0 -55.6377l-92.0156 -93.085q-29.959 -29.958 -59.917 0l-93.0859 93.085q-27.8184 27.8193 3.20996 58.8477
l86.666 86.666q33.168 32.0977 66.3369 -1.07031zM432.743 1053.08l88.8057 -88.8057q27.8184 -27.8184 0 -55.6377l-92.0156 -93.085q-29.958 -29.958 -59.917 0l-93.085 93.085q-27.8184 27.8193 3.20996 58.8477l86.665 86.666q33.1689 32.0977 66.3369 -1.07031z
M593.235 1307.73l88.8057 -88.8057q27.8184 -27.8184 0 -55.6377l-93.0859 -93.085q-28.8887 -29.959 -58.8467 0l-93.085 93.085q-27.8193 27.8193 3.20898 58.8477l86.666 86.665q33.168 32.0986 66.3369 -1.06934z" />
    <glyph glyph-name="uni06A1" unicode="&#x6a1;" horiz-adv-x="1857" 
d="M904 188q356 0 491 38q166 47 203 209q-74 -52 -218 -52q-158 2 -234 102q-67 90 -49 245q18 161 112 260q117 124 280 90q111 -22 179 -138q96 -161 92 -388q-1 -135 -26 -219q-62 -211 -286 -283q-171 -55 -541 -52q-348 3 -509 71q-273 113 -298 396q-12 133 31 285
l142 -38q-21 -141 -18 -207q10 -257 339 -306q87 -13 310 -13zM1420 916q-125 -4 -167 -172q-48 -197 145 -199q124 0 202 58q7 25 -11 123q-36 194 -169 190z" />
    <glyph glyph-name="uni06A9" unicode="&#x6a9;" horiz-adv-x="1994" 
d="M891 0q-327 0 -496 71q-270 113 -299 392q-13 133 32 289l142 -38q-27 -152 -25 -207q15 -298 450 -316q71 -3 153 -3l268 -2h178q226 0 256 143q17 82 -64 171l-277 308q-96 106 -99 180q-4 127 123 190l720 359v-184l-697 -348l348 -385q141 -155 94 -344
q-68 -276 -489 -276h-318z" />
    <glyph glyph-name="afii57509" unicode="&#x6af;" horiz-adv-x="1994" 
d="M891 0q-327 0 -496 71q-270 113 -299 392q-13 133 32 289l142 -38q-27 -152 -25 -207q15 -298 450 -316q71 -3 153 -3l268 -2h178q226 0 256 143q17 82 -64 171l-277 308q-96 106 -99 180q-4 127 123 190l720 359v-184l-697 -348l348 -385q141 -155 94 -344
q-68 -276 -489 -276h-318zM1951.8 1679.06l-761.802 -371.271v131.604l761.802 370.201v-130.533z" />
    <glyph glyph-name="afii57514" unicode="&#x6ba;" horiz-adv-x="1463" 
d="M1225 700q136 -227 135 -452q-4 -647 -651 -647q-580 0 -612 542q-5 83 18 203q24 120 76 233l149 -57q-94 -232 -77 -393q41 -363 451 -363q460 -1 480 423q9 189 -118 368z" />
    <glyph glyph-name="uni06C0" unicode="&#x6c0;" horiz-adv-x="965" 
d="M433 1575q108 22 200 -32v-112l-20 10q-65 32 -130 25q-100 -11 -107 -87q-7 -82 107 -117q35 -10 174 22v-116l-389 -87v113l92 22q-90 56 -90 154.5t68 158.5q39 34 95 46zM469 661q-201 -204 -200 -340q1 -163 219 -163q203 0 204 154q2 137 -223 349zM489 4
q-381 0 -384 293q-2 224 243 475l-39 34l104 127q292 -212 393 -427q56 -118 56 -209q3 -294 -373 -293z" />
    <glyph glyph-name="uni06CA" unicode="&#x6ca;" horiz-adv-x="891" 
d="M624 1149l83 -83q26 -26 1 -52l-87 -87q-28 -28 -56 0l-87 86q-26 27 4 56l81 81q30 30 61 -1zM324 1149l83 -83q26 -26 1 -52l-87 -87q-28 -28 -56 0l-87 86q-26 27 4 56l81 81q30 30 61 -1zM441 548q-135 -4 -180 -183q-53 -205 178 -204q121 0 191 54q0 57 -4 94
q-28 244 -185 239zM727 534q64 -132 63 -352q-1 -314 -127 -477q-185 -239 -560 -242h-2l-75 139q553 33 596 438q-59 -48 -208 -49q-92 1 -160 31q-151 68 -150 254q1 107 50 216q35 79 91 137q114 116 274 83q136 -28 208 -178z" />
    <glyph glyph-name="uni06CC" unicode="&#x6cc;" horiz-adv-x="1470" 
d="M1042 160l58 1q107 0 168 -25q106 -43 105 -159q1 -122 -76 -224q-177 -237 -579 -238q-205 0 -334 56q-286 125 -287 480q-1 221 116 470l147 -60q-93 -211 -97 -388q-9 -385 463 -382q293 2 448 151q44 42 47 85q3 69 -82 69h-94q-255 4 -270 162q-8 76 19 157
q60 175 194 288q138 118 293 120q54 0 88 -8l-60 -183h-4q-168 0 -302 -162q-57 -69 -68 -139.5t107 -70.5z" />
    <glyph glyph-name="afii57534" unicode="&#x6d5;" horiz-adv-x="965" 
d="M469 661q-201 -204 -200 -340q1 -163 219 -163q203 0 204 154q2 137 -223 349zM489 4q-381 0 -384 293q-2 224 243 475l-39 34l104 127q292 -212 393 -427q56 -118 56 -209q3 -294 -373 -293z" />
    <glyph glyph-name="uni06F0" unicode="&#x6f0;" horiz-adv-x="826" 
d="M312 551q0 -42 29.5 -72t71.5 -30t71.5 30t29.5 72t-29.5 71.5t-71.5 29.5t-71.5 -29.5t-29.5 -71.5zM150 553.5q0 109.5 77.5 187t185.5 77.5t185.5 -77.5t77.5 -187t-77.5 -187t-185.5 -77.5t-185.5 77.5t-77.5 187z" />
    <glyph glyph-name="uni06F1" unicode="&#x6f1;" horiz-adv-x="776" 
d="M565 9h-172v3q-1 462 -48.5 766.5t-184.5 599.5l153 75q116 -193 197 -561q53 -244 55 -880v-3z" />
    <glyph glyph-name="uni06F2" unicode="&#x6f2;" horiz-adv-x="1136" 
d="M249 1453l128 -291q59 -100 221 -99q157 1 227 157q29 67 51 232l163 -39q-14 -189 -70 -310q-103 -222 -369 -221q-81 0 -179 26q78 -239 80 -899h-173v3q0 427 -52 736q-63 375 -181 631z" />
    <glyph glyph-name="uni06F3" unicode="&#x6f3;" horiz-adv-x="1275" 
d="M421 908q78 -239 80 -899h-173v3q0 430 -52 736q-63 375 -181 631l154 74l130 -298q42 -97 140 -97q53 0 84 32q53 56 53 311v3l129 -1q10 -184 17 -244q12 -100 129 -100q134 1 105 385l142 -2q38 -556 -248 -553q-135 1 -204 101q-63 -103 -195 -104q-53 0 -110 22z
" />
    <glyph glyph-name="uni06F4" unicode="&#x6f4;" horiz-adv-x="1078" 
d="M751 1450q108 0 167 -39v-152q-98 20 -146 20q-104 0 -178 -42q-91 -51 -101 -154q-16 -154 250 -156q104 0 236 47l3 -161q-136 -37 -248 -36q-189 0 -299 87q67 -296 67 -802v-53h-173v3q0 457 -49 758q-49 303 -183 607l156 76q80 -196 119 -393q-3 171 79 270
q106 121 300 120z" />
    <glyph glyph-name="uni06F5" unicode="&#x6f5;" horiz-adv-x="1294" 
d="M886 188q144 -2 144 193q-1 308 -402 730q-365 -423 -364 -730q0 -193 168 -193q140 -1 154 192l4 61h125l7 -62q20 -189 164 -191zM652 158q-54 -148 -225 -149q-330 -1 -330 342q1 374 406 868l-48 42l107 149q639 -531 638 -1065q-1 -337 -298 -336q-195 1 -250 149z
" />
    <glyph glyph-name="uni06F6" unicode="&#x6f6;" horiz-adv-x="1008" 
d="M591 1444q79 0 178 -32v-165q-220 66 -333 -14q-94 -67 -94 -166t75 -155q138 -100 248 -52q264 116 276 120l10 -180q-388 -123 -712 -791l-161 64q173 384 404 632q-294 64 -306 322q-9 189 116 309q112 107 299 108z" />
    <glyph glyph-name="uni06F7" unicode="&#x6f7;" horiz-adv-x="1220" 
d="M523 9q-81 660 -428 1357l171 87q237 -487 349 -1096q115 603 339 1096l170 -87q-325 -700 -426 -1357h-175z" />
    <glyph glyph-name="uni06F8" unicode="&#x6f8;" horiz-adv-x="1220" 
d="M523 1453h175q101 -657 426 -1357l-170 -87q-224 493 -339 1096q-112 -609 -349 -1096l-171 87q347 697 428 1357z" />
    <glyph glyph-name="uni06F9" unicode="&#x6f9;" horiz-adv-x="1189" 
d="M903 9q-94 454 -124 699q-319 -23 -495 69q-180 94 -180 303q0 166 116 281q114 115 278 115q392 3 423 -410q12 -154 43 -408q31 -255 128 -649h-189zM761 882l-6 100q-16 320 -246 316q-93 -1 -157 -52q-70 -55 -70 -160q0 -120 119 -178q110 -52 360 -26z" />
    <glyph glyph-name="uni2000" unicode="&#x2000;" horiz-adv-x="1024" 
 />
    <glyph glyph-name="uni2001" unicode="&#x2001;" horiz-adv-x="2048" 
 />
    <glyph glyph-name="uni2002" unicode="&#x2002;" horiz-adv-x="1024" 
 />
    <glyph glyph-name="uni2003" unicode="&#x2003;" horiz-adv-x="2048" 
 />
    <glyph glyph-name="uni2004" unicode="&#x2004;" horiz-adv-x="682" 
 />
    <glyph glyph-name="uni2005" unicode="&#x2005;" horiz-adv-x="512" 
 />
    <glyph glyph-name="uni2006" unicode="&#x2006;" horiz-adv-x="342" 
 />
    <glyph glyph-name="uni2007" unicode="&#x2007;" horiz-adv-x="1145" 
 />
    <glyph glyph-name="uni2008" unicode="&#x2008;" horiz-adv-x="545" 
 />
    <glyph glyph-name="uni2009" unicode="&#x2009;" horiz-adv-x="410" 
 />
    <glyph glyph-name="uni200A" unicode="&#x200a;" horiz-adv-x="205" 
 />
    <glyph glyph-name="uni200B" unicode="&#x200b;" horiz-adv-x="0" 
 />
    <glyph glyph-name="afii61664" unicode="&#x200c;" horiz-adv-x="0" 
 />
    <glyph glyph-name="afii301" unicode="&#x200d;" horiz-adv-x="0" 
 />
    <glyph glyph-name="endash" unicode="&#x2013;" horiz-adv-x="1024" 
d="M82 473v152h860v-152h-860z" />
    <glyph glyph-name="emdash" unicode="&#x2014;" horiz-adv-x="2048" 
d="M82 473v152h1884v-152h-1884z" />
    <glyph glyph-name="afii00208" unicode="&#x2015;" horiz-adv-x="2048" 
d="M82 473v152h1884v-152h-1884z" />
    <glyph glyph-name="underscoredbl" unicode="&#x2017;" horiz-adv-x="842" 
d="M846 -463h-850v139h850v-139zM846 -184h-850v139h850v-139z" />
    <glyph glyph-name="quoteleft" unicode="&#x2018;" horiz-adv-x="348" 
d="M37 961l-12 22q22 90 71 224t105 255h123q-66 -254 -103 -501h-184z" />
    <glyph glyph-name="quoteright" unicode="&#x2019;" horiz-adv-x="348" 
d="M309 1462l15 -22q-26 -100 -75 -232.5t-102 -246.5h-122q70 285 102 501h182z" />
    <glyph glyph-name="quotesinglbase" unicode="&#x201a;" horiz-adv-x="502" 
d="M350 238l15 -23q-26 -100 -75 -232.5t-102 -246.5h-125q27 104 59.5 257t45.5 245h182z" />
    <glyph glyph-name="quotereversed" unicode="&#x201b;" horiz-adv-x="348" 
d="M223 1462q37 -251 103 -501h-123q-45 94 -99.5 236t-78.5 243l14 22h184z" />
    <glyph glyph-name="quotedblleft" unicode="&#x201c;" horiz-adv-x="717" 
d="M406 961l-15 22q56 215 178 479h123q-30 -115 -59.5 -259.5t-42.5 -241.5h-184zM37 961l-12 22q22 90 71 224t105 255h123q-66 -254 -103 -501h-184z" />
    <glyph glyph-name="quotedblright" unicode="&#x201d;" horiz-adv-x="717" 
d="M309 1462l15 -22q-26 -100 -75 -232.5t-102 -246.5h-122q70 285 102 501h182zM678 1462l14 -22q-24 -91 -72 -224t-104 -255h-125q26 100 59 254t46 247h182z" />
    <glyph glyph-name="quotedblbase" unicode="&#x201e;" horiz-adv-x="829" 
d="M309 238l15 -22q-26 -100 -75 -232.5t-102 -246.5h-122q70 285 102 501h182zM678 238l14 -22q-24 -91 -72 -224t-104 -255h-125q26 100 59 254t46 247h182z" />
    <glyph glyph-name="dagger" unicode="&#x2020;" horiz-adv-x="1028" 
d="M905 999l-352 31l49 -1030h-196l49 1030l-332 -31v170l332 -30l-49 417h196l-49 -417l352 30v-170z" />
    <glyph glyph-name="daggerdbl" unicode="&#x2021;" horiz-adv-x="1044" 
d="M569 487l353 31v-168l-353 29l49 -379h-198l49 379l-346 -29v168l346 -31l-43 299l43 283l-346 -31v168l346 -30l-49 380h198l-49 -380l353 30v-168l-353 31l43 -283z" />
    <glyph glyph-name="bullet" unicode="&#x2022;" horiz-adv-x="770" 
d="M164 748q0 121 56.5 184t164.5 63q105 0 163 -62t58 -185q0 -119 -57.5 -183.5t-163.5 -64.5q-107 0 -164 65.5t-57 182.5z" />
    <glyph glyph-name="ellipsis" unicode="&#x2026;" horiz-adv-x="1606" 
d="M1213 106q0 67 30.5 101.5t87.5 34.5q58 0 90.5 -34.5t32.5 -101.5q0 -65 -33 -100t-90 -35q-51 0 -84.5 31.5t-33.5 103.5zM682 106q0 67 30.5 101.5t87.5 34.5q58 0 90.5 -34.5t32.5 -101.5q0 -65 -33 -100t-90 -35q-51 0 -84.5 31.5t-33.5 103.5zM152 106
q0 67 30.5 101.5t87.5 34.5q58 0 90.5 -34.5t32.5 -101.5q0 -65 -33 -100t-90 -35q-51 0 -84.5 31.5t-33.5 103.5z" />
    <glyph glyph-name="uni202F" unicode="&#x202f;" horiz-adv-x="106" 
 />
    <glyph glyph-name="perthousand" unicode="&#x2030;" horiz-adv-x="2462" 
d="M236 1026q0 -170 41.5 -255t134.5 -85q180 0 180 340q0 338 -180 338q-93 0 -134.5 -84t-41.5 -254zM729 1026q0 -230 -80.5 -345.5t-236.5 -115.5q-149 0 -230.5 119t-81.5 342q0 457 312 457q152 0 234.5 -120t82.5 -337zM1346 1462l-811 -1462h-148l811 1462h148z
M1870 440q0 -171 41.5 -255.5t134.5 -84.5q91 0 135.5 83.5t44.5 256.5q0 171 -44.5 253.5t-135.5 82.5q-93 0 -134.5 -82.5t-41.5 -253.5zM2363 440q0 -230 -81 -345t-236 -115q-148 0 -229.5 119.5t-81.5 340.5q0 457 311 457q150 0 233.5 -118t83.5 -339zM1139 440
q0 -171 40.5 -255.5t133.5 -84.5q91 0 135.5 83.5t44.5 256.5q0 171 -44.5 253.5t-135.5 82.5q-93 0 -133.5 -82.5t-40.5 -253.5zM1630 440q0 -230 -81 -345t-236 -115q-149 0 -230.5 119t-81.5 341q0 457 312 457q150 0 233.5 -118t83.5 -339z" />
    <glyph glyph-name="minute" unicode="&#x2032;" horiz-adv-x="453" 
d="M319 1462l-40 -528h-105l-41 528h186z" />
    <glyph glyph-name="second" unicode="&#x2033;" horiz-adv-x="805" 
d="M319 1462l-40 -528h-105l-41 528h186zM688 1462l-41 -528h-104l-41 528h186z" />
    <glyph glyph-name="guilsinglleft" unicode="&#x2039;" horiz-adv-x="623" 
d="M82 551l342 407l119 -69l-289 -350l289 -351l-119 -71l-342 407v27z" />
    <glyph glyph-name="guilsinglright" unicode="&#x203a;" horiz-adv-x="623" 
d="M541 524l-344 -407l-117 71l287 351l-287 350l117 69l344 -407v-27z" />
    <glyph glyph-name="exclamdbl" unicode="&#x203c;" horiz-adv-x="995" 
d="M775 403h-105l-51 1059h207zM601 106q0 136 120 136q58 0 89.5 -35t31.5 -101q0 -64 -32 -99.5t-89 -35.5q-52 0 -86 31.5t-34 103.5zM326 403h-105l-51 1059h207zM152 106q0 136 120 136q58 0 89.5 -35t31.5 -101q0 -64 -32 -99.5t-89 -35.5q-52 0 -86 31.5t-34 103.5z
" />
    <glyph glyph-name="fraction" unicode="&#x2044;" horiz-adv-x="266" 
d="M655 1462l-903 -1462h-143l903 1462h143z" />
    <glyph glyph-name="zerosuperior" unicode="&#x2070;" horiz-adv-x="711" 
d="M176 1024q0 -168 41 -251t135 -83t137 82.5t43 253.5q0 170 -43 252t-137 82t-135 -82.5t-41 -253.5zM670 1026q0 -457 -316 -457q-158 0 -236.5 118t-78.5 339q0 453 315 453q158 0 237 -116t79 -337z" />
    <glyph glyph-name="foursuperior" unicode="&#x2074;" horiz-adv-x="711" 
d="M692 788h-125v-202h-145v202h-402v101l408 579h139v-563h125v-117zM422 905v195q0 134 6 209q-5 -12 -17 -31.5t-27 -42l-30 -45t-26 -39.5l-168 -246h262z" />
    <glyph glyph-name="fivesuperior" unicode="&#x2075;" horiz-adv-x="711" 
d="M328 1128q145 0 233 -71.5t88 -194.5q0 -140 -85 -217.5t-251 -77.5q-74 0 -143.5 15.5t-110.5 38.5v131q56 -34 126 -53t124 -19q95 0 150 41.5t55 130.5q0 78 -54.5 122t-156.5 44q-57 0 -95 -8.5t-69 -16.5l-59 41l33 416h495v-104h-381l-20 -230q62 12 121 12z" />
    <glyph glyph-name="sixsuperior" unicode="&#x2076;" horiz-adv-x="711" 
d="M41 963q0 261 109.5 388.5t328.5 127.5q74 0 123 -15v-114q-52 18 -135 18q-141 0 -216 -76.5t-85 -242.5h8q29 43 85.5 72.5t141.5 29.5q125 0 199 -74t74 -200q0 -144 -83 -226t-224 -82q-153 0 -239.5 105t-86.5 289zM365 680q81 0 130.5 46.5t49.5 145.5
q0 79 -44 124.5t-130 45.5q-85 0 -141 -45t-56 -104q0 -89 53 -151t138 -62z" />
    <glyph glyph-name="sevensuperior" unicode="&#x2077;" horiz-adv-x="711" 
d="M162 586l350 760h-455v116h598v-94l-352 -782h-141z" />
    <glyph glyph-name="eightsuperior" unicode="&#x2078;" horiz-adv-x="711" 
d="M356 1479q124 0 199.5 -59t75.5 -163q0 -130 -148 -206q176 -74 176 -232q0 -113 -82.5 -181.5t-220.5 -68.5q-146 0 -225.5 64t-79.5 180q0 69 36.5 127t121.5 104q-74 46 -102.5 92.5t-28.5 114.5q0 102 78.5 165t199.5 63zM182 813q0 -60 42 -96.5t128 -36.5
q90 0 132 36.5t42 96.5q0 63 -46.5 102.5t-127.5 67.5l-28 10q-72 -34 -107 -76t-35 -104zM354 1370q-68 0 -105.5 -30t-37.5 -87q0 -47 34 -82.5t115 -68.5q140 54 140 151q0 57 -39 87t-107 30z" />
    <glyph glyph-name="ninesuperior" unicode="&#x2079;" horiz-adv-x="711" 
d="M668 1094q0 -270 -109 -397.5t-321 -127.5q-83 0 -132 15v116q49 -20 142 -20q276 0 297 326h-10q-35 -51 -93 -77t-123 -26q-131 0 -207.5 73t-76.5 204q0 136 84.5 218.5t220.5 82.5q152 0 240 -101t88 -286zM340 1370q-81 0 -128.5 -47.5t-47.5 -134.5
q0 -81 42.5 -128.5t129.5 -47.5q84 0 141.5 42.5t57.5 104.5q0 97 -51.5 154t-143.5 57z" />
    <glyph glyph-name="nsuperior" unicode="&#x207f;" horiz-adv-x="807" 
d="M588 801v420q0 84 -39 119.5t-119 35.5q-114 0 -159.5 -52.5t-45.5 -174.5v-348h-116v665h96l14 -88h10q75 101 220 101q258 0 258 -250v-428h-119z" />
    <glyph glyph-name="franc" unicode="&#x20a3;" 
d="M440 395h308v-129h-308v-266h-166v266h-176v129h176v1067h785v-151h-619v-535h580v-151h-580v-230z" />
    <glyph glyph-name="afii08941" unicode="&#x20a4;" 
d="M688 1481q201 0 359 -80l-60 -131q-152 71 -299 71q-122 0 -185 -67.5t-63 -196.5v-186h420v-129h-420v-166h420v-129h-420v-33q0 -100 -32.5 -168t-106.5 -112h795v-154h-1028v141q206 48 206 291v35h-200v129h200v166h-200v129h200v207q0 178 112 280.5t302 102.5z" />
    <glyph glyph-name="peseta" unicode="&#x20a7;" horiz-adv-x="1563" 
d="M1358 117q34 0 77 7t54 11v-125q-60 -30 -170 -30q-109 0 -173.5 68t-64.5 206v463h-157v80l157 69l62 191h98v-211h221v-129h-221v-441q0 -77 26 -118t91 -41zM926 1036q0 -227 -138.5 -344t-404.5 -117h-64v-575h-165v1462h262q256 0 383 -105.5t127 -320.5zM319 721
h52q200 0 292.5 72.5t92.5 234.5q0 145 -86 216t-269 71h-82v-594z" />
    <glyph glyph-name="uni20AB" unicode="&#x20ab;" horiz-adv-x="1255" 
d="M922 147h-9q-115 -167 -344 -167q-215 0 -334.5 147t-119.5 418t120 421t334 150q223 0 342 -162h13q-11 83 -11 156v133h-448v129h448v184h166v-184h156v-129h-156v-1243h-135zM590 119q170 0 246.5 92.5t76.5 298.5v35q0 233 -77.5 332.5t-247.5 99.5
q-146 0 -223.5 -113.5t-77.5 -320.5q0 -210 77 -317t226 -107zM1102 -315h-926v131h926v-131z" />
    <glyph glyph-name="Euro" unicode="&#x20ac;" horiz-adv-x="1208" 
d="M795 1333q-319 0 -398 -403h510v-129h-524l-2 -57v-64l2 -45h463v-129h-447q37 -180 138.5 -278.5t271.5 -98.5q156 0 309 66v-150q-146 -65 -317 -65q-237 0 -381.5 134.5t-190.5 391.5h-166v129h152l-2 42v44l2 80h-152v129h164q39 261 185 407t383 146q201 0 366 -97
l-71 -139q-166 86 -295 86z" />
    <glyph glyph-name="afii61248" unicode="&#x2105;" horiz-adv-x="1688" 
d="M1311 1462l-811 -1462h-148l811 1462h148zM1546 334q0 -159 -84.5 -250.5t-232.5 -91.5q-139 0 -224 92.5t-85 249.5q0 158 83.5 250t231.5 92q141 0 226 -93t85 -249zM1055 334q0 -238 178 -238q176 0 176 238q0 235 -176 235q-178 0 -178 -235zM489 788
q-166 0 -257 88.5t-91 249.5q0 168 94 257.5t265 89.5q104 0 192 -35l-33 -103q-81 31 -161 31q-224 0 -224 -238q0 -235 220 -235q98 0 188 33v-101q-78 -37 -193 -37z" />
    <glyph glyph-name="afii61289" unicode="&#x2113;" horiz-adv-x="1065" 
d="M637 111q174 0 192 213h95q-8 -166 -84.5 -255t-218.5 -89q-150 0 -230 90.5t-80 259.5v243q-96 -35 -192 -57v113q78 21 192 59v498q0 138 75 217.5t210 79.5q117 0 184.5 -80.5t67.5 -218.5q0 -185 -103 -337t-278 -226v-283q0 -104 41 -165.5t129 -61.5zM723 1178
q0 194 -127 194q-67 0 -98 -43t-31 -151v-437q256 137 256 437z" />
    <glyph glyph-name="afii61352" unicode="&#x2116;" horiz-adv-x="2087" 
d="M1223 0h-187l-692 1227h-8q16 -288 16 -396v-831h-151v1462h194l682 -1222h8q-14 245 -14 383v839h152v-1462zM1987 621q0 -163 -80.5 -255t-227.5 -92q-139 0 -220 93.5t-81 253.5q0 163 80.5 253.5t227.5 90.5q139 0 220 -93.5t81 -250.5zM1509 621q0 -114 40.5 -173
t133.5 -59q91 0 130.5 58.5t39.5 173.5t-39.5 171t-130.5 56q-92 0 -133 -56t-41 -171zM1423 0v135h512v-135h-512z" />
    <glyph glyph-name="uni2120" unicode="&#x2120;" horiz-adv-x="1626" 
d="M584 940q0 -98 -74.5 -152.5t-198.5 -54.5q-145 0 -219 33v108q106 -40 225 -40q148 0 148 100q0 33 -11.5 53t-38.5 36.5t-112 47.5q-120 44 -160.5 89.5t-40.5 121.5q0 86 71 138.5t181 52.5q125 0 217 -39l-34 -99q-100 37 -183 37q-60 0 -97.5 -23t-37.5 -63
q0 -29 9 -47t30.5 -32t116.5 -50q129 -50 169 -95t40 -122zM1006 741l-201 559h-8l6 -129v-430h-119v721h188l195 -559l203 559h180v-721h-127v420l6 137h-8l-211 -557h-104z" />
    <glyph glyph-name="trademark" unicode="&#x2122;" horiz-adv-x="1589" 
d="M369 741h-123v615h-209v106h543v-106h-211v-615zM969 741l-201 559h-8l6 -129v-430h-119v721h187l196 -559l203 559h180v-721h-127v420l6 137h-8l-211 -557h-104z" />
    <glyph glyph-name="Omega" unicode="&#x2126;" horiz-adv-x="1602" 
d="M801 1333q-238 0 -363 -128.5t-125 -381.5q0 -225 86.5 -391.5t266.5 -298.5v-133h-586v152h364q-151 118 -231 293t-80 378q0 310 177 486t491 176q315 0 492 -173.5t177 -486.5q0 -207 -79 -380t-230 -293h363v-152h-586v133q183 134 267.5 301t84.5 389
q0 252 -124.5 381t-364.5 129z" />
    <glyph glyph-name="estimated" unicode="&#x212e;" horiz-adv-x="1268" 
d="M633 -35q-157 0 -277.5 73.5t-187 204t-66.5 287.5q0 171 69 298.5t191 197.5t271 70q152 0 273.5 -71t189 -200.5t67.5 -294.5h-827v-356q49 -53 132 -88t165 -35q131 0 222.5 52.5t172.5 181.5l72 -41q-98 -155 -206.5 -217t-260.5 -62zM932 616v277q-50 53 -131.5 86
t-169.5 33q-173 0 -295 -117v-279h596z" />
    <glyph glyph-name="oneeighth" unicode="&#x215b;" horiz-adv-x="1597" 
d="M1259 1462l-903 -1462h-143l903 1462h143zM333 1462h143v-876h-133v579q0 91 6 181q-22 -22 -49 -44.5t-162 -117.5l-67 96zM1220 890q124 0 199.5 -59t75.5 -163q0 -130 -148 -206q176 -74 176 -232q0 -113 -82.5 -181.5t-220.5 -68.5q-146 0 -225.5 64t-79.5 180
q0 69 36.5 127t121.5 104q-74 46 -102.5 92.5t-28.5 114.5q0 102 78.5 165t199.5 63zM1046 224q0 -60 42 -96.5t128 -36.5q90 0 132 36.5t42 96.5q0 63 -46.5 102.5t-127.5 67.5l-28 10q-72 -34 -107 -76t-35 -104zM1218 781q-68 0 -105.5 -30t-37.5 -87q0 -47 34 -82.5
t115 -68.5q140 54 140 151q0 57 -39 87t-107 30z" />
    <glyph glyph-name="threeeighths" unicode="&#x215c;" horiz-adv-x="1597" 
d="M1329 1462l-903 -1462h-143l903 1462h143zM1241 890q124 0 199.5 -59t75.5 -163q0 -130 -148 -206q176 -74 176 -232q0 -113 -82.5 -181.5t-220.5 -68.5q-146 0 -225.5 64t-79.5 180q0 69 36.5 127t121.5 104q-74 46 -102.5 92.5t-28.5 114.5q0 102 78.5 165t199.5 63z
M1067 224q0 -60 42 -96.5t128 -36.5q90 0 132 36.5t42 96.5q0 63 -46.5 102.5t-127.5 67.5l-28 10q-72 -34 -107 -76t-35 -104zM1239 781q-68 0 -105.5 -30t-37.5 -87q0 -47 34 -82.5t115 -68.5q140 54 140 151q0 57 -39 87t-107 30zM626 1255q0 -80 -41 -131.5t-109 -74.5
q176 -47 176 -209q0 -128 -92 -199.5t-260 -71.5q-152 0 -268 56v123q147 -68 270 -68q211 0 211 162q0 145 -231 145h-117v107h119q103 0 152.5 39.5t49.5 107.5q0 61 -40 95t-107 34q-66 0 -122 -21.5t-112 -56.5l-69 90q63 45 133 72t164 27q136 0 214.5 -59.5
t78.5 -166.5z" />
    <glyph glyph-name="fiveeighths" unicode="&#x215d;" horiz-adv-x="1597" 
d="M1323 1462l-903 -1462h-143l903 1462h143zM340 1128q145 0 233 -71.5t88 -194.5q0 -140 -85 -217.5t-251 -77.5q-74 0 -143.5 15.5t-110.5 38.5v131q56 -34 126 -53t124 -19q95 0 150 41.5t55 130.5q0 78 -54.5 122t-156.5 44q-57 0 -95 -8.5t-69 -16.5l-59 41l33 416
h495v-104h-381l-20 -230q62 12 121 12zM1237 890q124 0 199.5 -59t75.5 -163q0 -130 -148 -206q176 -74 176 -232q0 -113 -82.5 -181.5t-220.5 -68.5q-146 0 -225.5 64t-79.5 180q0 69 36.5 127t121.5 104q-74 46 -102.5 92.5t-28.5 114.5q0 102 78.5 165t199.5 63z
M1063 224q0 -60 42 -96.5t128 -36.5q90 0 132 36.5t42 96.5q0 63 -46.5 102.5t-127.5 67.5l-28 10q-72 -34 -107 -76t-35 -104zM1235 781q-68 0 -105.5 -30t-37.5 -87q0 -47 34 -82.5t115 -68.5q140 54 140 151q0 57 -39 87t-107 30z" />
    <glyph glyph-name="seveneighths" unicode="&#x215e;" horiz-adv-x="1597" 
d="M1237 1462l-903 -1462h-143l903 1462h143zM1233 890q124 0 199.5 -59t75.5 -163q0 -130 -148 -206q176 -74 176 -232q0 -113 -82.5 -181.5t-220.5 -68.5q-146 0 -225.5 64t-79.5 180q0 69 36.5 127t121.5 104q-74 46 -102.5 92.5t-28.5 114.5q0 102 78.5 165t199.5 63z
M1059 224q0 -60 42 -96.5t128 -36.5q90 0 132 36.5t42 96.5q0 63 -46.5 102.5t-127.5 67.5l-28 10q-72 -34 -107 -76t-35 -104zM1231 781q-68 0 -105.5 -30t-37.5 -87q0 -47 34 -82.5t115 -68.5q140 54 140 151q0 57 -39 87t-107 30zM211 586l350 760h-455v116h598v-94
l-352 -782h-141z" />
    <glyph glyph-name="partialdiff" unicode="&#x2202;" horiz-adv-x="1190" 
d="M1077 934q0 -262 -83.5 -491.5t-221.5 -346t-311 -116.5q-172 0 -265.5 100.5t-93.5 292.5q0 169 68 322.5t184 234t267 80.5q97 0 170 -46.5t116 -121.5l4 90q0 405 -282 405q-62 0 -134 -22t-120 -55v159q47 23 124.5 41.5t151.5 18.5q210 0 318 -138t108 -407z
M471 121q95 0 178 72t143 201.5t82 279.5q-25 97 -89 151t-144 54q-101 0 -183.5 -66t-133 -191t-50.5 -253q0 -118 50.5 -183t146.5 -65z" />
    <glyph glyph-name="Delta" unicode="&#x2206;" 
d="M39 104l463 1358h166l465 -1360v-102h-1094v104zM584 1268q-61 -225 -101 -346l-260 -770h721l-258 761q-68 202 -102 355z" />
    <glyph glyph-name="product" unicode="&#x220f;" horiz-adv-x="1513" 
d="M1143 -496v1805h-772v-1805h-170v1958h1112v-1958h-170z" />
    <glyph glyph-name="summation" unicode="&#x2211;" horiz-adv-x="1292" 
d="M76 -496v107l631 924l-615 819v108h1088v-151h-848l579 -772l-604 -883h938v-152h-1169z" />
    <glyph glyph-name="minus" unicode="&#x2212;" 
d="M104 653v138h961v-138h-961z" />
    <glyph glyph-name="radical" unicode="&#x221a;" horiz-adv-x="1124" 
d="M623 -14h-127l-279 782h-180v135h289l235 -684l514 1469h137z" />
    <glyph glyph-name="infinity" unicode="&#x221e;" horiz-adv-x="1444" 
d="M1325 719q0 -131 -83.5 -223.5t-211.5 -92.5q-93 0 -169.5 53t-141.5 169q-60 -104 -136.5 -160.5t-164.5 -56.5q-131 0 -215 86.5t-84 228.5q0 134 84 223.5t215 89.5q181 0 303 -219q124 215 309 215q133 0 214 -87.5t81 -225.5zM426 532q66 0 120.5 45.5t108.5 145.5
q-50 97 -104.5 143.5t-126.5 46.5q-76 0 -126 -52.5t-50 -139.5q0 -83 48.5 -136t129.5 -53zM1018 909q-66 0 -120.5 -46t-109.5 -144q51 -97 106 -144t126 -47q76 0 126 53.5t50 137.5q0 85 -50.5 137.5t-127.5 52.5z" />
    <glyph glyph-name="integral" unicode="&#x222b;" horiz-adv-x="786" 
d="M637 1556q79 0 123 -16v-137q-49 22 -111 22q-176 0 -176 -243v-1311q0 -176 -82.5 -269.5t-245.5 -93.5q-74 0 -133 19v135q61 -22 119 -22q182 0 182 243v1311q0 362 324 362z" />
    <glyph glyph-name="approxequal" unicode="&#x2248;" 
d="M336 512q-54 0 -117.5 -32t-120.5 -89v150q108 110 256 110q67 0 123 -14t144 -51q77 -33 122.5 -45.5t90.5 -12.5q53 0 117 33t118 90v-151q-101 -109 -254 -109q-67 0 -122.5 14.5t-143.5 51.5q-73 30 -118.5 42.5t-94.5 12.5zM336 918q-57 0 -121 -34t-117 -87v149
q106 109 256 109q69 0 127 -16t140 -50q69 -29 116.5 -42t96.5 -13q55 0 119.5 33t115.5 88v-150q-100 -110 -254 -110q-69 0 -128 16t-138 49q-84 34 -126.5 46t-86.5 12z" />
    <glyph glyph-name="notequal" unicode="&#x2260;" 
d="M381 449h-277v137h340l127 272h-467v137h531l135 287l125 -57l-109 -230h279v-137h-342l-129 -272h471v-137h-535l-131 -283l-125 55z" />
    <glyph glyph-name="lessequal" unicode="&#x2264;" 
d="M1065 242l-961 422v98l961 479v-149l-782 -371l782 -328v-151zM104 1v138h961v-138h-961z" />
    <glyph glyph-name="greaterequal" unicode="&#x2265;" 
d="M104 393l783 326l-783 373v149l961 -479v-98l-961 -422v151zM104 1v138h961v-138h-961z" />
    <glyph glyph-name="null" unicode="&#x2400;" horiz-adv-x="0" 
 />
    <glyph glyph-name="lozenge" unicode="&#x25ca;" horiz-adv-x="1194" 
d="M111 735l450 740h72l452 -740l-452 -735h-72zM915 737l-317 531l-317 -531l317 -532z" />
    <glyph glyph-name="uniFE73" unicode="&#xfe73;" horiz-adv-x="613" 
d="M320 375q0 -67 56 -122.5t173 -55.5h74v-188h-137q-156 0 -254.5 98.5t-98.5 253.5v39h187v-25z" />
    <glyph glyph-name="uniFEFF" unicode="&#xfeff;" horiz-adv-x="0" 
 />
    <glyph glyph-name="uniFFFC" unicode="&#xfffc;" horiz-adv-x="2048" 
d="M84 1214v304h303v-111h-192v-193h-111zM1681 1407v111h304v-304h-109v193h-195zM84 -383v303h111v-194h192v-109h-303zM1681 -383v109h195v194h109v-303h-304zM1290 -383v109h273v-109h-273zM508 -383v109h270v-109h-270zM508 1407v111h270v-111h-270zM1985 39h-109v270
h109v-270zM1985 823h-109v271h109v-271zM899 -383v109h272v-109h-272zM195 39h-111v270h111v-270zM899 1407v111h272v-111h-272zM1290 1407v111h273v-111h-273zM195 430h-111v272h111v-272zM195 823h-111v271h111v-271zM1985 430h-109v272h109v-272zM864 629
q0 -145 -67.5 -223t-194.5 -78t-194.5 78t-67.5 223q0 146 67.5 223.5t194.5 77.5q126 0 194 -77t68 -224zM467 629q0 -197 135 -197t135 197q0 196 -135 196t-135 -196zM948 922h172q109 0 165 -33.5t56 -116.5q0 -49 -23 -82t-67 -41v-8q61 -14 84 -48t23 -87
q0 -81 -54.5 -125.5t-148.5 -44.5h-207v586zM1071 690h66q46 0 64 17t18 49q0 34 -21 48.5t-68 14.5h-59v-129zM1071 592v-154h74q49 0 67.5 21.5t18.5 58.5q0 74 -90 74h-70zM1491 330q-52 0 -80 10v102q43 -8 68 -8q86 0 86 86v402h125v-398q0 -95 -52.5 -144.5
t-146.5 -49.5z" />
    <glyph glyph-name="uniFFFD" unicode="&#xfffd;" horiz-adv-x="2048" 
d="M1022 1556l940 -938l-940 -937l-938 937zM1087 367v47q0 50 22 82.5t87 81.5q103 82 139.5 145t36.5 151q0 135 -93.5 212t-258.5 77q-79 0 -172 -28t-164 -70l82 -178q160 80 250 80q63 0 94 -29t31 -76q0 -53 -24.5 -90.5t-96.5 -91.5q-84 -68 -113.5 -124t-29.5 -130
v-59h210zM850 92q0 -63 35.5 -99t105.5 -36q66 0 102.5 36.5t36.5 98.5q0 64 -36 100.5t-103 36.5q-72 0 -106.5 -36t-34.5 -101z" />
    <glyph glyph-name="arabic_dot" horiz-adv-x="165" 
d="M113 200l83 -83q27 -26 1 -52l-87 -87q-28 -28 -55 0l-87 86q-26 27 3 56l81 81q30 30 61 -1z" />
    <glyph glyph-name="arabic_2dots" horiz-adv-x="485" 
d="M424 200l83 -83q26 -26 1 -52l-87 -87q-28 -28 -56 0l-87 86q-26 27 4 56l81 81q30 30 61 -1zM124 200l83 -83q26 -26 1 -52l-87 -87q-28 -28 -56 0l-87 86q-26 27 4 56l81 81q30 30 61 -1z" />
    <glyph glyph-name="arabic_3dots" horiz-adv-x="488" 
d="M425 187l83 -83q26 -26 0 -52l-86 -87q-28 -28 -56 0l-87 87q-26 26 3 55l81 81q31 30 62 -1zM125 187l83 -83q26 -26 0 -52l-86 -87q-28 -28 -56 0l-87 87q-26 26 3 55l81 81q31 30 62 -1zM275 425l83 -83q26 -26 0 -52l-87 -87q-27 -28 -55 0l-87 87q-26 26 3 55l81 81
q31 30 62 -1z" />
    <glyph glyph-name="arabic_3dots_a" horiz-adv-x="487" 
d="M424 209l83 -84q27 -26 1 -52l-87 -86q-28 -28 -55 -1l-87 87q-26 26 3 55l81 82q30 30 61 -1zM124 209l83 -84q27 -26 1 -52l-87 -86q-28 -28 -55 -1l-87 87q-26 26 3 55l81 82q30 30 61 -1zM274 -12l83 -83q27 -27 1 -52l-87 -87q-28 -28 -55 -1l-87 87q-26 26 3 56
l81 81q30 30 61 -1z" />
    <glyph glyph-name="arabic_ring" horiz-adv-x="470" 
d="M267 141q68 22 68 95q0 41 -29 70.5t-71 29.5t-70.5 -28.5t-28.5 -57t3 -41.5q18 -72 96 -72q17 0 32 4zM471 236.5q0 -98.5 -68 -167.5q-69 -69 -168 -69t-167 69t-68 167.5t68 167t167 68.5t168 -68q68 -69 68 -167.5z" />
    <glyph glyph-name="arabic_gaf_bar" horiz-adv-x="720" 
d="M712 1745l-712 -347v123l712 346v-122z" />
    <glyph glyph-name="uni066E.init.math" horiz-adv-x="935" 
d="M614 101q-78 -92 -248 -92h-370v177h308q233 0 233 242v230h177v-230q0 -206 -100 -327z" />
    <glyph glyph-name="NameMe.337" horiz-adv-x="658" 
d="M-4 185h73q193 0 183 242l-31 747l172 74v-820q0 -243 201 -243h71q48 0 48 -77v-34q0 -74 -48 -74h-80q-149 0 -257 114q-103 -114 -260 -114h-72q-48 0 -48 74v34q0 77 48 77z" />
    <glyph glyph-name="NameMe.338" horiz-adv-x="561" 
d="M-4 185h63q230 0 220 295l-30 858l174 76v-948q0 -246 -99 -356q-100 -110 -255 -110h-73q-48 0 -48 74v34q0 77 48 77z" />
    </font>
</defs>
</svg>
